<?xml version="1.0" encoding="utf-8"?>
<!-- Generator: Adobe Illustrator 19.2.0, SVG Export Plug-In . SVG Version: 6.00 Build 0)  -->
<svg version="1.1" id="ëÎÓÈ_1_1_" xmlns="http://www.w3.org/2000/svg" xmlns:xlink="http://www.w3.org/1999/xlink" x="0px"
	 y="0px" viewBox="0 0 1600 1200" style="enable-background:new 0 0 1600 1200;" xml:space="preserve">
<style type="text/css">
	.st0{fill:#FFFFFF;}
	.st1{fill:#F9F9F9;}
	.st2{fill:#FBE2C9;}
	.st3{fill:#E89B3E;}
	.st4{opacity:0.1;}
	.st5{fill:#020A36;}
	.st6{fill:#F0F9FC;}
	.st7{fill:#030B2D;}
	.st8{fill:#46608C;}
	.st9{fill:#6585CD;}
	.st10{fill:#DFE3ED;}
	.st11{fill:#D1D8E5;}
	.st12{opacity:0.18;}
	.st13{fill:#393F67;}
	.st14{fill:#272D52;}
	.st15{fill:#F9E280;}
</style>
<g id="XMLID_32_">
	<rect class="st0" width="1600" height="1200"/>
</g>
<g id="XMLID_148_">
	<g id="XMLID_161_">
		<path class="st1" d="M570.1,1047.9c-21-4.6-273.2-45.8-254.6-349.9s41.9-395.6,139.9-429c98-33.5,336.4-191.8,523.4-41.2
			s388.8,285.6,308.7,525.9c-80.1,240.4-93.2,320.6-302.1,308.3S669.9,1069.6,570.1,1047.9z"/>
	</g>
</g>
<g id="_x31_">
	<g id="XMLID_10_">
		<g id="XMLID_71_">
			<g id="XMLID_9_">
				<path class="st2" d="M907.8,455.7l-60.7-4.3c-9.9-0.7-17.3-9.3-16.6-19.2l6.7-95.7c0.7-9.9,9.3-17.3,19.2-16.6l60.7,4.3
					c9.9,0.7,17.3,9.3,16.6,19.2L927,439C926.3,448.9,917.7,456.4,907.8,455.7z"/>
			</g>
			<g id="XMLID_155_">
				<g id="XMLID_6_">
					<path class="st2" d="M1006.4,617.1c5.4-28.8,11.6-59.1,3.3-87.2c-3.2-10.9-11.5-19.1-18.7-27.9c-7-8.5-17.2-13.7-27.5-17.6
						c-10.3-3.9-21-6.8-30.8-12c-9.7-5.2-18.5-13.2-21.7-23.8l-72.4-13.5c-4.4,10.1-14.1,17-24.4,21.1c-10.3,4-21.3,5.7-32,8.4
						s-21.5,6.6-29.4,14.3c-8.2,7.9-17.4,15-21.8,25.5c-11.5,26.9-8.8,57.8-6.8,87l-1.8,52.9l278,28.9L1006.4,617.1z"/>
				</g>
				<g id="XMLID_5_">
					<path class="st0" d="M1006.4,617.1c5.4-28.8,11.6-59.1,3.3-87.2c-3.2-10.9-11.5-19.1-18.7-27.9c-7-8.5-17.2-13.7-27.5-17.6
						c-10.3-3.9-30.2-12.8-30.8-12c-5.8,7.9-43.8,32.7-52.3,38.3c-1.1,0.7-2,1.7-2.7,2.9l-2.1,3.9c-1.4,2.6-2.4,5.3-3.1,8.1
						l-5.8,22.9l-6.7-35.6c-0.5-2.4-1.6-4.7-3.2-6.5c-9.7-10.9-41.6-50.4-42.6-50c-2.1,0.9-21.3,5.7-32,8.4s-21.5,6.6-29.4,14.3
						c-8.2,7.9-17.4,15-21.8,25.5c-11.5,26.9-8.8,57.8-6.8,87l-1.8,52.9l278,28.9L1006.4,617.1z"/>
				</g>
				<g id="XMLID_4_">
					<path class="st3" d="M928.5,378.8c-0.1,1.7-0.1,3.4-0.2,5.1c-0.9,17.2-4.2,36.3-16.2,49.5c-12.9,14.2-34.4,19.3-51.8,10.6
						c-23.1-11.5-24.7-40.1-25.7-62.8c-0.3-0.2,1-14.9,1-21.6c0-2.4-0.8-2.2-1-2.2c-0.7,0-3.2,23.6-3.3,24.2
						c-0.3,1.1-0.3,2.2-0.5,3.3c-2,18.9-2.4,36.7-1.6,55.5c0.7,15.1-1.1,28.5,12.4,39.3c15,12,52.3,17.9,69.3,7.6
						c14.1-8.5,11.2-23.8,14.4-37.6c4.3-18.3,6.9-37.7,9.5-56.3c1.7-11.8,2.2-24-1-35.5c0.5,1.6-3.9,9.9-4.4,12.2
						C928.7,373,928.6,375.9,928.5,378.8z"/>
				</g>
				<g id="XMLID_45_" class="st4">
					<path id="XMLID_115_" class="st5" d="M924.7,379.3l0.1-0.2l0.1-0.2l10.1-13l-9.8,3.2l-92.7,1.7l-1.9,16l-0.6,6.8l0,0
						c-0.2,2.4,1.6,4.5,3.9,4.9l50.3,6.6c12,0.6,24.4-9.4,28.5-13.5C916.7,387.4,920.7,383.3,924.7,379.3z"/>
				</g>
				<g id="XMLID_25_">
					<path class="st5" d="M935,365.8l-100.1-10.2l2.2-21.5c2.4-23.4,23.3-40.4,46.7-38.1l15.4,1.6c23.4,2.4,40.4,23.3,38.1,46.7
						L935,365.8z"/>
				</g>
				<g id="XMLID_26_">
					<path id="XMLID_116_" class="st6" d="M901.3,356.3c-0.6-1.2-0.9-2.5-0.7-3.7c0-0.2,0.1-0.4,0.1-0.7c0,0,0,0-0.1,0
						c-1.4,0.3-2.9-0.4-3.6-1.6c-0.6,0.4-1.4,0.6-2.1,0.7c-1.8,0.2-3.7-0.6-4.9-2c-1.9,0.4-4,0.1-5.8-0.4c-3.1,3-7.3,5-11.8,5.1
						c-7.7,0.2-15.1-5.2-17.3-12.5c-0.8-2.8-1-5.8-0.4-8.7c0.9-5,3.8-9.5,7.9-12.4c4.1-2.9,9.3-4.1,14.3-3.3
						c1.1,0.2,2.5,0.5,3.7,1.4c1.2,0.9,1.9,2.4,1.6,3.7l-1-0.2c0.2-1.1-0.5-2.1-1.2-2.7c-0.8-0.6-1.8-1-3.2-1.2
						c-4.7-0.8-9.7,0.4-13.6,3.2c-3.9,2.8-6.6,7-7.5,11.8c-0.5,2.8-0.4,5.6,0.4,8.2c2.1,6.9,9.1,12,16.4,11.8
						c4-0.1,7.8-1.8,10.7-4.5c-2.2-0.7-4.7-1.8-5.7-4.1c-0.6-1.5-0.5-3.3,0.2-4.9c0.8-1.6,2.1-2.9,3-3.8c2.8-2.6,5.6-2.9,7.5-1
						c0.9,0.9,1.3,2.3,1.2,3.7c-0.4,3.6-2,7-4.4,9.6c1.4,0.4,2.9,0.6,4.3,0.4c-0.1-0.3-0.3-0.5-0.3-0.8c-0.4-1.2-0.3-2.5,0.3-3.4
						c0.7-1.1,2.2-1.6,3.3-1c1,0.5,1.5,1.9,1.1,3.1c-0.3,1-1,1.8-2.1,2.4c-0.2,0.1-0.4,0.2-0.7,0.3c1,1,2.4,1.5,3.7,1.4
						c0.7-0.1,1.3-0.3,1.9-0.7c-0.3-1.7,0.8-3.5,2.5-3.8l0.7-0.2l-0.1,0.7c-0.1,1.4-0.9,2.7-1.9,3.7c0.5,0.9,1.6,1.5,2.6,1.3
						c0.2,0,0.4-0.1,0.5-0.2c0.3-1,0.7-2,1.3-2.9l0.6-1l0.3,1.2c0.3,1.3-0.3,2.6-1.3,3.4c-0.1,0.4-0.2,0.9-0.2,1.3
						c-0.1,1,0.1,2.1,0.6,3.1L901.3,356.3z M898.6,346.9c-0.5,0.4-0.9,1-1,1.6C898.1,348,898.4,347.5,898.6,346.9z M891.6,343.7
						c-0.5,0-1.1,0.3-1.4,0.8c-0.4,0.6-0.5,1.6-0.2,2.5c0.1,0.3,0.2,0.6,0.4,0.9c0.3-0.1,0.6-0.2,0.8-0.4c0.5-0.3,1.3-0.8,1.6-1.8
						c0.2-0.7-0.1-1.6-0.7-1.9C892,343.7,891.8,343.7,891.6,343.7z M885.5,334.2c-1.6,0-3.2,1.3-4,2c-1.4,1.2-2.2,2.3-2.8,3.5
						c-0.7,1.4-0.7,2.9-0.2,4.1c0.9,2,3.3,3,5.3,3.6c0.1,0,0.2,0.1,0.3,0.1c2.5-2.6,4.1-5.9,4.5-9.4c0.1-1.1-0.2-2.2-0.9-2.9
						C886.9,334.4,886.2,334.2,885.5,334.2z"/>
				</g>
				<g id="XMLID_18_">
					<path class="st5" d="M834.9,355.6l-26.5,7.4c-2,0.6-1.8,3.6,0.3,3.8l37.9,6.2l26.7,3c0.9,0.1,1.8,0.2,2.7,0.2l26.5,1.6
						c5.7,0.6,10.9-2.4,16.1-4.7l16.3-7.3L834.9,355.6z"/>
				</g>
				<g id="XMLID_38_">
					<path class="st7" d="M932.7,365c-1,0.7-2.3,0.9-3.6,1c-2.1,0.2-4.3,0.3-6.3,0.9c-9.4,2.7-19.4,1.9-29.2,1
						c-6-0.5-11.9-1-17.9-1.6c-13.2-1.2-26.3-2.3-39.5-3.5c-1-0.1-2.1-0.2-3-0.6c-0.9-0.4-1.7-1.3-1.8-2.4c-0.1-1.8,1.8-2.8,3.4-3.5
						c11.8-4.9,25.4,2.3,38.1,3.3c19.9,1.6,39.7,3.1,59.6,4.7L932.7,365z"/>
				</g>
				<g id="XMLID_41_">
					<path class="st3" d="M857.8,449.8c1.8-3,4.7-4.9,7.9-5.8c3.1-0.9,6.4-1,9.7-0.9c3.4,0.1,6.9,0.4,10.1,1.7
						c3.2,1.3,6.1,3.6,7.6,6.9c0.8,1.8,1.3,3.9,3,4.7c1.6,0.7,3.5-0.4,4.8-1.6c2.6-2.5,4.5-5.7,5.4-9.3c0.9,0,1.7-1.1,1.6-2.1
						s-0.7-1.9-1.5-2.4c-0.8-0.5-1.7-0.8-2.7-1c-14.6-3.5-29.6-7-44.3-4.1c-2.8,0.6-5.7,1.5-7.7,3.7c-1.9,2.2-2.5,5.5-1.6,8.2
						c0.9,2.8,3.3,4.9,6,5.4L857.8,449.8z"/>
				</g>
				<g id="XMLID_3_">
					<g id="XMLID_70_">
						<path class="st8" d="M886.4,418.9c-4.5-0.1-9.1-0.3-13.6-0.4c0.3,0.3,0.6,0.5,0.9,0.8c1.5-7.4,2.9-14.8,4.4-22.2
							c0.3-1.3-2.7-0.9-2.9,0.3c-1.5,7.4-2.9,14.8-4.4,22.2c-0.1,0.5,0.5,0.8,0.9,0.8c4.5,0.1,9.1,0.3,13.6,0.4
							C886.6,420.8,888.4,418.9,886.4,418.9L886.4,418.9z"/>
					</g>
				</g>
				<g id="XMLID_27_" class="st4">
					<path id="XMLID_113_" class="st9" d="M797.7,492.2c0,1.3-0.1,3-0.7,4.3c-0.6,1.4-2.2,2.6-3.2,3.7c-1.1,1.2-2.2,2.4-3.6,3
						c-1.2,0.6-3,0.6-4.3,0.6c-5,0-11.1-3.8-11.4-9.1c-0.1-2-0.4-4.8,0.3-6.7c0.6-1.7,2.1-3.4,3.4-4.5c3.1-2.6,6.9-2.3,10.8-1.6
						c1.3,0.2,2.7,0.2,3.8,1c1,0.7,1.9,1.6,2.7,2.6C796.9,487.3,797.7,489.7,797.7,492.2z"/>
				</g>
				<g id="XMLID_42_" class="st4">
					<path id="XMLID_112_" class="st9" d="M832.2,517c0,1.3-0.1,3-0.7,4.3c-0.6,1.4-2.2,2.6-3.2,3.7c-1.1,1.2-2.2,2.4-3.6,3
						c-1.2,0.6-3,0.6-4.3,0.6c-5,0-11.1-3.8-11.4-9.1c-0.1-2-0.4-4.8,0.3-6.7c0.6-1.7,2.1-3.4,3.4-4.5c3.1-2.6,6.9-2.3,10.8-1.6
						c1.3,0.2,2.7,0.2,3.8,1c1,0.7,1.9,1.6,2.7,2.6C831.4,512.1,832.2,514.5,832.2,517z"/>
				</g>
				<g id="XMLID_43_" class="st4">
					<path id="XMLID_105_" class="st9" d="M786,535.4c0,1.3-0.1,3-0.7,4.3c-0.6,1.4-2.2,2.6-3.2,3.7c-1.1,1.2-2.2,2.4-3.6,3
						c-1.2,0.6-3,0.6-4.3,0.6c-5,0-11.1-3.8-11.4-9.1c-0.1-2-0.4-4.8,0.3-6.7c0.6-1.7,2.1-3.4,3.4-4.5c3.1-2.6,6.9-2.3,10.8-1.6
						c1.3,0.2,2.7,0.2,3.8,1c1,0.7,1.9,1.6,2.7,2.6C785.2,530.5,786,532.9,786,535.4z"/>
				</g>
				<g id="XMLID_44_" class="st4">
					<path id="XMLID_97_" class="st9" d="M829.9,562.1c0,1.3-0.1,3-0.7,4.3c-0.6,1.4-2.2,2.6-3.2,3.7c-1.1,1.2-2.2,2.4-3.6,3
						c-1.2,0.6-3,0.6-4.3,0.6c-5,0-11.1-3.8-11.4-9.1c-0.1-2-0.4-4.8,0.3-6.7c0.6-1.7,2.1-3.4,3.4-4.5c3.1-2.6,6.9-2.3,10.8-1.6
						c1.3,0.2,2.7,0.2,3.8,1c1,0.7,1.9,1.6,2.7,2.6C829.1,557.1,829.9,559.6,829.9,562.1z"/>
				</g>
				<g id="XMLID_47_" class="st4">
					<path id="XMLID_96_" class="st9" d="M947.7,501.6c0,1.3-0.1,3-0.7,4.3c-0.6,1.4-2.2,2.6-3.2,3.7c-1.1,1.2-2.2,2.4-3.6,3
						c-1.2,0.6-3,0.6-4.3,0.6c-5,0-11.1-3.8-11.4-9.1c-0.1-2-0.4-4.8,0.3-6.7c0.6-1.7,2.1-3.4,3.4-4.5c3.1-2.6,6.9-2.3,10.8-1.6
						c1.3,0.2,2.7,0.2,3.8,1c1,0.7,1.9,1.6,2.7,2.6C946.9,496.7,947.7,499.1,947.7,501.6z"/>
				</g>
				<g id="XMLID_48_" class="st4">
					<path id="XMLID_73_" class="st9" d="M915.8,541.3c0,1.3-0.1,3-0.7,4.3c-0.6,1.4-2.2,2.6-3.2,3.7c-1.1,1.2-2.2,2.4-3.6,3
						c-1.2,0.6-3,0.6-4.3,0.6c-5,0-11.1-3.8-11.4-9.1c-0.1-2-0.4-4.8,0.3-6.7c0.6-1.7,2.1-3.4,3.4-4.5c3.1-2.6,6.9-2.3,10.8-1.6
						c1.3,0.2,2.7,0.2,3.8,1c1,0.7,1.9,1.6,2.7,2.6C915,536.4,915.8,538.8,915.8,541.3z"/>
				</g>
				<g id="XMLID_49_" class="st4">
					<path id="XMLID_69_" class="st9" d="M968.4,553.8c0,1.3-0.1,3-0.7,4.3c-0.6,1.4-2.2,2.6-3.2,3.7c-1.1,1.2-2.2,2.4-3.6,3
						c-1.2,0.6-3,0.6-4.3,0.6c-5,0-11.1-3.8-11.4-9.1c-0.1-2-0.4-4.8,0.3-6.7c0.6-1.7,2.1-3.4,3.4-4.5c3.1-2.6,6.9-2.3,10.8-1.6
						c1.3,0.2,2.7,0.2,3.8,1c1,0.7,1.9,1.6,2.7,2.6C967.6,548.9,968.4,551.3,968.4,553.8z"/>
				</g>
				<g id="XMLID_50_" class="st4">
					<path id="XMLID_68_" class="st9" d="M998,524.2c0,1.3-0.1,3-0.7,4.3c-0.6,1.4-2.2,2.6-3.2,3.7c-1.1,1.2-2.2,2.4-3.6,3
						c-1.2,0.6-3,0.6-4.3,0.6c-5,0-11.1-3.8-11.4-9.1c-0.1-2-0.4-4.8,0.3-6.7c0.6-1.7,2.1-3.4,3.4-4.5c3.1-2.6,6.9-2.3,10.8-1.6
						c1.3,0.2,2.7,0.2,3.8,1c1,0.7,1.9,1.6,2.7,2.6C997.1,519.3,998,521.7,998,524.2z"/>
				</g>
			</g>
		</g>
		<g id="XMLID_106_">
			<g id="XMLID_114_">
				<g id="XMLID_154_">
					<path class="st10" d="M608.2,818.1l-262.2-0.4c-3.1,0-5.5-4.5-5.3-9.9l5.6-225.5c0.1-5.3,2.7-10.1,5.8-10.6l259.5-43.8
						c4.3-0.7,7.7,3.9,7.7,10.2l-3,268.3C616.1,812.7,612.5,818.1,608.2,818.1z"/>
				</g>
				<g id="XMLID_120_">
					<path class="st10" d="M608.1,819.5l-262.2-0.6c-3.5,0-6.2-5-6-11.2l5.6-225.4c0.1-6,3.1-11.4,6.5-12l259.5-44
						c4.8-0.8,8.7,4.3,8.6,11.5l-2.9,268.4C617.1,813.6,613,819.5,608.1,819.5z M352,572.8c-2.7,0.5-5,4.6-5.1,9.3l-5.6,225.7
						c-0.1,4.8,2,8.7,4.7,8.7l262.2,0.2c3.8,0,6.9-4.6,7-10.4l3-268.1c0.1-5.6-2.9-9.6-6.7-8.9L352,572.8z"/>
				</g>
			</g>
			<g id="XMLID_110_">
				<g id="XMLID_111_">
					<polygon class="st11" points="443.9,850.6 450.7,698.2 483.3,694.8 487.8,850.4 					"/>
				</g>
			</g>
			<g id="XMLID_109_">
				<path class="st0" d="M483.8,643.8c-0.1,14.8-7.7,27.7-16.7,28.8c-9,1.1-16.1-9.9-15.9-24.4c0.1-14.5,7.4-27.3,16.4-28.6
					C476.6,618.2,483.9,629,483.8,643.8z"/>
			</g>
			<g id="XMLID_107_">
				<polygon class="st11" points="495.8,856.9 436,856.9 436,850.6 495.9,850.4 				"/>
			</g>
			<g id="XMLID_74_" class="st12">
				<path id="XMLID_67_" class="st0" d="M489.1,643.1c-0.2,19.6-10.1,36.7-22.2,38.2c-11.9,1.4-21.3-13.1-21.1-32.3
					c0.2-19.2,9.9-36.2,21.7-38C479.6,609.1,489.3,623.5,489.1,643.1z"/>
			</g>
		</g>
		<path id="XMLID_1_" class="st13" d="M820.6,1021.7c-48.2-42.4-107.9-88.7-156.9-131.3c-3-2.6-3.7-6.9-1.7-10.3
			c2.4-4,50.7-66.1,52.9-70.5l172.2,5.9l-116.6,99.7l58.2,106.5H820.6z"/>
		<path id="XMLID_72_" class="st14" d="M911,1022.5c60.4-42.5,135.3-89,196.5-131.8c3.1-2.2,3.8-6.5,1.6-9.6
			c-3-4.1-101.3-62.7-104.1-67.1l-172.9,2.1l-0.9,16.1L973.4,916l-72.6,106.5H911z"/>
		<g id="XMLID_61_">
			<g id="XMLID_95_">
				<path class="st5" d="M378.7,862.5c8.8,0,17.7,0,26.5,0c23.9,0,47.7,0,71.6,0c35.5,0,71,0,106.5,0c43.2,0,86.4,0,129.6,0
					c47.3,0,94.6,0,141.9,0c47.7,0,95.5,0,143.2,0c44.5,0,89,0,133.6,0c37.7,0,75.5,0,113.2,0c27,0,53.9,0,80.9,0
					c12.9,0,25.7,0,38.6,0c0.5,0,1.1,0,1.6,0c2.1,0,5.4-0.6,6.3-2.8c0.9-2-0.8-3.5-2.8-3.5c-8.8,0-17.7,0-26.5,0
					c-23.9,0-47.7,0-71.6,0c-35.5,0-71,0-106.5,0c-43.2,0-86.4,0-129.6,0c-47.3,0-94.6,0-141.9,0c-47.7,0-95.5,0-143.2,0
					c-44.5,0-89,0-133.6,0c-37.7,0-75.5,0-113.2,0c-27,0-53.9,0-80.9,0c-12.9,0-25.7,0-38.6,0c-0.5,0-1.1,0-1.6,0
					c-2.1,0-5.4,0.6-6.3,2.8C375.1,861,376.7,862.5,378.7,862.5L378.7,862.5z"/>
			</g>
		</g>
		<g id="XMLID_128_">
			<path id="XMLID_123_" class="st2" d="M1051.8,454c7.3,34.3,15.8,68.3,23.2,102.6l-61.2,1.6c13.1-27.6,21.2-55.7,24.1-83.5
				l3.1-17.2l0.5-2L1051.8,454z"/>
			<path id="XMLID_122_" class="st2" d="M1036.7,460.5l0.3-19.3c0-0.9,0.6-1.6,1.4-1.7l1.8-0.3c0.9-0.1,1.7,0.5,1.8,1.5l2.2,17.7
				l0,0.2c0.1,0.9-0.5,1.8-1.4,1.9l-6.2,0.8L1036.7,460.5z"/>
			<path id="XMLID_125_" class="st2" d="M1043,457.5l0.3-19.3c0-0.9,0.6-1.6,1.4-1.7l1.8-0.3c0.9-0.1,1.7,0.5,1.8,1.5l2.2,17.7
				l0,0.2c0.1,0.9-0.5,1.8-1.4,1.9l-6.2,0.8L1043,457.5z"/>
			<path id="XMLID_126_" class="st2" d="M1048.9,449.6l0.9-26.6c0-1.2,0.7-2.1,1.5-2.1l1.8-0.1c0.9-0.1,1.7,0.9,1.8,2.3l1.7,24.6
				l0,0.3c0.1,1.3-0.6,2.4-1.5,2.5l-6.2,0.5L1048.9,449.6z"/>
			<path id="XMLID_142_" class="st2" d="M1039.7,463.4c4,1,8.1,1.3,12.1,0.9c1.5-0.1,3-0.4,4.2-1.3c1.3-0.9,2-2.5,2.3-4.1
				c1.3-5.6-1.7-12-6.8-14.3c-5.1-2.3-11.6-0.2-14.7,4.6c-1.4,2.3-2.1,5.1-1.7,7.7c0.4,2.7,1.9,5.2,4.1,6.6L1039.7,463.4z"/>
		</g>
		<g id="XMLID_100_">
			<g id="XMLID_40_">
				<g id="XMLID_101_">
					<path class="st10" d="M1095.3,818.9l-452.8-7.3c-6.6-0.1-11.9-5.6-11.8-12.2l4.2-262.8c0.1-6.6,5.6-11.9,12.2-11.8l452.8,7.3
						c6.6,0.1,11.9,5.6,11.8,12.2l-4.2,262.8C1107.4,813.7,1101.9,819,1095.3,818.9z"/>
				</g>
				<g id="XMLID_102_">
					<path class="st10" d="M1095.8,820.4L642,813c-7.1-0.1-12.8-6-12.7-13.1l4.3-263.8c0.1-7.1,6-12.8,13.1-12.7l453.8,7.3
						c7.1,0.1,12.8,6,12.7,13.1l-4.3,263.8C1108.9,814.8,1103,820.5,1095.8,820.4z M646.6,526.2c-5.5-0.1-10.1,4.3-10.2,9.9
						l-4.3,263.8c-0.1,5.5,4.3,10.1,9.9,10.2l453.8,7.3c5.5,0.1,10.1-4.3,10.2-9.9l4.3-263.8c0.1-5.5-4.3-10.1-9.9-10.2L646.6,526.2
						z"/>
				</g>
			</g>
			<g id="XMLID_60_">
				<g id="XMLID_62_">
					<polygon class="st11" points="830.2,849.9 839.7,685.4 897,685.4 906.6,849.9 					"/>
				</g>
			</g>
			<g id="XMLID_63_">
				<circle class="st0" cx="868.4" cy="630.9" r="28.7"/>
			</g>
			<g id="XMLID_65_">
				<rect x="816.1" y="849.9" class="st11" width="104.1" height="6.8"/>
			</g>
			<g id="XMLID_64_" class="st12">
				<circle id="XMLID_66_" class="st0" cx="868.4" cy="630.9" r="40.4"/>
			</g>
		</g>
		<g id="XMLID_78_">
			<g id="XMLID_99_">
				<g id="XMLID_218_">
					<path class="st10" d="M1132.9,839.9l161.2,3.4c1.9,0,4-2.5,4.7-5.7l30.3-137.5c0.8-3.4-0.1-6.6-2-7L1163.7,658
						c-2.8-0.6-5.6,2.4-6.3,6.6l-28.3,168.2C1128.5,836.7,1130.2,839.9,1132.9,839.9z"/>
				</g>
				<g id="XMLID_108_">
					<path class="st10" d="M1128.5,832.8l28.3-168.3c0.8-4.8,4-8.1,7.1-7.5l163.3,35.3c2.1,0.5,3.1,4,2.3,7.9l-30.3,137.5
						c-0.8,3.6-3.1,6.4-5.2,6.4l-161.2-3.3C1129.7,840.7,1127.8,837.2,1128.5,832.8z M1163.6,659c-2.4-0.5-4.9,2.1-5.5,5.8
						l-28.3,168.1c-0.6,3.4,0.9,6.1,3.3,6.2l161.2,3.6c1.6,0,3.5-2.2,4.1-5l30.3-137.6c0.7-3-0.1-5.8-1.8-6.1L1163.6,659z"/>
				</g>
			</g>
			<g id="XMLID_82_">
				<path class="st0" d="M1232.2,736.4c-1.9,9.3,1.2,17.5,6.8,18.3c5.5,0.8,11.5-5.8,13.4-14.9c1.9-9.1-1-17.4-6.5-18.4
					C1240.3,720.3,1234.1,727,1232.2,736.4z"/>
			</g>
			<g id="XMLID_80_" class="st12">
				<path id="XMLID_12_" class="st0" d="M1228.9,735.8c-2.5,12.3,1.6,23.1,9,24.2c7.3,1.1,15.3-7.7,17.8-19.7
					c2.6-12.1-1.3-23.1-8.6-24.5C1239.6,714.4,1231.4,723.4,1228.9,735.8z"/>
			</g>
		</g>
		<g id="XMLID_46_">
			<g id="XMLID_83_">
				<path class="st10" d="M1020.6,853.2c30.4,0,60.8,0,91.2,0c48.5,0,96.9,0,145.4,0c11.1,0,22.3,0,33.4,0c2.8,0,8-1.1,9.7-3.6
					c1.8-2.7-1.5-3-3.6-3c-30.4,0-60.8,0-91.2,0c-48.5,0-96.9,0-145.4,0c-11.1,0-22.3,0-33.4,0c-2.8,0-8,1.1-9.7,3.6
					C1015.3,852.9,1018.6,853.2,1020.6,853.2L1020.6,853.2z"/>
			</g>
		</g>
	</g>
	<g id="XMLID_11_">
		<path class="st14" d="M903.4,1021.8c1,0.1,2.1,0.5,2.9,0.7c3.2,0.7,6.5,1.3,9.7,2c5.4,1.1,11.4,1.2,16.1,4.5
			c0.4,0.3,0.7,0.5,0.9,0.9c1.1,1.8-0.3,4.4-1.9,5.3c-0.6,0.3-1.2,0.5-1.9,0.5c-2.3,0.3-4.7,0.2-6.9-0.4c-3.3-1.2-6.6-3.1-10-4
			c-1.7-0.5-3.4-0.9-5.1-1.4c-0.8-0.2-1.7-0.6-2.5-0.4c-0.7,0.2-1.1,0.9-1.6,1.3c-0.9,0.6-4.5,0.8-5.1-0.3c-0.6-1.1,0.4-2.3,0.8-3.2
			C899.9,1024.8,899.9,1021.4,903.4,1021.8z"/>
	</g>
	<g id="XMLID_28_">
		<path class="st13" d="M826.3,1019.6c-1,0.3-1.9,0.8-2.7,1.2c-3,1.3-6.1,2.5-9.2,3.8c-5.1,2.1-11,3.3-15,7.4
			c-0.3,0.3-0.6,0.6-0.7,1.1c-0.7,1.9,1.1,4.3,2.9,4.9c0.6,0.2,1.3,0.2,1.9,0.2c2.4-0.2,4.4-1.6,6.5-2.6c3-1.8,6.1-3.4,9.3-4.9
			c1.6-0.8,3.1-1.5,4.7-2.3c0.7-0.4,1.6-0.9,2.4-0.9c0.7,0,1.2,0.7,1.9,1c1,0.4,4.6,0,5-1.3c0.4-1.2-0.8-2.2-1.4-3
			C830.3,1022,829.6,1018.6,826.3,1019.6z"/>
	</g>
	<g id="XMLID_39_">
		<g id="XMLID_56_">
			<g id="XMLID_94_">
				<path class="st3" d="M565.8,288.9c29.9,0,59.9,0,89.8,0c4.3,0,8.5,0,12.8,0c1.7,0,5.7-0.7,6.4-2.5c0.8-1.9-0.6-2.4-2.5-2.4
					c-30,0-59.9,0-89.9,0c-4.3,0-8.5,0-12.8,0c-1.7,0-5.7,0.7-6.4,2.5C562.5,288.4,564,288.9,565.8,288.9L565.8,288.9z"/>
			</g>
		</g>
		<g id="XMLID_30_">
			<g id="XMLID_93_">
				<path class="st2" d="M482.1,288.9c18.9,0,37.9,0,56.8,0c1.7,0,5.7-0.7,6.4-2.5c0.8-1.9-0.6-2.4-2.5-2.4c-18.9,0-37.9,0-56.8,0
					c-1.7,0-5.7,0.7-6.4,2.5C478.9,288.4,480.3,288.9,482.1,288.9L482.1,288.9z"/>
			</g>
		</g>
		<g id="XMLID_59_">
			<g id="XMLID_92_">
				<path class="st2" d="M673.8,310.9c7.7,0,15.3,0,23,0c1.8,0,5.4-0.7,6.4-2.5c1-1.9-0.8-2.4-2.5-2.4c-7.7,0-15.3,0-23,0
					c-1.8,0-5.4,0.7-6.4,2.5C670.3,310.4,672.1,310.9,673.8,310.9L673.8,310.9z"/>
			</g>
		</g>
		<g id="XMLID_57_">
			<g id="XMLID_91_">
				<path class="st3" d="M584.4,310.9c22.1,0,44.2,0,66.4,0c1.7,0,5.7-0.7,6.4-2.5c0.8-1.9-0.6-2.4-2.5-2.4c-22.1,0-44.2,0-66.4,0
					c-1.7,0-5.7,0.7-6.4,2.5C581.1,310.4,582.5,310.9,584.4,310.9L584.4,310.9z"/>
			</g>
		</g>
		<g id="XMLID_29_">
			<g id="XMLID_84_">
				<path class="st2" d="M510.4,310.9c15.7,0,31.4,0,47.2,0c1.7,0,5.7-0.7,6.4-2.5c0.8-1.9-0.6-2.4-2.5-2.4c-15.7,0-31.4,0-47.2,0
					c-1.7,0-5.7,0.7-6.4,2.5C507.2,310.4,508.6,310.9,510.4,310.9L510.4,310.9z"/>
			</g>
		</g>
		<g id="XMLID_58_">
			<g id="XMLID_89_">
				<path class="st2" d="M638.2,332.9c25.8,0,51.6,0,77.4,0c1.7,0,5.7-0.7,6.4-2.5c0.8-1.9-0.6-2.4-2.5-2.4c-25.8,0-51.6,0-77.4,0
					c-1.7,0-5.7,0.7-6.4,2.5C635,332.4,636.4,332.9,638.2,332.9L638.2,332.9z"/>
			</g>
		</g>
		<g id="XMLID_31_">
			<g id="XMLID_88_">
				<path class="st2" d="M529.3,332.9c28.4,0,56.8,0,85.1,0c1.7,0,5.7-0.7,6.4-2.5c0.8-1.9-0.6-2.4-2.5-2.4c-28.4,0-56.8,0-85.1,0
					c-1.7,0-5.7,0.7-6.4,2.5C526,332.4,527.4,332.9,529.3,332.9L529.3,332.9z"/>
			</g>
		</g>
		<g id="XMLID_76_">
			<g id="XMLID_87_">
				<path class="st3" d="M619.6,354.9c36.3,0,72.7,0,109,0c5.1,0,10.2,0,15.3,0c1.7,0,5.7-0.7,6.4-2.5c0.8-1.9-0.6-2.4-2.5-2.4
					c-36.3,0-72.7,0-109,0c-5.1,0-10.2,0-15.3,0c-1.7,0-5.7,0.7-6.4,2.5C616.3,354.4,617.7,354.9,619.6,354.9L619.6,354.9z"/>
			</g>
		</g>
		<g id="XMLID_33_">
			<g id="XMLID_86_">
				<path class="st2" d="M557.6,354.9c12.4,0,24.7,0,37.1,0c1.7,0,5.7-0.7,6.4-2.5c0.8-1.9-0.6-2.4-2.5-2.4c-12.4,0-24.7,0-37.1,0
					c-1.7,0-5.7,0.7-6.4,2.5C554.3,354.4,555.7,354.9,557.6,354.9L557.6,354.9z"/>
			</g>
		</g>
		<g id="XMLID_75_">
			<g id="XMLID_85_">
				<path class="st2" d="M539.2,387.9c37.4,0,74.8,0,112.1,0c5.2,0,10.4,0,15.7,0c1.7,0,5.7-0.7,6.4-2.5c0.8-1.9-0.6-2.4-2.5-2.4
					c-37.4,0-74.8,0-112.1,0c-5.2,0-10.4,0-15.7,0c-1.7,0-5.7,0.7-6.4,2.5C536,387.4,537.4,387.9,539.2,387.9L539.2,387.9z"/>
			</g>
		</g>
		<g id="XMLID_35_">
			<g id="XMLID_53_">
				<path class="st3" d="M482.1,387.9c12.2,0,24.4,0,36.6,0c1.7,0,5.7-0.7,6.4-2.5c0.8-1.9-0.6-2.4-2.5-2.4c-12.2,0-24.4,0-36.6,0
					c-1.7,0-5.7,0.7-6.4,2.5C478.9,387.4,480.3,387.9,482.1,387.9L482.1,387.9z"/>
			</g>
		</g>
		<g id="XMLID_90_">
			<g id="XMLID_24_">
				<path class="st2" d="M657.2,409.9c12.7,0,25.4,0,38.1,0c1.7,0,5.7-0.7,6.4-2.5c0.8-1.9-0.6-2.4-2.5-2.4c-12.7,0-25.4,0-38.1,0
					c-1.7,0-5.7,0.7-6.4,2.5C654,409.4,655.4,409.9,657.2,409.9L657.2,409.9z"/>
			</g>
		</g>
		<g id="XMLID_36_">
			<g id="XMLID_23_">
				<path class="st2" d="M509,409.9c35.3,0,70.5,0,105.8,0c5,0,10,0,14.9,0c1.7,0,5.7-0.7,6.4-2.5c0.8-1.9-0.6-2.4-2.5-2.4
					c-35.3,0-70.5,0-105.8,0c-5,0-10,0-14.9,0c-1.7,0-5.7,0.7-6.4,2.5C505.8,409.4,507.2,409.9,509,409.9L509,409.9z"/>
			</g>
		</g>
		<g id="XMLID_79_">
			<g id="XMLID_22_">
				<path class="st2" d="M653.8,428.2c13.9,0,27.7,0,41.6,0c1.7,0,5.7-0.7,6.4-2.5c0.8-1.9-0.6-2.4-2.5-2.4c-13.9,0-27.7,0-41.6,0
					c-1.7,0-5.7,0.7-6.4,2.5C650.5,427.7,651.9,428.2,653.8,428.2L653.8,428.2z"/>
			</g>
		</g>
		<g id="XMLID_77_">
			<g id="XMLID_21_">
				<path class="st3" d="M574.7,428.2c21.8,0,43.5,0,65.3,0c1.7,0,5.7-0.7,6.4-2.5c0.8-1.9-0.6-2.4-2.5-2.4c-21.8,0-43.5,0-65.3,0
					c-1.7,0-5.7,0.7-6.4,2.5C571.5,427.7,572.9,428.2,574.7,428.2L574.7,428.2z"/>
			</g>
		</g>
		<g id="XMLID_55_">
			<g id="XMLID_20_">
				<path class="st2" d="M509,428.2c16.4,0,32.7,0,49.1,0c1.7,0,5.7-0.7,6.4-2.5c0.8-1.9-0.6-2.4-2.5-2.4c-16.4,0-32.7,0-49.1,0
					c-1.7,0-5.7,0.7-6.4,2.5C505.8,427.7,507.2,428.2,509,428.2L509,428.2z"/>
			</g>
		</g>
		<g id="XMLID_37_">
			<g id="XMLID_19_">
				<path class="st2" d="M480.7,458.8c20.9,0,41.8,0,62.7,0c33.5,0,67.1,0,100.6,0c7.7,0,15.3,0,23,0c1.7,0,5.7-0.7,6.4-2.5
					c0.8-1.9-0.6-2.4-2.5-2.4c-20.9,0-41.8,0-62.7,0c-33.5,0-67.1,0-100.6,0c-7.7,0-15.3,0-23,0c-1.7,0-5.7,0.7-6.4,2.5
					C477.5,458.4,478.9,458.8,480.7,458.8L480.7,458.8z"/>
			</g>
		</g>
	</g>
	<g id="XMLID_7_">
		<g id="XMLID_34_">
			<g id="XMLID_221_">
				<g id="XMLID_260_">
					<g id="XMLID_261_">
						<polygon class="st10" points="367.6,1045.9 358,1045.9 450.8,868.4 459.8,869.5 						"/>
					</g>
				</g>
				<g id="XMLID_258_">
					<g id="XMLID_259_">
						<polygon class="st10" points="563.2,1045.9 572.8,1045.9 480,868.4 471,869.5 						"/>
					</g>
				</g>
				<g id="XMLID_222_">
					<g id="XMLID_247_">
						<path class="st10" d="M492.4,865.6l-21.7,13.9c-2.2,1.4-7.6,1.4-9.8,0l-21.7-13.9c-2.2-1.4,0.5-3.1,4.9-3.1h43.4
							C491.9,862.5,494.6,864.2,492.4,865.6z"/>
					</g>
				</g>
			</g>
		</g>
		<g id="XMLID_54_">
			<g id="XMLID_17_">
				<path class="st10" d="M532.5,1049c26.9,0,53.8,0,80.7,0c2.3,0,7.8-3.4,3-3.4c-26.9,0-53.8,0-80.7,0
					C533.2,1045.6,527.7,1049,532.5,1049L532.5,1049z"/>
			</g>
		</g>
		<g id="XMLID_52_">
			<g id="XMLID_16_">
				<path class="st10" d="M317.6,1049.6c27.3,0,54.7,0,82,0c1.4,0,4.2-0.4,4.8-2.1c0.5-1.5-0.5-2.5-2.1-2.5c-27.3,0-54.7,0-82,0
					c-1.4,0-4.2,0.4-4.8,2.1C315,1048.6,316.1,1049.6,317.6,1049.6L317.6,1049.6z"/>
			</g>
		</g>
	</g>
	<g id="XMLID_51_">
		<g id="XMLID_15_">
			<path class="st10" d="M718.2,1050c34.8,0,69.7,0,104.5,0c55.2,0,110.4,0,165.6,0c12.8,0,25.5,0,38.3,0c4.2,0,5.5-5.5,0.6-5.5
				c-34.8,0-69.7,0-104.5,0c-55.2,0-110.4,0-165.6,0c-12.8,0-25.5,0-38.3,0C714.6,1044.5,713.3,1050,718.2,1050L718.2,1050z"/>
		</g>
	</g>
	<g id="XMLID_8_">
		<g id="XMLID_263_">
			<g id="XMLID_270_">
				<g id="XMLID_275_">
					<g id="XMLID_276_">
						<polygon class="st10" points="1112.2,1046.3 1102.6,1046.3 1195.5,868.9 1204.4,870 						"/>
					</g>
				</g>
				<g id="XMLID_273_">
					<g id="XMLID_274_">
						<polygon class="st10" points="1307.9,1046.3 1317.4,1046.3 1224.6,868.9 1215.6,870 						"/>
					</g>
				</g>
				<g id="XMLID_271_">
					<g id="XMLID_272_">
						<path class="st10" d="M1237.1,866.1l-21.7,13.9c-2.2,1.4-7.6,1.4-9.8,0l-21.7-13.9c-2.2-1.4,0.5-3.1,4.9-3.1h43.4
							C1236.5,863,1239.2,864.7,1237.1,866.1z"/>
					</g>
				</g>
			</g>
		</g>
		<g id="XMLID_98_">
			<g id="XMLID_14_">
				<path class="st10" d="M1268.7,1050.1c29.4,0,58.9,0,88.3,0c4.2,0,8.4,0,12.5,0c4.2,0,5.5-5.5,0.6-5.5c-29.4,0-58.9,0-88.3,0
					c-4.2,0-8.4,0-12.5,0C1265.1,1044.6,1263.8,1050.1,1268.7,1050.1L1268.7,1050.1z"/>
			</g>
		</g>
		<g id="XMLID_81_">
			<g id="XMLID_13_">
				<path class="st10" d="M1061.1,1050.1c25,0,50.1,0,75.1,0c3.6,0,7.3,0,10.9,0c4.2,0,5.5-5.5,0.6-5.5c-25,0-50.1,0-75.1,0
					c-3.6,0-7.3,0-10.9,0C1057.5,1044.6,1056.2,1050.1,1061.1,1050.1L1061.1,1050.1z"/>
			</g>
		</g>
	</g>
	<ellipse id="XMLID_127_" class="st15" cx="876.2" cy="448.6" rx="17.9" ry="7.7"/>
</g>
<ellipse id="XMLID_124_" class="st3" cx="875.7" cy="448.3" rx="8.3" ry="5.8"/>
</svg>
