<?xml version="1.0" encoding="utf-8"?>
<!-- Generator: Adobe Illustrator 19.2.0, SVG Export Plug-In . SVG Version: 6.00 Build 0)  -->
<svg version="1.1" id="Layer_1" xmlns="http://www.w3.org/2000/svg" xmlns:xlink="http://www.w3.org/1999/xlink" x="0px" y="0px"
	 viewBox="0 0 512 512" style="enable-background:new 0 0 512 512;" xml:space="preserve">
<style type="text/css">
	.st0{fill:#FFFFFF;}
	.st1{fill:#4A555F;}
	.st2{fill:#FFD552;}
	.st3{fill:#E89B3E;}
	.st4{fill:#C1DFF3;}
	.st5{fill:#F68F6F;}
</style>
<g>
	<g>
		<g>
			<g>
				<circle class="st0" cx="264" cy="253.1" r="88.3"/>
			</g>
		</g>
		<g>
			<g>
				<g>
					<path class="st1" d="M264,343.3c-49.7,0-90.1-40.4-90.1-90.1s40.4-90.1,90.1-90.1s90.1,40.4,90.1,90.1
						C354.1,302.8,313.7,343.3,264,343.3z M264,166.7c-47.7,0-86.5,38.8-86.5,86.5s38.8,86.5,86.5,86.5s86.5-38.8,86.5-86.5
						S311.7,166.7,264,166.7z"/>
				</g>
			</g>
			<g>
				<g>
					<path class="st1" d="M264,336.1c-1.2,0-2.5,0-3.7-0.1l0.2-3.7c1.2,0.1,2.4,0.1,3.6,0.1v3.7H264z M264.7,336.1v-3.7
						c1.2,0,2.4,0,3.6-0.1l0.2,3.7C267.2,336,265.9,336,264.7,336.1z M256.5,335.7c-1.2-0.1-2.5-0.3-3.7-0.4l0.5-3.6
						c1.2,0.2,2.4,0.3,3.6,0.4L256.5,335.7z M272.1,335.7l-0.4-3.6c1.2-0.1,2.4-0.3,3.5-0.4l0.5,3.6
						C274.6,335.4,273.4,335.5,272.1,335.7z M249.1,334.7c-1.2-0.2-2.5-0.5-3.7-0.8l0.8-3.6c1.2,0.3,2.3,0.5,3.5,0.7L249.1,334.7z
						 M279.6,334.6l-0.7-3.6c1.2-0.2,2.3-0.5,3.5-0.7l0.8,3.6C282,334.1,280.8,334.4,279.6,334.6z M241.8,333
						c-1.2-0.3-2.4-0.7-3.6-1.1l1.1-3.5c1.1,0.4,2.3,0.7,3.4,1L241.8,333z M286.8,332.9l-1-3.5c1.1-0.3,2.3-0.7,3.4-1.1l1.2,3.5
						C289.2,332.2,288,332.5,286.8,332.9z M234.7,330.7c-1.2-0.4-2.3-0.9-3.5-1.4l1.5-3.4c1.1,0.5,2.2,0.9,3.3,1.3L234.7,330.7z
						 M293.9,330.5l-1.3-3.4c1.1-0.4,2.2-0.9,3.3-1.4l1.5,3.3C296.3,329.5,295.1,330,293.9,330.5z M227.8,327.7
						c-1.1-0.5-2.2-1.1-3.3-1.7l1.7-3.2c1,0.6,2.1,1.1,3.2,1.6L227.8,327.7z M300.8,327.5l-1.6-3.3c1.1-0.5,2.1-1.1,3.2-1.7l1.8,3.2
						C303,326.3,301.9,326.9,300.8,327.5z M221.2,324.2c-1.1-0.6-2.1-1.3-3.2-2l2-3c1,0.7,2,1.3,3,1.9L221.2,324.2z M307.3,323.8
						l-1.9-3.1c1-0.6,2-1.3,3-1.9l2.1,3C309.4,322.5,308.4,323.2,307.3,323.8z M215,320c-1-0.7-2-1.5-3-2.3l2.3-2.8
						c0.9,0.7,1.9,1.5,2.8,2.2L215,320z M313.5,319.6l-2.2-2.9c1-0.7,1.9-1.5,2.8-2.2l2.3,2.8C315.5,318.1,314.5,318.9,313.5,319.6z
						 M209.2,315.3c-0.9-0.8-1.9-1.7-2.7-2.5l2.5-2.6c0.9,0.8,1.7,1.6,2.6,2.4L209.2,315.3z M319.3,314.9l-2.4-2.7
						c0.9-0.8,1.8-1.6,2.6-2.4l2.6,2.6C321.1,313.2,320.2,314.1,319.3,314.9z M203.8,310.1c-0.9-0.9-1.7-1.8-2.5-2.8l2.8-2.4
						c0.8,0.9,1.6,1.8,2.4,2.7L203.8,310.1z M324.6,309.7l-2.7-2.5c0.8-0.9,1.6-1.8,2.4-2.7l2.8,2.4
						C326.3,307.8,325.5,308.8,324.6,309.7z M198.9,304.4c-0.8-1-1.5-2-2.3-3l3-2.1c0.7,1,1.4,1.9,2.2,2.9L198.9,304.4z M329.5,304
						l-2.9-2.2c0.7-0.9,1.4-1.9,2.1-2.9l3,2.1C331,302,330.2,303,329.5,304z M194.5,298.4c-0.7-1-1.3-2.1-2-3.2l3.2-1.9
						c0.6,1,1.2,2,1.9,3L194.5,298.4z M333.8,297.9l-3.1-2c0.6-1,1.3-2,1.9-3.1l3.2,1.8C335.1,295.7,334.5,296.8,333.8,297.9z
						 M190.7,291.9c-0.6-1.1-1.1-2.2-1.7-3.3l3.3-1.6c0.5,1.1,1,2.1,1.6,3.2L190.7,291.9z M337.6,291.4l-3.2-1.7
						c0.6-1.1,1.1-2.1,1.6-3.2l3.3,1.5C338.7,289.1,338.2,290.3,337.6,291.4z M187.5,285.2c-0.5-1.1-0.9-2.3-1.4-3.5l3.4-1.3
						c0.4,1.1,0.9,2.2,1.3,3.3L187.5,285.2z M340.7,284.6l-3.4-1.4c0.5-1.1,0.9-2.2,1.3-3.3l3.4,1.2
						C341.7,282.2,341.2,283.4,340.7,284.6z M184.9,278.2c-0.4-1.2-0.7-2.4-1.1-3.6l3.5-0.9c0.3,1.2,0.6,2.3,1,3.4L184.9,278.2z
						 M343.3,277.5l-3.5-1.1c0.3-1.1,0.7-2.3,1-3.4l3.5,0.9C344,275.1,343.6,276.3,343.3,277.5z M183,270.9
						c-0.3-1.2-0.5-2.4-0.7-3.7l3.6-0.6c0.2,1.2,0.4,2.4,0.7,3.5L183,270.9z M345.2,270.3l-3.6-0.8c0.2-1.2,0.5-2.4,0.7-3.5l3.6,0.6
						C345.6,267.8,345.4,269,345.2,270.3z M181.7,263.6c-0.2-1.2-0.3-2.5-0.4-3.7l3.6-0.3c0.1,1.2,0.2,2.4,0.4,3.6L181.7,263.6z
						 M346.4,262.9l-3.6-0.4c0.1-1.2,0.3-2.4,0.3-3.6l3.7,0.3C346.6,260.4,346.5,261.6,346.4,262.9z M181.1,256.1c0-1-0.1-2-0.1-3
						v-0.8h3.7v0.7c0,1,0,1.9,0.1,2.8L181.1,256.1z M346.9,255.4l-3.7-0.1c0-0.7,0-1.5,0-2.2c0-0.5,0-0.9,0-1.4l3.7-0.1
						c0,0.5,0,1,0,1.4C346.9,253.9,346.9,254.7,346.9,255.4z M184.8,248.8l-3.7-0.2c0.1-1.2,0.2-2.5,0.3-3.7l3.6,0.4
						C185,246.4,184.9,247.6,184.8,248.8z M343.1,248.2c-0.1-1.2-0.2-2.4-0.3-3.6l3.6-0.4c0.1,1.2,0.2,2.5,0.3,3.7L343.1,248.2z
						 M185.6,241.7l-3.6-0.5c0.2-1.2,0.4-2.5,0.6-3.7l3.6,0.7C185.9,239.3,185.7,240.5,185.6,241.7z M342.4,241.1
						c-0.2-1.2-0.4-2.4-0.6-3.5l3.6-0.7c0.2,1.2,0.5,2.5,0.7,3.7L342.4,241.1z M186.9,234.7l-3.6-0.9c0.3-1.2,0.6-2.4,1-3.6l3.5,1
						C187.5,232.4,187.2,233.5,186.9,234.7z M341,234c-0.3-1.2-0.6-2.3-0.9-3.4l3.5-1c0.4,1.2,0.7,2.4,1,3.6L341,234z M188.9,227.8
						l-3.5-1.2c0.4-1.2,0.8-2.4,1.3-3.5l3.4,1.3C189.7,225.6,189.3,226.7,188.9,227.8z M338.9,227.2c-0.4-1.1-0.8-2.2-1.2-3.3
						l3.4-1.4c0.5,1.2,0.9,2.3,1.3,3.5L338.9,227.2z M191.5,221.1l-3.3-1.5c0.5-1.1,1-2.3,1.6-3.4l3.3,1.6
						C192.5,218.9,192,220,191.5,221.1z M336.3,220.6c-0.5-1.1-1-2.2-1.5-3.2l3.3-1.7c0.6,1.1,1.1,2.2,1.6,3.4L336.3,220.6z
						 M194.7,214.7l-3.2-1.8c0.6-1.1,1.2-2.2,1.9-3.2l3.1,1.9C195.9,212.6,195.3,213.7,194.7,214.7z M333,214.2
						c-0.6-1-1.2-2.1-1.8-3.1l3.1-1.9c0.7,1.1,1.3,2.1,1.9,3.2L333,214.2z M198.4,208.6l-3-2.1c0.7-1,1.4-2.1,2.2-3l2.9,2.2
						C199.8,206.6,199.1,207.6,198.4,208.6z M329.2,208.1c-0.7-1-1.4-1.9-2.1-2.9l2.9-2.2c0.8,1,1.5,2,2.2,3L329.2,208.1z
						 M202.7,202.9l-2.8-2.3c0.8-1,1.6-1.9,2.4-2.8l2.7,2.5C204.3,201.1,203.5,202,202.7,202.9z M324.9,202.4
						c-0.8-0.9-1.5-1.8-2.4-2.7l2.7-2.5c0.8,0.9,1.7,1.9,2.5,2.8L324.9,202.4z M207.5,197.6l-2.6-2.6c0.9-0.9,1.8-1.8,2.7-2.6
						l2.5,2.7C209.2,195.9,208.4,196.7,207.5,197.6z M320.1,197.2c-0.8-0.8-1.7-1.7-2.6-2.5l2.5-2.7c0.9,0.8,1.8,1.7,2.7,2.6
						L320.1,197.2z M212.8,192.7l-2.4-2.8c1-0.8,1.9-1.6,2.9-2.4l2.2,2.9C214.6,191.2,213.7,191.9,212.8,192.7z M314.8,192.3
						c-0.9-0.8-1.9-1.5-2.8-2.2l2.2-2.9c1,0.8,2,1.5,2.9,2.3L314.8,192.3z M218.4,188.3l-2.1-3c1-0.7,2.1-1.4,3.1-2.1l2,3.1
						C220.4,187,219.4,187.6,218.4,188.3z M309.1,188c-1-0.7-2-1.3-3-2l2-3.1c1,0.7,2.1,1.4,3.1,2.1L309.1,188z M224.4,184.5
						l-1.8-3.2c1.1-0.6,2.2-1.2,3.3-1.8l1.7,3.2C226.5,183.3,225.5,183.9,224.4,184.5z M303.1,184.2c-1-0.6-2.1-1.2-3.2-1.7l1.7-3.3
						c1.1,0.6,2.2,1.2,3.3,1.8L303.1,184.2z M230.8,181.2l-1.5-3.3c1.1-0.5,2.3-1,3.4-1.5l1.4,3.4
						C232.9,180.2,231.8,180.7,230.8,181.2z M296.7,180.9c-1.1-0.5-2.2-1-3.3-1.4l1.4-3.4c1.2,0.5,2.3,1,3.4,1.5L296.7,180.9z
						 M237.4,178.5l-1.2-3.4c1.2-0.4,2.4-0.8,3.6-1.2l1.1,3.5C239.6,177.7,238.5,178.1,237.4,178.5z M290,178.2
						c-1.1-0.4-2.3-0.8-3.4-1.1l1-3.5c1.2,0.4,2.4,0.7,3.6,1.2L290,178.2z M244.2,176.4l-0.9-3.5c1.2-0.3,2.4-0.6,3.6-0.9l0.8,3.6
						C246.5,175.8,245.3,176.1,244.2,176.4z M283.2,176.2c-1.2-0.3-2.3-0.6-3.5-0.8l0.7-3.6c1.2,0.2,2.4,0.5,3.6,0.8L283.2,176.2z
						 M251.2,174.9l-0.6-3.6c1.2-0.2,2.5-0.4,3.7-0.5l0.4,3.6C253.6,174.5,252.4,174.7,251.2,174.9z M276.1,174.8
						c-1.2-0.2-2.4-0.3-3.5-0.5l0.4-3.6c1.2,0.1,2.5,0.3,3.7,0.5L276.1,174.8z M258.3,174.1l-0.3-3.7c1.2-0.1,2.5-0.2,3.7-0.2
						l0.1,3.7C260.7,173.9,259.5,174,258.3,174.1z M269,174c-1.2-0.1-2.4-0.1-3.6-0.1l0.1-3.7c1.2,0,2.5,0.1,3.7,0.2L269,174z"/>
				</g>
			</g>
			<g>
				<g>
					<path class="st2" d="M264,328.9c-41.8,0-75.7-34-75.7-75.7c0-41.8,34-75.7,75.7-75.7c41.8,0,75.7,34,75.7,75.7
						S305.8,328.9,264,328.9z M264,181.1c-39.7,0-72.1,32.3-72.1,72.1c0,39.7,32.3,72.1,72.1,72.1c39.7,0,72.1-32.3,72.1-72.1
						S303.7,181.1,264,181.1z"/>
				</g>
			</g>
			<g>
				<g>
					<path class="st3" d="M286.8,249.2c3.4-0.6,6.5-2.3,8.9-4.7c3.1-3.1,5-7.3,5-12c0-9.4-7.6-17-17-17h-7.1v-16.3h-10.1v16.3h-6.4
						l0,0v-16.3H250v16.3h-8.3l0,0h-12.3v10.9h7.6c0,0,4.7-0.7,4.7,4.6v44.5c0,5.3-4.7,4.6-4.7,4.6h-7.6V291h12.3l0,0h8.3v16.2h10.1
						V291l0,0v-0.1h6.4v16.3h10.1v-16.3h10c5.8,0,11-2.3,14.7-6.1c3.8-3.8,6.1-9,6.1-14.7C307.4,258.6,298.2,249.3,286.8,249.2z
						 M260,227h11.2c5.5,0,10,4.5,10,10c0,2.8-1.1,5.3-2.9,7.1s-4.3,2.9-7.1,2.9H260V227z M283.5,276c-2,2-4.7,3.2-7.7,3.2H260
						v-21.8h15.8c6,0,10.9,4.9,10.9,10.9C286.7,271.4,285.4,274.1,283.5,276z"/>
				</g>
			</g>
		</g>
		<g>
			<g>
				<g>
					<path class="st1" d="M137.4,322.5c-18.5,0-35.9-7.2-49-20.3c-13.1-13.1-20.3-30.5-20.3-49c0-38.2,31.1-69.3,69.3-69.3
						c16.3,0,32.2,5.8,44.7,16.3l-2.4,2.8c-11.8-10-26.9-15.5-42.3-15.5c-36.2,0-65.7,29.5-65.7,65.7c0,17.5,6.8,34,19.2,46.5
						c12.4,12.4,28.9,19.2,46.4,19.2c15.7,0,30.9-5.6,42.8-15.9l2.4,2.8C170.1,316.5,154,322.5,137.4,322.5z"/>
				</g>
			</g>
			<g>
				<g>
					<path class="st1" d="M137.9,314.4l-0.1-3.7c1.2,0,2.4-0.1,3.5-0.2l0.3,3.7C140.4,314.3,139.2,314.4,137.9,314.4z M134.1,314.3
						c-1.3-0.1-2.5-0.2-3.8-0.3l0.4-3.6c1.2,0.1,2.4,0.2,3.5,0.3L134.1,314.3z M145.4,313.8l-0.5-3.6c1.2-0.2,2.3-0.4,3.5-0.6
						l0.7,3.6C147.9,313.4,146.6,313.7,145.4,313.8z M126.6,313.5c-1.2-0.2-2.5-0.5-3.7-0.8l0.8-3.6c1.1,0.3,2.3,0.5,3.5,0.7
						L126.6,313.5z M152.8,312.3l-0.9-3.5c1.1-0.3,2.3-0.6,3.4-1l1.2,3.5C155.2,311.6,154,312,152.8,312.3z M119.3,311.8
						c-1.2-0.4-2.4-0.8-3.6-1.2l1.3-3.4c1.1,0.4,2.2,0.8,3.4,1.1L119.3,311.8z M160,309.9l-1.4-3.4c1.1-0.4,2.2-0.9,3.2-1.4l1.6,3.3
						C162.3,308.9,161.1,309.5,160,309.9z M112.2,309.2c-1.2-0.5-2.3-1.1-3.4-1.6l1.7-3.2c1,0.5,2.1,1.1,3.2,1.5L112.2,309.2z
						 M166.8,306.7l-1.8-3.2c1-0.6,2.1-1.2,3-1.8l2,3.1C168.9,305.4,167.9,306.1,166.8,306.7z M105.5,305.7c-1.1-0.6-2.1-1.3-3.2-2
						l2.1-3c1,0.7,2,1.3,3,1.9L105.5,305.7z M173.1,302.6l-2.2-3c1-0.7,1.9-1.4,2.8-2.2l2.3,2.8
						C175.1,301.1,174.1,301.9,173.1,302.6z M99.3,301.4c-1-0.8-2-1.6-2.9-2.4l2.4-2.7c0.9,0.8,1.8,1.5,2.7,2.3L99.3,301.4z
						 M93.6,296.4c-0.9-0.9-1.8-1.8-2.6-2.7l2.7-2.4c0.8,0.9,1.6,1.8,2.4,2.6L93.6,296.4z M88.7,290.7c-0.8-1-1.5-2-2.2-3l3-2.1
						c0.7,1,1.4,1.9,2.1,2.9L88.7,290.7z M84.4,284.5c-0.6-1.1-1.3-2.2-1.8-3.3l3.3-1.7c0.5,1,1.1,2.1,1.7,3.1L84.4,284.5z
						 M80.9,277.8c-0.5-1.1-1-2.3-1.4-3.5l3.4-1.3c0.4,1.1,0.9,2.2,1.3,3.3L80.9,277.8z M78.3,270.8c-0.4-1.2-0.7-2.4-1-3.6l3.6-0.8
						c0.3,1.2,0.6,2.3,0.9,3.4L78.3,270.8z M76.6,263.4c-0.2-1.2-0.4-2.5-0.5-3.7l3.6-0.4c0.1,1.2,0.3,2.3,0.5,3.5L76.6,263.4z
						 M75.8,255.9c0-0.9-0.1-1.9-0.1-2.8c0-0.3,0-0.7,0-1l3.7,0.1c0,0.3,0,0.6,0,0.9c0,0.9,0,1.8,0.1,2.6L75.8,255.9z M79.6,248.7
						l-3.7-0.3c0.1-1.2,0.2-2.5,0.4-3.7l3.6,0.5C79.8,246.3,79.6,247.5,79.6,248.7z M80.5,241.6l-3.6-0.7c0.3-1.2,0.5-2.5,0.9-3.7
						l3.5,1C81,239.3,80.8,240.5,80.5,241.6z M82.4,234.8l-3.5-1.2c0.4-1.2,0.8-2.4,1.3-3.5l3.4,1.4
						C83.2,232.6,82.8,233.7,82.4,234.8z M85.1,228.2l-3.3-1.6c0.5-1.1,1.1-2.3,1.7-3.3l3.2,1.8C86.1,226.1,85.6,227.2,85.1,228.2z
						 M88.5,222l-3.1-2c0.7-1.1,1.4-2.1,2.1-3.1l3,2.2C89.8,220,89.2,221,88.5,222z M92.7,216.3l-2.8-2.3c0.8-1,1.6-1.9,2.5-2.8
						l2.7,2.5C94.3,214.5,93.5,215.4,92.7,216.3z M97.6,211.1l-2.5-2.7c0.9-0.9,1.9-1.7,2.8-2.5l2.3,2.8
						C99.3,209.5,98.5,210.3,97.6,211.1z M175.2,210l2.4-2.8l0.1,0.1L175.2,210z M172.4,207.7c-0.9-0.7-1.9-1.4-2.9-2.1l2.1-3
						c1,0.7,2.1,1.5,3,2.2L172.4,207.7z M103,206.6l-2.2-3c1-0.7,2.1-1.5,3.1-2.1l2,3.1C105,205.2,104,205.9,103,206.6z
						 M166.6,203.7c-1-0.6-2.1-1.2-3.1-1.7l1.7-3.2c1.1,0.6,2.2,1.2,3.3,1.8L166.6,203.7z M109,202.8l-1.8-3.2
						c1.1-0.6,2.2-1.2,3.3-1.7l1.6,3.3C111.1,201.7,110,202.2,109,202.8z M160.3,200.5c-1.1-0.5-2.2-0.9-3.3-1.3l1.3-3.4
						c1.2,0.4,2.3,0.9,3.5,1.4L160.3,200.5z M115.4,199.7l-1.4-3.4c1.2-0.5,2.3-0.9,3.5-1.3l1.2,3.5
						C117.6,198.9,116.5,199.3,115.4,199.7z M153.6,198c-1.1-0.3-2.3-0.6-3.4-0.9l0.8-3.6c1.2,0.3,2.5,0.6,3.6,1L153.6,198z
						 M122.1,197.5l-0.9-3.5c1.2-0.3,2.4-0.6,3.7-0.9l0.7,3.6C124.4,196.9,123.3,197.2,122.1,197.5z M146.7,196.4
						c-1.2-0.2-2.4-0.4-3.5-0.5l0.4-3.6c1.2,0.1,2.5,0.3,3.7,0.5L146.7,196.4z M129.1,196.1l-0.5-3.6c1.2-0.2,2.5-0.3,3.7-0.4
						l0.3,3.7C131.4,195.8,130.2,195.9,129.1,196.1z M139.7,195.6c-1.2-0.1-2.4-0.1-3.5-0.1l-0.1-3.7c1.3,0,2.5,0,3.8,0.1
						L139.7,195.6z"/>
				</g>
			</g>
			<g>
				<g>
					<path class="st4" d="M171.8,290.9c-9.2,8.6-21.6,13.9-35.2,13.9c-28.5,0-51.6-23.2-51.6-51.6c0-28.5,23.2-51.6,51.6-51.6
						c13.5,0,25.8,5.2,35,13.7c0,0-7.4,16.5-7.4,37.9S171.8,290.9,171.8,290.9z"/>
				</g>
			</g>
		</g>
		<g>
			<g>
				<g>
					<path class="st1" d="M390.4,322.5c-16.6,0-32.7-6-45.2-16.8l2.4-2.8c11.9,10.3,27.1,15.9,42.8,15.9c36.2,0,65.7-29.5,65.7-65.7
						s-29.5-65.7-65.7-65.7c-15.5,0-30.5,5.5-42.3,15.5l-2.4-2.8c12.5-10.5,28.4-16.3,44.7-16.3c38.2,0,69.3,31.1,69.3,69.3
						C459.7,291.4,428.6,322.5,390.4,322.5z"/>
				</g>
			</g>
			<g>
				<g>
					<path class="st1" d="M389.9,314.4c-1.3,0-2.5-0.1-3.8-0.2l0.3-3.7c1.2,0.1,2.4,0.1,3.5,0.2V314.4z M393.7,314.3l-0.2-3.7
						c1.2-0.1,2.4-0.1,3.5-0.3l0.4,3.6C396.2,314.2,394.9,314.3,393.7,314.3z M382.4,313.8c-1.2-0.2-2.5-0.4-3.7-0.6l0.7-3.6
						c1.2,0.2,2.3,0.4,3.5,0.6L382.4,313.8z M401.2,313.5l-0.6-3.6c1.2-0.2,2.3-0.4,3.5-0.7l0.8,3.6
						C403.7,313.1,402.4,313.3,401.2,313.5z M375,312.3c-1.2-0.3-2.4-0.7-3.6-1.1l1.2-3.5c1.1,0.4,2.3,0.7,3.4,1L375,312.3z
						 M408.5,311.8l-1.1-3.5c1.1-0.3,2.3-0.7,3.4-1.1l1.3,3.4C410.9,311,409.7,311.4,408.5,311.8z M367.9,309.9
						c-1.2-0.5-2.3-1-3.5-1.5l1.6-3.3c1.1,0.5,2.2,1,3.2,1.4L367.9,309.9z M415.6,309.2l-1.5-3.3c1.1-0.5,2.2-1,3.2-1.5l1.7,3.2
						C417.9,308.1,416.8,308.6,415.6,309.2z M361.1,306.7c-1.1-0.6-2.2-1.3-3.2-1.9l2-3.1c1,0.6,2,1.2,3,1.8L361.1,306.7z
						 M422.3,305.7l-1.9-3.1c1-0.6,2-1.3,3-1.9l2.1,3C424.4,304.3,423.4,305,422.3,305.7z M354.7,302.6c-1-0.7-2-1.5-3-2.3l2.3-2.8
						c0.9,0.8,1.8,1.5,2.8,2.2L354.7,302.6z M428.5,301.4l-2.3-2.9c0.9-0.7,1.8-1.5,2.7-2.3l2.4,2.7
						C430.5,299.8,429.5,300.6,428.5,301.4z M434.2,296.4l-2.6-2.6c0.8-0.8,1.6-1.7,2.4-2.6l2.7,2.4
						C435.9,294.6,435,295.5,434.2,296.4z M439.2,290.7l-2.9-2.3c0.7-0.9,1.4-1.9,2.1-2.9l3,2.1
						C440.7,288.7,439.9,289.8,439.2,290.7z M443.4,284.5l-3.1-1.9c0.6-1,1.2-2.1,1.7-3.1l3.3,1.7
						C444.7,282.3,444.1,283.4,443.4,284.5z M446.9,277.8l-3.3-1.5c0.5-1.1,0.9-2.2,1.3-3.3l3.4,1.3
						C447.9,275.5,447.4,276.7,446.9,277.8z M449.5,270.8l-3.5-1.1c0.3-1.1,0.6-2.3,0.9-3.4l3.6,0.8
						C450.2,268.3,449.9,269.6,449.5,270.8z M451.2,263.4l-3.6-0.6c0.2-1.2,0.4-2.3,0.5-3.5l3.6,0.4
						C451.6,260.9,451.4,262.2,451.2,263.4z M452,255.9l-3.7-0.2c0-0.9,0.1-1.7,0.1-2.6c0-0.3,0-0.6,0-0.9l3.7-0.1c0,0.3,0,0.7,0,1
						C452.1,254.1,452.1,255,452,255.9z M448.3,248.7c-0.1-1.2-0.2-2.4-0.4-3.5l3.6-0.5c0.2,1.2,0.3,2.5,0.4,3.8L448.3,248.7z
						 M447.3,241.6c-0.2-1.2-0.5-2.3-0.8-3.5l3.5-0.9c0.3,1.2,0.6,2.4,0.9,3.7L447.3,241.6z M445.4,234.8c-0.4-1.1-0.8-2.2-1.2-3.3
						l3.4-1.4c0.5,1.2,0.9,2.4,1.3,3.5L445.4,234.8z M442.8,228.2c-0.5-1.1-1.1-2.1-1.6-3.2l3.2-1.8c0.6,1.1,1.2,2.2,1.7,3.3
						L442.8,228.2z M439.3,222c-0.6-1-1.3-2-2-2.9l2.9-2.2c0.7,1,1.5,2.1,2.1,3.1L439.3,222z M435.1,216.3c-0.7-0.9-1.5-1.8-2.4-2.7
						l2.7-2.5c0.9,0.9,1.7,1.9,2.5,2.8L435.1,216.3z M430.2,211.1c-0.9-0.8-1.8-1.6-2.7-2.3l2.3-2.8c1,0.8,1.9,1.6,2.8,2.5
						L430.2,211.1z M352.6,210.1l-2.4-2.8L352.6,210.1L352.6,210.1z M355.4,207.7l-2.3-2.9c1-0.8,2-1.5,3-2.2l2.1,3
						C357.3,206.3,356.3,207,355.4,207.7z M424.8,206.6c-0.9-0.7-1.9-1.4-2.9-2l2-3.1c1.1,0.7,2.1,1.4,3.1,2.1L424.8,206.6z
						 M361.2,203.7l-1.9-3.1c1.1-0.6,2.2-1.3,3.3-1.8l1.7,3.2C363.3,202.5,362.2,203.1,361.2,203.7z M418.8,202.8
						c-1-0.6-2.1-1.1-3.1-1.6l1.6-3.3c1.1,0.5,2.2,1.1,3.3,1.7L418.8,202.8z M367.5,200.5l-1.5-3.3c1.1-0.5,2.3-1,3.5-1.4l1.3,3.4
						C369.7,199.5,368.6,200,367.5,200.5z M412.4,199.7c-1.1-0.4-2.2-0.9-3.3-1.2l1.2-3.5c1.2,0.4,2.4,0.8,3.5,1.3L412.4,199.7z
						 M374.2,198l-1.1-3.5c1.2-0.4,2.4-0.7,3.6-1l0.8,3.6C376.4,197.3,375.3,197.6,374.2,198z M405.7,197.5
						c-1.1-0.3-2.3-0.6-3.5-0.8l0.7-3.6c1.2,0.2,2.5,0.5,3.7,0.9L405.7,197.5z M381.1,196.4l-0.6-3.6c1.2-0.2,2.5-0.4,3.7-0.5
						l0.4,3.6C383.4,196,382.2,196.2,381.1,196.4z M398.7,196.1c-1.2-0.2-2.4-0.3-3.5-0.4l0.3-3.7c1.3,0.1,2.5,0.2,3.8,0.4
						L398.7,196.1z M388.1,195.6l-0.2-3.7c1.3-0.1,2.5-0.1,3.8-0.1l-0.1,3.7C390.5,195.5,389.3,195.5,388.1,195.6z"/>
				</g>
			</g>
			<g>
				<g>
					<path class="st5" d="M356,290.9c9.2,8.6,21.6,13.9,35.2,13.9c28.5,0,51.6-23.2,51.6-51.6c0-28.5-23.2-51.6-51.6-51.6
						c-13.5,0-25.8,5.2-35,13.7c0,0,7.4,16.5,7.4,37.9S356,290.9,356,290.9z"/>
				</g>
			</g>
			<g>
				<g>
					<path class="st3" d="M442.8,253.1c0,28.5-23.2,51.6-51.6,51.6c-13.6,0-25.9-5.3-35.2-13.9c0,0,6-13,7.3-31.1
						c0.2-2.1,0.2-4.4,0.2-6.7v-0.2c0-1,0-2-0.1-2.9c-0.1-2.1-0.2-4.1-0.4-6.1c-1.6-16.8-6.9-28.7-6.9-28.7
						c9.2-8.5,21.5-13.7,35-13.7C419.6,201.5,442.8,224.7,442.8,253.1z"/>
				</g>
			</g>
		</g>
		<g>
			<g>
				<path class="st0" d="M154.7,255.1c-3.3-3.2-8-4.8-12.6-5.4c-0.1,0-0.3,0-0.4-0.1v-13.5c4.2,2.4,4.5,6.9,4.5,6.9h10.9
					c-0.2-5.2-2.4-8.9-4.9-11.5c-2.8-2.9-6.5-4.7-10.5-5.4v-7.5h-10.3v7.3c-8.8,1.2-14.6,6.2-16,13.7c0,0.2-0.1,0.4-0.1,0.6
					c-1.1,7.1,3.1,13.9,9.8,16.3c1.6,0.6,3.7,1.3,6.3,1.9v14.2c-4.5-1.3-6.2-4.3-6.7-7.9h-10.5c0,0-1.4,14.7,17.1,17.1v5.9h10.3V282
					c0,0.2,5.6-1.2,6.1-1.4c2.4-0.9,4.6-2.2,6.4-4c4-4,5.7-10.4,4-16C157.5,258.4,156.3,256.6,154.7,255.1z M131.5,235.1v12.4
					c-5.2-1.8-6-4-6-5.5C125.5,240.1,125.8,236.3,131.5,235.1z M141.7,272.7v-12.2c0.2,0,0.5,0.1,0.7,0.1c0,0,5.4,1.1,5.4,5.5
					C147.9,269.4,146.2,271.8,141.7,272.7z"/>
			</g>
		</g>
		<g>
			<g>
				<g>
					<path class="st0" d="M379.1,252.2c1.8-24.8,25.4-17.5,25.4-17.5l5-11.3c0,0-16.7-9.7-30.7,2.1c-12.6,10.5-12.3,24-12.1,26.7
						c-0.2,2.7-0.5,16.2,12.1,26.7c14,11.7,30.7,2.1,30.7,2.1l-5-11.3C404.5,269.7,380.9,276.9,379.1,252.2z"/>
				</g>
			</g>
			<g>
				<g>
					<path class="st0" d="M402.7,243l-3.4,6.9h-35.8c-0.1-2.1-0.2-4.1-0.4-6.1l0.4-0.8L402.7,243z"/>
				</g>
			</g>
			<g>
				<g>
					<path class="st0" d="M402.7,252.9l-3.4,6.9h-36c0.2-2.1,0.2-4.4,0.2-6.7v-0.2H402.7z"/>
				</g>
			</g>
		</g>
		<g>
			<g>
				<path class="st1" d="M355.4,184c-0.6-0.8-1.3-1.7-2.2-2.9l2.9-2.3c0.8,1,1.6,2,2.3,3L355.4,184z M172.2,183.5l-3.1-2
					c0,0,0.8-1.2,2.3-3.1l2.9,2.2C172.9,182.4,172.2,183.5,172.2,183.5z M351,178.3c-0.7-0.9-1.5-1.8-2.4-2.7l2.7-2.5
					c0.9,1,1.7,1.9,2.5,2.8L351,178.3z M176.6,177.8l-2.8-2.4c0.7-0.9,1.6-1.8,2.5-2.8l2.7,2.5C178.1,176.1,177.3,177,176.6,177.8z
					 M346.1,173c-0.8-0.8-1.7-1.7-2.6-2.6l2.6-2.6c0.9,0.9,1.8,1.8,2.6,2.6L346.1,173z M181.4,172.5l-2.6-2.6
					c0.8-0.8,1.7-1.7,2.6-2.6l2.5,2.6C183.1,170.8,182.2,171.7,181.4,172.5z M340.9,168c-0.9-0.8-1.8-1.6-2.7-2.4l2.4-2.8
					c1,0.8,1.9,1.7,2.8,2.5L340.9,168z M186.6,167.5l-2.5-2.7c0.9-0.8,1.8-1.6,2.8-2.5l2.4,2.8C188.4,165.9,187.5,166.7,186.6,167.5
					z M335.5,163.3c-0.9-0.7-1.9-1.5-2.8-2.2l2.2-2.9c1,0.8,2,1.5,2.9,2.3L335.5,163.3z M192.1,162.8l-2.3-2.9
					c0.9-0.8,1.9-1.5,2.9-2.3l2.2,2.9C194,161.3,193,162.1,192.1,162.8z M329.7,158.9c-1-0.7-2-1.4-3-2.1l2-3c1,0.7,2.1,1.4,3.1,2.1
					L329.7,158.9z M197.9,158.5l-2.1-3c1-0.7,2-1.4,3.1-2.1l2,3.1C199.8,157.1,198.8,157.8,197.9,158.5z M323.7,154.9
					c-1-0.6-2-1.2-3.1-1.9l1.8-3.2c1.1,0.6,2.1,1.3,3.2,1.9L323.7,154.9z M203.9,154.5l-1.9-3.1c1-0.6,2.1-1.3,3.2-1.9l1.8,3.2
					C205.9,153.3,204.9,153.9,203.9,154.5z M317.5,151.3c-1-0.6-2.1-1.1-3.2-1.7l1.6-3.3c1.1,0.6,2.2,1.1,3.3,1.7L317.5,151.3z
					 M210.2,151l-1.7-3.2c1.1-0.6,2.2-1.1,3.3-1.7l1.6,3.3C212.3,149.9,211.2,150.4,210.2,151z M311,148c-1.1-0.5-2.2-1-3.3-1.5
					l1.4-3.4c1.2,0.5,2.3,1,3.4,1.5L311,148z M216.6,147.8l-1.5-3.3c1.1-0.5,2.3-1,3.4-1.5l1.4,3.4
					C218.8,146.8,217.7,147.3,216.6,147.8z M304.4,145.2c-1.1-0.4-2.2-0.8-3.4-1.2l1.2-3.5c1.2,0.4,2.3,0.8,3.5,1.3L304.4,145.2z
					 M223.3,145.1l-1.3-3.4c1.1-0.4,2.3-0.8,3.5-1.2l1.2,3.5C225.5,144.2,224.4,144.6,223.3,145.1z M297.6,142.9
					c-1.1-0.4-2.3-0.7-3.5-1l1-3.5c1.2,0.3,2.4,0.7,3.6,1L297.6,142.9z M230.1,142.8l-1.1-3.5c1.2-0.4,2.4-0.7,3.6-1l0.9,3.5
					C232.4,142.1,231.3,142.4,230.1,142.8z M290.7,141c-1.2-0.3-2.3-0.5-3.5-0.8l0.7-3.6c1.2,0.3,2.4,0.5,3.6,0.8L290.7,141z
					 M237.1,140.9l-0.8-3.6c1.2-0.3,2.4-0.5,3.6-0.8l0.7,3.6C239.4,140.4,238.2,140.6,237.1,140.9z M283.6,139.5
					c-1.2-0.2-2.4-0.4-3.6-0.6l0.5-3.6c1.2,0.2,2.5,0.4,3.7,0.6L283.6,139.5z M244.1,139.5l-0.6-3.6c1.2-0.2,2.4-0.4,3.7-0.6
					l0.5,3.6C246.5,139.1,245.3,139.3,244.1,139.5z M276.5,138.5c-1.2-0.1-2.4-0.2-3.6-0.3l0.3-3.7c1.2,0.1,2.5,0.2,3.7,0.3
					L276.5,138.5z M251.3,138.5l-0.4-3.6c1.2-0.1,2.5-0.2,3.7-0.3l0.3,3.7C253.7,138.3,252.5,138.4,251.3,138.5z M269.3,138
					c-1.2-0.1-2.4-0.1-3.6-0.1l0.1-3.7c1.3,0,2.5,0.1,3.7,0.1L269.3,138z M258.5,138l-0.2-3.7c1.2-0.1,2.5-0.1,3.7-0.1l0.1,3.7
					C260.9,137.9,259.7,137.9,258.5,138z"/>
			</g>
		</g>
		<g>
			<g>
				<polygon class="st1" points="258.6,148.4 256.1,145.6 266.9,136 256.8,126.8 259.2,124.1 272.3,136.1 				"/>
			</g>
		</g>
		<g>
			<g>
				<polygon class="st1" points="149.6,174.9 146.8,172.5 156,161.5 144.7,153.8 146.7,150.8 161.4,160.7 				"/>
			</g>
		</g>
		<g>
			<g>
				<polygon class="st1" points="364,172 362.3,168.8 375,162 367.5,150.6 370.5,148.6 380.3,163.4 				"/>
			</g>
		</g>
		<g>
			<g>
				<polygon class="st1" points="379.2,356.7 364.5,346.8 376.3,332.6 379.1,335 369.9,346 381.2,353.7 				"/>
			</g>
		</g>
		<g>
			<g>
				<polygon class="st1" points="155.7,357.9 145.9,343.2 162.2,334.5 164,337.8 151.2,344.5 158.8,355.9 				"/>
			</g>
		</g>
		<g>
			<g>
				<path class="st1" d="M267,372.9l-0.1-3.7c1.2,0,2.4-0.1,3.6-0.1l0.2,3.7C269.5,372.8,268.3,372.8,267,372.9z M263.3,372.9
					c-1.3,0-2.5-0.1-3.7-0.1l0.2-3.7c1.2,0.1,2.4,0.1,3.6,0.1L263.3,372.9z M274.4,372.5l-0.3-3.7c1.2-0.1,2.4-0.2,3.6-0.3l0.4,3.6
					C276.9,372.3,275.7,372.4,274.4,372.5z M255.9,372.5c-1.2-0.1-2.5-0.2-3.7-0.3l0.4-3.6c1.2,0.1,2.4,0.2,3.6,0.3L255.9,372.5z
					 M281.8,371.8l-0.5-3.6c1.2-0.2,2.4-0.3,3.6-0.5l0.6,3.6C284.3,371.4,283.1,371.6,281.8,371.8z M248.5,371.7
					c-1.2-0.2-2.5-0.4-3.7-0.6l0.6-3.6c1.2,0.2,2.4,0.4,3.6,0.6L248.5,371.7z M289.2,370.5l-0.7-3.6c1.2-0.2,2.4-0.5,3.5-0.8
					l0.8,3.6C291.6,370,290.4,370.3,289.2,370.5z M241.2,370.5c-1.2-0.3-2.4-0.5-3.6-0.8l0.9-3.6c1.2,0.3,2.3,0.5,3.5,0.8
					L241.2,370.5z M296.4,368.9l-0.9-3.5c1.2-0.3,2.3-0.6,3.5-1l1.1,3.5C298.8,368.2,297.6,368.5,296.4,368.9z M233.9,368.7
					c-1.2-0.3-2.4-0.7-3.6-1l1.1-3.5c1.1,0.4,2.3,0.7,3.5,1L233.9,368.7z M303.5,366.7l-1.2-3.5c1.2-0.4,2.3-0.8,3.4-1.2l1.3,3.4
					C305.9,365.9,304.7,366.3,303.5,366.7z M226.8,366.5c-1.2-0.4-2.3-0.8-3.5-1.3l1.3-3.4c1.1,0.4,2.2,0.8,3.4,1.2L226.8,366.5z
					 M310.5,364.1l-1.4-3.4c1.1-0.5,2.2-0.9,3.3-1.4l1.5,3.3C312.8,363.1,311.7,363.6,310.5,364.1z M219.9,363.9
					c-1.2-0.5-2.3-1-3.4-1.5l1.5-3.3c1.1,0.5,2.2,1,3.3,1.5L219.9,363.9z M317.3,361.1l-1.6-3.3c1.1-0.5,2.2-1.1,3.2-1.6l1.7,3.2
					C319.5,359.9,318.4,360.5,317.3,361.1z M213.1,360.8c-1.1-0.6-2.2-1.1-3.3-1.7l1.7-3.2c1,0.6,2.1,1.1,3.2,1.7L213.1,360.8z
					 M323.9,357.6l-1.8-3.2c1.1-0.6,2.1-1.2,3.1-1.8l1.9,3.1C326,356.3,324.9,357,323.9,357.6z M206.6,357.2
					c-1.1-0.6-2.1-1.3-3.2-1.9l1.9-3.1c1,0.6,2,1.2,3.1,1.9L206.6,357.2z M330.2,353.7l-2-3.1c1-0.7,2-1.3,3-2l2.1,3
					C332.3,352.3,331.3,353,330.2,353.7z M200.3,353.3c-1-0.7-2.1-1.4-3.1-2.1l2.1-3c1,0.7,2,1.4,3,2.1L200.3,353.3z M336.3,349.4
					l-2.2-2.9c1-0.7,1.9-1.5,2.9-2.2l2.3,2.9C338.3,347.9,337.3,348.7,336.3,349.4z M194.2,349c-1-0.8-2-1.5-2.9-2.3l2.3-2.8
					c0.9,0.7,1.9,1.5,2.8,2.2L194.2,349z M342.1,344.8l-2.4-2.8c0.9-0.8,1.8-1.6,2.7-2.4l2.5,2.7C344,343.1,343.1,343.9,342.1,344.8
					z M188.4,344.3c-1-0.8-1.9-1.7-2.8-2.5l2.5-2.7c0.9,0.8,1.8,1.6,2.7,2.4L188.4,344.3z M347.6,339.8l-2.5-2.6
					c0.9-0.9,1.8-1.7,2.6-2.5l2.6,2.6C349.4,338,348.6,338.9,347.6,339.8z M182.9,339.3c-0.9-0.9-1.8-1.8-2.6-2.6l2.6-2.5
					c0.8,0.8,1.7,1.7,2.6,2.6L182.9,339.3z M352.8,334.4l-2.7-2.5c0.9-1,1.7-1.9,2.4-2.7l2.8,2.4
					C354.5,332.5,353.7,333.4,352.8,334.4z M177.8,333.9c-0.9-1-1.7-1.9-2.5-2.8l2.8-2.4c0.7,0.9,1.5,1.8,2.4,2.7L177.8,333.9z
					 M357.6,328.7l-2.9-2.2c1.4-1.8,2.1-2.8,2.1-2.9l3.1,2C359.9,325.7,359.1,326.8,357.6,328.7z M172.9,328.2c-0.8-1-1.6-2-2.3-3
					l3-2.1c0.6,0.8,1.3,1.7,2.2,2.9L172.9,328.2z"/>
			</g>
		</g>
		<g>
			<g>
				<polygon class="st1" points="270.8,383 257.7,371 271.4,358.7 273.9,361.5 263.1,371.1 273.2,380.3 				"/>
			</g>
		</g>
		<g>
			<g>
				<path class="st1" d="M319.4,173l-1.9-3.1c1.1-0.7,2.2-1.3,3.2-1.9l1.8,3.2C321.5,171.8,320.5,172.4,319.4,173z M325.7,169.6
					l-1.6-3.3c1.1-0.6,2.3-1.1,3.4-1.6l1.5,3.3C327.9,168.6,326.8,169.1,325.7,169.6z"/>
			</g>
		</g>
		<g>
			<g>
				<path class="st1" d="M396.8,173.5c0,0-1-0.8-2.9-1.9l1.9-3.2c2.1,1.2,3.2,2.1,3.2,2.1L396.8,173.5z M390.8,169.9
					c-1.1-0.5-2.1-1.1-3.2-1.6l1.5-3.3c1.1,0.5,2.3,1.1,3.4,1.6L390.8,169.9z M384.3,166.9c-1.1-0.4-2.2-0.8-3.4-1.2l1.2-3.5
					c1.2,0.4,2.4,0.8,3.5,1.3L384.3,166.9z M377.5,164.6c-1.1-0.3-2.3-0.6-3.5-0.9l0.8-3.6c1.2,0.3,2.4,0.6,3.6,1L377.5,164.6z
					 M370.6,163c-1.2-0.2-2.3-0.4-3.5-0.6l0.5-3.6c1.2,0.2,2.5,0.4,3.7,0.6L370.6,163z M347.5,162.6L347,159
					c0.6-0.1,1.2-0.2,1.8-0.3l0.5,3.6C348.7,162.5,348.1,162.5,347.5,162.6z M363.5,162.1c-1.2-0.1-2.4-0.2-3.6-0.2l0.1-3.7
					c1.2,0,2.5,0.1,3.7,0.2L363.5,162.1z M352.8,162l-0.3-3.7c1.2-0.1,2.5-0.2,3.8-0.2l0.1,3.7C355.2,161.9,354,161.9,352.8,162z"/>
			</g>
		</g>
		<g>
			<g>
				<path class="st1" d="M206.8,173c-1-0.6-2.1-1.2-3.1-1.8l1.8-3.2c1.1,0.6,2.2,1.2,3.2,1.9L206.8,173z M200.5,169.6
					c-1.1-0.5-2.2-1-3.2-1.5l1.5-3.3c1.1,0.5,2.3,1,3.4,1.6L200.5,169.6z"/>
			</g>
		</g>
		<g>
			<g>
				<path class="st1" d="M129.4,173.5l-2.2-2.9c0,0,1.2-0.9,3.2-2.1l1.9,3.2C130.4,172.7,129.4,173.5,129.4,173.5z M135.4,169.9
					l-1.7-3.3c1.1-0.6,2.2-1.1,3.4-1.6l1.5,3.3C137.5,168.8,136.5,169.4,135.4,169.9z M141.9,166.9l-1.3-3.4
					c1.1-0.5,2.3-0.9,3.5-1.3l1.2,3.5C144.1,166.1,143,166.5,141.9,166.9z M148.7,164.6l-1-3.5c1.2-0.3,2.4-0.7,3.6-0.9l0.8,3.6
					C151,164,149.8,164.3,148.7,164.6z M155.6,163l-0.7-3.6c1.2-0.2,2.5-0.4,3.7-0.6l0.5,3.6C158,162.6,156.8,162.8,155.6,163z
					 M178.7,162.6c-0.6-0.1-1.2-0.2-1.7-0.2l0.5-3.6c0.6,0.1,1.2,0.2,1.8,0.3L178.7,162.6z M162.7,162.1l-0.3-3.6
					c1.3-0.1,2.5-0.2,3.7-0.2l0.1,3.7C165.1,161.9,163.9,162,162.7,162.1z M173.4,162c-1.2-0.1-2.4-0.1-3.6-0.2l0.1-3.7
					c1.3,0,2.5,0.1,3.8,0.2L173.4,162z"/>
			</g>
		</g>
		<g>
			<g>
				<path class="st1" d="M198.7,341.8l-1.5-3.4c1.1-0.5,2.2-1,3.2-1.5l1.6,3.3C201,340.8,199.8,341.3,198.7,341.8z M205.4,338.5
					l-1.8-3.2c1-0.6,2.1-1.2,3.1-1.8l1.9,3.1C207.6,337.3,206.5,337.9,205.4,338.5z"/>
			</g>
		</g>
		<g>
			<g>
				<path class="st1" d="M169.9,348.3l-0.1-3.7c1.2,0,2.4-0.1,3.6-0.2l0.3,3.7C172.4,348.3,171.2,348.3,169.9,348.3z M166.1,348.3
					c-1.2,0-2.5-0.1-3.7-0.2l0.3-3.6c1.2,0.1,2.4,0.2,3.6,0.2L166.1,348.3z M177.4,347.8l-0.5-3.6c0.6-0.1,1.1-0.2,1.7-0.2l0.6,3.6
					C178.6,347.6,178,347.7,177.4,347.8z M158.7,347.7c-1.2-0.2-2.5-0.4-3.7-0.6l0.7-3.6c1.2,0.2,2.3,0.4,3.5,0.6L158.7,347.7z
					 M151.3,346.4c-1.2-0.3-2.4-0.6-3.6-1l1-3.5c1.1,0.3,2.3,0.6,3.5,0.9L151.3,346.4z M144.1,344.3c-1.2-0.4-2.4-0.8-3.5-1.3
					l1.3-3.4c1.1,0.4,2.2,0.8,3.4,1.2L144.1,344.3z M137.1,341.5c-1.1-0.5-2.3-1.1-3.4-1.6l1.7-3.3c1.1,0.5,2.1,1.1,3.2,1.6
					L137.1,341.5z M130.4,338.1c-2.1-1.2-3.2-2.1-3.2-2.1l2.2-2.9c0,0,1,0.8,2.9,1.9L130.4,338.1z"/>
			</g>
		</g>
		<g>
			<g>
				<path class="st1" d="M327.5,341.8c-1.1-0.5-2.3-1-3.4-1.6l1.6-3.3c1.1,0.5,2.2,1,3.2,1.5L327.5,341.8z M320.8,338.5
					c-1.1-0.6-2.2-1.2-3.2-1.9l1.9-3.1c1,0.6,2.1,1.2,3.1,1.8L320.8,338.5z"/>
			</g>
		</g>
		<g>
			<g>
				<path class="st1" d="M356.3,348.3c-1.2,0-2.5-0.1-3.8-0.2l0.3-3.7c1.2,0.1,2.4,0.1,3.6,0.2L356.3,348.3z M360,348.3l-0.1-3.7
					c1.2,0,2.4-0.1,3.6-0.2l0.3,3.6C362.5,348.2,361.3,348.3,360,348.3z M348.8,347.8c-0.6-0.1-1.2-0.2-1.8-0.3l0.5-3.6
					c0.6,0.1,1.2,0.2,1.7,0.2L348.8,347.8z M367.5,347.7l-0.5-3.6c1.2-0.2,2.4-0.3,3.5-0.6l0.7,3.6
					C370,347.4,368.8,347.6,367.5,347.7z M374.9,346.4l-0.8-3.6c1.2-0.3,2.3-0.6,3.5-0.9l1,3.5C377.3,345.8,376.1,346.1,374.9,346.4
					z M382.1,344.3l-1.2-3.5c1.1-0.4,2.3-0.8,3.4-1.2l1.3,3.4C384.5,343.4,383.3,343.9,382.1,344.3z M389.1,341.5l-1.5-3.3
					c1.1-0.5,2.2-1,3.2-1.6l1.7,3.3C391.4,340.5,390.2,341,389.1,341.5z M395.8,338.1l-1.9-3.2c1.9-1.1,2.9-1.9,2.9-1.9l2.2,2.9
					C399,336,397.8,336.8,395.8,338.1z"/>
			</g>
		</g>
	</g>
	<g>
		<g>
			<g>
				<rect x="407.5" y="134.7" class="st1" width="3.7" height="6.5"/>
			</g>
		</g>
		<g>
			<g>
				<rect x="407.5" y="152.6" class="st1" width="3.7" height="6.5"/>
			</g>
		</g>
		<g>
			<g>
				<rect x="415" y="145.1" class="st1" width="6.5" height="3.7"/>
			</g>
		</g>
		<g>
			<g>
				<rect x="397.1" y="145.1" class="st1" width="6.5" height="3.7"/>
			</g>
		</g>
	</g>
	<g>
		<g>
			<g>
				<rect x="179.3" y="113.3" class="st1" width="3.7" height="6.5"/>
			</g>
		</g>
		<g>
			<g>
				<rect x="179.3" y="131.2" class="st1" width="3.7" height="6.5"/>
			</g>
		</g>
		<g>
			<g>
				<rect x="186.9" y="123.6" class="st1" width="6.5" height="3.7"/>
			</g>
		</g>
		<g>
			<g>
				<rect x="169" y="123.6" class="st1" width="6.5" height="3.7"/>
			</g>
		</g>
	</g>
	<g>
		<g>
			<g>
				<rect x="177.1" y="374.4" class="st1" width="3.7" height="6.5"/>
			</g>
		</g>
		<g>
			<g>
				<rect x="177.1" y="392.2" class="st1" width="3.7" height="6.5"/>
			</g>
		</g>
		<g>
			<g>
				<rect x="184.6" y="384.7" class="st1" width="6.5" height="3.7"/>
			</g>
		</g>
		<g>
			<g>
				<rect x="166.8" y="384.7" class="st1" width="6.5" height="3.7"/>
			</g>
		</g>
	</g>
	<g>
		<g>
			<circle class="st4" cx="448.5" cy="179.3" r="4"/>
		</g>
	</g>
	<g>
		<g>
			<circle class="st2" cx="87.7" cy="164.8" r="6.9"/>
		</g>
	</g>
	<g>
		<g>
			<circle class="st5" cx="56.2" cy="333.8" r="4"/>
		</g>
	</g>
	<g>
		<g>
			<circle class="st2" cx="429.6" cy="344.5" r="9.4"/>
		</g>
	</g>
</g>
</svg>
