<?xml version="1.0" encoding="utf-8"?>
<!-- Generator: Adobe Illustrator 19.2.0, SVG Export Plug-In . SVG Version: 6.00 Build 0)  -->
<svg version="1.1" id="Layer_1" xmlns="http://www.w3.org/2000/svg" xmlns:xlink="http://www.w3.org/1999/xlink" x="0px" y="0px"
	 viewBox="0 0 1200 1400" style="enable-background:new 0 0 1200 1400;" xml:space="preserve">
<style type="text/css">
	.st0{fill:#FFE1C5;}
	.st1{fill:#FFFFFF;}
	.st2{fill:#6A79A8;}
	.st3{fill:#FFF0A9;}
	.st4{fill:#C1DFF3;}
	.st5{fill:#F2F3F4;}
	.st6{fill:#FCBE7A;}
	.st7{fill:none;}
</style>
<g id="_x2014_ÎÓÈ_x5F_1_x5F_1_x5F_">
</g>
<g id="_x2014_ÎÓÈ_x5F_2">
</g>
<g id="_x2014_ÎÓÈ_x5F_3">
	<path class="st0" d="M384,936.1C364.8,932,133.6,895,150.6,622.3S189,267.7,278.8,237.7s308.4-172,479.9-37s356.5,256,283.1,471.6
		s-85.4,287.4-277,276.4S475.5,955.6,384,936.1z"/>
	<g id="XMLID_28_">
		<path id="XMLID_36_" class="st1" d="M239.4,474.9h431c15.6,0,28.4,12.8,28.4,28.4v11.4c0,15.6-12.8,28.4-28.4,28.4h-431
			c-15.6,0-28.4-12.8-28.4-28.4v-11.4C211,487.7,223.8,474.9,239.4,474.9z"/>
		<path id="XMLID_35_" class="st1" d="M204.1,566.7h172.8c15,0,27.2,12.2,27.2,27.2l0,0c0,15-12.2,27.2-27.2,27.2H204.1
			c-15,0-27.2-12.2-27.2-27.2l0,0C176.9,578.9,189.2,566.7,204.1,566.7z"/>
		<path id="XMLID_34_" class="st1" d="M171.8,399.4h172.8c15,0,27.2,12.2,27.2,27.2l0,0c0,15-12.2,27.2-27.2,27.2H171.8
			c-15,0-27.2-12.2-27.2-27.2l0,0C144.6,411.7,156.8,399.4,171.8,399.4z"/>
		<path id="XMLID_33_" class="st1" d="M262.6,451.6c8.4,0,15.3,5.2,15.3,11.6s-6.8,11.6-15.3,11.6h66.6c-8.4,0-15.3-5.2-15.3-11.6
			s6.8-11.6,15.3-11.6H262.6z"/>
		<path id="XMLID_30_" class="st1" d="M241,542.4c8.8,0,15.9,5.4,15.9,12.1c0,6.7-7.1,12.1-15.9,12.1h69.5
			c-8.8,0-15.9-5.4-15.9-12.1c0-6.7,7.1-12.1,15.9-12.1H241z"/>
	</g>
	<g id="XMLID_8_">
		<path id="XMLID_27_" class="st1" d="M929.9,383.1h-431c-15.6,0-28.4-12.8-28.4-28.4v-11.4c0-15.6,12.8-28.4,28.4-28.4h431
			c15.6,0,28.4,12.8,28.4,28.4v11.4C958.3,370.3,945.5,383.1,929.9,383.1z"/>
		<path id="XMLID_14_" class="st1" d="M965.2,291.3H792.4c-15,0-27.2-12.2-27.2-27.2l0,0c0-15,12.2-27.2,27.2-27.2h172.8
			c15,0,27.2,12.2,27.2,27.2l0,0C992.4,279.1,980.1,291.3,965.2,291.3z"/>
		<path id="XMLID_13_" class="st1" d="M997.5,458.6H824.7c-15,0-27.2-12.2-27.2-27.2l0,0c0-15,12.2-27.2,27.2-27.2h172.8
			c15,0,27.2,12.2,27.2,27.2l0,0C1024.7,446.4,1012.5,458.6,997.5,458.6z"/>
		<path id="XMLID_10_" class="st1" d="M906.7,406.4c-8.4,0-15.3-5.2-15.3-11.6s6.8-11.6,15.3-11.6h-66.6c8.4,0,15.3,5.2,15.3,11.6
			s-6.8,11.6-15.3,11.6H906.7z"/>
		<path id="XMLID_9_" class="st1" d="M928.3,315.6c-8.8,0-15.9-5.4-15.9-12.1s7.1-12.1,15.9-12.1h-69.5c8.8,0,15.9,5.4,15.9,12.1
			s-7.1,12.1-15.9,12.1H928.3z"/>
	</g>
</g>
<g id="_x2014_ÎÓÈ_x5F_4">
	<g>
		<path class="st1" d="M537.1,949.7H238.6V523.6c0-19.1,15.5-34.6,34.6-34.6h229.2c19.1,0,34.6,15.5,34.6,34.6L537.1,949.7
			L537.1,949.7z"/>
		<g>
			<path class="st2" d="M537.1,941.8c-1.1,0-2-0.9-2-2V526.5c0-19.3-15.7-35-35-35H275.7c-19.3,0-35,15.7-35,35v413.3
				c0,1.1-0.9,2-2,2s-2-0.9-2-2V526.5c0-21.5,17.5-39,39-39H500c21.5,0,39,17.5,39,39v413.3C539.1,940.9,538.2,941.8,537.1,941.8z"
				/>
		</g>
		<g>
			<path class="st2" d="M520.5,941.8c-1.1,0-2-0.9-2-2V554.5H257.2v385.3c0,1.1-0.9,2-2,2s-2-0.9-2-2V552.5c0-1.1,0.9-2,2-2h265.4
				c1.1,0,2,0.9,2,2v387.3C522.5,940.9,521.6,941.8,520.5,941.8z"/>
		</g>
		<g>
			<path class="st2" d="M488.2,527.2H483c-3.3,0-5.9-2.7-5.9-5.9v-3.1c0-3.3,2.7-5.9,5.9-5.9h5.2c3.3,0,5.9,2.7,5.9,5.9v3.1
				C494.2,524.6,491.5,527.2,488.2,527.2z M483,516.3c-1.1,0-1.9,0.9-1.9,1.9v3.1c0,1.1,0.9,1.9,1.9,1.9h5.2c1.1,0,1.9-0.9,1.9-1.9
				v-3.1c0-1.1-0.9-1.9-1.9-1.9H483z"/>
		</g>
		<g>
			<path class="st2" d="M414.7,527.2h-53.8c-3.3,0-5.9-2.7-5.9-5.9v-3.1c0-3.3,2.7-5.9,5.9-5.9h53.8c3.3,0,5.9,2.7,5.9,5.9v3.1
				C420.6,524.6,417.9,527.2,414.7,527.2z M360.9,516.3c-1.1,0-1.9,0.9-1.9,1.9v3.1c0,1.1,0.9,1.9,1.9,1.9h53.8
				c1.1,0,1.9-0.9,1.9-1.9v-3.1c0-1.1-0.9-1.9-1.9-1.9H360.9z"/>
		</g>
	</g>
	<g>
		<g>
			<path class="st2" d="M333.8,899.2c-1.1,0-2-0.9-2-2v-36.4h-19.9c-1.1,0-2-0.9-2-2s0.9-2,2-2h21.9c1.1,0,2,0.9,2,2v38.4
				C335.8,898.3,334.9,899.2,333.8,899.2z"/>
		</g>
		<rect x="311" y="799.1" class="st3" width="27.9" height="42.9"/>
		<g>
			<path class="st2" d="M333.8,839h-21.9c-1.1,0-2-0.9-2-2s0.9-2,2-2h19.9v-27.7c0-1.1,0.9-2,2-2s2,0.9,2,2V837
				C335.8,838.1,334.9,839,333.8,839z"/>
		</g>
		<g>
			<path class="st2" d="M317.5,795.3h-5.6c-1.1,0-2-0.9-2-2s0.9-2,2-2h5.6c1.1,0,2,0.9,2,2S318.6,795.3,317.5,795.3z"/>
		</g>
		<g>
			<path class="st2" d="M333.8,773.5h-21.9c-1.1,0-2-0.9-2-2s0.9-2,2-2h19.9v-39.6h-19.9c-1.1,0-2-0.9-2-2s0.9-2,2-2h21.9
				c1.1,0,2,0.9,2,2v43.6C335.8,772.6,334.9,773.5,333.8,773.5z"/>
		</g>
		<g>
			<rect x="381.7" y="733.3" class="st3" width="24.9" height="43.6"/>
			<g>
				<path class="st2" d="M402.1,773.5h-24.9c-1.1,0-2-0.9-2-2v-43.6c0-1.1,0.9-2,2-2h24.9c1.1,0,2,0.9,2,2s-0.9,2-2,2h-22.9v39.6
					h22.9c1.1,0,2,0.9,2,2S403.2,773.5,402.1,773.5z"/>
			</g>
		</g>
		<g>
			<rect x="381.7" y="602.4" class="st3" width="24.9" height="43.6"/>
			<g>
				<path class="st2" d="M402.1,642.6h-24.9c-1.1,0-2-0.9-2-2V597c0-1.1,0.9-2,2-2h24.9c1.1,0,2,0.9,2,2s-0.9,2-2,2h-22.9v39.6h22.9
					c1.1,0,2,0.9,2,2C404.1,641.7,403.2,642.6,402.1,642.6z"/>
			</g>
		</g>
		<rect x="294.8" y="667.4" class="st3" width="44.8" height="43.6"/>
		<g>
			<path class="st2" d="M323.3,642.6h-33.2c-1.1,0-2-0.9-2-2V597c0-1.1,0.9-2,2-2h43.7c1.1,0,2,0.9,2,2v26c0,1.1-0.9,2-2,2
				s-2-0.9-2-2v-24h-39.7v39.6h31.2c1.1,0,2,0.9,2,2C325.3,641.7,324.4,642.6,323.3,642.6z"/>
		</g>
		<g>
			<path class="st2" d="M402.1,708h-24.9c-1.1,0-2-0.9-2-2v-43.6c0-1.1,0.9-2,2-2h24.9c1.1,0,2,0.9,2,2s-0.9,2-2,2h-22.9V704h22.9
				c1.1,0,2,0.9,2,2S403.2,708,402.1,708z"/>
		</g>
		<g>
			<path class="st2" d="M402.1,839.3h-24.9c-1.1,0-2-0.9-2-2v-43.6c0-1.1,0.9-2,2-2h24.9c1.1,0,2,0.9,2,2s-0.9,2-2,2h-22.9v39.6
				h22.9c1.1,0,2,0.9,2,2S403.2,839.3,402.1,839.3z"/>
		</g>
		<g>
			<path class="st2" d="M377.2,889.2c-1.1,0-2-0.9-2-2v-28.4c0-1.1,0.9-2,2-2h24.9c1.1,0,2,0.9,2,2s-0.9,2-2,2h-22.9v26.4
				C379.2,888.3,378.3,889.2,377.2,889.2z"/>
		</g>
		<g>
			<path class="st2" d="M333.8,707.6h-43.7c-1.1,0-2-0.9-2-2v-26c0-1.1,0.9-2,2-2s2,0.9,2,2v24h39.7V664h-31.2c-1.1,0-2-0.9-2-2
				s0.9-2,2-2h33.2c1.1,0,2,0.9,2,2v43.6C335.8,706.7,334.9,707.6,333.8,707.6z"/>
		</g>
	</g>
</g>
<g id="_x2014_ÎÓÈ_x5F_5">
	<g>
		<path class="st1" d="M296,950.1H144.7V741.5c0-10.5,8.5-19,19-19H277c10.5,0,19,8.5,19,19V950.1z"/>
		<g>
			<path class="st2" d="M296,942.8c-1.1,0-2-0.9-2-2V741.3c0-9.2-7.5-16.8-16.8-16.8H163.5c-9.2,0-16.8,7.5-16.8,16.8v199.5
				c0,1.1-0.9,2-2,2s-2-0.9-2-2V741.3c0-11.5,9.3-20.8,20.8-20.8h113.7c11.5,0,20.8,9.3,20.8,20.8v199.5
				C298,941.9,297.1,942.8,296,942.8z"/>
		</g>
		<g>
			<path class="st2" d="M287.6,942.9c-1.1,0-2-0.9-2-2V756.4H155.1v184.4c0,1.1-0.9,2-2,2s-2-0.9-2-2V754.4c0-1.1,0.9-2,2-2h134.5
				c1.1,0,2,0.9,2,2v186.5C289.6,942.1,288.7,942.9,287.6,942.9z"/>
		</g>
		<g>
			<path class="st2" d="M233.4,742.9h-26.2c-2.5,0-4.5-2-4.5-4.5v-0.5c0-2.5,2-4.5,4.5-4.5h26.2c2.5,0,4.5,2,4.5,4.5v0.5
				C237.9,740.8,235.9,742.9,233.4,742.9z M207.2,737.3c-0.3,0-0.5,0.2-0.5,0.5v0.5c0,0.3,0.2,0.5,0.5,0.5h26.2
				c0.3,0,0.5-0.2,0.5-0.5v-0.5c0-0.3-0.2-0.5-0.5-0.5H207.2z"/>
		</g>
	</g>
	<g>
		<g>
			<path class="st2" d="M263.9,827.8h-32.4c-1.1,0-2-0.9-2-2V817c0-1.1,0.9-2,2-2s2,0.9,2,2v6.8h28.4v-28.3h-28.4v7.1
				c0,1.1-0.9,2-2,2s-2-0.9-2-2v-9.1c0-1.1,0.9-2,2-2h32.4c1.1,0,2,0.9,2,2v32.3C265.9,826.9,265,827.8,263.9,827.8z"/>
		</g>
		<g>
			<path class="st2" d="M263.9,877.8h-21.5c-1.1,0-2-0.9-2-2s0.9-2,2-2h19.5v-28.3h-28.4V864c0,1.1-0.9,2-2,2s-2-0.9-2-2v-20.5
				c0-1.1,0.9-2,2-2h32.4c1.1,0,2,0.9,2,2v32.3C265.9,876.9,265,877.8,263.9,877.8z"/>
		</g>
		<rect x="181.8" y="798.4" class="st4" width="32.4" height="82.4"/>
		<g>
			<path class="st2" d="M209.2,877.8h-32.4c-1.1,0-2-0.9-2-2v-16.2c0-1.1,0.9-2,2-2s2,0.9,2,2v14.2h28.4v-78.4h-28.4v39.2
				c0,1.1-0.9,2-2,2s-2-0.9-2-2v-41.2c0-1.1,0.9-2,2-2h32.4c1.1,0,2,0.9,2,2v82.4C211.2,876.9,210.3,877.8,209.2,877.8z"/>
		</g>
		<g>
			<g>
				<path class="st2" d="M242.3,905.5h-44c-1.1,0-2-0.9-2-2s0.9-2,2-2h44c1.1,0,2,0.9,2,2S243.4,905.5,242.3,905.5z"/>
			</g>
			<g>
				<path class="st2" d="M242.3,914.5h-19.8c-1.1,0-2-0.9-2-2s0.9-2,2-2h19.8c1.1,0,2,0.9,2,2S243.4,914.5,242.3,914.5z"/>
			</g>
			<g>
				<path class="st2" d="M209.2,914.5h-10.8c-1.1,0-2-0.9-2-2s0.9-2,2-2h10.8c1.1,0,2,0.9,2,2S210.3,914.5,209.2,914.5z"/>
			</g>
		</g>
	</g>
	<g>
		<g id="XMLID_184_">
			<path class="st2" d="M215.4,952h-83.7c-1.1,0-2-0.9-2-2s0.9-2,2-2h83.7c1.1,0,2,0.9,2,2S216.5,952,215.4,952z"/>
		</g>
		<g id="XMLID_183_">
			<path class="st2" d="M311.2,952h-74.9c-1.1,0-2-0.9-2-2s0.9-2,2-2h74.9c1.1,0,2,0.9,2,2S312.3,952,311.2,952z"/>
		</g>
	</g>
</g>
<g id="_x2014_ÎÓÈ_x5F_6">
	<g>
		<g>
			<g>
				<path class="st2" d="M958.3,923.7h-13.6c-1.1,0-2-0.9-2-2s0.9-2,2-2h13.6c1.1,0,2,0.9,2,2S959.4,923.7,958.3,923.7z"/>
			</g>
			<g>
				<path class="st2" d="M973.9,843.7h-29.2c-1.1,0-2-0.9-2-2s0.9-2,2-2h29.2c1.1,0,2,0.9,2,2S975,843.7,973.9,843.7z"/>
			</g>
			<g>
				<path class="st2" d="M983.9,883.7h-29.2c-1.1,0-2-0.9-2-2s0.9-2,2-2h29.2c1.1,0,2,0.9,2,2S985,883.7,983.9,883.7z"/>
			</g>
			<g>
				<path class="st2" d="M958.3,803.7h-13.6c-1.1,0-2-0.9-2-2s0.9-2,2-2h13.6c1.1,0,2,0.9,2,2S959.4,803.7,958.3,803.7z"/>
			</g>
			<g>
				<path class="st2" d="M983.9,763.7h-39.2c-1.1,0-2-0.9-2-2s0.9-2,2-2h39.2c1.1,0,2,0.9,2,2S985,763.7,983.9,763.7z"/>
			</g>
			<g>
				<path class="st2" d="M983.9,723.7h-39.2c-1.1,0-2-0.9-2-2s0.9-2,2-2h39.2c1.1,0,2,0.9,2,2S985,723.7,983.9,723.7z"/>
			</g>
			<g>
				<path class="st2" d="M983.9,683.7h-39.2c-1.1,0-2-0.9-2-2s0.9-2,2-2h39.2c1.1,0,2,0.9,2,2S985,683.7,983.9,683.7z"/>
			</g>
			<g>
				<path class="st2" d="M983.9,643.7h-39.2c-1.1,0-2-0.9-2-2s0.9-2,2-2h39.2c1.1,0,2,0.9,2,2S985,643.7,983.9,643.7z"/>
			</g>
			<g>
				<path class="st2" d="M983.9,603.7h-39.2c-1.1,0-2-0.9-2-2s0.9-2,2-2h39.2c1.1,0,2,0.9,2,2S985,603.7,983.9,603.7z"/>
			</g>
			<g>
				<path class="st2" d="M972.7,563.7h-16.4c-1.1,0-2-0.9-2-2s0.9-2,2-2h16.4c1.1,0,2,0.9,2,2S973.8,563.7,972.7,563.7z"/>
			</g>
			<g>
				<path class="st2" d="M956.2,563.7h-11.5c-1.1,0-2-0.9-2-2s0.9-2,2-2h11.5c1.1,0,2,0.9,2,2S957.4,563.7,956.2,563.7z"/>
			</g>
			<g>
				<path class="st2" d="M983.9,523.7h-39.2c-1.1,0-2-0.9-2-2s0.9-2,2-2h39.2c1.1,0,2,0.9,2,2S985,523.7,983.9,523.7z"/>
			</g>
			<g>
				<path class="st2" d="M968.4,483.7h-23.7c-1.1,0-2-0.9-2-2s0.9-2,2-2h23.7c1.1,0,2,0.9,2,2C970.4,482.8,969.5,483.7,968.4,483.7z
					"/>
			</g>
			<g>
				<path class="st2" d="M983.9,443.7h-12.5c-1.1,0-2-0.9-2-2s0.9-2,2-2h12.5c1.1,0,2,0.9,2,2C985.9,442.8,985,443.7,983.9,443.7z"
					/>
			</g>
			<g>
				<path class="st2" d="M959,443.7h-14.3c-1.1,0-2-0.9-2-2s0.9-2,2-2H959c1.1,0,2,0.9,2,2C961,442.8,960.1,443.7,959,443.7z"/>
			</g>
			<g>
				<path class="st2" d="M983.9,403.7h-39.2c-1.1,0-2-0.9-2-2s0.9-2,2-2h39.2c1.1,0,2,0.9,2,2C985.9,402.8,985,403.7,983.9,403.7z"
					/>
			</g>
			<g>
				<path class="st2" d="M983.9,363.7h-25.2c-1.1,0-2-0.9-2-2s0.9-2,2-2h25.2c1.1,0,2,0.9,2,2C985.9,362.8,985,363.7,983.9,363.7z"
					/>
			</g>
			<g>
				<path class="st2" d="M983.9,323.7h-39.2c-1.1,0-2-0.9-2-2s0.9-2,2-2h39.2c1.1,0,2,0.9,2,2C985.9,322.8,985,323.7,983.9,323.7z"
					/>
			</g>
			<g>
				<path class="st2" d="M958.7,338c-0.5,0-1-0.2-1.4-0.6l-14-14.3c-0.8-0.8-0.8-2.1,0-2.8c0.8-0.8,2.1-0.8,2.8,0l14,14.3
					c0.8,0.8,0.8,2.1,0,2.8C959.7,337.8,959.2,338,958.7,338z"/>
			</g>
			<g>
				<path class="st2" d="M959,418.2c-0.5,0-1-0.2-1.4-0.6L943.3,403c-0.8-0.8-0.8-2,0-2.8l37.8-38.6L967,347.3
					c-0.8-0.8-0.8-2.1,0-2.8c0.8-0.8,2.1-0.8,2.8,0l15.5,15.8c0.8,0.8,0.8,2,0,2.8l-37.8,38.6l12.9,13.2c0.8,0.8,0.8,2.1,0,2.8
					C960,418.1,959.5,418.2,959,418.2z"/>
			</g>
			<g>
				<path class="st2" d="M956.3,495.4c-0.5,0-1-0.2-1.4-0.6L943.4,483c-0.8-0.8-0.8-2,0-2.8l37.8-38.6L970,430.4
					c-0.8-0.8-0.8-2.1,0-2.8c0.8-0.8,2.1-0.8,2.8,0l12.5,12.7c0.8,0.8,0.8,2,0,2.8l-37.8,38.6l10.2,10.4c0.8,0.8,0.8,2.1,0,2.8
					C957.3,495.2,956.8,495.4,956.3,495.4z"/>
			</g>
			<g>
				<path class="st2" d="M954,634.2c-0.5,0-1-0.2-1.4-0.6c-0.8-0.8-0.8-2,0-2.8l28.5-29.1l-37.8-38.6c-0.8-0.8-0.8-2,0-2.8
					l37.8-38.6l-15.2-15.5c-0.8-0.8-0.8-2.1,0-2.8c0.8-0.8,2.1-0.8,2.8,0l16.6,16.9c0.8,0.8,0.8,2,0,2.8l-37.8,38.6l37.8,38.6
					c0.8,0.8,0.8,2,0,2.8l-29.9,30.5C955.1,634,954.6,634.2,954,634.2z"/>
			</g>
			<g>
				<path class="st2" d="M972.7,672.2c-0.5,0-1-0.2-1.4-0.6l-28-28.5c-0.8-0.8-0.8-2,0-2.8l5.1-5.2c0.8-0.8,2-0.8,2.8,0s0.8,2,0,2.8
					l-3.7,3.8l26.6,27.1c0.8,0.8,0.8,2.1,0,2.8C973.7,672,973.2,672.2,972.7,672.2z"/>
			</g>
			<g>
				<path class="st2" d="M958.3,789.8c-0.5,0-1-0.2-1.4-0.6c-0.8-0.8-0.8-2,0-2.8l24.2-24.7l-37.8-38.6c-0.8-0.8-0.8-2,0-2.8
					l29.2-29.8c0.8-0.8,2-0.8,2.8,0s0.8,2,0,2.8l-27.9,28.4l37.8,38.6c0.8,0.8,0.8,2,0,2.8l-25.6,26.1
					C959.4,789.6,958.9,789.8,958.3,789.8z"/>
			</g>
			<g>
				<path class="st2" d="M974.5,853.3c-0.5,0-1-0.2-1.4-0.6c-0.8-0.8-0.8-2,0-2.8l8.1-8.2l-26.6-27.1c-0.8-0.8-0.8-2.1,0-2.8
					c0.8-0.8,2.1-0.8,2.8,0l27.9,28.5c0.8,0.8,0.8,2,0,2.8l-9.4,9.6C975.5,853.1,975,853.3,974.5,853.3z"/>
			</g>
			<g>
				<path class="st2" d="M957.6,896.8c-0.5,0-1-0.2-1.4-0.6L943.3,883c-0.8-0.8-0.8-2,0-2.8l16-16.3c0.8-0.8,2-0.8,2.8,0
					s0.8,2,0,2.8l-14.6,14.9l11.5,11.8c0.8,0.8,0.8,2.1,0,2.8C958.6,896.7,958.1,896.8,957.6,896.8z"/>
			</g>
			<g>
				<path class="st2" d="M983.9,923.7c-0.5,0-1-0.2-1.4-0.6l-15.6-15.9c-0.8-0.8-0.8-2.1,0-2.8c0.8-0.8,2.1-0.8,2.8,0l15.6,15.9
					c0.8,0.8,0.8,2.1,0,2.8C984.9,923.5,984.4,923.7,983.9,923.7z"/>
			</g>
			<g>
				<path class="st2" d="M944.7,923.7c-0.5,0-1-0.2-1.4-0.6c-0.8-0.8-0.8-2,0-2.8l37.8-38.3l-37.8-38.9c-0.8-0.8-0.8-2.1,0-2.8
					c0.8-0.8,2.1-0.8,2.8,0l39.2,40.4c0.8,0.8,0.8,2,0,2.8l-39.2,39.6C945.8,923.5,945.2,923.7,944.7,923.7z"/>
			</g>
			<g>
				<path class="st2" d="M977.7,397.7c-0.5,0-1-0.2-1.4-0.6l-33.4-34c-0.8-0.8-0.8-2,0-2.8l39.2-40c0.8-0.8,2-0.8,2.8,0s0.8,2,0,2.8
					l-37.8,38.6l32,32.6c0.8,0.8,0.8,2.1,0,2.8C978.7,397.5,978.2,397.7,977.7,397.7z"/>
			</g>
			<g>
				<path class="st2" d="M953.3,532.8c-0.5,0-1-0.2-1.4-0.6l-9-9.2c-0.8-0.8-0.8-2,0-2.8l37.8-38.6L942.9,443c-0.8-0.8-0.8-2,0-2.8
					l27.1-27.7c0.8-0.8,2-0.8,2.8,0s0.8,2,0,2.8L947,441.6l37.8,38.6c0.8,0.8,0.8,2,0,2.8L947,521.6l7.6,7.8c0.8,0.8,0.8,2.1,0,2.8
					C954.3,532.7,953.8,532.8,953.3,532.8z"/>
			</g>
			<g>
				<path class="st2" d="M975.9,571.5c-0.5,0-1-0.2-1.4-0.6c-0.8-0.8-0.8-2,0-2.8l6.3-6.4l-19.4-19.8c-0.8-0.8-0.8-2.1,0-2.8
					c0.8-0.8,2.1-0.8,2.8,0l20.8,21.2c0.8,0.8,0.8,2,0,2.8l-7.7,7.8C976.9,571.3,976.4,571.5,975.9,571.5z"/>
			</g>
			<g>
				<path class="st2" d="M957.9,617.5c-0.5,0-1-0.2-1.4-0.6L943,603.1c-0.8-0.8-0.8-2,0-2.8l24.1-24.6c0.8-0.8,2-0.8,2.8,0
					s0.8,2,0,2.8l-22.7,23.2l12.2,12.4c0.8,0.8,0.8,2.1,0,2.8C958.9,617.3,958.4,617.5,957.9,617.5z"/>
			</g>
			<g>
				<path class="st2" d="M976.9,730.4c-0.5,0-1-0.2-1.4-0.6c-0.8-0.8-0.8-2,0-2.8l5.2-5.3l-37.8-38.6c-0.8-0.8-0.8-2,0-2.8
					l37.8-38.6l-11.5-11.8c-0.8-0.8-0.8-2.1,0-2.8c0.8-0.8,2.1-0.8,2.8,0l12.9,13.2c0.8,0.8,0.8,2,0,2.8l-37.8,38.6l37.8,38.6
					c0.8,0.8,0.8,2,0,2.8l-6.6,6.7C978,730.2,977.5,730.4,976.9,730.4z"/>
			</g>
			<g>
				<path class="st2" d="M944.3,843.7c-0.5,0-1-0.2-1.4-0.6c-0.8-0.8-0.8-2,0-2.8l37.8-38.6l-37.8-38.6c-0.8-0.8-0.8-2,0-2.8
					L954,749c0.8-0.8,2-0.8,2.8,0s0.8,2,0,2.8l-9.7,9.9l37.8,38.6c0.8,0.8,0.8,2,0,2.8l-39.2,40
					C945.4,843.5,944.8,843.7,944.3,843.7z"/>
			</g>
			<g>
				<path class="st2" d="M944.3,702.5c-1.1,0-2-0.9-2-2V516.1c0-1.1,0.9-2,2-2s2,0.9,2,2v184.3C946.3,701.6,945.4,702.5,944.3,702.5
					z"/>
			</g>
			<g>
				<path class="st2" d="M944.3,499.1c-1.1,0-2-0.9-2-2v-108c0-1.1,0.9-2,2-2s2,0.9,2,2v108C946.3,498.2,945.4,499.1,944.3,499.1z"
					/>
			</g>
			<g>
				<path class="st2" d="M984.3,417.8c-1.1,0-2-0.9-2-2v-92.1h-36v50.5c0,1.1-0.9,2-2,2s-2-0.9-2-2v-52.5c0-1.1,0.9-2,2-2h40
					c1.1,0,2,0.9,2,2v94.1C986.3,416.9,985.4,417.8,984.3,417.8z"/>
			</g>
			<g>
				<path class="st2" d="M984.3,579.1c-1.1,0-2-0.9-2-2V426.3c0-1.1,0.9-2,2-2s2,0.9,2,2v150.8C986.3,578.2,985.4,579.1,984.3,579.1
					z"/>
			</g>
			<g>
				<path class="st2" d="M984.3,782.1c-1.1,0-2-0.9-2-2V596.3c0-1.1,0.9-2,2-2s2,0.9,2,2v183.9C986.3,781.2,985.4,782.1,984.3,782.1
					z"/>
			</g>
			<g>
				<path class="st2" d="M984.3,924.3c-1.1,0-2-0.9-2-2V796c0-1.1,0.9-2,2-2s2,0.9,2,2v126.3C986.3,923.4,985.4,924.3,984.3,924.3z"
					/>
			</g>
			<g>
				<path class="st2" d="M944.3,924.9c-1.1,0-2-0.9-2-2v-9.1c0-1.1,0.9-2,2-2s2,0.9,2,2v9.1C946.3,924.1,945.4,924.9,944.3,924.9z"
					/>
			</g>
			<g>
				<path class="st2" d="M944.3,902.1c-1.1,0-2-0.9-2-2V717.5c0-1.1,0.9-2,2-2s2,0.9,2,2v182.7C946.3,901.2,945.4,902.1,944.3,902.1
					z"/>
			</g>
		</g>
		<g>
			<g>
				<path class="st2" d="M596.2,455.8h-22.1c-1.1,0-2-0.9-2-2s0.9-2,2-2h22.1c1.1,0,2,0.9,2,2S597.3,455.8,596.2,455.8z"/>
			</g>
			<g>
				<path class="st2" d="M586.8,544.7h-22.1c-1.1,0-2-0.9-2-2s0.9-2,2-2h22.1c1.1,0,2,0.9,2,2S587.9,544.7,586.8,544.7z"/>
			</g>
			<g>
				<path class="st2" d="M575.8,554.5h-11c-1.1,0-2-0.9-2-2s0.9-2,2-2h11c1.1,0,2,0.9,2,2S576.9,554.5,575.8,554.5z"/>
			</g>
		</g>
		<g>
			<g>
				<path class="st2" d="M1104.5,323.3c-1.1,0-2-0.9-2-2v-38.8c0-1.1,0.9-2,2-2s2,0.9,2,2v38.8
					C1106.5,322.4,1105.6,323.3,1104.5,323.3z"/>
			</g>
			<g>
				<path class="st2" d="M1064.5,323.3c-1.1,0-2-0.9-2-2v-39.2c0-1.1,0.9-2,2-2s2,0.9,2,2v39.2
					C1066.5,322.4,1065.6,323.3,1064.5,323.3z"/>
			</g>
			<g>
				<path class="st2" d="M1024.5,323.3c-1.1,0-2-0.9-2-2v-39.2c0-1.1,0.9-2,2-2s2,0.9,2,2v39.2
					C1026.5,322.4,1025.6,323.3,1024.5,323.3z"/>
			</g>
			<g>
				<path class="st2" d="M984.5,323.3c-1.1,0-2-0.9-2-2v-39.2c0-1.1,0.9-2,2-2s2,0.9,2,2v39.2C986.5,322.4,985.6,323.3,984.5,323.3z
					"/>
			</g>
			<g>
				<path class="st2" d="M944.5,323.3c-1.1,0-2-0.9-2-2v-39.2c0-1.1,0.9-2,2-2s2,0.9,2,2v39.2C946.5,322.4,945.6,323.3,944.5,323.3z
					"/>
			</g>
			<g>
				<path class="st2" d="M904.5,323.3c-1.1,0-2-0.9-2-2v-39.2c0-1.1,0.9-2,2-2s2,0.9,2,2v39.2C906.5,322.4,905.6,323.3,904.5,323.3z
					"/>
			</g>
			<g>
				<path class="st2" d="M864.5,311.8c-1.1,0-2-0.9-2-2v-16.4c0-1.1,0.9-2,2-2s2,0.9,2,2v16.4C866.5,310.9,865.6,311.8,864.5,311.8z
					"/>
			</g>
			<g>
				<path class="st2" d="M864.5,323.3c-1.1,0-2-0.9-2-2v-11.5c0-1.1,0.9-2,2-2s2,0.9,2,2v11.5C866.5,322.4,865.6,323.3,864.5,323.3z
					"/>
			</g>
			<g>
				<path class="st2" d="M824.5,323.3c-1.1,0-2-0.9-2-2v-39.2c0-1.1,0.9-2,2-2s2,0.9,2,2v39.2C826.5,322.4,825.6,323.3,824.5,323.3z
					"/>
			</g>
			<g>
				<path class="st2" d="M784.5,323.3c-1.1,0-2-0.9-2-2v-23.7c0-1.1,0.9-2,2-2s2,0.9,2,2v23.7C786.5,322.4,785.6,323.3,784.5,323.3z
					"/>
			</g>
			<g>
				<path class="st2" d="M744.5,296.5c-1.1,0-2-0.9-2-2V282c0-1.1,0.9-2,2-2s2,0.9,2,2v12.5C746.5,295.6,745.6,296.5,744.5,296.5z"
					/>
			</g>
			<g>
				<path class="st2" d="M744.5,323.3c-1.1,0-2-0.9-2-2V307c0-1.1,0.9-2,2-2s2,0.9,2,2v14.3C746.5,322.4,745.6,323.3,744.5,323.3z"
					/>
			</g>
			<g>
				<path class="st2" d="M704.5,323.3c-1.1,0-2-0.9-2-2v-39.2c0-1.1,0.9-2,2-2s2,0.9,2,2v39.2C706.5,322.4,705.6,323.3,704.5,323.3z
					"/>
			</g>
			<g>
				<path class="st2" d="M664.5,309.3c-1.1,0-2-0.9-2-2v-25.2c0-1.1,0.9-2,2-2s2,0.9,2,2v25.2C666.5,308.4,665.6,309.3,664.5,309.3z
					"/>
			</g>
			<g>
				<path class="st2" d="M624.5,323.3c-1.1,0-2-0.9-2-2v-39.2c0-1.1,0.9-2,2-2s2,0.9,2,2v39.2C626.5,322.4,625.6,323.3,624.5,323.3z
					"/>
			</g>
			<g>
				<path class="st2" d="M624.5,323.3c-0.5,0-1-0.2-1.4-0.6c-0.8-0.8-0.8-2.1,0-2.8l14.3-14c0.8-0.8,2.1-0.8,2.8,0
					c0.8,0.8,0.8,2.1,0,2.8l-14.3,14C625.5,323.1,625,323.3,624.5,323.3z"/>
			</g>
			<g>
				<path class="st2" d="M704.5,323.3c-0.5,0-1-0.2-1.4-0.6l-38.6-37.8L650.1,299c-0.8,0.8-2.1,0.8-2.8,0c-0.8-0.8-0.8-2.1,0-2.8
					l15.8-15.5c0.8-0.8,2-0.8,2.8,0l38.6,37.8l13.2-12.9c0.8-0.8,2.1-0.8,2.8,0c0.8,0.8,0.8,2.1,0,2.8l-14.6,14.3
					C705.5,323.1,705,323.3,704.5,323.3z"/>
			</g>
			<g>
				<path class="st2" d="M784.5,323.3c-0.5,0-1-0.2-1.4-0.6l-38.6-37.8L733.1,296c-0.8,0.8-2.1,0.8-2.8,0c-0.8-0.8-0.8-2.1,0-2.8
					l12.7-12.5c0.8-0.8,2-0.8,2.8,0l38.6,37.8l10.4-10.2c0.8-0.8,2.1-0.8,2.8,0c0.8,0.8,0.8,2.1,0,2.8l-11.8,11.5
					C785.5,323.1,785,323.3,784.5,323.3z"/>
			</g>
			<g>
				<path class="st2" d="M864.5,323.3c-0.5,0-1-0.2-1.4-0.6l-38.6-37.8L809,300.1c-0.8,0.8-2.1,0.8-2.8,0c-0.8-0.8-0.8-2.1,0-2.8
					l16.9-16.6c0.8-0.8,2-0.8,2.8,0l38.6,37.8l38.6-37.8c0.8-0.8,2-0.8,2.8,0l30.5,29.9c0.8,0.8,0.8,2,0,2.8s-2,0.8-2.8,0
					l-29.1-28.5l-38.6,37.8C865.5,323.1,865,323.3,864.5,323.3z"/>
			</g>
			<g>
				<path class="st2" d="M944.5,323.3c-0.5,0-1-0.2-1.4-0.6l-5.2-5.1c-0.8-0.8-0.8-2,0-2.8s2-0.8,2.8,0l3.8,3.7l27.1-26.6
					c0.8-0.8,2.1-0.8,2.8,0c0.8,0.8,0.8,2.1,0,2.8l-28.5,28C945.5,323.1,945,323.3,944.5,323.3z"/>
			</g>
			<g>
				<path class="st2" d="M1024.5,323.3c-0.5,0-1-0.2-1.4-0.6l-29.8-29.2c-0.8-0.8-0.8-2,0-2.8s2-0.8,2.8,0l28.4,27.9l38.6-37.8
					c0.8-0.8,2-0.8,2.8,0l26.1,25.6c0.8,0.8,0.8,2,0,2.8s-2,0.8-2.8,0l-24.7-24.2l-38.6,37.8C1025.5,323.1,1025,323.3,1024.5,323.3z
					"/>
			</g>
			<g>
				<path class="st2" d="M664.5,323.7c-0.5,0-1-0.2-1.4-0.6l-40-39.2c-0.8-0.8-0.8-2,0-2.8s2-0.8,2.8,0l38.6,37.8l32.6-32
					c0.8-0.8,2.1-0.8,2.8,0c0.8,0.8,0.8,2.1,0,2.8l-34,33.4C665.5,323.5,665,323.7,664.5,323.7z"/>
			</g>
			<g>
				<path class="st2" d="M824.5,323.7c-0.5,0-1-0.2-1.4-0.6l-38.6-37.8l-38.6,37.8c-0.8,0.8-2,0.8-2.8,0L715.4,296
					c-0.8-0.8-0.8-2,0-2.8s2-0.8,2.8,0l26.3,25.8l38.6-37.8c0.8-0.8,2-0.8,2.8,0l38.6,37.8l7.8-7.6c0.8-0.8,2.1-0.8,2.8,0
					c0.8,0.8,0.8,2.1,0,2.8l-9.2,9C825.5,323.5,825,323.7,824.5,323.7z"/>
			</g>
			<g>
				<path class="st2" d="M843.2,305.3c-0.5,0-1-0.2-1.4-0.6c-0.8-0.8-0.8-2.1,0-2.8l21.2-20.8c0.8-0.8,2-0.8,2.8,0l7.8,7.7
					c0.8,0.8,0.8,2,0,2.8s-2,0.8-2.8,0l-6.4-6.3l-19.8,19.4C844.2,305.1,843.7,305.3,843.2,305.3z"/>
			</g>
			<g>
				<path class="st2" d="M904.5,323.7c-0.5,0-1-0.2-1.4-0.6L878.5,299c-0.8-0.8-0.8-2,0-2.8s2-0.8,2.8,0l23.2,22.7l12.4-12.2
					c0.8-0.8,2.1-0.8,2.8,0c0.8,0.8,0.8,2.1,0,2.8L905.9,323C905.5,323.5,905,323.7,904.5,323.7z"/>
			</g>
			<g>
				<path class="st2" d="M984.5,323.7c-0.5,0-1-0.2-1.4-0.6l-38.6-37.8l-11.8,11.5c-0.8,0.8-2.1,0.8-2.8,0c-0.8-0.8-0.8-2.1,0-2.8
					l13.2-12.9c0.8-0.8,2-0.8,2.8,0l38.6,37.8l38.6-37.8c0.8-0.8,2-0.8,2.8,0l6.7,6.6c0.8,0.8,0.8,2,0,2.8s-2,0.8-2.8,0l-5.3-5.2
					l-38.6,37.8C985.5,323.5,985,323.7,984.5,323.7z"/>
			</g>
			<g>
				<path class="st2" d="M1064.5,323.7c-0.5,0-1-0.2-1.4-0.6l-11.3-11.1c-0.8-0.8-0.8-2,0-2.8s2-0.8,2.8,0l9.9,9.7l38.6-37.8
					c0.8-0.8,2.1-0.8,2.8,0c0.8,0.8,0.8,2.1,0,2.8l-40,39.2C1065.5,323.5,1065,323.7,1064.5,323.7z"/>
			</g>
			<g>
				<path class="st2" d="M1003.3,323.7H818.9c-1.1,0-2-0.9-2-2s0.9-2,2-2h184.3c1.1,0,2,0.9,2,2
					C1005.3,322.8,1004.4,323.7,1003.3,323.7z"/>
			</g>
			<g>
				<path class="st2" d="M799.9,323.7h-108c-1.1,0-2-0.9-2-2s0.9-2,2-2h108c1.1,0,2,0.9,2,2C801.9,322.8,801,323.7,799.9,323.7z"/>
			</g>
			<g>
				<path class="st2" d="M624.5,323.7c-1.1,0-2-0.9-2-2v-40c0-1.1,0.9-2,2-2h94.1c1.1,0,2,0.9,2,2s-0.9,2-2,2h-92.1v38
					C626.5,322.8,625.6,323.7,624.5,323.7z"/>
			</g>
			<g>
				<path class="st2" d="M879.9,283.7H729c-1.1,0-2-0.9-2-2s0.9-2,2-2h150.8c1.1,0,2,0.9,2,2C881.9,282.8,881,283.7,879.9,283.7z"/>
			</g>
			<g>
				<path class="st2" d="M676.9,323.7h-94.4c-1.1,0-2-0.9-2-2s0.9-2,2-2h94.4c1.1,0,2,0.9,2,2S678,323.7,676.9,323.7z"/>
			</g>
			<g>
				<path class="st2" d="M557.2,640.8c-0.1,0-0.1,0-0.2,0c-1.1-0.1-1.9-1.1-1.8-2.2l25.3-317.1c0-0.5,0.3-0.9,0.6-1.3l42-40
					c0.2-0.1,0.3-0.3,0.5-0.4l339.8-158.5c0.8-0.4,1.8-0.2,2.3,0.5l139.7,158.5c0.5,0.6,0.6,1.4,0.3,2.1c-0.3,0.7-1,1.2-1.8,1.2
					H899.1c-1.1,0-2-0.9-2-2s0.9-2,2-2h200.4l-135.7-154L625.6,283.4l-41.2,39.2l-25.3,316.3C559.1,640,558.2,640.8,557.2,640.8z"/>
			</g>
			<g>
				<path class="st2" d="M1020.3,323.7c-1.1,0-2-0.9-2-2s0.9-2,2-2l84.2-0.4l0,0c1.1,0,2,0.9,2,2s-0.9,2-2,2L1020.3,323.7
					L1020.3,323.7z"/>
			</g>
		</g>
		<g>
			<g>
				<path class="st2" d="M984.1,244h-39.2c-1.1,0-2-0.9-2-2s0.9-2,2-2h39.2c1.1,0,2,0.9,2,2S985.2,244,984.1,244z"/>
			</g>
			<g>
				<path class="st2" d="M984.1,204h-25.2c-1.1,0-2-0.9-2-2s0.9-2,2-2h25.2c1.1,0,2,0.9,2,2S985.2,204,984.1,204z"/>
			</g>
			<g>
				<path class="st2" d="M984.1,164h-39.2c-1.1,0-2-0.9-2-2s0.9-2,2-2h39.2c1.1,0,2,0.9,2,2S985.2,164,984.1,164z"/>
			</g>
			<g>
				<path class="st2" d="M958.9,178.3c-0.5,0-1-0.2-1.4-0.6l-14-14.3c-0.8-0.8-0.8-2.1,0-2.8c0.8-0.8,2.1-0.8,2.8,0l14,14.3
					c0.8,0.8,0.8,2.1,0,2.8C959.9,178.1,959.4,178.3,958.9,178.3z"/>
			</g>
			<g>
				<path class="st2" d="M959.1,258.6c-0.5,0-1-0.2-1.4-0.6l-14.3-14.6c-0.8-0.8-0.8-2,0-2.8l37.8-38.6l-14.1-14.4
					c-0.8-0.8-0.8-2.1,0-2.8c0.8-0.8,2.1-0.8,2.8,0l15.5,15.8c0.8,0.8,0.8,2,0,2.8L947.7,242l12.9,13.2c0.8,0.8,0.8,2.1,0,2.8
					C960.2,258.4,959.6,258.6,959.1,258.6z"/>
			</g>
			<g>
				<path class="st2" d="M984.1,284c-0.5,0-1-0.2-1.4-0.6l-12.5-12.7c-0.8-0.8-0.8-2.1,0-2.8c0.8-0.8,2.1-0.8,2.8,0l12.5,12.7
					c0.8,0.8,0.8,2.1,0,2.8C985.1,283.8,984.6,284,984.1,284z"/>
			</g>
			<g>
				<path class="st2" d="M977.8,238c-0.5,0-1-0.2-1.4-0.6l-33.4-34c-0.8-0.8-0.8-2,0-2.8l39.2-40c0.8-0.8,2-0.8,2.8,0s0.8,2,0,2.8
					L947.3,202l32,32.6c0.8,0.8,0.8,2.1,0,2.8C978.8,237.9,978.3,238,977.8,238z"/>
			</g>
			<g>
				<path class="st2" d="M944.5,284c-0.5,0-1-0.2-1.4-0.6c-0.8-0.8-0.8-2,0-2.8l27.1-27.7c0.8-0.8,2-0.8,2.8,0s0.8,2,0,2.8
					l-27.1,27.7C945.5,283.8,945,284,944.5,284z"/>
			</g>
			<g>
				<path class="st2" d="M944.5,284c-1.1,0-2-0.9-2-2v-52.5c0-1.1,0.9-2,2-2s2,0.9,2,2V282C946.5,283.1,945.6,284,944.5,284z"/>
			</g>
			<g>
				<path class="st2" d="M984.5,284.7c-1.1,0-2-0.9-2-2V164h-36v50.5c0,1.1-0.9,2-2,2s-2-0.9-2-2V162c0-1.1,0.9-2,2-2h40
					c1.1,0,2,0.9,2,2v120.7C986.5,283.8,985.6,284.7,984.5,284.7z"/>
			</g>
			<g>
				<path class="st2" d="M944.5,164.2c-0.3,0-0.6-0.1-0.9-0.2c-1-0.5-1.4-1.7-0.9-2.7l19.8-39c0.3-0.7,1-1.1,1.8-1.1
					c0.7,0,1.4,0.4,1.8,1.1l20.2,39c0.5,1,0.1,2.2-0.9,2.7s-2.2,0.1-2.7-0.9l-18.4-35.5l-18,35.5
					C945.9,163.8,945.2,164.2,944.5,164.2z"/>
			</g>
		</g>
	</g>
</g>
<g id="_x2014_ÎÓÈ_x5F_7">
	<g id="XMLID_97_">
		<path class="st1" d="M1049.3,949.8H886.6v-208c0-10.8,8.7-19.5,19.5-19.5h123.7c10.8,0,19.5,8.7,19.5,19.5L1049.3,949.8
			L1049.3,949.8z"/>
		<g>
			<path class="st2" d="M1049.3,942.9c-1.1,0-2-0.9-2-2V742.5c0-10-8.2-18.2-18.2-18.2H906.8c-10,0-18.2,8.2-18.2,18.2V941
				c0,1.1-0.9,2-2,2s-2-0.9-2-2V742.5c0-12.2,10-22.2,22.2-22.2h122.3c12.2,0,22.2,10,22.2,22.2V941
				C1051.3,942.1,1050.4,942.9,1049.3,942.9z"/>
		</g>
		<g>
			<path class="st2" d="M1040.3,942.9c-1.1,0-2-0.9-2-2V758.6H897.6v182.3c0,1.1-0.9,2-2,2s-2-0.9-2-2V756.6c0-1.1,0.9-2,2-2h144.7
				c1.1,0,2,0.9,2,2v184.3C1042.3,942.1,1041.4,942.9,1040.3,942.9z"/>
		</g>
		<g>
			<path class="st2" d="M981.7,744.1h-27.6c-2.8,0-5-2.2-5-5s2.2-5,5-5h27.6c2.8,0,5,2.2,5,5C986.7,741.8,984.4,744.1,981.7,744.1z
				 M954.1,738.1c-0.5,0-1,0.4-1,1c0,0.5,0.4,1,1,1h27.6c0.5,0,1-0.4,1-1c0-0.5-0.4-1-1-1H954.1z"/>
		</g>
		<g>
			<path class="st2" d="M1021.8,744.1h-1.1c-2.8,0-5-2.2-5-5s2.2-5,5-5h1.1c2.8,0,5,2.2,5,5C1026.8,741.8,1024.6,744.1,1021.8,744.1
				z M1020.7,738.1c-0.5,0-1,0.4-1,1c0,0.5,0.4,1,1,1h1.1c0.5,0,1-0.4,1-1c0-0.5-0.4-1-1-1H1020.7z"/>
		</g>
	</g>
	<g>
		<g>
			<g>
				<path class="st2" d="M996.1,903h-37.3c-1.1,0-2-0.9-2-2s0.9-2,2-2h37.3c1.1,0,2,0.9,2,2S997.2,903,996.1,903z"/>
			</g>
			<g>
				<path class="st2" d="M1003.4,887.9h-51.9c-1.1,0-2-0.9-2-2s0.9-2,2-2h51.9c1.1,0,2,0.9,2,2S1004.5,887.9,1003.4,887.9z"/>
			</g>
		</g>
		<g>
			<g>
				<path class="st2" d="M1017.2,813.9h-75.8c-1.1,0-2-0.9-2-2s0.9-2,2-2h75.8c1.1,0,2,0.9,2,2S1018.3,813.9,1017.2,813.9z"/>
			</g>
			<g>
				<path class="st2" d="M973.3,827.9h-31.9c-1.1,0-2-0.9-2-2s0.9-2,2-2h31.9c1.1,0,2,0.9,2,2S974.4,827.9,973.3,827.9z"/>
			</g>
			<g>
				<path class="st2" d="M1017.2,827.9h-31.4c-1.1,0-2-0.9-2-2s0.9-2,2-2h31.4c1.1,0,2,0.9,2,2S1018.3,827.9,1017.2,827.9z"/>
			</g>
		</g>
		<rect x="944.6" y="849" class="st3" width="77.5" height="24.7"/>
		<g>
			<path class="st2" d="M1005.2,870.7h-65.5c-1.1,0-2-0.9-2-2V844c0-1.1,0.9-2,2-2h77.5c1.1,0,2,0.9,2,2v15.3c0,1.1-0.9,2-2,2
				s-2-0.9-2-2V846h-73.5v20.7h63.5c1.1,0,2,0.9,2,2S1006.3,870.7,1005.2,870.7z"/>
		</g>
		<rect x="944.7" y="779" class="st3" width="77.5" height="24.7"/>
		<g>
			<path class="st2" d="M1017.2,800.7h-61.8c-1.1,0-2-0.9-2-2s0.9-2,2-2h59.8V776h-73.5v15.4c0,1.1-0.9,2-2,2s-2-0.9-2-2V774
				c0-1.1,0.9-2,2-2h77.5c1.1,0,2,0.9,2,2v24.7C1019.2,799.8,1018.3,800.7,1017.2,800.7z"/>
		</g>
	</g>
	<g>
		<g id="XMLID_4_">
			<path class="st2" d="M1067.5,952H1046c-1.1,0-2-0.9-2-2s0.9-2,2-2h21.5c1.1,0,2,0.9,2,2S1068.6,952,1067.5,952z"/>
		</g>
		<g id="XMLID_3_">
			<path class="st2" d="M1033,951.9h-59.1c-1.1,0-2-0.9-2-2s0.9-2,2-2h59.1c1.1,0,2,0.9,2,2S1034.2,951.9,1033,951.9z"/>
		</g>
	</g>
</g>
<g id="_x2014_ÎÓÈ_x5F_8">
	<g id="XMLID_195_">
		<path class="st5" d="M971.5,947.6H645.3V718.9H929V908l50.6,0.2c3.5,0,6.4,2.9,6.4,6.3c0,2.2-0.2,4.5-0.2,6.7
			c-0.2,7.7-2.6,14.9-7.4,21C976.7,944.3,974.5,947.6,971.5,947.6z"/>
		<path class="st5" d="M319.1,947.6h326.2V583H539.1v-8.1H378.5c-9.3,0-16.9,7.6-16.9,16.9V908l-50.6,0.2c-3.5,0-6.4,2.9-6.4,6.3
			c0,2.2,0.2,4.5,0.2,6.7c0.2,7.7,2.6,14.9,7.4,21C313.9,944.3,316.1,947.6,319.1,947.6z"/>
		<g id="XMLID_229_">
			<path class="st1" d="M919.6,916V595.6c0-5.8-4.7-10.5-10.5-10.5H381.5c-5.8,0-10.5,4.7-10.5,10.5V916H919.6z"/>
			<path class="st2" d="M919.6,918H371c-1.1,0-2-0.9-2-2V595.6c0-6.9,5.6-12.5,12.5-12.5H909c6.9,0,12.5,5.6,12.5,12.5V916
				C921.6,917.1,920.7,918,919.6,918z M373,914h544.6V595.6c0-4.7-3.8-8.5-8.5-8.5H381.5c-4.7,0-8.5,3.8-8.5,8.5V914z"/>
		</g>
		<g id="XMLID_192_">
			<path class="st2" d="M889.5,902.8H401.1c-1.1,0-2-0.9-2-2V610.5c0-1.1,0.9-2,2-2h488.4c1.1,0,2,0.9,2,2v290.3
				C891.5,901.9,890.6,902.8,889.5,902.8z M403.1,898.8h484.4V612.5H403.1V898.8z"/>
		</g>
		<g id="XMLID_189_">
			<path class="st1" d="M947.2,949.7H343.4c-16.5,0-30-13.4-30-30V918c0-1,0.8-1.8,1.8-1.8h660.2c1,0,1.8,0.8,1.8,1.8v1.8
				C977.2,936.3,963.7,949.7,947.2,949.7z"/>
			<path class="st2" d="M947.2,951.7H343.4c-17.6,0-32-14.3-32-32V918c0-2.1,1.7-3.8,3.8-3.8h660.2c2.1,0,3.8,1.7,3.8,3.8v1.8
				C979.2,937.4,964.8,951.7,947.2,951.7z M315.4,918.2v1.6c0,15.4,12.5,28,28,28h603.8c15.4,0,28-12.6,28-28v-1.5L315.4,918.2
				L315.4,918.2z"/>
		</g>
		<g id="XMLID_185_">
			<path class="st2" d="M711.1,927.2H579.6c-6.2,0-11.5-4.5-12.5-10.6c-0.1-0.6,0.1-1.2,0.4-1.6c0.4-0.4,0.9-0.7,1.5-0.7h152.6
				c0.6,0,1.1,0.3,1.5,0.7s0.5,1,0.4,1.6C722.6,922.7,717.3,927.2,711.1,927.2z M571.7,918.2c1.4,3,4.4,4.9,7.8,4.9H711
				c3.4,0,6.4-2,7.8-4.9H571.7z"/>
		</g>
	</g>
	<g>
		<g>
			<g>
				<path class="st2" d="M685.3,865h-80c-1.1,0-2-0.9-2-2s0.9-2,2-2h80c1.1,0,2,0.9,2,2S686.4,865,685.3,865z"/>
			</g>
			<g>
				<path class="st2" d="M760.6,852.7H530.1c-1.1,0-2-0.9-2-2s0.9-2,2-2h230.5c1.1,0,2,0.9,2,2S761.7,852.7,760.6,852.7z"/>
			</g>
		</g>
		<g>
			<g>
				<path class="st2" d="M759.6,772.1h-93.9c-1.1,0-2-0.9-2-2s0.9-2,2-2h93.9c1.1,0,2,0.9,2,2C761.6,771.2,760.7,772.1,759.6,772.1z
					"/>
			</g>
			<g>
				<path class="st2" d="M705.2,792.1h-39.5c-1.1,0-2-0.9-2-2s0.9-2,2-2h39.5c1.1,0,2,0.9,2,2C707.2,791.2,706.3,792.1,705.2,792.1z
					"/>
			</g>
			<g>
				<path class="st2" d="M759.6,792.1h-38.9c-1.1,0-2-0.9-2-2s0.9-2,2-2h38.9c1.1,0,2,0.9,2,2C761.6,791.2,760.7,792.1,759.6,792.1z
					"/>
			</g>
			<g>
				<path class="st2" d="M705.2,812.1h-39.5c-1.1,0-2-0.9-2-2s0.9-2,2-2h39.5c1.1,0,2,0.9,2,2C707.2,811.2,706.3,812.1,705.2,812.1z
					"/>
			</g>
		</g>
		<g>
			<g>
				<path class="st2" d="M759.6,696h-72.9c-1.1,0-2-0.9-2-2s0.9-2,2-2h72.9c1.1,0,2,0.9,2,2S760.7,696,759.6,696z"/>
			</g>
			<g>
				<path class="st2" d="M705.2,716h-39.5c-1.1,0-2-0.9-2-2s0.9-2,2-2h39.5c1.1,0,2,0.9,2,2S706.3,716,705.2,716z"/>
			</g>
			<g>
				<path class="st2" d="M759.6,716h-38.9c-1.1,0-2-0.9-2-2s0.9-2,2-2h38.9c1.1,0,2,0.9,2,2S760.7,716,759.6,716z"/>
			</g>
			<g>
				<path class="st2" d="M759.6,676h-73.9c-1.1,0-2-0.9-2-2s0.9-2,2-2h73.9c1.1,0,2,0.9,2,2S760.7,676,759.6,676z"/>
			</g>
		</g>
		<g>
			<path class="st2" d="M597.3,821.8H437c-1.1,0-2-0.9-2-2v-60.4c0-1.1,0.9-2,2-2h189.7c1.1,0,2,0.9,2,2v37.5c0,1.1-0.9,2-2,2
				s-2-0.9-2-2v-35.5H439v56.4h158.3c1.1,0,2,0.9,2,2S598.4,821.8,597.3,821.8z"/>
		</g>
		<g>
			<path class="st2" d="M861.7,821.8h-59.2c-1.1,0-2-0.9-2-2s0.9-2,2-2h57.2v-56.4h-66.1v35.5c0,1.1-0.9,2-2,2s-2-0.9-2-2v-37.5
				c0-1.1,0.9-2,2-2h70.1c1.1,0,2,0.9,2,2v60.4C863.7,820.9,862.8,821.8,861.7,821.8z"/>
		</g>
		<polygon class="st6" points="799.5,718.9 868.7,718.9 868.7,658.5 798.7,658.5 798.7,718.9 		"/>
		<g>
			<path class="st2" d="M861.7,713.9h-70.1c-1.1,0-2-0.9-2-2v-60.4c0-1.1,0.9-2,2-2h70.1c1.1,0,2,0.9,2,2V666c0,1.1-0.9,2-2,2
				s-2-0.9-2-2v-12.6h-66.1v56.4h66.1v-18.1c0-1.1,0.9-2,2-2s2,0.9,2,2v20.1C863.7,713,862.8,713.9,861.7,713.9z"/>
		</g>
	</g>
	<g>
		
			<rect x="475.9" y="645.6" transform="matrix(0.9775 -0.211 0.211 0.9775 -129.7485 135.641)" class="st6" width="189.7" height="60.4"/>
		<g>
			<path class="st2" d="M514.4,711.8c-0.9,0-1.8-0.6-2-1.6c-0.2-1.1,0.5-2.1,1.5-2.4l145.9-31.5l-11.9-55.2l-181.5,39.2L475,700
				c0.2,1.1-0.5,2.1-1.5,2.4c-1.1,0.2-2.1-0.5-2.4-1.5l-9-41.5c-0.1-0.5,0-1.1,0.3-1.5s0.7-0.8,1.3-0.9l185.4-40
				c1.1-0.2,2.1,0.5,2.4,1.5l12.8,59.1c0.1,0.5,0,1.1-0.3,1.5s-0.7,0.8-1.3,0.9l-147.8,31.9C514.7,711.8,514.5,711.8,514.4,711.8z"
				/>
		</g>
		<g>
			<path class="st2" d="M674.5,630.8h-22.1c-1.1,0-2-0.9-2-2s0.9-2,2-2h22.1c1.1,0,2,0.9,2,2C676.5,630,675.6,630.8,674.5,630.8z"/>
		</g>
		<g>
			<path class="st2" d="M673.2,653.5h-16.4c-1.1,0-2-0.9-2-2s0.9-2,2-2h16.4c1.1,0,2,0.9,2,2S674.4,653.5,673.2,653.5z"/>
		</g>
	</g>
	<g>
		<path class="st2" d="M557.2,640.8c-0.1,0-0.1,0-0.2,0c-1.1-0.1-1.9-1.1-1.8-2.2l5.8-72.7c0.1-1.1,1-1.9,2.2-1.8
			c1.1,0.1,1.9,1.1,1.8,2.2l-5.8,72.7C559.1,640,558.2,640.8,557.2,640.8z"/>
	</g>
</g>
<g id="_x2014_ÎÓÈ_x5F_9">
	<g>
		<g>
			<polygon class="st1" points="788.6,820.8 783.1,820.8 780.3,823 779,825.9 779.1,829.2 778.7,831.9 780.8,835.9 786.3,846.1 
				790.2,852.9 793,857.7 793.8,858.6 792.4,863.8 800.7,864.6 801.9,859.3 806,861.7 811.6,856.7 807.9,852.1 806.8,849.4 
				804.7,843.6 803.7,841.8 798.7,832.1 795.1,825.5 793.1,821.8 			"/>
			<g>
				<g>
					<path class="st2" d="M801.1,856.2c-0.1,0-0.2,0-0.3,0l-4.4-0.8c-0.6-0.1-1.1-0.6-1.2-1.2l-0.8-4.6l-2.2-1.4
						c-0.5-0.3-0.8-0.9-0.7-1.5l0.4-3.2c0.1-0.5,0.3-0.9,0.7-1.1l2.4-1.4c0.5-0.3,1-0.3,1.5,0l3.6,1.9c0.7,0.4,1,1.2,0.7,1.9
						l-0.8,1.9l3.1,3.7c0.3,0.4,0.4,0.9,0.3,1.3l-0.8,3.3C802.4,855.8,801.8,856.2,801.1,856.2z M798,852.6l2,0.4l0.3-1.2l-3.2-3.9
						c-0.3-0.4-0.4-1-0.2-1.5l0.6-1.5l-1.7-0.9l-1.1,0.6l-0.2,1.5l1.9,1.2c0.4,0.2,0.6,0.6,0.7,1L798,852.6z"/>
				</g>
				<g>
					<path class="st2" d="M786.3,847.6c-0.1,0-0.3,0-0.4-0.1c-0.4-0.1-0.7-0.4-0.9-0.7l-7.6-14.4c-1.1-2-1.3-4.3-0.6-6.4
						c0.7-2.2,2.1-3.9,4.1-5l2.6-1.4c2.1-1.1,4.6-1.4,6.9-0.6c2.3,0.7,4.2,2.3,5.3,4.4l7.3,13.9c0.4,0.7,0.1,1.6-0.6,2l-15.4,8.2
						C786.7,847.6,786.5,847.6,786.3,847.6z M787.7,821.6c-1,0-1.9,0.2-2.8,0.7l-2.6,1.4l0,0c-2.7,1.4-3.7,4.7-2.3,7.4l6.9,13
						l12.8-6.8l-6.6-12.5c-0.8-1.4-2-2.5-3.5-2.9C788.9,821.7,788.3,821.6,787.7,821.6z M781.6,822.4L781.6,822.4L781.6,822.4z"/>
				</g>
				<g>
					<path class="st2" d="M800.3,866.3L800.3,866.3l-7.9-0.7c-0.4,0-0.8-0.3-1.1-0.6s-0.4-0.8-0.3-1.2l1-4.8l-7.1-12.1
						c-0.4-0.7-0.2-1.6,0.5-2.1c0.7-0.4,1.6-0.2,2.1,0.5l7.4,12.6c0.2,0.3,0.2,0.7,0.2,1.1l-0.8,3.8l4.8,0.4l1.2-4.4
						c0.1-0.5,0.5-0.8,0.9-1c0.5-0.2,1-0.1,1.4,0.2l3,2l3.7-3.7l-2.5-3c-0.1-0.1-0.2-0.3-0.3-0.4l-4.2-10.4c-0.3-0.8,0.1-1.6,0.8-2
						c0.8-0.3,1.6,0.1,2,0.8l4.1,10.1l3.3,3.8c0.5,0.6,0.5,1.5-0.1,2l-5.6,5.5c-0.5,0.5-1.3,0.6-1.9,0.2l-2.3-1.5l-1,3.6
						C801.6,865.9,801,866.3,800.3,866.3z"/>
				</g>
				<g>
					<path class="st2" d="M817.1,868.6c-0.4,0-0.8-0.1-1-0.4l-8.3-8.1c-0.6-0.6-0.6-1.5,0-2.1s1.5-0.6,2.1,0l8.3,8.1
						c0.6,0.6,0.6,1.5,0,2.1C817.9,868.5,817.5,868.6,817.1,868.6z"/>
				</g>
				<g>
					<path class="st2" d="M792.9,876.8c-0.1,0-0.3,0-0.4-0.1c-0.8-0.2-1.3-1-1-1.8l3-10.8c0.2-0.8,1-1.3,1.8-1c0.8,0.2,1.3,1,1,1.8
						l-3,10.8C794.2,876.3,793.6,876.8,792.9,876.8z"/>
				</g>
				<g>
					<path class="st2" d="M806.6,858.3c-0.5,0-0.9-0.2-1.2-0.6l-1.6-2.2c-0.5-0.7-0.4-1.6,0.3-2.1s1.6-0.4,2.1,0.3l1.6,2.2
						c0.5,0.7,0.4,1.6-0.3,2.1C807.2,858.2,806.9,858.3,806.6,858.3z"/>
				</g>
				<g>
					<path class="st2" d="M804.4,840.5c-0.8,0-1.4-0.6-1.5-1.3l-2.1-18.5c-0.1-0.8,0.5-1.6,1.3-1.7c0.8-0.1,1.6,0.5,1.7,1.3
						l2.1,18.5c0.1,0.8-0.5,1.6-1.3,1.7C804.6,840.5,804.5,840.5,804.4,840.5z"/>
				</g>
				<g>
					<path class="st2" d="M785.4,862.5c-0.1,0-0.1,0-0.2,0c-0.8-0.1-1.4-0.8-1.3-1.7l1.6-13.6c0.1-0.8,0.8-1.4,1.7-1.3
						c0.8,0.1,1.4,0.8,1.3,1.7l-1.6,13.6C786.8,861.9,786.1,862.5,785.4,862.5z"/>
				</g>
				<g>
					<path class="st2" d="M790.5,840.7c-0.5,0-1.1-0.1-1.7-0.3c-0.8-0.3-1.2-1.1-0.9-1.9c0.3-0.8,1.1-1.2,1.9-0.9
						c0.3,0.1,0.7,0.2,1,0.1c0.3-0.2,0.7-0.7,0.9-1.5s1-1.3,1.8-1.1s1.3,1,1.1,1.8c-0.5,1.8-1.3,2.9-2.6,3.5
						C791.5,840.6,791,840.7,790.5,840.7z"/>
				</g>
			</g>
		</g>
	</g>
	<g>
		<path class="st1" d="M1010.1,685.7c-10,0.2-8.9,8.1-8.9,8.1l0.4,16.4v9.9h18.6v-4.7l-0.8-24.4C1019.5,691,1020,685.5,1010.1,685.7
			z"/>
		<g>
			<path class="st2" d="M1012.9,720.4C1012.9,720.4,1012.8,720.4,1012.9,720.4c-1.4-0.1-2.7-0.1-4-0.2c-0.4,0-0.8-0.2-1.1-0.6
				c-0.3-0.3-0.4-0.8-0.3-1.2l0.1-0.4l-1.7-1.4c-0.6-0.5-0.7-1.3-0.3-2l2.4-3.6c0.3-0.4,0.8-0.7,1.3-0.7l0,0l3,0.1
				c0.5,0,0.9,0.2,1.2,0.6l2,2.7c0.3,0.5,0.4,1.1,0.1,1.6l-1.4,2.4l0.2,0.7c0.2,0.5,0.1,1-0.2,1.4
				C1013.8,720.2,1013.4,720.4,1012.9,720.4z M1010.8,717.3c0.1,0,0.1,0,0.2,0c0-0.2,0.1-0.3,0.2-0.4l1.2-2.1l-1-1.4h-1.4l-1.2,1.8
				l1.4,1.1C1010.6,716.5,1010.8,716.9,1010.8,717.3z"/>
		</g>
		<g>
			<path class="st2" d="M1001.6,712.2c-0.4,0-0.8-0.2-1.1-0.4c-0.3-0.3-0.4-0.7-0.4-1.1l-0.1-18.1c0-2.1,0.8-4.1,2.3-5.6
				s3.5-2.3,5.6-2.4h6.1l0,0c2,0,3.8,0.7,5.3,2.1c1.4,1.4,2.2,3.2,2.2,5.2l0.1,18.5c0,0.4-0.2,0.8-0.4,1.1c-0.3,0.3-0.7,0.4-1.1,0.4
				L1001.6,712.2C1001.7,712.2,1001.6,712.2,1001.6,712.2z M1013.9,687.7h-6.1c-1.3,0-2.5,0.5-3.4,1.5c-0.9,0.9-1.4,2.2-1.4,3.5
				l0.1,16.6l15.4-0.1l-0.1-17c0-1.2-0.5-2.3-1.3-3.1C1016.2,688.1,1015.2,687.7,1013.9,687.7L1013.9,687.7z"/>
		</g>
		<g>
			<path class="st2" d="M1019.8,719.8C1019.7,719.8,1019.7,719.8,1019.8,719.8c-0.9,0-1.5-0.7-1.5-1.6l0.3-7.7
				c0-0.8,0.7-1.5,1.6-1.4c0.8,0,1.5,0.7,1.4,1.6l-0.3,7.7C1021.2,719.1,1020.6,719.8,1019.8,719.8z"/>
		</g>
		<g>
			<path class="st2" d="M989.2,719c-0.6,0-1.1-0.3-1.4-0.9c-0.3-0.8,0-1.6,0.8-2l10.5-4.5c0.8-0.3,1.6,0,2,0.8c0.3,0.8,0,1.6-0.8,2
				l-10.5,4.5C989.6,719,989.4,719,989.2,719z"/>
		</g>
		<g>
			<path class="st2" d="M1033.3,720.4c-0.2,0-0.5-0.1-0.7-0.2l-13.3-6.8c-0.7-0.4-1-1.3-0.7-2c0.4-0.7,1.3-1,2-0.7l13.3,6.8
				c0.7,0.4,1,1.3,0.7,2C1034.4,720.1,1033.9,720.4,1033.3,720.4z"/>
		</g>
		<g>
			<path class="st2" d="M1011.5,708.1c-1.3,0-2.5-0.6-3.7-1.9c-0.6-0.6-0.5-1.6,0.1-2.1c0.6-0.6,1.6-0.5,2.1,0.1
				c0.6,0.7,1.2,1,1.6,1c0.3,0,0.6-0.2,0.9-0.6c0.6-0.6,1.5-0.7,2.1-0.1c0.6,0.6,0.7,1.5,0.1,2.1c-0.9,0.9-1.8,1.5-2.9,1.6
				C1011.7,708.1,1011.6,708.1,1011.5,708.1z"/>
		</g>
	</g>
	<g>
		<path class="st1" d="M674.4,521.1c-11.3,0-9.2,9-9.2,9l0.3,4.8l0.8,12.4l0.9,8.3l0.6,5.9l0.3,1.3l-3.7,4.4l7.8,4.5l3.5-4.7
			l2.9,4.2l7.7-2.4l-1.6-6l0.1-3.2l0.5-6.6l-0.1-2.2l-0.6-11.6L684,531l-0.3-4.5C683.8,526.5,682.1,521.1,674.4,521.1z"/>
		<g>
			<g>
				<path class="st2" d="M677,563.7c-0.3,0-0.6-0.1-0.9-0.3l-4-2.8c-0.5-0.4-0.7-1-0.6-1.6l1.3-4.9l-1.6-2.3c-0.3-0.5-0.3-1.1,0-1.6
					l1.8-2.9c0.2-0.4,0.7-0.7,1.1-0.7l3-0.3c0.5,0,1,0.2,1.3,0.6l2.6,3.5c0.5,0.6,0.4,1.5-0.2,2l-1.7,1.6l1.3,5.1
					c0.1,0.5,0,1-0.3,1.3l-2.3,2.8C677.9,563.5,677.4,563.7,677,563.7z M674.8,558.8l2,1.4l0.9-1.1l-1.4-5.2c-0.1-0.5,0-1.1,0.4-1.5
					l1.3-1.3l-1.3-1.8l-1.4,0.1l-0.9,1.5l1.4,2.1c0.2,0.4,0.3,0.8,0.2,1.2L674.8,558.8z"/>
			</g>
			<g>
				<path class="st2" d="M666.3,548.8c-0.8,0-1.4-0.6-1.5-1.4l-1.1-17.9c-0.3-4.7,3.3-8.7,7.9-9l4.2-0.3c2.4-0.1,4.7,0.7,6.5,2.2
					c1.8,1.6,2.9,3.8,3,6.2l1.1,17.3c0,0.4-0.1,0.8-0.4,1.1c-0.3,0.3-0.6,0.5-1,0.5L666.3,548.8
					C666.4,548.8,666.3,548.8,666.3,548.8z M671.8,523.6c-3,0.2-5.3,2.8-5.1,5.8l1,16.4l15.7-1l-1-15.8c-0.1-1.6-0.8-3.1-2-4.1
					c-1.2-1.1-2.7-1.6-4.4-1.5L671.8,523.6L671.8,523.6z M671.7,522.1L671.7,522.1L671.7,522.1z"/>
			</g>
			<g>
				<path class="st2" d="M671.7,573.2c-0.3,0-0.5-0.1-0.7-0.2l-7.3-4.1c-0.4-0.2-0.6-0.6-0.7-1c-0.1-0.4,0-0.9,0.3-1.2l3.1-4.3
					l-1.6-15c-0.1-0.8,0.5-1.6,1.3-1.6c0.8-0.1,1.6,0.5,1.6,1.3l1.6,15.5c0,0.4-0.1,0.7-0.3,1l-2.5,3.4l4.7,2.7l3.1-3.8
					c0.3-0.4,0.8-0.6,1.3-0.5c0.5,0,0.9,0.3,1.2,0.7l2.1,3.4l5.5-2l-1.2-4.1c0-0.2-0.1-0.3-0.1-0.5l0.5-11.9c0-0.8,0.7-1.5,1.6-1.4
					c0.8,0,1.5,0.7,1.4,1.6l-0.5,11.7l1.5,5.2c0.2,0.8-0.2,1.6-0.9,1.8l-7.9,2.9c-0.7,0.2-1.4,0-1.8-0.6l-1.6-2.6l-2.6,3.2
					C672.6,573,672.2,573.2,671.7,573.2z"/>
			</g>
			<g>
				<path class="st2" d="M687.1,582.9c-0.6,0-1.2-0.4-1.4-1l-4.5-11.6c-0.3-0.8,0.1-1.6,0.9-1.9c0.8-0.3,1.6,0.1,1.9,0.9l4.5,11.6
					c0.3,0.8-0.1,1.6-0.9,1.9C687.5,582.9,687.3,582.9,687.1,582.9z"/>
			</g>
			<g>
				<path class="st2" d="M660.2,584.5c-0.2,0-0.5-0.1-0.7-0.2c-0.7-0.4-1-1.3-0.6-2l7.5-13.6c0.4-0.7,1.3-1,2-0.6s1,1.3,0.6,2
					l-7.5,13.6C661.2,584.2,660.7,584.5,660.2,584.5z"/>
			</g>
			<g>
				<path class="st2" d="M681.4,568.2c-0.7,0-1.3-0.5-1.5-1.2l-0.6-2.9c-0.2-0.8,0.3-1.6,1.1-1.8s1.6,0.3,1.8,1.1l0.6,2.9
					c0.2,0.8-0.3,1.6-1.1,1.8C681.6,568.1,681.5,568.2,681.4,568.2z"/>
			</g>
			<g>
				<path class="st2" d="M697,562.5c-0.4,0-0.9-0.2-1.2-0.6l-9.8-12.6c-0.5-0.7-0.4-1.6,0.3-2.1s1.6-0.4,2.1,0.3l9.8,12.6
					c0.5,0.7,0.4,1.6-0.3,2.1C697.7,562.4,697.3,562.5,697,562.5z"/>
			</g>
			<g>
				<path class="st2" d="M666.4,550.3c-0.4,0-0.8-0.2-1.1-0.5l-14.4-16.4c-0.5-0.6-0.5-1.6,0.1-2.1s1.6-0.5,2.1,0.1l14.4,16.4
					c0.5,0.6,0.5,1.6-0.1,2.1C667.1,550.2,666.8,550.3,666.4,550.3z"/>
			</g>
			<g>
				<path class="st2" d="M674.5,544.1L674.5,544.1c-1.1,0-2.2-0.5-3.1-1.4c-0.6-0.6-0.6-1.5,0-2.1s1.5-0.6,2.1,0
					c0.4,0.4,0.7,0.5,1,0.5c0.4,0,1-0.4,1.6-1.1c0.5-0.6,1.5-0.7,2.1-0.2s0.7,1.5,0.2,2.1C677.2,543.4,675.9,544.1,674.5,544.1z"/>
			</g>
		</g>
	</g>
	<g>
		<path class="st1" d="M205.8,657.2c-7.7-0.2-8.7,8.5-8.7,8.5l0.3,4.5l0.7,11.7l0.8,7.9l0.6,5.5l-3.2,5.4l7.3,4.3l3.3-4.4l2.8,3.9
			l7.3-2.3l-1.5-5.7l0.1-3l0.5-6.2l-0.1-2.1l-0.6-11l-0.1-11.3C215.3,662.8,214,657.4,205.8,657.2z"/>
		<g>
			<g>
				<path class="st2" d="M207.7,697.6c-0.3,0-0.6-0.1-0.9-0.3l-3.7-2.8c-0.5-0.4-0.7-1-0.5-1.6l1.4-4.6l-1.4-2.3
					c-0.3-0.5-0.3-1.1,0-1.6l1.9-2.7c0.3-0.4,0.7-0.6,1.2-0.7l2.9-0.2c0.5,0,1,0.2,1.3,0.6l2.4,3.4c0.4,0.6,0.3,1.5-0.2,2l-1.6,1.4
					l1.1,4.9c0.1,0.5,0,1-0.3,1.3L209,697C208.5,697.5,208.1,697.6,207.7,697.6z M205.7,692.8l1.7,1.3l0.9-1l-1.1-5
					c-0.1-0.5,0.1-1.1,0.5-1.5l1.3-1.1l-1.1-1.7l-1.3,0.1l-0.9,1.3l1.2,2c0.2,0.4,0.3,0.8,0.2,1.2L205.7,692.8z"/>
			</g>
			<g>
				<path class="st2" d="M198.1,682.9c-0.8,0-1.5-0.7-1.5-1.5l-0.3-16.8c-0.1-4.7,3.6-8.5,8.3-8.6l3.4-0.1c5-0.1,9.1,3.9,9.2,8.8
					l0.3,16.3c0,0.4-0.1,0.8-0.4,1.1c-0.3,0.3-0.7,0.5-1.1,0.5L198.1,682.9L198.1,682.9z M204.6,659c-3,0.1-5.4,2.5-5.4,5.6
					l0.3,15.3l14.9-0.3l-0.3-14.8c-0.1-3.3-2.8-6-6.1-5.9L204.6,659L204.6,659z M204.6,657.5L204.6,657.5L204.6,657.5z"/>
			</g>
			<g>
				<path class="st2" d="M202.3,706.5c-0.3,0-0.5-0.1-0.8-0.2l-6.8-4.2c-0.4-0.2-0.6-0.6-0.7-1c-0.1-0.4,0-0.9,0.3-1.2l3.1-4
					l-0.9-14.4c-0.1-0.8,0.6-1.5,1.4-1.6c0.8-0.1,1.5,0.6,1.6,1.4l0.9,14.9c0,0.4-0.1,0.7-0.3,1l-2.5,3.1l4.3,2.7l3.1-3.5
					c0.3-0.4,0.8-0.5,1.3-0.5c0.5,0.1,0.9,0.3,1.1,0.8l1.8,3.2l5.2-1.7l-1-3.9c0-0.2-0.1-0.3,0-0.5l1-11.4c0.1-0.8,0.8-1.4,1.6-1.4
					c0.8,0.1,1.4,0.8,1.4,1.6l-1,11.1l1.2,5c0.2,0.8-0.2,1.5-1,1.8l-7.7,2.5c-0.7,0.2-1.4-0.1-1.8-0.7l-1.4-2.5l-2.6,2.9
					C203.1,706.3,202.7,706.5,202.3,706.5z"/>
			</g>
			<g>
				<path class="st2" d="M212.9,721.7c-0.8,0-1.5-0.7-1.5-1.5l-0.1-16.7c0-0.8,0.7-1.5,1.5-1.5c0.9,0,1.5,0.7,1.5,1.5l0.1,16.7
					C214.4,721,213.7,721.7,212.9,721.7L212.9,721.7z"/>
			</g>
			<g>
				<path class="st2" d="M202.5,721.8c-0.7,0-1.3-0.5-1.5-1.2l-4-17.7c-0.2-0.8,0.3-1.6,1.1-1.8s1.6,0.3,1.8,1.1l4,17.7
					c0.2,0.8-0.3,1.6-1.1,1.8C202.7,721.8,202.6,721.8,202.5,721.8z"/>
			</g>
			<g>
				<path class="st2" d="M211.7,702c-0.7,0-1.3-0.5-1.5-1.2l-0.5-2.8c-0.1-0.8,0.4-1.6,1.2-1.7c0.8-0.1,1.6,0.4,1.7,1.2l0.5,2.8
					c0.1,0.8-0.4,1.6-1.2,1.7C211.9,702,211.8,702,211.7,702z"/>
			</g>
			<g>
				<path class="st2" d="M222.9,696.1c-0.6,0-1.1-0.3-1.4-0.9l-4.9-11.3c-0.3-0.8,0-1.6,0.8-2c0.8-0.3,1.6,0,2,0.8l4.9,11.3
					c0.3,0.8,0,1.6-0.8,2C223.3,696.1,223.1,696.1,222.9,696.1z"/>
			</g>
			<g>
				<path class="st2" d="M191.2,694.8c-0.3,0-0.6-0.1-0.8-0.2c-0.7-0.5-0.9-1.4-0.4-2.1l6.9-10.5c0.5-0.7,1.4-0.9,2.1-0.4
					c0.7,0.5,0.9,1.4,0.4,2.1l-6.9,10.5C192.2,694.6,191.7,694.8,191.2,694.8z"/>
			</g>
			<g>
				<path class="st2" d="M206.2,678.8c-0.1,0-0.2,0-0.2,0c-1-0.1-2-0.6-2.9-1.5c-0.6-0.6-0.6-1.5,0-2.1s1.5-0.6,2.1,0
					c0.2,0.2,0.6,0.5,0.9,0.5c0.4,0,0.9-0.3,1.5-1c0.6-0.6,1.5-0.7,2.1-0.1c0.6,0.6,0.7,1.5,0.1,2.1
					C208.7,678.1,207.5,678.8,206.2,678.8z"/>
			</g>
			<g>
				<path class="st2" d="M205,670.5h-3.3c-0.8,0-1.5-0.7-1.5-1.5v-3.8c0-0.8,0.7-1.5,1.5-1.5h3.3c0.8,0,1.5,0.7,1.5,1.5v3.8
					C206.5,669.9,205.8,670.5,205,670.5z M203.1,667.5h0.3v-0.8h-0.3V667.5z"/>
			</g>
			<g>
				<path class="st2" d="M211.1,670.5h-3.3c-0.8,0-1.5-0.7-1.5-1.5v-3.8c0-0.8,0.7-1.5,1.5-1.5h3.3c0.8,0,1.5,0.7,1.5,1.5v3.8
					C212.6,669.9,212,670.5,211.1,670.5z M209.3,667.5h0.3v-0.8h-0.3V667.5z"/>
			</g>
			<g>
				<path class="st2" d="M215.7,669.7c-0.1,0-0.2,0-0.3,0l-4.6-1c-0.8-0.2-1.3-1-1.1-1.8s1-1.3,1.8-1.1l4.6,1c0.8,0.2,1.3,1,1.1,1.8
					C217,669.2,216.4,669.7,215.7,669.7z"/>
			</g>
			<g>
				<path class="st2" d="M197.8,669.7c-0.7,0-1.3-0.4-1.4-1.1c-0.2-0.8,0.3-1.6,1.1-1.8l3.9-1c0.8-0.2,1.6,0.3,1.8,1.1
					s-0.3,1.6-1.1,1.8l-3.9,1C198,669.7,197.9,669.7,197.8,669.7z"/>
			</g>
			<g>
				<path class="st2" d="M207.8,666.7H205c-0.8,0-1.5-0.7-1.5-1.5s0.7-1.5,1.5-1.5h2.9c0.8,0,1.5,0.7,1.5,1.5
					C209.3,666.1,208.6,666.7,207.8,666.7z"/>
			</g>
		</g>
		<g>
			<g>
				<polygon class="st1" points="205,701.6 190.3,694 179.5,683.2 166.1,696.7 178.5,709.1 197.1,717.9 				"/>
				<path class="st2" d="M197.1,719.4c-0.2,0-0.4,0-0.6-0.1l-18.6-8.7c-0.2-0.1-0.3-0.2-0.4-0.3L165,697.8c-0.6-0.6-0.6-1.5,0-2.1
					l13.4-13.5c0.3-0.3,0.7-0.4,1.1-0.4l0,0c0.4,0,0.8,0.2,1.1,0.4l10.7,10.7l14.5,7.5c0.7,0.4,1,1.3,0.7,2l-7.8,16.2
					C198.2,719,197.7,719.4,197.1,719.4z M179.4,707.9l17,8l6.5-13.6l-13.4-6.9c-0.1-0.1-0.3-0.2-0.4-0.3l-9.8-9.8L168,696.7
					L179.4,707.9z"/>
			</g>
			<g>
				<path class="st2" d="M197.3,705.1c-0.2,0-0.4,0-0.6-0.1l-4.6-2c-0.8-0.3-1.1-1.2-0.8-2s1.2-1.1,2-0.8l4.6,2
					c0.8,0.3,1.1,1.2,0.8,2C198.4,704.8,197.8,705.1,197.3,705.1z"/>
			</g>
			<g>
				<path class="st2" d="M177.9,701.2c-0.4,0-0.7-0.1-1-0.4l-3.8-3.6c-0.6-0.6-0.6-1.5-0.1-2.1c0.6-0.6,1.5-0.6,2.1-0.1l3.8,3.6
					c0.6,0.6,0.6,1.5,0.1,2.1C178.7,701.1,178.3,701.2,177.9,701.2z"/>
			</g>
			<g>
				<path class="st2" d="M182.5,696.5c-0.4,0-0.7-0.1-1-0.4l-3.5-3.4c-0.6-0.6-0.6-1.5,0-2.1s1.5-0.6,2.1,0l3.5,3.4
					c0.6,0.6,0.6,1.5,0,2.1C183.3,696.3,182.9,696.5,182.5,696.5z"/>
			</g>
			<g>
				<path class="st2" d="M194.9,710.2c-0.2,0-0.4,0-0.6-0.1l-6.6-3c-0.8-0.3-1.1-1.2-0.7-2c0.3-0.8,1.2-1.1,2-0.7l6.6,3
					c0.8,0.3,1.1,1.2,0.7,2C196,709.9,195.5,710.2,194.9,710.2z"/>
			</g>
			<g>
				<path class="st2" d="M181.3,707.2c-0.3,0-0.7-0.1-0.9-0.3c-0.6-0.5-0.7-1.5-0.2-2.1l7-8.6c0.5-0.6,1.5-0.7,2.1-0.2
					s0.7,1.5,0.2,2.1l-7,8.6C182.1,707,181.7,707.2,181.3,707.2z"/>
			</g>
		</g>
	</g>
	<path class="st1" d="M79,67"/>
	<line class="st7" x1="-195" y1="49" x2="-531" y2="-107"/>
</g>
</svg>
