<?xml version="1.0" encoding="utf-8"?>
<!-- Generator: Adobe Illustrator 19.2.0, SVG Export Plug-In . SVG Version: 6.00 Build 0)  -->
<svg version="1.1" xmlns="http://www.w3.org/2000/svg" xmlns:xlink="http://www.w3.org/1999/xlink" x="0px" y="0px"
	 viewBox="0 0 1400 1400" style="enable-background:new 0 0 1400 1400;" xml:space="preserve">
<style type="text/css">
	.st0{fill:#FFFFFF;}
	.st1{fill:#FFE1C5;}
	.st2{fill:#6A79A8;}
	.st3{fill:#E89B3E;}
	.st4{fill:#FFF0A9;}
	.st5{fill:#BBDFF5;}
	.st6{fill:#FF9C81;}
</style>
<g id="_x2014_ÎÓÈ_x5F_1_x5F_1_x5F_">
	<g id="XMLID_32_">
		<rect x="17.7" y="91" class="st0" width="1364.5" height="1307"/>
	</g>
	<g>
		<path class="st1" d="M405.1,1245.7c-27.5-5.7-357.5-56.9-333.2-434.9S126.8,319.2,255,277.6C383.3,236,695.2,39.2,939.9,226.3
			s508.8,354.9,404,653.7c-104.8,298.8-122,398.4-395.4,383.2S535.7,1272.8,405.1,1245.7z"/>
	</g>
	<g id="XMLID_28_">
		<g id="XMLID_36_">
			<path class="st0" d="M196.4,425.1h467.3c15.6,0,28.4,12.8,28.4,28.4v36.2c0,15.6-12.8,28.4-28.4,28.4H196.4
				c-15.6,0-28.4-12.8-28.4-28.4v-36.2C168,437.9,180.7,425.1,196.4,425.1z"/>
		</g>
		<g id="XMLID_35_">
			<path class="st0" d="M160.6,550.3h185.7c16.1,0,29.2,16.7,29.2,37.1l0,0c0,20.4-13.2,37.1-29.2,37.1H160.6
				c-16.1,0-29.2-16.7-29.2-37.1l0,0C131.3,567,144.5,550.3,160.6,550.3z"/>
		</g>
		<g id="XMLID_34_">
			<path class="st0" d="M123.8,322.1h189.7c15,0,27.2,12.2,27.2,27.2v19.8c0,15-12.2,27.2-27.2,27.2H123.8
				c-15,0-27.2-12.2-27.2-27.2v-19.8C96.6,334.4,108.8,322.1,123.8,322.1z"/>
		</g>
		<g id="XMLID_33_">
			<path class="st0" d="M223.4,393.4c9.1,0,16.4,7.1,16.4,15.9s-7.3,15.9-16.4,15.9h71.5c-9.1,0-16.4-7.1-16.4-15.9
				s7.3-15.9,16.4-15.9H223.4z"/>
		</g>
		<g id="XMLID_30_">
			<path class="st0" d="M200.2,517.2c9.4,0,17.1,7.4,17.1,16.6s-7.7,16.6-17.1,16.6h74.6c-9.4,0-17.1-7.4-17.1-16.6
				s7.7-16.6,17.1-16.6H200.2z"/>
		</g>
	</g>
	<g id="XMLID_8_">
		<g id="XMLID_27_">
			<path class="st0" d="M1267.5,942H825.9c-15.6,0-28.4-12.8-28.4-28.4v-36c0-15.6,12.8-28.4,28.4-28.4h441.6
				c15.6,0,28.4,12.8,28.4,28.4v36C1295.9,929.2,1283.1,942,1267.5,942z"/>
		</g>
		<g id="XMLID_14_">
			<path class="st0" d="M1302.9,817.2h-176.5c-15.3,0-27.8-16.7-27.8-37l0,0c0-20.4,12.5-37,27.8-37h176.5c15.3,0,27.8,16.7,27.8,37
				l0,0C1330.7,800.5,1318.2,817.2,1302.9,817.2z"/>
		</g>
		<g id="XMLID_13_">
			<path class="st0" d="M1336,1044.8h-176.5c-15.3,0-27.8-16.7-27.8-37l0,0c0-20.4,12.5-37,27.8-37H1336c15.3,0,27.8,16.7,27.8,37
				l0,0C1363.8,1028.1,1351.2,1044.8,1336,1044.8z"/>
		</g>
		<g id="XMLID_10_">
			<path class="st0" d="M1243.2,973.7c-8.6,0-15.6-7.1-15.6-15.8c0-8.7,7-15.8,15.6-15.8h-68c8.6,0,15.6,7.1,15.6,15.8
				c0,8.7-7,15.8-15.6,15.8H1243.2z"/>
		</g>
		<g id="XMLID_9_">
			<path class="st0" d="M1265.3,850.2c-9,0-16.3-7.4-16.3-16.5s7.3-16.5,16.3-16.5h-71c9,0,16.3,7.4,16.3,16.5s-7.3,16.5-16.3,16.5
				H1265.3z"/>
		</g>
	</g>
	<g>
		<g>
			<path class="st0" d="M1003.2,1251.9H413.5c-6.2,0-11.2-5.8-11.2-12.9v-38.2c0-7.1,5-12.9,11.2-12.9H594c6.2,0,11.2-5.8,11.2-12.9
				v-50.7c0-7.1,5-12.9,11.2-12.9h183.8c6.2,0,11.2,5.8,11.2,12.9v88.9c0,7.1,5,12.9,11.2,12.9h180.4c6.2,0,11.2,5.8,11.2,12.9l0,0
				C1014.5,1246.1,1009.4,1251.9,1003.2,1251.9z"/>
		</g>
		<g>
			<path class="st2" d="M1014.5,1254.6c-1.2,0-2.1-1.2-2.1-2.7V1239c0-5.6-4.1-10.1-9.1-10.1H822.8c-7.4,0-13.4-7-13.4-15.6v-88.9
				c0-5.6-4.1-10.1-9.1-10.1H616.5c-5,0-9.1,4.6-9.1,10.1v50.7c0,8.6-6,15.6-13.4,15.6H413.5c-5,0-9.1,4.6-9.1,10.1v51.1
				c0,1.5-1,2.7-2.1,2.7c-1.2,0-2.1-1.2-2.1-2.7v-51.1c0-8.6,6-15.6,13.4-15.6H594c5,0,9.1-4.6,9.1-10.1v-50.7
				c0-8.6,6-15.6,13.4-15.6h183.8c7.4,0,13.4,7,13.4,15.6v88.9c0,5.6,4.1,10.1,9.1,10.1h180.4c7.4,0,13.4,7,13.4,15.6v12.9
				C1016.6,1253.4,1015.6,1254.6,1014.5,1254.6z"/>
		</g>
	</g>
	<g>
		<g>
			<path class="st2" d="M900.4,524.6c-0.5,0-1.1-0.2-1.5-0.7c-0.9-1-0.9-2.8-0.1-3.9c30.2-40.7,64.7-75.9,102.6-104.5
				c1-0.8,2.3-0.3,2.9,1c0.6,1.3,0.3,3-0.8,3.7c-37.5,28.3-71.7,63.1-101.6,103.5C901.5,524.3,900.9,524.6,900.4,524.6z"/>
		</g>
		<g>
			<path class="st2" d="M848.6,453.5c-0.2,0-0.4,0-0.7-0.1c-1.1-0.5-1.8-2-1.4-3.4c13.4-53.3,32.6-103.9,57-150.4
				c0.7-1.3,2-1.6,3-0.8c1,0.8,1.3,2.5,0.6,3.8c-24.2,46.1-43.3,96.3-56.5,149.1C850.3,452.8,849.5,453.5,848.6,453.5z"/>
		</g>
		<g>
			<path class="st2" d="M619.9,467.8c-1,0-1.8-0.8-2.1-2c-11-53.6-28-105-50.3-152.6c-0.6-1.3-0.3-3,0.7-3.7c1-0.8,2.3-0.3,2.9,1
				c22.5,48.1,39.6,99.9,50.7,154c0.3,1.5-0.4,2.9-1.5,3.3C620.3,467.8,620.1,467.8,619.9,467.8z"/>
		</g>
		<g>
			<path class="st2" d="M562.5,523.4c-0.4,0-0.8-0.1-1.1-0.4c-37.3-28.9-77.5-50.9-119.6-65.6c-1.1-0.4-1.8-1.9-1.5-3.4
				c0.3-1.5,1.5-2.3,2.6-1.9c42.5,14.8,83.1,37.1,120.7,66.2c1,0.8,1.3,2.5,0.7,3.8C564,522.9,563.3,523.4,562.5,523.4z"/>
		</g>
	</g>
	<g>
		<g>
			<g>
				<path class="st0" d="M653.6,570.9c-55.5,170.3-105.9,328.9-211.2,462.9c2.1-2.6,29.8,7.5,32.9,8.1
					c65.1,14.6,130.7,21,196.8,19.5c60.3-1.3,192.8,14.8,222.4-70.6c-23-1.6-37.6-30.9-44.8-57.8c-25.3-94-15.8-200.9-16.1-298.5
					c0-2.2-0.2-64.7-0.2-64.7C833.3,569.8,653.6,570.9,653.6,570.9z"/>
			</g>
			<g>
				<path class="st3" d="M659.9,582C604.4,752.3,554,910.9,448.7,1044.8c2.1-2.6,29.8,7.5,32.9,8.1c65.1,14.6,130.7,21,196.8,19.5
					c60.3-1.3,192.8,14.8,222.4-70.6c-23-1.6-37.6-30.9-44.8-57.8c-25.3-94-15.8-200.9-16.1-298.5c0-2.2-0.2-64.7-0.2-64.7
					C839.6,580.8,659.9,582,659.9,582z"/>
			</g>
			<g>
				<path class="st2" d="M727.8,1064.6c-9.3,0-18.2-0.1-26.6-0.3c-10.6-0.2-20.7-0.3-29.1-0.1c-66.3,1.5-132.6-5.1-197.2-19.6
					c-0.8-0.2-2.5-0.7-5.8-1.8c-6.2-2-22.5-7.4-25.6-6.7c-0.8,0.7-1.9,0.5-2.7-0.4c-0.8-1.1-0.8-2.8,0-3.9
					C543.8,901,594.6,745.1,648.3,580.1l3.3-10.2c0.3-1,1.1-1.7,2-1.7c179.7-1.1,179.7-1.1,179.7-1.1c1.2,0,2.1,1.2,2.1,2.7
					c0,0,0,0,0,0.1c0,0.9,0.1,21.5,0.2,61.1l0,3.5c0.1,21.3-0.3,43.4-0.7,64.8c-1.5,78.5-3,159.8,16.7,232.8
					c4.4,16.2,17.3,54.2,42.9,56c0.7,0,1.3,0.5,1.7,1.3c0.4,0.8,0.4,1.7,0.1,2.5C873.7,1057.6,792.8,1064.6,727.8,1064.6z
					 M680.7,1058.6c6.4,0,13.3,0.1,20.6,0.2c65.2,1,163.2,2.6,190-65.7c-26.1-4.6-39.1-42.7-43.6-59.3c-19.9-74-18.4-155.7-17-234.7
					c0.4-21.4,0.8-43.5,0.7-64.7l-0.2-57c0-2.1,0-3.7,0-4.9L655,573.7l-2.8,8.5C599,745.8,548.7,900.4,447.6,1031
					c4.2,0.8,11.1,2.8,22.6,6.5c2.6,0.8,4.8,1.6,5.5,1.7c64.3,14.4,130.3,21,196.3,19.5C674.7,1058.7,677.6,1058.6,680.7,1058.6z
					 M443.9,1035.7C443.9,1035.7,443.9,1035.7,443.9,1035.7C443.9,1035.7,443.9,1035.7,443.9,1035.7z"/>
			</g>
		</g>
		<g id="XMLID_12_">
			<path class="st2" d="M789.8,1105.9c-0.1,0-0.1,0-0.2,0c-1.2-0.1-2.1-1.5-2-3l5.5-79.3l2-82.6c0-1.5,1-2.6,2.1-2.6c0,0,0,0,0.1,0
				c1.2,0,2.1,1.3,2.1,2.8l-2,82.7c0,0.1,0,0.1,0,0.2l-5.5,79.3C791.9,1104.8,790.9,1105.9,789.8,1105.9z"/>
		</g>
		<g id="XMLID_11_">
			<path class="st2" d="M634.2,1105.9c-0.2,0-0.5-0.1-0.7-0.2c-1.1-0.5-1.7-2.1-1.3-3.5l26.8-92.7l6.5-69.2c0.1-1.5,1.2-2.6,2.4-2.4
				c1.2,0.2,2,1.5,1.9,3l-6.5,69.5c0,0.2-0.1,0.4-0.1,0.6l-26.9,93C635.9,1105.2,635.1,1105.9,634.2,1105.9z"/>
		</g>
		<g>
			<g id="XMLID_6_">
				<path class="st0" d="M638.3,867.4c-0.2,22.4-5.7,63.9,17.4,71.9c4,1.4,8.1,1.4,12.3,1.4c9.2,0,20.8,2.2,29.1-4.1
					c2-1.5,3.7-3.4,5.3-5.4c17.4-21.2,21.1-47,36.6-70.5c2.2-3.3,6.4-2.7,7.9,1.2c8.7,22.8,14.2,47.5,20.8,71.3
					c1.4,5,2.9,7.8,7.2,7.8c15.8-0.1,50,3.6,50.1-24.5l0.7-156.6c-28.9,5.1-60.5,8-93.2,8c-33,0-64.4-2.9-93.5-8.1
					C638.9,759.8,638.6,831.7,638.3,867.4z"/>
				<path class="st2" d="M786.1,944c-2.1,0-4.2,0-6-0.1c-1.9,0-3.6-0.1-5.2-0.1c0,0,0,0-0.1,0c-6,0-7.9-5-9.2-9.6
					c-1.8-6.4-3.5-12.9-5.1-19.2c-4.5-17.3-9.2-35.3-15.6-51.9c-0.4-1-1.1-1.7-2-1.8c-0.9-0.1-1.7,0.3-2.3,1.1
					c-6.8,10.3-11.3,21.3-15.8,31.9c-5.5,13.2-11.1,26.8-21,38.8c-1.7,2.1-3.5,4.2-5.7,5.8c-7.2,5.4-16.4,5-24.5,4.6
					c-2-0.1-3.9-0.2-5.7-0.2c-0.1,0-0.3,0-0.4,0c-4.1,0-8.3,0-12.4-1.5c-21.5-7.5-20.2-40.2-19.3-64.1c0.1-3.8,0.3-7.3,0.3-10.5
					c0.3-35.3,0.7-106.9,0.7-107.6c0-0.8,0.3-1.5,0.7-2c0.5-0.5,1.1-0.7,1.7-0.6c29.8,5.3,61.1,8.1,93.2,8.1
					c32.1,0,63.4-2.7,92.9-7.9c0.6-0.1,1.2,0.1,1.7,0.6c0.5,0.5,0.7,1.3,0.7,2.1l-0.7,156.6c0,6.6-1.8,12.1-5.2,16.3
					C814,942.8,798.5,944,786.1,944z M775.3,938.4c1.5,0,3.1,0,4.8,0.1c12.3,0.2,30.9,0.5,38.8-9.4c2.6-3.2,3.9-7.3,3.9-12.5
					l0.7-153.5c-29,5-59.7,7.5-91.1,7.5c-31.4,0-62.1-2.6-91.3-7.7c-0.1,14.2-0.3,73.4-0.6,104.5l0,0c0,3.2-0.2,6.9-0.3,10.7
					c-0.8,22.1-2,52.3,16.1,58.6c3.7,1.3,7.8,1.3,11.7,1.3c0,0,0,0,0,0c1.9,0,3.8,0.1,5.8,0.2c7.9,0.3,16.1,0.7,22.2-3.9
					c1.7-1.3,3.2-2.9,4.9-5c9.3-11.4,14.6-24,20.1-37.4c4.5-10.9,9.2-22.1,16.3-32.9c1.5-2.3,3.8-3.4,6.1-3.1
					c2.3,0.4,4.3,2.2,5.3,4.9c6.4,16.9,11.2,35,15.8,52.5c1.6,6.3,3.4,12.8,5.1,19.1c1.3,4.8,2.3,6,5.1,6
					C774.9,938.4,775.1,938.4,775.3,938.4z M638.3,867.4L638.3,867.4L638.3,867.4z"/>
			</g>
			<g id="XMLID_5_">
				<path class="st2" d="M651.3,912c-1.2,0-2.1-1.2-2.1-2.7v-12.6c0-1.5,1-2.7,2.1-2.7c1.2,0,2.1,1.2,2.1,2.7v12.6
					C653.5,910.8,652.5,912,651.3,912z"/>
			</g>
			<g id="XMLID_4_">
				<path class="st2" d="M651.3,889.4c-1.2,0-2.1-1.2-2.1-2.7v-16.7c0-1.5,1-2.7,2.1-2.7c1.2,0,2.1,1.2,2.1,2.7v16.7
					C653.5,888.2,652.5,889.4,651.3,889.4z"/>
			</g>
			<g id="XMLID_3_">
				<path class="st2" d="M651.3,863.1c-1.2,0-2.1-1.2-2.1-2.7v-80.3c0-1.5,1-2.7,2.1-2.7c1.2,0,2.1,1.2,2.1,2.7v80.3
					C653.5,861.9,652.5,863.1,651.3,863.1z"/>
			</g>
		</g>
		<g>
			<g>
				<path class="st0" d="M872.7,596.2c0,0-5.7-7.3-11.9-11.9l0,0c0,0-0.1,0-0.1-0.1c-0.6-0.5-1.2-0.9-1.9-1.3l0,0.1
					c-18.4-11.8-40.8-20.9-61.3-21.2c-7.2-0.1-14.3-0.3-21.5-0.6c-1.9-0.1-3.7-0.2-5.6-0.3c-4.3-0.2-8.7-0.4-13-0.5
					c-11.9-0.4-23.9-1.1-35.7,0.8c-6.1,1-12.3,2-18.4,3c-5.9,0.9-12.2,2.9-18.1,2.9c-9.7,1.6-19.5,3-29.2,5
					c-10.9,2.3-21.8,5.4-32.2,10.6l-5.8,3.5l0,0c-0.7,0.4-1.4,0.8-2.1,1.2l-0.9,0.5c0,0,0,0,0,0c-15.6,9.9-21.9,21.2-21.9,21.2
					l29.5,53.1l6.8-6.2c5,24,9.5,45.3,9.5,45.9v57.8c29.1,5.2,60.7,8.1,93.7,8.1c32.7,0,64.1-2.8,93-8l0-0.1c0-13.3-0.1-26.5,0-39.8
					c0-17.4,0.4-34.7,0-52.1c-0.1-6.6-0.6-13.3,0.8-19.7c0.3-1.4,0.7-2.7,1.1-4c0.8-2.2,1.7-4.4,2.7-6.5l9.2,9.3L872.7,596.2z"/>
				<path class="st2" d="M732.7,770.6c-32.4,0-64-2.7-94-8.1c-1.1-0.2-1.8-1.3-1.8-2.7v-57.5c-0.2-1.3-1.7-8.7-8.6-41.6l-4.2,3.9
					c-0.5,0.4-1,0.6-1.6,0.5c-0.6-0.1-1.1-0.5-1.4-1.1l-29.5-53.1c-0.5-0.9-0.5-2.2,0-3.1c0.3-0.5,6.7-11.9,22.4-22
					c0.1-0.1,0.2-0.1,0.3-0.2l0.9-0.5c0.7-0.4,1.4-0.8,2.1-1.3l5.8-3.5c0,0,0.1,0,0.1-0.1c9.1-4.6,19.5-8,32.6-10.8
					c7.5-1.6,15.2-2.8,22.7-4c2.2-0.3,4.4-0.7,6.6-1.1c0.1,0,0.2,0,0.3,0c3.8,0,7.8-0.9,11.8-1.7c2-0.4,4-0.9,6-1.2l18.4-3
					c10.9-1.8,22.1-1.4,32.9-1l3.1,0.1c4.4,0.2,8.7,0.3,13.1,0.5l5.6,0.3c6.4,0.3,13.4,0.5,21.4,0.6c25.3,0.4,49.4,13.4,61.8,21.3
					c0.2,0,0.3,0.1,0.5,0.2c0.6,0.4,1.2,0.8,2,1.4c0.1,0,0.1,0.1,0.2,0.1c6.4,4.7,12,12,12.3,12.3c0.8,1,0.8,2.6,0.1,3.7l-33.2,50.8
					c-0.7,1.1-2.1,1.3-3,0.4l-7.3-7.3c-0.5,1.2-1,2.4-1.3,3.5c-0.4,1.3-0.8,2.5-1,3.7c-1.1,5-1,10.2-0.8,15.7c0,1.1,0.1,2.1,0.1,3.2
					c0.2,12.1,0.1,24.4,0.1,36.2c0,5.3-0.1,10.6-0.1,15.9c0,6.6,0,13.3,0,19.9c0,6.6,0,13.3,0,19.9c0,0,0,0.1,0,0.2
					c-0.1,1.3-0.8,2.4-1.8,2.6C796.2,768,764.8,770.6,732.7,770.6z M641.1,757.5c29.2,5.1,60,7.7,91.6,7.7c31.3,0,61.8-2.6,90.9-7.6
					c0-5.8,0-11.7,0-17.6c0-6.6,0-13.3,0-19.9c0-5.3,0-10.6,0.1-16c0.1-11.8,0.2-24.1-0.1-36.1c0-1,0-2.1-0.1-3.1
					c-0.2-5.7-0.3-11.5,1-17.4c0.3-1.4,0.7-2.9,1.2-4.3c0.7-2.1,1.6-4.4,2.8-6.8c0.3-0.7,0.8-1.1,1.5-1.3c0.6-0.1,1.2,0.1,1.7,0.5
					l7.6,7.6l30.6-46.8c-2-2.4-6-6.7-10.1-9.8c0,0,0,0-0.1,0c0,0,0,0,0,0c-0.4-0.3-0.9-0.6-1.3-0.9c-0.2,0-0.3-0.1-0.5-0.2
					c-20.3-13-42.3-20.7-60.3-21c-8-0.1-15.1-0.3-21.5-0.6l-5.6-0.3c-4.3-0.2-8.7-0.4-13-0.5l-3.2-0.1c-10.6-0.4-21.6-0.8-32.2,0.9
					l-18.4,3c-1.9,0.3-3.8,0.7-5.8,1.1c-4.1,0.9-8.3,1.8-12.4,1.8c-2.2,0.3-4.3,0.7-6.5,1c-7.4,1.2-15,2.4-22.5,3.9
					c-12.8,2.7-22.9,6-31.7,10.4l-5.8,3.5c-0.7,0.4-1.4,0.8-2.1,1.2l-0.7,0.4c-0.1,0-0.1,0.1-0.2,0.1c-11.7,7.4-18,15.6-20.2,18.9
					l27.3,49.2l5-4.6c0.6-0.5,1.3-0.7,2-0.4s1.2,1,1.4,1.9c9.5,45.4,9.5,46,9.5,46.6V757.5z"/>
			</g>
			<g>
				<path class="st2" d="M622.7,665.1c-0.7,0-1.3-0.4-1.7-1.1c-0.7-1.2-0.5-2.9,0.5-3.8l21.4-19.7c1-0.9,2.3-0.6,3,0.6
					s0.5,2.9-0.5,3.8L624,664.6C623.6,664.9,623.2,665.1,622.7,665.1z"/>
			</g>
			<g>
				<path class="st2" d="M839.5,649.8c-0.5,0-0.9-0.2-1.3-0.6l-12-12c-0.9-0.9-1.1-2.6-0.4-3.8c0.7-1.2,2.1-1.4,3-0.5l12,12
					c0.9,0.9,1.1,2.6,0.4,3.8C840.8,649.4,840.2,649.8,839.5,649.8z"/>
			</g>
			<g>
				<g id="XMLID_68_">
					<path class="st0" d="M834.6,559.2L761,593.4c-3.9,1.8-8.2-0.7-9.6-5.7l-6.7-23.3c-1.4-4.9,0.6-10.4,4.5-12.2l73.7-34.2
						c3.9-1.8,8.2,0.7,9.6,5.7l6.7,23.3C840.5,552,838.5,557.4,834.6,559.2z"/>
					<path class="st2" d="M758.4,596.8c-3.9,0-7.6-3.1-9.1-8l-6.7-23.3c-1.8-6.3,0.8-13.4,5.7-15.7l73.7-34.2c5-2.3,10.6,1,12.4,7.3
						l6.7,23.3c0.9,3.1,0.8,6.4-0.3,9.4c-1.1,3-3,5.2-5.4,6.3L761.7,596C760.6,596.5,759.5,596.8,758.4,596.8z M825.3,520.2
						c-0.6,0-1.2,0.1-1.8,0.4l-73.7,34.2c-2.8,1.3-4.2,5.2-3.2,8.7l6.7,23.3c1,3.5,4.1,5.3,6.9,4l73.7-34.2c1.3-0.6,2.4-1.9,3-3.5
						c0.6-1.6,0.7-3.5,0.2-5.2l-6.7-23.3C829.6,521.9,827.5,520.2,825.3,520.2z"/>
				</g>
				<g id="XMLID_67_">
					<path class="st0" d="M638.9,558.4l82.5,38.3c3.9,1.8,8.2-0.7,9.6-5.7l6.7-23.3c1.4-4.9-0.6-10.4-4.5-12.2l-82.5-38.3
						c-3.9-1.8-8.2,0.7-9.6,5.7l-6.7,23.3C633,551.1,635.1,556.5,638.9,558.4z"/>
					<path class="st2" d="M724,600c-1.1,0-2.2-0.2-3.3-0.7l-82.5-38.3l0,0c-5-2.3-7.6-9.4-5.7-15.7l6.7-23.3
						c1.8-6.3,7.4-9.6,12.4-7.3l82.5,38.3c2.4,1.1,4.4,3.4,5.4,6.3c1.1,3,1.2,6.3,0.3,9.4l-6.7,23.3C731.6,596.9,727.9,600,724,600z
						 M639.7,555.8l82.5,38.3c2.8,1.3,5.9-0.5,6.9-4l6.7-23.3c0.5-1.7,0.4-3.6-0.2-5.2c-0.6-1.6-1.7-2.9-3-3.5l-82.5-38.3
						c-2.8-1.3-5.9,0.5-6.9,4l-6.7,23.3C635.5,550.6,636.9,554.5,639.7,555.8L639.7,555.8z"/>
				</g>
			</g>
		</g>
		<g>
			<g>
				<g id="XMLID_56_">
					<path class="st0" d="M762.5,532.4l-58.6-2c-29-1-51.8-31.7-51-68.5l2.4-112c0.8-36.8,24.9-65.8,53.9-64.8l58.6,2
						c29,1,51.8,31.7,51,68.5l-2.4,112C815.7,504.4,791.5,533.4,762.5,532.4z"/>
				</g>
				<g id="XMLID_57_">
					<path class="st2" d="M764,535.1c-0.5,0-1,0-1.5,0l-58.6-2c-14.6-0.5-28.2-8.2-38.2-21.7c-10-13.5-15.3-31.1-14.9-49.6l2.4-112
						c0.4-18.5,6.5-35.8,17.1-48.5c10.6-12.7,24.5-19.5,39.1-19l58.6,2c14.6,0.5,28.2,8.2,38.2,21.7c10,13.5,15.3,31.1,14.9,49.6
						l-2.4,112c-0.4,18.5-6.5,35.8-17.1,48.5C791.3,528.4,778,535.1,764,535.1z M762.6,529.6c13.5,0.4,26.2-5.7,36-17.5
						c9.8-11.7,15.4-27.6,15.7-44.7l2.4-112c0.4-17.1-4.5-33.3-13.8-45.7c-9.2-12.4-21.7-19.5-35.2-20l-58.6-2
						c-13.4-0.5-26.2,5.7-36,17.5c-9.8,11.7-15.4,27.6-15.7,44.7l-2.4,112c-0.4,17.1,4.5,33.3,13.8,45.7c9.2,12.4,21.7,19.5,35.2,20
						L762.6,529.6z"/>
				</g>
			</g>
			<g>
				<path class="st2" d="M757.1,465.9c4.8,0,8.3,6,6.7,11.7c-3.8,13.6-14,23.4-26.1,23.4c-12,0-22.3-9.8-26.1-23.4
					c-1.6-5.7,1.9-11.7,6.7-11.7C728.7,465.9,746.6,465.9,757.1,465.9z"/>
			</g>
		</g>
		<g>
			<path class="st2" d="M535,689.7c-0.7,0-1.4-0.5-1.8-1.3l-52.5-107c-0.6-1.3-0.3-3,0.7-3.8c1-0.8,2.3-0.4,3,0.9l51.4,104.8
				l70.5-51.1c1-0.7,2.3-0.3,2.9,1c0.6,1.3,0.2,3-0.8,3.7L536,689.3C535.7,689.6,535.3,689.7,535,689.7z"/>
		</g>
		<g>
			<g>
				<path class="st2" d="M478.8,588.1c-0.9,0-1.8-0.4-2.6-1.1l-10.2-9.7c-1.9-1.8-2.3-5.2-0.9-7.6c1.4-2.4,4.1-2.9,6-1.1l10.2,9.7
					c1.9,1.8,2.3,5.2,0.9,7.6C481.4,587.3,480.1,588.1,478.8,588.1z"/>
			</g>
			<g id="XMLID_1_">
				<path class="st2" d="M483.6,582.3c-0.8,0-1.6-0.3-2.3-0.9c-4.7-3.8-10-8-10.8-8.7c-1.9-1.2-2.8-4-2.1-6.6
					c0.7-2.6,2.8-4.1,4.8-3.6c0.3-1,0.9-1.9,1.6-2.6c2-1.7,4.6-1,6,1.5l6.4,12.3c1.1,2.1,0.9,5-0.5,6.8
					C485.8,581.7,484.7,582.3,483.6,582.3z"/>
			</g>
			<g>
				<path class="st2" d="M478.8,588.1c-1.2,0-2.4-0.7-3.3-1.9c-1.5-2.3-1.3-5.7,0.5-7.7l9.3-10c1.8-2,4.5-1.7,6.1,0.6
					c1.5,2.3,1.3,5.7-0.5,7.7l-9.3,10C480.8,587.6,479.8,588.1,478.8,588.1z"/>
			</g>
		</g>
		<g>
			<g>
				<g id="XMLID_7_">
					<path class="st2" d="M968,753.9c-0.2,0-0.4,0-0.6-0.1l-83.3-30.2c-0.7-0.2-1.2-0.9-1.4-1.7l-26.6-99.5c-0.4-1.4,0.2-3,1.3-3.5
						c1.1-0.5,2.3,0.3,2.7,1.7l26.3,98.2l82.2,29.8c1.1,0.4,1.8,1.9,1.5,3.4C969.8,753.1,969,753.9,968,753.9z"/>
				</g>
			</g>
			<g>
				<g>
					<path class="st2" d="M982.1,767.2c-0.3,0-0.7-0.1-1-0.2l-13.5-4.2c-2.3-0.7-3.7-3.7-3.2-6.6c0.6-2.9,2.9-4.7,5.2-4l13.5,4.2
						c2.3,0.7,3.7,3.7,3.2,6.6C985.8,765.5,984,767.2,982.1,767.2z"/>
				</g>
				<g id="XMLID_25_">
					<path class="st2" d="M983,760.3c-0.6,0-1.1-0.1-1.6-0.4c-1.1-0.5-8.7-3.6-13.4-5.5c-2-0.8-3.2-3.2-3-5.8c0.2-2.6,1.9-4.6,4-4.8
						l12.8-1.2c2.4-0.2,4.4,2,4.6,5.1c0.1,1.1-0.1,2.2-0.6,3.1c1.5,1.7,1.9,4.6,0.9,6.9C985.9,759.3,984.4,760.3,983,760.3z"/>
				</g>
				<g>
					<path class="st2" d="M968.6,763c-0.1,0-0.1,0-0.2,0c-2.4-0.1-4.2-2.7-4.1-5.7l0.6-15.5c0.1-3,2.1-5.3,4.5-5.2
						c2.4,0.1,4.2,2.7,4.1,5.7l-0.6,15.5C972.8,760.7,970.9,763,968.6,763z"/>
				</g>
			</g>
		</g>
		<g>
			<g>
				<path class="st0" d="M820.4,272.5c14.1,1.7,27.9,5.7,41.2,11.6l13.2,5.9c0,0-19.3-44.6-34.6-58.3c-26-23.3-59.6-24.9-90.2-21.4
					c-23.7,2.7-47,8.9-70.5,13.3c-16.6,3.2-38.2,7.6-43.1,31.9c-3.6,17.7-1.2,36.1,0.4,54c1.7,19.1,4.8,38.1,7.4,57
					c4.8-34.8,24.9-63.4,50.7-69c23.3-5.1,46.2,9.4,60.5,35.1l27.9-18.1c16,0.3,64.4,18,64.4,18l-49-60.4
					C805.5,271.1,812.6,271.6,820.4,272.5z"/>
			</g>
			<g>
				<path class="st4" d="M829.9,283c14.1,1.7,27.9,5.7,41.2,11.6l13.2,5.9c0,0-19.3-44.6-34.6-58.3c-26-23.3-59.6-24.9-90.2-21.4
					c-23.7,2.7-47,8.9-70.5,13.3c-16.6,3.2-38.2,7.6-43.1,31.9c-3.6,17.7-1.2,36.1,0.4,54c1.7,19.1,4.8,38.1,7.4,57
					c4.8-34.8,24.9-63.4,50.7-69c23.3-5.1,46.2,9.4,60.5,35.1l27.9-18.1c16,0.3,64.4,18,64.4,18l-49-60.4
					C814.9,281.6,822.1,282.1,829.9,283z"/>
			</g>
			<g>
				<path class="st2" d="M645.4,368.6c-0.1,0-0.2,0-0.4,0c-1.2-0.3-1.9-1.7-1.7-3.2c5.2-37.2,25.3-64.9,51.3-70.6
					c23.3-5.1,47.4,8.8,62.7,36.2c0.7,1.2,0.5,2.9-0.5,3.8c-1,0.9-2.3,0.6-3-0.7c-14.3-25.7-36.7-38.7-58.4-34
					c-24.2,5.3-42.9,31.3-47.8,66.2C647.3,367.7,646.4,368.6,645.4,368.6z"/>
			</g>
			<g id="XMLID_18_">
				<path class="st2" d="M643.3,369.2c-1,0-1.9-0.9-2.1-2.3c-2.6-18.9-4.8-38.1-6.5-57.1c-0.2-2-0.4-4.1-0.6-6.2
					c-1.5-16-3-32.6,0.2-48.8c5.3-26.3,28.1-30.7,44.8-33.9c7.6-1.5,15.4-3.1,22.9-4.7c15.6-3.4,31.7-6.8,47.8-8.6
					c25.6-2.9,63-3.8,91.7,21.9c15.5,13.9,34.5,57.4,35.3,59.2c0.4,1,0.3,2.2-0.2,3.1c-0.6,0.9-1.5,1.2-2.4,0.8l-13.2-5.9
					c-13.4-6-27.1-9.8-40.7-11.5c-18.9-2.3-34.4-2.3-47.4,19.2c-4.3,7.1-6.5,14.1-8.9,21.5c-1.8,5.8-3.7,11.8-6.7,18
					c-0.6,1.3-1.9,1.7-2.9,0.9c-1-0.8-1.3-2.5-0.7-3.7c2.8-5.9,4.6-11.7,6.4-17.3c2.4-7.4,4.8-15.1,9.4-22.8
					c14.3-23.7,31.6-23.7,51.2-21.3c14,1.7,28,5.6,41.7,11.8l7.8,3.5c-5.9-12.7-19.8-40.9-31.1-51.1c-27.5-24.7-63.9-23.8-88.8-21
					c-15.9,1.8-31.9,5.2-47.4,8.6c-7.5,1.6-15.3,3.3-22.9,4.7c-15.5,3-36.7,7-41.3,29.8c-3,15.2-1.5,31.3-0.1,46.8
					c0.2,2.1,0.4,4.1,0.6,6.2c1.7,18.9,3.8,38,6.4,56.8c0.2,1.5-0.6,2.9-1.7,3.2C643.5,369.2,643.4,369.2,643.3,369.2z"/>
			</g>
			<g id="XMLID_17_">
				<path class="st2" d="M847.8,335.3c-0.2,0-0.4,0-0.6-0.1c-0.5-0.2-48.3-17.7-63.9-17.9c-1.2,0-2.1-1.3-2.1-2.8
					c0-1.5,0.9-2.7,2.2-2.7c12.3,0.2,42.3,10.2,56.8,15.2l-36.1-44.5c-0.9-1-0.9-2.8,0-3.9c0.8-1.1,2.2-1.1,3-0.1l42.2,52
					c0.7,0.9,0.9,2.2,0.4,3.3C849.2,334.8,848.5,335.3,847.8,335.3z"/>
			</g>
		</g>
	</g>
	<g>
		<g>
			<path class="st0" d="M1046.4,688.1c-0.3,1-0.7,1.9-1.1,2.9c-2.6,5.9-6.1,11.3-10.2,15.6c-8.2,8.6-18.9,13.2-29.6,12.4
				c-3-0.2-6-0.8-8.9-1.8l-2.2-0.8l-9.8,45.6c-0.6,2.8-0.3,5.8,0.8,8.3c1.1,2.5,3,4.4,5.2,5.1l13.5,4.7c1,0.3-52.9-18.1-51.9-17.9
				l13.4,4.6c2.2,0.9,4.6,0.4,6.6-1.1c2-1.5,3.4-3.8,4-6.6l9.8-45.6l-2.2-0.8c-7.6-2.6-14.5-7.8-19.9-15.1
				c-5.2-7-8.9-15.9-10.6-25.3c-1.1-6.1-1.3-12.5-0.6-18.8c0.1-1.1,0.3-2.2,0.5-3.3c0.9-5.1,2.4-9.9,4.1-14.7c1-2.9,2-5.9,3-8.9
				c2.3-6.8,4.6-13.7,7-20.5c2.1-6.1,4.1-12.2,6.2-18.4c0.6-1.9,1.3-3.8,1.9-5.6c0.1-0.2,0.6-2.1,0.7-2.1l80.1,27.6
				c-0.7,7.4-1.5,14.8-2.2,22.2c-0.9,9.3-2,18.7-2.9,28c-0.8,8.3-1.1,16.8-3.1,24.8C1047.6,684.4,1047,686.3,1046.4,688.1z"/>
			<path class="st2" d="M1004.2,782.8c-0.1,0-0.3,0-0.4-0.1c0,0-0.1,0-0.1,0v0l-0.5-0.2c-3.6-1.2-21-7.2-25.5-8.7
				c-6.5-2.2-13-4.5-17.8-6.1c-2.4-0.8-4.5-1.5-5.9-2c-0.7-0.2-1.3-0.4-1.8-0.7l-0.4-0.2l0,0c-1.3-0.6-1.8-1.4-1.6-3
				c0.2-1.5,1.3-2.4,2.4-2.3c0.1,0,0.2,0,0.3,0.1l13.4,4.6c1.6,0.6,3.3,0.4,4.9-0.8c1.5-1.1,2.6-2.9,3-5l9.2-43l-0.2-0.1
				c-8-2.8-15.2-8.2-20.9-15.8c-5.5-7.4-9.4-16.6-11.2-26.6c-1.2-6.4-1.4-13.1-0.6-19.7c0.1-1.1,0.3-2.3,0.5-3.5
				c1-5.8,2.7-11,4.2-15.3c0.7-1.8,1.3-3.7,1.9-5.6c0.4-1.1,0.7-2.2,1.1-3.3l15.1-44.7c0.6-2,1.1-3.6,2.6-3.6c0.2,0,0.4,0,0.6,0.1
				l80.1,27.6c1,0.4,1.7,1.6,1.6,3l-2.2,22.2c-0.4,4.1-0.8,8.3-1.3,12.4c-0.5,5.1-1.1,10.4-1.6,15.6c-0.2,1.8-0.3,3.6-0.5,5.4
				c-0.5,6.6-1.1,13.4-2.7,19.9c-0.5,2.1-1.1,4-1.7,5.8c-0.4,1.1-0.8,2.1-1.2,3.1c-2.7,6.3-6.3,11.8-10.7,16.4
				c-8.6,9.1-20,13.8-31.1,13c-3.1-0.2-6.3-0.9-9.3-1.9l-0.2-0.1l-9.2,43c-0.5,2.1-0.2,4.3,0.6,6.3c0.9,1.9,2.3,3.3,3.9,3.9
				l13.5,4.7c1.1,0.4,1.8,1.8,1.5,3.3C1006.1,782,1005.2,782.8,1004.2,782.8z M974.5,767.1c2.8,1,5.6,1.9,8.4,2.9
				c-0.9-2.8-1-5.8-0.4-8.7l9.8-45.6c0.1-0.7,0.5-1.3,1-1.7c0.5-0.4,1.1-0.5,1.6-0.3l2.2,0.8c2.8,1,5.6,1.5,8.4,1.7
				c10,0.7,20.3-3.6,28.1-11.8c4-4.1,7.2-9.1,9.7-14.8c0.4-0.8,0.7-1.7,1-2.7c0,0,0,0,0,0c0.6-1.6,1.1-3.4,1.6-5.2
				c1.5-6,2-12.6,2.5-18.9c0.1-1.8,0.3-3.7,0.5-5.5c0.5-5.2,1.1-10.5,1.6-15.7c0.4-4.1,0.9-8.2,1.3-12.4l1.9-19.8l-76.5-26.4
				l-15.1,44.5c-0.4,1.1-0.7,2.1-1.1,3.2c-0.6,1.9-1.3,3.8-1.9,5.7c-1.4,4-3,8.9-3.9,14.2c-0.2,1.1-0.3,2.1-0.4,3.1
				c-0.7,6-0.5,12,0.6,17.8c1.6,9,5.1,17.3,10.1,24c5.1,6.9,11.6,11.8,18.9,14.3l2.2,0.8c1.1,0.4,1.8,1.9,1.5,3.3l-9.8,45.6
				C977.8,762.7,976.4,765.3,974.5,767.1z"/>
		</g>
		<g>
			<path class="st2" d="M952.3,656.1c-0.7,0-1.5-0.5-1.9-1.4l-0.4-1c-2.5-5.5-5.1-11.1-6.7-17.4c-2.3-9.1-3.3-18.7-3-28.3
				c0.2-6.2,1-11.7,2.3-16.7c2.5-9.5,3.6-10.1,4-10.3c0.6-0.3,1.2-0.3,1.8,0c0.1,0.1,18.3,10.9,18.3,10.9l-1.8,4.9
				c-9.6-5.7-14.2-8.4-16.3-9.7c-0.7,2.2-1.7,5.4-1.8,5.9c-1.2,4.5-1.9,9.4-2.1,15.2c-0.3,9,0.6,17.9,2.8,26.4
				c1.5,5.7,3.9,11.1,6.3,16.4l0.4,1c0.6,1.3,0.2,3-0.8,3.7C953,656,952.6,656.1,952.3,656.1z"/>
		</g>
		<g>
			<path class="st2" d="M1047.8,688.1c-0.7,0-1.4-0.5-1.8-1.3c-0.6-1.3-0.3-3,0.7-3.7l0.7-0.6c4.1-3.1,8.3-6.3,11.8-10.4
				c5.1-6.1,9.3-13.3,12.4-21.4c2-5.2,3.3-9.9,3.9-14.6c0.1-0.6,0.4-3.9,0.6-6.3c-2.4-0.2-7.5-0.6-18-1.5c-1.2-0.1-2.1-1.4-2-2.9
				c0.1-1.5,1.1-2.6,2.3-2.5c0,0,19.9,1.6,20.1,1.6c0.6,0,1.2,0.4,1.6,1c0.3,0.5,1,1.6-0.4,11.5c-0.7,5.2-2.1,10.4-4.3,16
				c-3.3,8.7-7.8,16.4-13.4,23c-3.8,4.5-8.2,7.9-12.5,11.1l-0.7,0.6C1048.6,688,1048.2,688.1,1047.8,688.1z M1078.2,629.9
				C1078.3,629.9,1078.3,629.9,1078.2,629.9L1078.2,629.9C1078.3,629.9,1078.3,629.9,1078.2,629.9z"/>
		</g>
	</g>
	<g id="XMLID_15_">
		<polygon class="st5" points="736.9,715.2 711.5,723.8 721.6,692.9 707.3,664.9 733.5,667.6 750.1,641.7 756.2,674.1 780.8,686.2 
			758.3,703.6 756.9,736.9 		"/>
	</g>
	<g id="XMLID_2_">
		<path class="st3" d="M749.4,731.5c-0.5,0-1-0.2-1.4-0.7L728.9,710l-24.3,8.2c-0.8,0.3-1.6-0.1-2.2-0.8c-0.5-0.8-0.7-1.9-0.4-2.8
			l9.7-29.5L698,658.2c-0.4-0.9-0.5-2,0-2.9c0.4-0.9,1.2-1.4,2-1.3l25.1,2.6l15.9-24.8c0.5-0.8,1.3-1.2,2.1-0.9c0.8,0.2,1.4,1,1.6,2
			l5.8,31.1l23.5,11.5c0.8,0.4,1.3,1.3,1.4,2.3c0.1,1-0.3,2-1,2.6L752.9,697l-1.4,31.9c0,1-0.5,2-1.3,2.4
			C749.9,731.4,749.7,731.5,749.4,731.5z M729.4,704.3c0.5,0,1,0.2,1.4,0.7l16.7,18.1l1.2-27.8c0-0.9,0.4-1.7,1-2.2l18.7-14.5
			l-20.5-10c-0.7-0.3-1.2-1-1.3-1.9l-5.1-27.1l-13.9,21.6c-0.4,0.7-1.1,1.1-1.8,1l-21.9-2.2l11.9,23.4c0.4,0.8,0.5,1.7,0.2,2.5
			l-8.4,25.7l21.2-7.2C729,704.3,729.2,704.3,729.4,704.3z"/>
	</g>
	<g id="XMLID_85_">
		<g id="XMLID_117_">
			<g id="XMLID_118_">
				<rect x="1114.4" y="394.5" class="st2" width="6.4" height="20.3"/>
			</g>
		</g>
		<g id="XMLID_113_">
			<g id="XMLID_114_">
				<rect x="1114.4" y="435.5" class="st2" width="6.4" height="20.3"/>
			</g>
		</g>
		<g id="XMLID_106_">
			<g id="XMLID_112_">
				<rect x="1093.4" y="420.9" class="st2" width="16" height="8.2"/>
			</g>
		</g>
		<g id="XMLID_86_">
			<g id="XMLID_87_">
				<rect x="1125.7" y="420.9" class="st2" width="16" height="8.2"/>
			</g>
		</g>
	</g>
	<g id="XMLID_76_">
		<g id="XMLID_83_">
			<g id="XMLID_84_">
				<rect x="152.4" y="675.1" class="st2" width="6.4" height="20.3"/>
			</g>
		</g>
		<g id="XMLID_81_">
			<g id="XMLID_82_">
				<rect x="152.4" y="716.2" class="st2" width="6.4" height="20.3"/>
			</g>
		</g>
		<g id="XMLID_79_">
			<g id="XMLID_80_">
				<rect x="131.3" y="701.6" class="st2" width="16" height="8.2"/>
			</g>
		</g>
		<g id="XMLID_77_">
			<g id="XMLID_78_">
				<rect x="163.7" y="701.6" class="st2" width="16" height="8.2"/>
			</g>
		</g>
	</g>
	<g id="XMLID_65_">
		<g id="XMLID_74_">
			<g id="XMLID_75_">
				<rect x="1022.1" y="964" class="st6" width="6.4" height="20.3"/>
			</g>
		</g>
		<g id="XMLID_72_">
			<g id="XMLID_73_">
				<rect x="1022.1" y="1005.1" class="st6" width="6.4" height="20.3"/>
			</g>
		</g>
		<g id="XMLID_70_">
			<g id="XMLID_71_">
				<rect x="1001" y="990.5" class="st6" width="16" height="8.2"/>
			</g>
		</g>
		<g id="XMLID_66_">
			<g id="XMLID_69_">
				<rect x="1033.4" y="990.5" class="st6" width="16" height="8.2"/>
			</g>
		</g>
	</g>
	<g id="XMLID_54_">
		<g id="XMLID_63_">
			<g id="XMLID_64_">
				<rect x="266.7" y="1083.7" class="st6" width="6.4" height="20.3"/>
			</g>
		</g>
		<g id="XMLID_61_">
			<g id="XMLID_62_">
				<rect x="266.7" y="1124.8" class="st6" width="6.4" height="20.3"/>
			</g>
		</g>
		<g id="XMLID_59_">
			<g id="XMLID_60_">
				<rect x="245.7" y="1110.2" class="st6" width="16" height="8.2"/>
			</g>
		</g>
		<g id="XMLID_55_">
			<g id="XMLID_58_">
				<rect x="278" y="1110.2" class="st6" width="16" height="8.2"/>
			</g>
		</g>
	</g>
	<g id="XMLID_45_">
		<g id="XMLID_52_">
			<g id="XMLID_53_">
				<rect x="482.9" y="220.8" class="st6" width="6.4" height="20.3"/>
			</g>
		</g>
		<g id="XMLID_50_">
			<g id="XMLID_51_">
				<rect x="482.9" y="261.9" class="st6" width="6.4" height="20.3"/>
			</g>
		</g>
		<g id="XMLID_48_">
			<g id="XMLID_49_">
				<rect x="461.9" y="247.3" class="st6" width="16" height="8.2"/>
			</g>
		</g>
		<g id="XMLID_46_">
			<g id="XMLID_47_">
				<rect x="494.3" y="247.3" class="st6" width="16" height="8.2"/>
			</g>
		</g>
	</g>
	<g id="XMLID_31_">
		<g id="XMLID_43_">
			<g id="XMLID_44_">
				<rect x="372.3" y="796.2" class="st2" width="6.4" height="20.3"/>
			</g>
		</g>
		<g id="XMLID_41_">
			<g id="XMLID_42_">
				<rect x="372.3" y="837.3" class="st2" width="6.4" height="20.3"/>
			</g>
		</g>
		<g id="XMLID_39_">
			<g id="XMLID_40_">
				<rect x="351.3" y="822.6" class="st2" width="16" height="8.2"/>
			</g>
		</g>
		<g id="XMLID_37_">
			<g id="XMLID_38_">
				<rect x="383.6" y="822.6" class="st2" width="16" height="8.2"/>
			</g>
		</g>
	</g>
	<g id="XMLID_16_">
		<g id="XMLID_26_">
			<g id="XMLID_29_">
				<rect x="1204.2" y="1124.8" class="st2" width="6.4" height="20.3"/>
			</g>
		</g>
		<g id="XMLID_23_">
			<g id="XMLID_24_">
				<rect x="1204.2" y="1165.8" class="st2" width="6.4" height="20.3"/>
			</g>
		</g>
		<g id="XMLID_21_">
			<g id="XMLID_22_">
				<rect x="1183.1" y="1151.2" class="st2" width="16" height="8.2"/>
			</g>
		</g>
		<g id="XMLID_19_">
			<g id="XMLID_20_">
				<rect x="1215.5" y="1151.2" class="st2" width="16" height="8.2"/>
			</g>
		</g>
	</g>
</g>
<g id="_x2014_ÎÓÈ_x5F_2">
</g>
<g id="_x2014_ÎÓÈ_x5F_3">
</g>
<g id="_x2014_ÎÓÈ_x5F_4">
</g>
<g id="_x2014_ÎÓÈ_x5F_5">
</g>
</svg>
