<?xml version="1.0" encoding="utf-8"?>
<!-- Generator: Adobe Illustrator 19.2.0, SVG Export Plug-In . SVG Version: 6.00 Build 0)  -->
<svg version="1.1" id="Layer_1" xmlns="http://www.w3.org/2000/svg" xmlns:xlink="http://www.w3.org/1999/xlink" x="0px" y="0px"
	 viewBox="0 0 64 64" style="enable-background:new 0 0 64 64;" xml:space="preserve">
<style type="text/css">
	.st0{display:none;}
	.st1{display:inline;fill:#FFFFFF;}
	.st2{display:inline;fill:url(#XMLID_3_);}
	.st3{display:inline;fill:#FFC107;}
	.st4{display:inline;fill:none;stroke:#4C5159;stroke-miterlimit:10;}
	.st5{display:inline;fill:none;stroke:#4C5159;stroke-miterlimit:10;stroke-dasharray:1;}
	.st6{display:inline;}
	.st7{fill:url(#XMLID_4_);}
	.st8{fill:#FFC107;}
	.st9{display:inline;fill:#EDEDED;}
	.st10{display:inline;fill:#4C5159;}
	.st11{display:inline;opacity:0.3;fill:#414042;enable-background:new    ;}
	.st12{display:inline;fill:url(#XMLID_5_);}
	.st13{display:inline;fill:#F1F2F2;}
	.st14{display:inline;fill:url(#XMLID_6_);}
	.st15{display:inline;opacity:0.2;fill:#FFFFFF;enable-background:new    ;}
	.st16{display:inline;opacity:0.2;fill:#414042;enable-background:new    ;}
	.st17{fill:#F1F2F2;}
	.st18{fill:none;stroke:#4C5159;stroke-miterlimit:10;}
	.st19{opacity:0.3;fill:#414042;enable-background:new    ;}
	.st20{display:inline;fill:url(#XMLID_7_);}
	.st21{fill:#FFDA6A;}
	.st22{fill:#EDEDED;}
	.st23{fill:none;stroke:#4C5159;stroke-miterlimit:10;stroke-dasharray:1.9857,1.9857;}
	.st24{display:inline;fill:#FFDA6A;}
	.st25{display:inline;fill:url(#XMLID_8_);}
	.st26{display:inline;fill:url(#XMLID_9_);}
	.st27{display:inline;fill:url(#XMLID_10_);}
	.st28{fill:none;stroke:#4C5159;stroke-miterlimit:10;stroke-dasharray:1;}
	.st29{display:inline;fill:url(#XMLID_11_);}
	.st30{fill:#E6E7E8;}
	.st31{fill:url(#XMLID_12_);}
	.st32{display:inline;fill:none;stroke:#4C5159;stroke-miterlimit:10;stroke-dasharray:1.9857,1.9857;}
	.st33{display:inline;fill:url(#XMLID_13_);}
	.st34{display:inline;fill:url(#XMLID_14_);}
	.st35{fill:#E89B3E;}
	.st36{opacity:0.2;fill:#FFFFFF;enable-background:new    ;}
	.st37{opacity:0.2;fill:#414042;enable-background:new    ;}
	.st38{display:inline;fill:url(#XMLID_15_);}
	.st39{display:inline;fill:url(#XMLID_16_);}
	.st40{fill:none;stroke:#FFFFFF;stroke-miterlimit:10;}
	.st41{display:inline;fill:url(#XMLID_18_);}
	.st42{display:inline;fill:url(#XMLID_19_);}
	.st43{display:inline;fill:url(#XMLID_20_);}
	.st44{display:inline;fill:url(#XMLID_22_);}
	.st45{display:inline;fill:url(#XMLID_23_);}
	.st46{display:inline;fill:url(#XMLID_24_);}
	.st47{display:inline;fill:url(#XMLID_26_);}
	.st48{display:inline;fill:url(#XMLID_27_);}
	.st49{display:inline;fill:url(#XMLID_28_);}
	.st50{display:inline;fill:url(#XMLID_29_);}
	.st51{display:inline;fill:url(#XMLID_30_);}
	.st52{fill:none;stroke:#4C5159;stroke-linecap:round;stroke-miterlimit:10;}
	.st53{display:inline;fill:url(#XMLID_31_);}
	.st54{display:inline;fill:url(#XMLID_32_);}
	.st55{display:inline;fill:url(#XMLID_33_);}
	.st56{display:inline;fill:#E6E7E8;}
	.st57{display:inline;opacity:0.3;}
	.st58{fill:#414042;}
	.st59{display:inline;fill:url(#XMLID_34_);}
	.st60{display:inline;fill:url(#XMLID_35_);}
	.st61{display:inline;fill:url(#XMLID_37_);}
	.st62{display:inline;fill:url(#XMLID_38_);}
	.st63{display:inline;fill:url(#XMLID_39_);}
	.st64{display:inline;fill:none;stroke:#FFFFFF;stroke-miterlimit:10;}
	.st65{display:inline;fill:#D1D3D4;}
	.st66{fill:url(#XMLID_41_);}
	.st67{display:inline;fill:url(#XMLID_42_);}
</style>
<g id="bg" class="st0">
	<rect id="XMLID_119_" x="-218" y="-268.2" class="st1" width="500" height="600.3"/>
</g>
<g id="icons">
	<g id="XMLID_25_" class="st0">
		
			<linearGradient id="XMLID_3_" gradientUnits="userSpaceOnUse" x1="29.4263" y1="34.3" x2="38.1624" y2="34.3" gradientTransform="matrix(1 0 0 -1 0 66)">
			<stop  offset="0" style="stop-color:#6874E7"/>
			<stop  offset="0.4803" style="stop-color:#747FE9"/>
			<stop  offset="0.9847" style="stop-color:#858EEC"/>
		</linearGradient>
		<circle id="XMLID_728_" class="st2" cx="33.8" cy="31.7" r="4.4"/>
		<path id="XMLID_725_" class="st3" d="M54.9,34.5v-5.3L50.4,28c-0.4-1.8-1.1-3.5-2.1-5l2.7-4.3l-3.8-3.8l-4.4,2.6
			c-1.5-0.9-3.2-1.7-5-2.1l-1.2-4.8h-5.3l-1.2,4.8c-1.8,0.4-3.5,1.1-5,2.1L20.9,15l-3.8,3.8l2.5,4.2c-1,1.5-1.7,3.2-2.1,5L13,29.4
			v5.3l4.5,1c0.4,1.8,1.1,3.5,2.1,5l-2.7,4.1l3.8,3.8l4.4-2.4c1.5,0.9,3.2,1.7,5,2.1l1.2,5.1h5.3l1.2-5.1c1.8-0.4,3.5-1.1,5-2.1
			l4.4,2.6L51,45l-2.7-4.3c0.9-1.5,1.7-3.2,2.1-5L54.9,34.5z M33.8,43.7C27.3,43.7,22,38.5,22,32s5.3-11.8,11.8-11.8
			S45.6,25.5,45.6,32S40.3,43.7,33.8,43.7z"/>
		<path id="XMLID_538_" class="st4" d="M22.9,27.5c0.6-1.4,1.4-2.7,2.5-3.7c1.1-1.1,2.3-1.9,3.7-2.5c1.4-0.6,2.9-0.9,4.5-0.9
			s3.1,0.3,4.5,0.9s2.7,1.4,3.7,2.5c1.1,1.1,1.9,2.3,2.5,3.7c0.6,1.4,0.9,2.9,0.9,4.5c0,1.6-0.3,3.1-0.9,4.5
			c-0.6,1.4-1.4,2.7-2.5,3.7c-1.1,1.1-2.3,1.9-3.7,2.5s-2.9,0.9-4.5,0.9c-1.6,0-3.1-0.3-4.5-0.9c-1.4-0.6-2.7-1.4-3.7-2.5
			c-1.1-1.1-1.9-2.3-2.5-3.7"/>
		<path id="XMLID_541_" class="st5" d="M27.7,29c0.3-0.8,0.8-1.6,1.5-2.2c0.6-0.6,1.4-1.1,2.2-1.5c0.8-0.3,1.7-0.5,2.7-0.5
			c0.9,0,1.8,0.2,2.7,0.5c0.8,0.3,1.6,0.8,2.2,1.5c0.6,0.6,1.1,1.4,1.5,2.2c0.3,0.8,0.5,1.7,0.5,2.7c0,0.9-0.2,1.8-0.5,2.7
			c-0.3,0.8-0.8,1.6-1.5,2.2s-1.4,1.1-2.2,1.5c-0.8,0.3-1.7,0.5-2.7,0.5c-0.9,0-1.8-0.2-2.7-0.5c-0.8-0.3-1.6-0.8-2.2-1.5
			c-0.6-0.6-1.1-1.4-1.5-2.2"/>
		<line id="XMLID_553_" class="st4" x1="34.3" y1="31.7" x2="16.4" y2="31.7"/>
		<polyline id="XMLID_64_" class="st4" points="13.9,28.7 17,31.9 13.9,35 		"/>
		<polyline id="XMLID_554_" class="st4" points="9.1,28.7 12.3,31.9 9.1,35 		"/>
	</g>
	<g id="XMLID_568_" class="st0">
		<g id="XMLID_65_" class="st6">
			
				<linearGradient id="XMLID_4_" gradientUnits="userSpaceOnUse" x1="17.6" y1="25.25" x2="46.4536" y2="25.25" gradientTransform="matrix(1 0 0 -1 0 66)">
				<stop  offset="0" style="stop-color:#6874E7"/>
				<stop  offset="0.4803" style="stop-color:#747FE9"/>
				<stop  offset="0.9847" style="stop-color:#858EEC"/>
			</linearGradient>
			<path id="XMLID_78_" class="st7" d="M46.4,33.4v1.7l-3.1,1c-0.3,1.2-0.8,2.4-1.4,3.5l1.7,2.9L41,45.1l-2.9-1.7
				c-1,0.6-2.2,1.1-3.4,1.4l-0.8,3.3h-3.7l-0.8-3.3c-1.2-0.3-2.4-0.8-3.5-1.4l-3,1.8l-2.6-2.6l1.8-3c-0.7-1.1-1.1-2.2-1.4-3.5
				l-3.1-0.8v-1.8L46.4,33.4L46.4,33.4z"/>
		</g>
		<g id="XMLID_176_" class="st6">
			<path id="XMLID_17_" class="st8" d="M46.4,31.6v-1.8L43.3,29c-0.3-1.2-0.8-2.4-1.4-3.5l1.8-3l-2.6-2.6l-3,1.8
				c-1.1-0.7-2.2-1.1-3.5-1.4L33.8,17h-3.7l-0.8,3.3c-1.2,0.3-2.4,0.8-3.4,1.4L23,19.9l-2.6,2.6l1.7,2.9c-0.7,1.1-1.1,2.2-1.4,3.5
				l-3.1,1v1.7H46.4z"/>
		</g>
		<circle id="XMLID_97_" class="st9" cx="32" cy="32.5" r="8.3"/>
		<line id="XMLID_66_" class="st4" x1="25.9" y1="32.5" x2="27.6" y2="32.5"/>
		<line id="XMLID_75_" class="st4" x1="29.5" y1="32.5" x2="31.2" y2="32.5"/>
		<line id="XMLID_79_" class="st4" x1="33" y1="32.5" x2="34.8" y2="32.5"/>
		<line id="XMLID_80_" class="st4" x1="36.6" y1="32.5" x2="38.3" y2="32.5"/>
		<circle id="XMLID_82_" class="st5" cx="32" cy="32" r="22.2"/>
		<path id="XMLID_98_" class="st4" d="M39.6,35.7c-0.4,1-1,1.9-1.8,2.6c-0.7,0.7-1.6,1.4-2.6,1.8c-1,0.4-2.1,0.6-3.2,0.6
			c-1.1,0-2.2-0.2-3.2-0.6c-1-0.4-1.9-1-2.6-1.8c-0.7-0.7-1.4-1.6-1.8-2.6"/>
		<path id="XMLID_21_" class="st4" d="M24.4,29.3c0.4-1,1-1.9,1.8-2.6c0.7-0.7,1.6-1.4,2.6-1.8s2.1-0.6,3.2-0.6
			c1.1,0,2.2,0.2,3.2,0.6s1.9,1,2.6,1.8c0.7,0.7,1.4,1.6,1.8,2.6"/>
	</g>
	<g id="XMLID_573_" class="st0">
		<path id="XMLID_95_" class="st9" d="M41.9,39.5H22.7c-0.2,0-0.3-0.1-0.3-0.3V23.6c0-0.2,0.1-0.3,0.3-0.3h19.2
			c0.2,0,0.3,0.1,0.3,0.3v15.5C42.2,39.3,42.1,39.5,41.9,39.5z"/>
		<path id="XMLID_88_" class="st4" d="M22.2,33.6v-8.5c0-1.6,0.1-1.8,0.3-1.8h11.3"/>
		<path id="XMLID_55_" class="st4" d="M42.2,30v9.4c0,0.1-0.1,0.3-0.3,0.3H30.1"/>
		<path id="XMLID_423_" class="st10" d="M35.7,31.7l-6.8,3.9c-0.1,0.1-0.3,0-0.3-0.2v-7.9c0-0.1,0.2-0.2,0.3-0.2l6.8,3.9
			C35.8,31.4,35.8,31.6,35.7,31.7l-6.8,3.9c-0.1,0.1-0.3,0-0.3-0.2v-7.9c0-0.1,0.2-0.2,0.3-0.2l6.8,3.9
			C35.8,31.4,35.8,31.6,35.7,31.7z"/>
		<path id="XMLID_586_" class="st11" d="M41.9,23.4h-7.6v1.7c0,0.2,0.1,0.3,0.3,0.3h3.8v2.8V32c0,0.3,0.4,0.4,0.6,0.2l3.2-3.1v-5.4
			C42.2,23.5,42.1,23.4,41.9,23.4z"/>
		
			<linearGradient id="XMLID_5_" gradientUnits="userSpaceOnUse" x1="35.3488" y1="45.548" x2="55.8077" y2="45.548" gradientTransform="matrix(1 0 0 -1 0 66)">
			<stop  offset="0" style="stop-color:#6874E7"/>
			<stop  offset="0.4803" style="stop-color:#747FE9"/>
			<stop  offset="0.9847" style="stop-color:#858EEC"/>
		</linearGradient>
		<path id="XMLID_350_" class="st12" d="M35.3,10v14.6c0,0.2,0.1,0.3,0.3,0.3H39v2.6v3.4c0,0.3,0.3,0.4,0.5,0.2l6.3-6.1h9.7
			c0.2,0,0.3-0.1,0.3-0.3V10c0-0.2-0.1-0.3-0.3-0.3H35.6C35.5,9.8,35.3,9.9,35.3,10z"/>
		<line id="XMLID_280_" class="st4" x1="16.8" y1="17.1" x2="19.2" y2="17.1"/>
		<line id="XMLID_279_" class="st4" x1="22.2" y1="17.1" x2="24.7" y2="17.1"/>
		<line id="XMLID_283_" class="st4" x1="27.7" y1="17.1" x2="30.2" y2="17.1"/>
		<path id="XMLID_580_" class="st11" d="M29.4,38.5h-3.9v-2.9v-3.9c0-0.3-0.4-0.4-0.6-0.2L22.3,34v5.3c0,0.2,0.1,0.3,0.3,0.3h7v-0.7
			C29.7,38.6,29.6,38.5,29.4,38.5z"/>
		<path id="XMLID_89_" class="st3" d="M28.7,54V39.4c0-0.2-0.1-0.3-0.3-0.3H25v-2.6v-3.4c0-0.3-0.3-0.4-0.5-0.2L18.2,39H8.5
			c-0.2,0-0.3,0.1-0.3,0.3V54c0,0.2,0.1,0.3,0.3,0.3h19.9C28.5,54.2,28.7,54.1,28.7,54z"/>
		<line id="XMLID_87_" class="st4" x1="47.2" y1="46.9" x2="44.8" y2="46.9"/>
		<line id="XMLID_86_" class="st4" x1="41.8" y1="46.9" x2="39.3" y2="46.9"/>
		<line id="XMLID_85_" class="st4" x1="36.3" y1="46.9" x2="33.8" y2="46.9"/>
		<line id="XMLID_83_" class="st4" x1="39.3" y1="13.6" x2="52.7" y2="13.6"/>
		<line id="XMLID_52_" class="st4" x1="39.3" y1="17.6" x2="52.7" y2="17.6"/>
		<line id="XMLID_90_" class="st4" x1="39.3" y1="21.6" x2="46" y2="21.6"/>
		<line id="XMLID_94_" class="st4" x1="11.7" y1="43" x2="25.1" y2="43"/>
		<line id="XMLID_92_" class="st4" x1="11.7" y1="46.9" x2="25.1" y2="46.9"/>
		<line id="XMLID_91_" class="st4" x1="11.7" y1="50.9" x2="19.2" y2="50.9"/>
	</g>
	<g id="XMLID_157_" class="st0">
		<path id="XMLID_599_" class="st13" d="M12.2,27.4c-1.2,0-2.2,1-2.2,2.2v21.8c0,1.2,1,2.2,2.2,2.2h39.7c1.2,0,2.2-1,2.2-2.2V29.6
			c0-1.2-1-2.2-2.2-2.2H12.2z"/>
		
			<linearGradient id="XMLID_6_" gradientUnits="userSpaceOnUse" x1="-712.5151" y1="267.1189" x2="-687.4548" y2="296.8781" gradientTransform="matrix(0 -1 -1 0 313.8348 -659.6228)">
			<stop  offset="0" style="stop-color:#6874E7"/>
			<stop  offset="0.4803" style="stop-color:#747FE9"/>
			<stop  offset="0.9847" style="stop-color:#858EEC"/>
		</linearGradient>
		<rect id="XMLID_598_" x="16.6" y="27.4" class="st14" width="30.8" height="26.2"/>
		<line id="XMLID_597_" class="st4" x1="13.4" y1="43.1" x2="13.4" y2="37.6"/>
		<line id="XMLID_709_" class="st4" x1="13.4" y1="36.9" x2="13.4" y2="35.3"/>
		<path id="XMLID_716_" class="st15" d="M9.9,29.6v2.1c0-1.2,1-2.2,2.2-2.2h39.7c1.2,0,2.2,1,2.2,2.2v-2.1c0-1.2-1-2.2-2.2-2.2H12.2
			C10.9,27.4,9.9,28.4,9.9,29.6z"/>
		<path id="XMLID_714_" class="st16" d="M9.9,51.4v-2.1c0,1.2,1,2.2,2.2,2.2h39.7c1.2,0,2.2-1,2.2-2.2v2.1c0,1.2-1,2.2-2.2,2.2H12.2
			C10.9,53.6,9.9,52.6,9.9,51.4z"/>
		<path id="XMLID_127_" class="st4" d="M22.9,27.4H12.2c-1.2,0-2.2,1-2.2,2.2v21.8c0,1.2,1,2.2,2.2,2.2h39.7c1.2,0,2.2-1,2.2-2.2
			V29.6c0-1.2-1-2.2-2.2-2.2h-6"/>
		<path id="XMLID_593_" class="st11" d="M20.4,34.1c-0.1,0.1-0.1,0.2,0,0.2l1.2,1.2l-2.1,2.1l5.2,5.2l2.1-2.1l1.2,1.2
			c0.1,0.1,0.2,0.1,0.2,0l2.4-2.4l0.8,0.8l6.4,6.4c0.1,0.1,0.2,0.1,0.3,0l0.1-0.1c1.5-1.5,1.5-4.1,0-5.6l-1.5-1.5l0,0l0,0l0.4,0.4
			c1.3-1.3,1.3-3.5,0-4.9l-0.9-0.9l0.6-0.6l10.6-6v-0.1H27.1L20.4,34.1z"/>
		<g id="XMLID_133_" class="st6">
			<path id="XMLID_590_" class="st17" d="M45.4,15c-1-1-2.7-1-3.7,0l3.7,3.7C46.4,17.7,46.4,16,45.4,15z"/>
			<path id="XMLID_156_" class="st17" d="M36.8,37.5L36.8,37.5c1.2-1.2,1.2-3,0-4.2l-0.9-0.9l-4.4,2.2l3.2,4L36.8,37.5z"/>
			<path id="XMLID_137_" class="st8" d="M38.3,44.6L38.3,44.6c-0.2,0.2-0.3,0.2-0.4,0.1l-7.1-7.1l3-3l4.5,4.5
				C39.8,40.5,39.8,43.1,38.3,44.6z"/>
			<path id="XMLID_134_" class="st18" d="M35.9,32.4l0.9,0.9c1.2,1.2,1.2,3,0,4.2l0,0"/>
			
				<rect id="XMLID_160_" x="22.1" y="33.7" transform="matrix(0.7071 -0.7071 0.7071 0.7071 -19.127 27.4821)" class="st17" width="3" height="6.3"/>
			<polyline id="XMLID_139_" class="st18" points="26.9,38 24.8,40.1 20.3,35.6 22.4,33.5 			"/>
			<path id="XMLID_158_" class="st17" d="M50,23.3L37.1,10.4c-0.1-0.1-0.2-0.1-0.2,0l-7.8,14l7.3,6.8L50,23.6
				C50,23.5,50.1,23.4,50,23.3z"/>
			<path id="XMLID_138_" class="st18" d="M29,24.4l7.8-14c0.1-0.1,0.2-0.1,0.2,0l13,12.9c0.1,0.1,0.1,0.2,0,0.2l-13.7,7.7"/>
			
				<rect id="XMLID_591_" x="30.5" y="35.9" transform="matrix(0.7071 -0.7071 0.7071 0.7071 -16.1943 33.7836)" class="st19" width="4.3" height="1.1"/>
			<path id="XMLID_154_" class="st8" d="M36.9,31.4L28.3,40c-0.1,0.1-0.2,0.1-0.2,0l-7.7-7.7c-0.1-0.1-0.1-0.2,0-0.2l8.5-8.5
				c0.1-0.1,0.2-0.1,0.2,0l7.7,7.7C36.9,31.3,36.9,31.4,36.9,31.4z"/>
			<line id="XMLID_141_" class="st18" x1="29.7" y1="32.8" x2="34.1" y2="28.4"/>
			<line id="XMLID_140_" class="st18" x1="28.7" y1="33.9" x2="27.5" y2="35"/>
			<path id="XMLID_458_" class="st18" d="M41.7,15c1-1,2.7-1,3.7,0s1,2.7,0,3.7"/>
		</g>
		<line id="XMLID_124_" class="st4" x1="22.9" y1="48.3" x2="24.8" y2="48.3"/>
		<line id="XMLID_121_" class="st4" x1="26.9" y1="48.3" x2="28.8" y2="48.3"/>
		<line id="XMLID_131_" class="st4" x1="30.9" y1="48.3" x2="32.8" y2="48.3"/>
		<line id="XMLID_132_" class="st4" x1="34.9" y1="48.3" x2="36.8" y2="48.3"/>
		<line id="XMLID_152_" class="st4" x1="38.9" y1="48.3" x2="40.8" y2="48.3"/>
	</g>
	<g id="XMLID_149_" class="st0">
		
			<linearGradient id="XMLID_7_" gradientUnits="userSpaceOnUse" x1="15.474" y1="32.2" x2="48.526" y2="32.2" gradientTransform="matrix(1 0 0 -1 0 66)">
			<stop  offset="0" style="stop-color:#6874E7"/>
			<stop  offset="0.4803" style="stop-color:#747FE9"/>
			<stop  offset="0.9847" style="stop-color:#858EEC"/>
		</linearGradient>
		<path id="XMLID_600_" class="st20" d="M44.4,17c-2.6-2.6-6.1-4.2-10-4.2s-7.5,1.6-10,4.2c-2.6,2.6-4.2,6.1-4.2,10l-4.6,8.6
			c-0.1,0.1,0,0.3,0.2,0.3L20,36v9.7c0,0.8,0.7,1.5,1.5,1.5H29v7.6h15.6V37.1c2.6-2.6,4.2-6.1,4.2-10C48.5,23.2,46.9,19.6,44.4,17z"
			/>
		<path id="XMLID_166_" class="st11" d="M45.5,18.8c0-0.2,0-0.4,0-0.6c-0.3-0.4-0.7-0.8-1.1-1.2c-2.6-2.6-6.1-4.2-10-4.2
			c-2.7,0-5.2,0.8-7.3,2.1c-0.5,1.2-0.8,2.5-0.8,3.9c0,3.4,1.8,6.4,4.4,8.1v1.9h-2.2v5.7l1,2.2h3.9v2.2h4.9v-2.2h3.9l0.9-2.1v-5.8
			H41v-1.9C43.7,25.2,45.5,22.2,45.5,18.8z"/>
		<g id="XMLID_627_" class="st6">
			<path id="XMLID_639_" class="st8" d="M44,18.8c0-5.3-4.3-9.7-9.7-9.7s-9.7,4.3-9.7,9.7c0,3.4,1.8,6.4,4.4,8.1v2.4h10.5v-2.4
				C42.2,25.2,44,22.2,44,18.8z"/>
			<path id="XMLID_638_" class="st21" d="M34.3,9.2c-0.5,0-1,0-1.5,0.1C37.4,10,41,14,41,18.8c0,3.4-1.8,6.4-4.4,8.1v2.4h2.9v-2.4
				c2.7-1.7,4.4-4.7,4.4-8.1C44,13.5,39.6,9.2,34.3,9.2z"/>
			<polygon id="XMLID_637_" class="st22" points="40.3,36.2 28.2,36.2 27.4,34.5 27.4,29.3 41.1,29.3 41.1,34.4 			"/>
			<rect id="XMLID_636_" x="32.3" y="36.2" class="st22" width="3.9" height="2.2"/>
			<polygon id="XMLID_635_" class="st18" points="40.3,36.2 28.2,36.2 27.4,34.5 27.4,29.3 41.1,29.3 41.1,34.4 			"/>
			<rect id="XMLID_634_" x="32.3" y="36.2" class="st18" width="3.9" height="2.2"/>
			<line id="XMLID_633_" class="st18" x1="27.4" y1="32.8" x2="33.4" y2="32.8"/>
		</g>
		<g id="XMLID_169_" class="st6">
			<line id="XMLID_164_" class="st23" x1="29.4" y1="17.5" x2="31.2" y2="17.5"/>
			<line id="XMLID_163_" class="st23" x1="33.4" y1="17.5" x2="35.2" y2="17.5"/>
			<line id="XMLID_165_" class="st23" x1="37.5" y1="17.5" x2="39.2" y2="17.5"/>
		</g>
	</g>
	<g id="XMLID_153_" class="st0">
		<path id="XMLID_644_" class="st3" d="M48,32.1H16.3l-4-18.2c0-0.2,0.2-0.3,0.3-0.2l10.1,6.6l9.4-6.8c0.1,0,0.1,0,0.2,0l8.5,6.8
			l11-6.7c0.1-0.1,0.3,0,0.3,0.2L48,32.1z"/>
		<rect id="XMLID_643_" x="17.2" y="31.9" class="st3" width="29.9" height="8"/>
		<rect id="XMLID_642_" x="17.2" y="31.9" class="st3" width="29.9" height="8"/>
		<rect id="XMLID_641_" x="17.2" y="31.9" class="st24" width="29.9" height="4"/>
		<polyline id="XMLID_640_" class="st4" points="26.2,31.9 17.2,31.9 17.2,40 47.1,40 47.1,31.9 44.5,31.9 		"/>
		<line id="XMLID_174_" class="st4" x1="27.4" y1="31.9" x2="30.1" y2="31.9"/>
		<circle id="XMLID_185_" class="st3" cx="32" cy="12.4" r="2"/>
		<circle id="XMLID_184_" class="st3" cx="52" cy="12.4" r="2"/>
		<circle id="XMLID_195_" class="st3" cx="12" cy="12.4" r="2"/>
		
			<rect id="XMLID_180_" x="29.8" y="23.3" transform="matrix(0.7071 -0.7071 0.7071 0.7071 -8.6255 30.0013)" class="st4" width="4.2" height="4.2"/>
		
			<linearGradient id="XMLID_8_" gradientUnits="userSpaceOnUse" x1="9.2488" y1="17.4" x2="21.6433" y2="17.4" gradientTransform="matrix(1 0 0 -1 0 66)">
			<stop  offset="0" style="stop-color:#6874E7"/>
			<stop  offset="0.4803" style="stop-color:#747FE9"/>
			<stop  offset="0.9847" style="stop-color:#858EEC"/>
		</linearGradient>
		<path id="XMLID_206_" class="st25" d="M21.4,53.6H9.5c-0.1,0-0.2-0.1-0.2-0.2v-9.6c0-0.1,0.1-0.2,0.2-0.2h11.9
			c0.1,0,0.2,0.1,0.2,0.2v9.6C21.6,53.5,21.5,53.6,21.4,53.6z"/>
		<path id="XMLID_203_" class="st1" d="M17.8,48.7l-4.6,2.7c-0.1,0-0.2,0-0.2-0.1V46c0-0.1,0.1-0.2,0.2-0.1L17.8,48.7
			C17.9,48.5,17.9,48.6,17.8,48.7l-4.6,2.7c-0.1,0-0.2,0-0.2-0.1V46c0-0.1,0.1-0.2,0.2-0.1L17.8,48.7C17.9,48.5,17.9,48.6,17.8,48.7
			z"/>
		<path id="XMLID_205_" class="st9" d="M38,53.6H26c-0.1,0-0.2-0.1-0.2-0.2v-9.6c0-0.1,0.1-0.2,0.2-0.2h12c0.1,0,0.2,0.1,0.2,0.2
			v9.6C38.2,53.5,38.1,53.6,38,53.6z"/>
		<polyline id="XMLID_202_" class="st4" points="25.8,51 29.6,51 31.6,48.9 33.8,50.9 38.2,50.9 		"/>
		<line id="XMLID_201_" class="st4" x1="33.6" y1="46.3" x2="35.8" y2="46.3"/>
		<path id="XMLID_204_" class="st3" d="M54.5,53.6H42.6c-0.1,0-0.2-0.1-0.2-0.2v-9.6c0-0.1,0.1-0.2,0.2-0.2h11.9
			c0.1,0,0.2,0.1,0.2,0.2v9.6C54.8,53.5,54.6,53.6,54.5,53.6z"/>
		<polyline id="XMLID_199_" class="st4" points="44.4,50.3 46.4,50.3 46.4,46.8 50.7,46.8 50.7,50.3 48.6,50.3 		"/>
	</g>
	<g id="XMLID_105_" class="st0">
		<path id="XMLID_625_" class="st3" d="M45.4,27.9c0-7.4-6-13.4-13.4-13.4s-13.4,6-13.4,13.4c0,4.7,2.4,8.9,6.1,11.2v3.3h14.5v-3.3
			C43,36.8,45.4,32.6,45.4,27.9z"/>
		<path id="XMLID_624_" class="st24" d="M32,14.5c-0.7,0-1.4,0.1-2,0.2c6.4,1,11.4,6.5,11.4,13.2c0,4.7-2.4,8.9-6.1,11.2v3.3h4v-3.3
			c3.7-2.4,6.1-6.5,6.1-11.2C45.4,20.5,39.4,14.5,32,14.5z"/>
		
			<linearGradient id="XMLID_9_" gradientUnits="userSpaceOnUse" x1="22.4784" y1="18.75" x2="41.4238" y2="18.75" gradientTransform="matrix(1 0 0 -1 0 66)">
			<stop  offset="0" style="stop-color:#6874E7"/>
			<stop  offset="0.4803" style="stop-color:#747FE9"/>
			<stop  offset="0.9847" style="stop-color:#858EEC"/>
		</linearGradient>
		<polygon id="XMLID_623_" class="st26" points="40.3,52 23.6,52 22.5,49.6 22.5,42.5 41.4,42.5 41.4,49.6 		"/>
		
			<linearGradient id="XMLID_10_" gradientUnits="userSpaceOnUse" x1="29.2819" y1="12.5" x2="34.6204" y2="12.5" gradientTransform="matrix(1 0 0 -1 0 66)">
			<stop  offset="0" style="stop-color:#6874E7"/>
			<stop  offset="0.4803" style="stop-color:#747FE9"/>
			<stop  offset="0.9847" style="stop-color:#858EEC"/>
		</linearGradient>
		<rect id="XMLID_622_" x="29.3" y="52" class="st27" width="5.3" height="3"/>
		<polygon id="XMLID_620_" class="st4" points="40.3,52 23.6,52 22.5,49.6 22.5,42.5 41.4,42.5 41.4,49.6 		"/>
		<rect id="XMLID_611_" x="29.3" y="52" class="st4" width="5.3" height="3"/>
		<line id="XMLID_606_" class="st4" x1="22.5" y1="47.3" x2="30.7" y2="47.3"/>
		<g id="XMLID_135_" class="st6">
			<path id="XMLID_136_" class="st28" d="M15.5,39.7c-2.1-3.1-3.3-6.9-3.3-11C12.2,17.8,21.1,9,32,9s19.8,8.9,19.8,19.8
				c0,4.4-1.5,8.5-3.9,11.8"/>
		</g>
		<path id="XMLID_509_" class="st1" d="M37.2,28.9l-7.9,4.6c-0.1,0.1-0.3,0-0.3-0.2v-9.2c0-0.2,0.2-0.3,0.3-0.2l7.9,4.6
			C37.3,28.6,37.3,28.8,37.2,28.9l-7.9,4.6c-0.1,0.1-0.3,0-0.3-0.2v-9.2c0-0.2,0.2-0.3,0.3-0.2l7.9,4.6
			C37.3,28.6,37.3,28.8,37.2,28.9z"/>
	</g>
	<g id="XMLID_181_" class="st0">
		<path id="XMLID_192_" class="st3" d="M29.8,26.7h-6.6c-0.1,0-0.2,0.1-0.2,0.2v9h7v-9C30,26.8,29.9,26.7,29.8,26.7z"/>
		<path id="XMLID_198_" class="st24" d="M25.7,26.7h-2.5c-0.1,0-0.2,0.1-0.2,0.2v9h2.5v-9C25.5,26.8,25.6,26.7,25.7,26.7z"/>
		<path id="XMLID_191_" class="st3" d="M39.9,18.1h-6.6c-0.1,0-0.2,0.1-0.2,0.2v32.2h7V18.3C40.1,18.2,40,18.1,39.9,18.1z"/>
		<path id="XMLID_197_" class="st24" d="M35.8,18.1h-2.5c-0.1,0-0.2,0.1-0.2,0.2v32.2h2.5V18.3C35.6,18.2,35.7,18.1,35.8,18.1z"/>
		<path id="XMLID_186_" class="st3" d="M50,10.1h-6.6c-0.1,0-0.2,0.1-0.2,0.2v39.1h7V10.3C50.2,10.2,50.2,10.1,50,10.1z"/>
		<path id="XMLID_196_" class="st24" d="M46,10.1h-2.5c-0.1,0-0.2,0.1-0.2,0.2v39.1h2.5V10.3C45.7,10.2,45.8,10.1,46,10.1z"/>
		
			<linearGradient id="XMLID_11_" gradientUnits="userSpaceOnUse" x1="9.2667" y1="25.2" x2="17.9667" y2="25.2" gradientTransform="matrix(1 0 0 -1 0 66)">
			<stop  offset="0" style="stop-color:#6874E7"/>
			<stop  offset="0.4803" style="stop-color:#747FE9"/>
			<stop  offset="0.9847" style="stop-color:#858EEC"/>
		</linearGradient>
		<path id="XMLID_632_" class="st29" d="M17.9,31.8H9.3v18h8.6c0,0,0.1,0,0.1-0.1L17.9,31.8C18,31.9,17.9,31.8,17.9,31.8z"/>
		<path id="XMLID_631_" class="st1" d="M18,34.8h11.2c0.7,0.1,1.6,0.5,2.1,1l7.3,6.8c2.1,1.6-0.1,5.1-2.1,3.3L29,40.5v2.6l7,6.6
			c0,0,4.2,0.4,4.8,0.5l7.8-3.1c1.3-0.5,2.8-0.6,4.1-0.1c1,0.4,1.9,0.8,2.1,1.3l-13.4,5.4c-0.5,0.2-7.7,0.2-7.7,0.2L18,46.3"/>
		<g id="XMLID_267_" class="st6">
			<path id="XMLID_630_" class="st30" d="M52.8,47.1l-11.5,4.6c-0.5,0.2-7.7,0.2-7.7,0.2L18,44.3v2l15.6,7.6c0,0,7.2,0.1,7.7-0.2
				l13.4-5.4C54.5,47.9,53.7,47.4,52.8,47.1z"/>
		</g>
		<path id="XMLID_209_" class="st4" d="M18,34.8h11.2c0.7,0.1,1.6,0.5,2.1,1l7.3,6.8c2.1,1.6-0.1,5.1-2.1,3.3L29,40.5v2.6l7,6.6
			c0,0,4.2,0.4,4.8,0.5l7.8-3.1c1.3-0.5,2.8-0.6,4.1-0.1c1,0.4,1.9,0.8,2.1,1.3l-13.4,5.4c-0.5,0.2-7.7,0.2-7.7,0.2L18,46.3"/>
		<line id="XMLID_213_" class="st4" x1="36.1" y1="12.7" x2="38.3" y2="12.7"/>
		<line id="XMLID_211_" class="st4" x1="32.1" y1="12.7" x2="34.3" y2="12.7"/>
		<line id="XMLID_214_" class="st4" x1="28.1" y1="12.7" x2="30.3" y2="12.7"/>
		<line id="XMLID_215_" class="st4" x1="24.1" y1="12.7" x2="26.3" y2="12.7"/>
		<line id="XMLID_216_" class="st4" x1="20.1" y1="12.7" x2="22.3" y2="12.7"/>
		<line id="XMLID_224_" class="st4" x1="26.1" y1="20.7" x2="28.3" y2="20.7"/>
		<line id="XMLID_222_" class="st4" x1="22.1" y1="20.7" x2="24.3" y2="20.7"/>
		<line id="XMLID_219_" class="st4" x1="18.1" y1="20.7" x2="20.3" y2="20.7"/>
		<line id="XMLID_218_" class="st4" x1="14.1" y1="20.7" x2="16.3" y2="20.7"/>
		<line id="XMLID_217_" class="st4" x1="10.1" y1="20.7" x2="12.3" y2="20.7"/>
	</g>
	<g id="XMLID_295_" class="st0">
		<g id="XMLID_656_" class="st6">
			<path id="XMLID_657_" class="st8" d="M55.9,39.7l-8.8-8.8H47h-0.1l-8.8,8.8c-0.1,0.1,0,0.2,0.1,0.2h3.9v13.3H52V40h3.9
				C56,40,56,39.8,55.9,39.7z"/>
		</g>
		<g id="XMLID_654_" class="st6">
			
				<linearGradient id="XMLID_12_" gradientUnits="userSpaceOnUse" x1="23.6186" y1="34.0222" x2="47.497" y2="34.0222" gradientTransform="matrix(1 0 0 -1 0 66)">
				<stop  offset="0" style="stop-color:#6874E7"/>
				<stop  offset="0.4803" style="stop-color:#747FE9"/>
				<stop  offset="0.9847" style="stop-color:#858EEC"/>
			</linearGradient>
			<path id="XMLID_655_" class="st31" d="M47.4,22.5L35.7,10.8c0,0-0.1-0.1-0.2,0c-0.1,0-0.1,0-0.2,0L23.7,22.5
				c-0.1,0.1,0,0.3,0.1,0.3H29v30.4h13.1V22.8h5.2C47.5,22.8,47.6,22.6,47.4,22.5z"/>
		</g>
		<path id="XMLID_316_" class="st9" d="M31.3,53.3V29.6c0-0.1-0.1-0.2-0.2-0.2H20.3v23.9H31.3z"/>
		<rect id="XMLID_660_" x="20.3" y="29.4" class="st11" width="1.5" height="23.9"/>
		<path id="XMLID_658_" class="st1" d="M20.2,19.8l-9.1-3.9c-0.1,0-0.2,0-0.2,0.1v37.2h9.4V20C20.3,19.9,20.3,19.8,20.2,19.8z"/>
		<path id="XMLID_291_" class="st4" d="M10.9,53.3V16.1c0-0.1,0.1-0.2,0.2-0.1l9.1,3.9c0.1,0,0.1,0.1,0.1,0.1v33.3"/>
		<line id="XMLID_292_" class="st4" x1="11.2" y1="23.7" x2="20.3" y2="23.7"/>
		<line id="XMLID_293_" class="st4" x1="15" y1="23.7" x2="15" y2="53.3"/>
		<path id="XMLID_286_" class="st4" d="M20.3,29.4h10.8c0.1,0,0.2,0.1,0.2,0.2v23.7"/>
		<line id="XMLID_294_" class="st4" x1="22.2" y1="34.1" x2="27.5" y2="34.1"/>
		<line id="XMLID_296_" class="st4" x1="22.2" y1="38.2" x2="27.5" y2="38.2"/>
		<line id="XMLID_297_" class="st4" x1="22.2" y1="42.2" x2="27.5" y2="42.2"/>
		<line id="XMLID_298_" class="st4" x1="22" y1="46" x2="27.5" y2="46"/>
		<line id="XMLID_299_" class="st4" x1="22" y1="50.2" x2="27.5" y2="50.2"/>
		<path id="XMLID_315_" class="st4" d="M52.1,53.3V40.2h4c0.1,0,0.2-0.2,0.1-0.3l-9-9c-0.1-0.1-0.2-0.1-0.2,0l-3.7,3.7"/>
		<line id="XMLID_314_" class="st32" x1="42.1" y1="53.3" x2="42.1" y2="30.9"/>
		<line id="XMLID_313_" class="st4" x1="7.1" y1="53.3" x2="56.9" y2="53.3"/>
	</g>
	<g id="XMLID_262_" class="st0">
		<circle id="XMLID_348_" class="st3" cx="30.6" cy="30.6" r="12"/>
		<path id="XMLID_288_" class="st24" d="M30.6,18.7c-3.7,0-7,1.7-9.2,4.3c2.1-1.7,4.7-2.8,7.7-2.8c6.6,0,12,5.4,12,12
			c0,2.9-1,5.6-2.8,7.7c2.6-2.2,4.3-5.5,4.3-9.2C42.6,24,37.2,18.7,30.6,18.7z"/>
		<g id="XMLID_349_" class="st6">
			<path id="XMLID_356_" class="st18" d="M34.6,25.7h-5c-1.4,0-2.5,1.1-2.5,2.5l0,0c0,1.4,1.1,2.5,2.5,2.5H32c1.4,0,2.5,1.1,2.5,2.5
				l0,0c0,1.4-1.1,2.5-2.5,2.5h-5.2"/>
			<line id="XMLID_354_" class="st18" x1="30.8" y1="23.1" x2="30.8" y2="25.7"/>
			<line id="XMLID_351_" class="st18" x1="30.8" y1="35.7" x2="30.8" y2="38.1"/>
		</g>
		<line id="XMLID_347_" class="st4" x1="21.5" y1="30.6" x2="24.3" y2="30.6"/>
		<line id="XMLID_344_" class="st4" x1="37" y1="30.6" x2="39.8" y2="30.6"/>
		
			<linearGradient id="XMLID_13_" gradientUnits="userSpaceOnUse" x1="42.9368" y1="17.8" x2="53.4784" y2="17.8" gradientTransform="matrix(1 0 0 -1 0 66)">
			<stop  offset="0" style="stop-color:#6874E7"/>
			<stop  offset="0.4803" style="stop-color:#747FE9"/>
			<stop  offset="0.9847" style="stop-color:#858EEC"/>
		</linearGradient>
		<polygon id="XMLID_346_" class="st33" points="53.5,50.7 50.7,53.5 42.9,45.7 45.7,42.9 		"/>
		<line id="XMLID_345_" class="st4" x1="42.2" y1="42.2" x2="44.3" y2="44.3"/>
		<circle id="XMLID_330_" class="st4" cx="30.6" cy="30.6" r="16.3"/>
		<path id="XMLID_342_" class="st5" d="M37.3,49.6c-2.5,0.9-5.1,1.3-7.9,1.1s-5.4-0.9-7.7-2.1c-2.3-1.2-4.4-2.8-6.1-4.7
			s-3-4.2-3.9-6.6c-0.9-2.5-1.3-5.1-1.1-7.9s0.9-5.4,2.1-7.7s2.8-4.4,4.7-6.1s4.2-3,6.6-3.9c2.5-0.9,5.1-1.3,7.9-1.1
			s5.4,0.9,7.7,2.1s4.4,2.8,6.1,4.7s3,4.2,3.9,6.6c0.9,2.5,1.3,5.1,1.1,7.9s-0.9,5.4-2.1,7.7"/>
	</g>
	<g id="XMLID_248_" class="st0">
		<path id="XMLID_363_" class="st9" d="M47.9,49.3V20.4L37.6,10.1H16.3c-0.2,0-0.3,0.1-0.3,0.3v38.9"/>
		<path id="XMLID_245_" class="st3" d="M31.8,38.9c-0.1-0.2-0.3-0.2-0.4,0l-3,4.1v10.9h6.3V43L31.8,38.9z"/>
		<path id="XMLID_238_" class="st1" d="M31.8,38.9c-0.1-0.2-0.3-0.2-0.4,0l-3,4.1v0.6h6.3V43L31.8,38.9z"/>
		<path id="XMLID_276_" class="st10" d="M31.4,38.9l-0.8,1.2h2l-0.8-1.2C31.7,38.8,31.5,38.8,31.4,38.9z"/>
		<line id="XMLID_355_" class="st4" x1="28.4" y1="43.4" x2="34.7" y2="43.4"/>
		<line id="XMLID_362_" class="st4" x1="31.6" y1="43.4" x2="31.6" y2="53.9"/>
		
			<linearGradient id="XMLID_14_" gradientUnits="userSpaceOnUse" x1="37.6" y1="50.75" x2="47.9517" y2="50.75" gradientTransform="matrix(1 0 0 -1 0 66)">
			<stop  offset="0" style="stop-color:#6874E7"/>
			<stop  offset="0.4803" style="stop-color:#747FE9"/>
			<stop  offset="0.9847" style="stop-color:#858EEC"/>
		</linearGradient>
		<path id="XMLID_247_" class="st34" d="M38.1,10.1l-0.5,10.1c0,0.1,0.1,0.2,0.2,0.2l10.1-0.5L38.1,10.1z"/>
		<path id="XMLID_390_" class="st4" d="M37.6,10.1v10.1c0,0.1,0.1,0.2,0.2,0.2h10.1"/>
		<path id="XMLID_365_" class="st4" d="M30.2,34.4c0.7,0,1.3,0.6,1.3,1.3v1"/>
		<line id="XMLID_366_" class="st4" x1="26.6" y1="34.4" x2="28.2" y2="34.4"/>
		<path id="XMLID_377_" class="st4" d="M33,29.4H22.8c-1.4,0-2.5,1.1-2.5,2.5l0,0c0,1.4,1.1,2.5,2.5,2.5H25"/>
		<path id="XMLID_378_" class="st4" d="M29.2,24.4h11.1c1.4,0,2.5,1.1,2.5,2.5l0,0c0,1.4-1.1,2.5-2.5,2.5h-5.4"/>
		<path id="XMLID_360_" class="st4" d="M34.7,19.4H22.8c-1.4,0-2.5,1.1-2.5,2.5l0,0c0,1.4,1.1,2.5,2.5,2.5H26"/>
		<line id="XMLID_367_" class="st4" x1="16.1" y1="50.4" x2="16.1" y2="52.1"/>
		<line id="XMLID_364_" class="st4" x1="20.1" y1="50.4" x2="20.1" y2="52.1"/>
		<line id="XMLID_368_" class="st4" x1="24.1" y1="50.4" x2="24.1" y2="52.1"/>
		<line id="XMLID_371_" class="st4" x1="47.9" y1="50.4" x2="47.9" y2="52.1"/>
		<line id="XMLID_373_" class="st4" x1="43.9" y1="50.4" x2="43.9" y2="52.1"/>
		<line id="XMLID_375_" class="st4" x1="39.9" y1="50.4" x2="39.9" y2="52.1"/>
	</g>
	<g id="XMLID_171_">
		<path id="XMLID_679_" class="st17" d="M12.2,25C11,25,10,26,10,27.2V49c0,1.2,1,2.2,2.2,2.2h39.7c1.2,0,2.2-1,2.2-2.2V27.2
			c0-1.2-1-2.2-2.2-2.2H12.2z"/>
		<rect id="XMLID_678_" x="16.6" y="25" class="st35" width="30.8" height="26.2"/>
		<line id="XMLID_677_" class="st18" x1="13.4" y1="40.7" x2="13.4" y2="35.1"/>
		<line id="XMLID_676_" class="st18" x1="13.4" y1="34.5" x2="13.4" y2="32.8"/>
		<path id="XMLID_675_" class="st36" d="M9.9,27.2v2.1c0-1.2,1-2.2,2.2-2.2h39.7c1.2,0,2.2,1,2.2,2.2v-2.1c0-1.2-1-2.2-2.2-2.2H12.2
			C10.9,25,9.9,26,9.9,27.2z"/>
		<path id="XMLID_674_" class="st37" d="M9.9,49v-2.1c0,1.2,1,2.2,2.2,2.2h39.7c1.2,0,2.2-1,2.2-2.2V49c0,1.2-1,2.2-2.2,2.2H12.2
			C10.9,51.2,9.9,50.2,9.9,49z"/>
		<path id="XMLID_673_" class="st18" d="M20.9,25h-8.8c-1.2,0-2.2,1-2.2,2.2V49c0,1.2,1,2.2,2.2,2.2h39.7c1.2,0,2.2-1,2.2-2.2V27.2
			c0-1.2-1-2.2-2.2-2.2h-6"/>
		<polyline id="XMLID_380_" class="st18" points="16.6,33.5 23.6,26.4 27.8,30.6 38.2,20.2 41.4,23.4 51,13.8 		"/>
		<polyline id="XMLID_369_" class="st18" points="48,12.8 52,12.8 52,16.8 		"/>
		<line id="XMLID_381_" class="st18" x1="20.8" y1="29.1" x2="20.8" y2="44.3"/>
		<line id="XMLID_372_" class="st18" x1="24.5" y1="27.1" x2="24.5" y2="44.3"/>
		<line id="XMLID_382_" class="st18" x1="28.3" y1="30.1" x2="28.3" y2="44.3"/>
		<line id="XMLID_383_" class="st18" x1="32" y1="26.1" x2="32" y2="44.3"/>
		<line id="XMLID_394_" class="st18" x1="35.8" y1="22.7" x2="35.8" y2="44.3"/>
		<line id="XMLID_397_" class="st18" x1="39.5" y1="21.1" x2="39.5" y2="44.3"/>
		<line id="XMLID_399_" class="st18" x1="43.3" y1="21.4" x2="43.3" y2="44.3"/>
		<line id="XMLID_402_" class="st18" x1="20.8" y1="45.8" x2="20.8" y2="47.7"/>
		<line id="XMLID_401_" class="st18" x1="24.5" y1="45.8" x2="24.5" y2="47.7"/>
		<line id="XMLID_403_" class="st18" x1="28.3" y1="45.8" x2="28.3" y2="47.7"/>
		<line id="XMLID_404_" class="st18" x1="32" y1="45.8" x2="32" y2="47.7"/>
		<line id="XMLID_405_" class="st18" x1="35.8" y1="45.8" x2="35.8" y2="47.7"/>
		<line id="XMLID_406_" class="st18" x1="39.5" y1="45.8" x2="39.5" y2="47.7"/>
		<line id="XMLID_407_" class="st18" x1="43.3" y1="45.8" x2="43.3" y2="47.7"/>
	</g>
	<g id="XMLID_680_" class="st0">
		<rect id="XMLID_177_" x="27.8" y="41.6" class="st9" width="8" height="11.8"/>
		<rect id="XMLID_432_" x="27.8" y="41.6" class="st11" width="8" height="4.8"/>
		<path id="XMLID_410_" class="st3" d="M45.9,43.6H18.1c-0.1,0-0.2-0.1-0.2-0.2V10.8c0-0.1,0.1-0.2,0.2-0.2h27.8
			c0.1,0,0.2,0.1,0.2,0.2v32.6C46.1,43.5,46,43.6,45.9,43.6z"/>
		<g id="XMLID_685_" class="st6">
			<polygon id="XMLID_686_" class="st21" points="44.4,10.6 41.3,10.6 17.9,34 17.9,37.1 			"/>
			<polygon id="XMLID_687_" class="st21" points="17.9,18.7 17.9,31.5 38.8,10.6 26,10.6 			"/>
		</g>
		<polyline id="XMLID_411_" class="st4" points="21.7,19.4 21.7,40 39.9,40 		"/>
		<g id="XMLID_412_" class="st6">
			<path id="XMLID_413_" class="st18" d="M26.9,33.1V24c0-0.1,0.1-0.1,0.1-0.1h4.1c0.1,0,0.1,0.1,0.1,0.1v9.2"/>
			<line id="XMLID_414_" class="st18" x1="26.8" y1="29.3" x2="31.3" y2="29.3"/>
			<path id="XMLID_415_" class="st18" d="M35,32.5v-8.6h2.1h0.1l2.1,2.5v0.1v3.4V30l-2.1,2.5h-0.1H35z"/>
		</g>
		<line id="XMLID_418_" class="st4" x1="27.8" y1="44.4" x2="27.8" y2="52.9"/>
		<line id="XMLID_416_" class="st4" x1="35.8" y1="44.4" x2="35.8" y2="52.9"/>
		<line id="XMLID_420_" class="st4" x1="16.6" y1="53.4" x2="47.5" y2="53.4"/>
		<line id="XMLID_422_" class="st4" x1="14.1" y1="28.5" x2="15.9" y2="28.5"/>
		<line id="XMLID_419_" class="st4" x1="11.1" y1="28.5" x2="12.9" y2="28.5"/>
		<line id="XMLID_425_" class="st4" x1="8.1" y1="28.5" x2="9.9" y2="28.5"/>
		<line id="XMLID_429_" class="st4" x1="54.1" y1="28.5" x2="55.9" y2="28.5"/>
		<line id="XMLID_428_" class="st4" x1="51.1" y1="28.5" x2="52.9" y2="28.5"/>
		<line id="XMLID_426_" class="st4" x1="48.1" y1="28.5" x2="49.9" y2="28.5"/>
	</g>
	<g id="XMLID_424_" class="st0">
		<circle id="XMLID_435_" class="st3" cx="32.2" cy="19.9" r="10"/>
		<path id="XMLID_682_" class="st24" d="M31.2,11.4c5.5,0,10,4.5,10,10c0,1.7-0.4,3.3-1.2,4.7c1.4-1.7,2.2-3.9,2.2-6.2
			c0-5.5-4.5-10-10-10c-3.8,0-7.1,2.1-8.8,5.2C25.3,12.9,28.1,11.4,31.2,11.4z"/>
		<path id="XMLID_713_" class="st9" d="M21.9,43.4v-3.7c0.6-0.3,1-0.9,1.1-1.6l0.4-5.2c0-2.4-1.9-4.3-4.3-4.3s-4.3,1.9-4.3,4.3
			l0.4,5.2c0.1,0.7,0.5,1.3,1.1,1.6l0.3,0.2v3.4l-5.3,1.8C10.5,45.4,10,46,10,46.8V49h18.4v-2.5c0-0.5-0.3-0.9-0.8-1.1L21.9,43.4z"
			/>
		<path id="XMLID_704_" class="st9" d="M48,43.8l-0.1-4.1c0.6-0.3,1-0.9,1.1-1.6l0.4-5.2c0-2.4-1.9-4.3-4.3-4.3
			c-2.4,0-4.3,1.9-4.3,4.3l0.4,5.2c0.1,0.7,0.5,1.3,1.1,1.6l0.3,0.2v3.9l-5.3,1.8C36.5,45.9,36,46,36,46.8V49h18.4v-2.5
			c0-0.5-0.2-0.6-0.7-0.7L48,43.8z"/>
		
			<linearGradient id="XMLID_15_" gradientUnits="userSpaceOnUse" x1="23.1551" y1="22.1" x2="41.5874" y2="22.1" gradientTransform="matrix(1 0 0 -1 0 66)">
			<stop  offset="0" style="stop-color:#6874E7"/>
			<stop  offset="0.4803" style="stop-color:#747FE9"/>
			<stop  offset="0.9847" style="stop-color:#858EEC"/>
		</linearGradient>
		<path id="XMLID_715_" class="st38" d="M35.1,48.8l-0.1-4c0.6-0.3,1-0.9,1.1-1.6l0.4-5.2c0-2.4-1.9-4.3-4.3-4.3s-4.3,1.9-4.3,4.3
			l0.4,5.2c0.1,0.7,0.5,1.3,1.1,1.6l0.3,0.2v3.9l-5.3,1.8c-0.7,0.2-1.2,0.4-1.2,1.2v2.2h18.4v-2.5c0-0.5-0.2-0.6-0.7-0.7L35.1,48.8z
			"/>
		<g id="XMLID_437_" class="st6">
			<path id="XMLID_440_" class="st18" d="M35.5,15.8h-4.2c-1.1,0-2.1,0.9-2.1,2.1l0,0c0,1.1,0.9,2.1,2.1,2.1h2
				c1.1,0,2.1,0.9,2.1,2.1l0,0c0,1.1-0.9,2.1-2.1,2.1H29"/>
			<line id="XMLID_439_" class="st18" x1="32.4" y1="13.6" x2="32.4" y2="15.8"/>
			<line id="XMLID_438_" class="st18" x1="32.4" y1="24.1" x2="32.4" y2="26.1"/>
		</g>
		<line id="XMLID_434_" class="st4" x1="24.6" y1="19.9" x2="27" y2="19.9"/>
		<line id="XMLID_427_" class="st4" x1="37.5" y1="19.9" x2="39.8" y2="19.9"/>
		<g id="XMLID_442_" class="st6">
			<path id="XMLID_452_" class="st18" d="M23,54.1v-2.2c0-0.5,0.3-0.9,0.7-1l5.9-2v-3.3"/>
			<path id="XMLID_448_" class="st18" d="M41.4,54.1v-2.2c0-0.5-0.3-0.9-0.7-1l-5.9-2v-3.3"/>
			<path id="XMLID_446_" class="st18" d="M36.7,38.1c0-2.5-2-4.4-4.4-4.4c-2.5,0-4.4,2-4.4,4.4l0.4,5.3c0.1,0.7,0.5,1.4,1.1,1.7
				l2.2,1.4H33l2.2-1.4c0.6-0.3,1.1-1,1.1-1.7L36.7,38.1z"/>
			<polyline id="XMLID_443_" class="st18" points="29.6,48.9 31.3,50.8 33.2,50.8 34.9,48.9 			"/>
		</g>
		<g id="XMLID_441_" class="st6">
			<polyline id="XMLID_456_" class="st18" points="38.1,45.4 42.6,43.9 42.6,40.6 			"/>
			<path id="XMLID_455_" class="st18" d="M54.4,49.1v-2.2c0-0.5-0.3-0.9-0.7-1l-5.9-2v-3.3"/>
			<path id="XMLID_454_" class="st18" d="M49.7,33.1c0-2.5-2-4.4-4.4-4.4c-2.5,0-4.4,2-4.4,4.4l0.4,5.3c0.1,0.7,0.5,1.4,1.1,1.7
				l2.2,1.4H46l2.2-1.4c0.6-0.3,1.1-1,1.1-1.7L49.7,33.1z"/>
			<polyline id="XMLID_453_" class="st18" points="42.6,43.9 44.3,45.8 46.2,45.8 47.9,43.9 			"/>
		</g>
		<g id="XMLID_459_" class="st6">
			<polyline id="XMLID_463_" class="st18" points="26.4,45.4 21.9,43.9 21.9,40.6 			"/>
			<path id="XMLID_462_" class="st18" d="M10.1,49.1v-2.2c0-0.5,0.3-0.9,0.7-1l5.9-2v-3.3"/>
			<path id="XMLID_461_" class="st18" d="M14.8,33.1c0-2.5,2-4.4,4.4-4.4c2.5,0,4.4,2,4.4,4.4l-0.4,5.3c-0.1,0.7-0.5,1.4-1.1,1.7
				L20,41.5h-1.4l-2.2-1.4c-0.6-0.3-1.1-1-1.1-1.7L14.8,33.1z"/>
			<polyline id="XMLID_460_" class="st18" points="21.9,43.9 20.2,45.8 18.3,45.8 16.6,43.9 			"/>
		</g>
		<line id="XMLID_464_" class="st4" x1="17.4" y1="19.9" x2="19.3" y2="19.9"/>
		<line id="XMLID_457_" class="st4" x1="13.4" y1="19.9" x2="15.3" y2="19.9"/>
		<line id="XMLID_465_" class="st4" x1="9.4" y1="19.9" x2="11.3" y2="19.9"/>
		<line id="XMLID_468_" class="st4" x1="52.7" y1="20" x2="54.6" y2="20"/>
		<line id="XMLID_467_" class="st4" x1="48.7" y1="20" x2="50.6" y2="20"/>
		<line id="XMLID_466_" class="st4" x1="44.7" y1="20" x2="46.6" y2="20"/>
	</g>
	<g id="XMLID_469_" class="st0">
		
			<linearGradient id="XMLID_16_" gradientUnits="userSpaceOnUse" x1="16.0676" y1="34" x2="47.9676" y2="34" gradientTransform="matrix(1 0 0 -1 0 66)">
			<stop  offset="0" style="stop-color:#6874E7"/>
			<stop  offset="0.4803" style="stop-color:#747FE9"/>
			<stop  offset="0.9847" style="stop-color:#858EEC"/>
		</linearGradient>
		<path id="XMLID_683_" class="st39" d="M44.8,19.4c-1.8,0-3.2,1.4-3.2,3.2v-6.4c0-1.8-1.4-3.2-3.2-3.2s-3.2,1.4-3.2,3.2v-3.1
			c0-1.8-1.4-3.2-3.2-3.2s-3.2,1.4-3.2,3.2v7l0,0v-3.9c0-1.8-1.4-3.2-3.2-3.2c-1.8,0-3.2,1.4-3.2,3.2v16.5c0-2.4-1.9-4.3-4.3-4.3h-2
			v16.7c0,0.9,0.3,1.8,0.9,2.5l3.7,4.4c1.1,1.3,2.8,2.1,4.5,2.1h4.5l0,0c2.2,0,4.6,0,4.6,0h4.6c1.7,0,3.4-0.8,4.5-2.1l3.7-4.4
			c0.6-0.7,0.9-1.6,0.9-2.5V22.6C48,20.8,46.6,19.4,44.8,19.4z"/>
		<g id="XMLID_492_" class="st6">
			<path id="XMLID_496_" class="st40" d="M26.1,42V31.4c0-0.1,0.1-0.1,0.1-0.1H31c0.1,0,0.1,0.1,0.1,0.1V42"/>
			<line id="XMLID_495_" class="st40" x1="26" y1="37.6" x2="31.2" y2="37.6"/>
			<path id="XMLID_494_" class="st40" d="M35.4,41.3v-10h2.5c0,0,0.1,0,0.1,0.1l2.5,2.9v0.1v3.9v0.1L38,41.2l-0.1,0.1H35.4z"/>
		</g>
		<g id="XMLID_474_" class="st6">
			<line id="XMLID_477_" class="st18" x1="35.6" y1="45.2" x2="37.6" y2="45.2"/>
			<line id="XMLID_476_" class="st18" x1="32.1" y1="45.2" x2="34.1" y2="45.2"/>
			<line id="XMLID_475_" class="st18" x1="28.6" y1="45.2" x2="30.6" y2="45.2"/>
		</g>
		<g id="XMLID_471_" class="st6">
			<path id="XMLID_444_" class="st18" d="M28.8,28.6V16.2c0-1.8-1.4-3.2-3.2-3.2l0,0c-1.8,0-3.2,1.4-3.2,3.2V37v-1.6v-2.6
				c0-2.4-1.9-4.3-4.3-4.3h-2v16.7c0,0.9,0.3,1.8,0.9,2.5l3.7,4.4c1.1,1.3,2.8,2.1,4.5,2.1h4.5l0,0l0,0c2.2,0,4-1.8,4-4V48"/>
			<path id="XMLID_472_" class="st18" d="M28.8,28.6V13.1c0-1.8,1.4-3.2,3.2-3.2l0,0c1.8,0,3.2,1.4,3.2,3.2v15.5"/>
			<path id="XMLID_447_" class="st18" d="M35.2,28.6V16.2c0-1.8,1.4-3.2,3.2-3.2l0,0c1.8,0,3.2,1.4,3.2,3.2v12.4"/>
			<path id="XMLID_473_" class="st18" d="M41.6,28.6v-6.1c0-1.8,1.4-3.2,3.2-3.2l0,0c1.8,0,3.2,1.4,3.2,3.2v22.6
				c0,0.9-0.3,1.8-0.9,2.5L43.4,52c-1.1,1.3-2.8,2.1-4.5,2.1h-4.6"/>
		</g>
	</g>
	<g id="XMLID_483_" class="st0">
		
			<linearGradient id="XMLID_18_" gradientUnits="userSpaceOnUse" x1="23.4592" y1="34" x2="40.1718" y2="34" gradientTransform="matrix(1 0 0 -1 0 66)">
			<stop  offset="0" style="stop-color:#6874E7"/>
			<stop  offset="0.4803" style="stop-color:#747FE9"/>
			<stop  offset="0.9847" style="stop-color:#858EEC"/>
		</linearGradient>
		<circle id="XMLID_478_" class="st41" cx="31.8" cy="32" r="8.4"/>
		<path id="XMLID_688_" class="st3" d="M53.5,34.6v-5.5l-4.6-1.2c-0.4-1.9-1.2-3.6-2.1-5.2l2.7-4.5l-3.9-3.9L41.1,17
			c-1.6-1-3.3-1.7-5.2-2.1l-1.3-5h-5.5l-1.3,5c-1.8,0.4-3.6,1.2-5.1,2.1l-4.3-2.6l-3.9,3.9l2.6,4.4c-1,1.6-1.7,3.3-2.1,5.1l-4.6,1.4
			v5.5l4.6,1.1c0.4,1.9,1.2,3.6,2.1,5.2l-2.7,4.2l3.9,3.9l4.5-2.4c1.6,1,3.3,1.7,5.2,2.1l1.3,5.3h5.5l1.2-5.3
			c1.9-0.4,3.6-1.2,5.2-2.1l4.5,2.7l3.9-3.9L46.8,41c1-1.6,1.7-3.3,2.1-5.2L53.5,34.6z M31.8,44.1c-6.7,0-12.1-5.4-12.1-12.1
			s5.4-12.1,12.1-12.1S43.9,25.3,43.9,32C43.9,38.6,38.5,44.1,31.8,44.1z"/>
		<g id="XMLID_612_" class="st6">
			<circle id="XMLID_619_" class="st18" cx="31.9" cy="32" r="12.1"/>
			<path id="XMLID_618_" class="st18" d="M36.2,20.7c1.8,3,2.9,6.9,2.9,11.3s-1.1,8.4-3,11.4"/>
			<path id="XMLID_617_" class="st18" d="M28,20.7c-1.8,3-3,6.9-3,11.3s1.1,8.4,3,11.4"/>
			<line id="XMLID_616_" class="st18" x1="31.9" y1="19.9" x2="31.9" y2="44.1"/>
			<line id="XMLID_615_" class="st18" x1="19.8" y1="32" x2="44" y2="32"/>
			<line id="XMLID_614_" class="st18" x1="21.7" y1="26.3" x2="42.6" y2="26.3"/>
			<line id="XMLID_613_" class="st18" x1="21.3" y1="37.7" x2="42.4" y2="37.7"/>
		</g>
		<line id="XMLID_482_" class="st4" x1="30.8" y1="16.2" x2="33.1" y2="16.2"/>
		<line id="XMLID_480_" class="st4" x1="42.3" y1="20" x2="43.9" y2="21.6"/>
		<line id="XMLID_484_" class="st4" x1="47.8" y1="30.8" x2="47.8" y2="33.2"/>
		<line id="XMLID_487_" class="st4" x1="43.9" y1="42.4" x2="42.3" y2="44"/>
		<line id="XMLID_489_" class="st4" x1="33.1" y1="47.8" x2="30.7" y2="47.8"/>
		<line id="XMLID_497_" class="st4" x1="21.5" y1="44" x2="19.9" y2="42.3"/>
		<line id="XMLID_498_" class="st4" x1="16.1" y1="33.1" x2="16.1" y2="30.8"/>
		<line id="XMLID_499_" class="st4" x1="19.9" y1="21.6" x2="21.6" y2="19.9"/>
	</g>
	<g id="XMLID_603_" class="st0">
		<circle id="XMLID_545_" class="st3" cx="32" cy="29.8" r="14"/>
		<path id="XMLID_145_" class="st24" d="M32,15.8c-4.2,0-8,1.9-10.6,4.9c2.4-2.1,5.6-3.4,9.1-3.4c7.7,0,14,6.3,14,14
			c0,3.5-1.3,6.7-3.4,9.1c3-2.6,4.9-6.4,4.9-10.6C46,22.1,39.7,15.8,32,15.8z"/>
		<g id="XMLID_546_" class="st6">
			<path id="XMLID_549_" class="st18" d="M36.6,24.1h-5.9c-1.6,0-2.9,1.3-2.9,2.9l0,0c0,1.6,1.3,2.9,2.9,2.9h2.8
				c1.6,0,2.9,1.3,2.9,2.9l0,0c0,1.6-1.3,2.9-2.9,2.9h-6.1"/>
			<line id="XMLID_548_" class="st18" x1="32.2" y1="21" x2="32.2" y2="24.1"/>
			<line id="XMLID_547_" class="st18" x1="32.2" y1="35.7" x2="32.2" y2="38.6"/>
		</g>
		<line id="XMLID_544_" class="st4" x1="21.3" y1="29.8" x2="24.6" y2="29.8"/>
		<line id="XMLID_543_" class="st4" x1="39.4" y1="29.8" x2="42.7" y2="29.8"/>
		<path id="XMLID_537_" class="st4" d="M48.2,18.7c0.7,1,1.3,2.1,1.8,3.3c1,2.3,1.5,4.9,1.5,7.6S51,34.9,50,37.2s-2.4,4.4-4.2,6.2
			s-3.9,3.2-6.2,4.2s-4.9,1.5-7.6,1.5s-5.3-0.5-7.6-1.5s-4.4-2.4-6.2-4.2c-1.8-1.8-3.2-3.9-4.2-6.2s-1.5-4.9-1.5-7.6S13,24.3,14,22
			c0.6-1.3,1.2-2.5,2.1-3.7"/>
		
			<linearGradient id="XMLID_19_" gradientUnits="userSpaceOnUse" x1="35.9632" y1="15.9396" x2="42.8262" y2="15.9396" gradientTransform="matrix(1 0 0 -1 0 66)">
			<stop  offset="0" style="stop-color:#6874E7"/>
			<stop  offset="0.4803" style="stop-color:#747FE9"/>
			<stop  offset="0.9847" style="stop-color:#858EEC"/>
		</linearGradient>
		<path id="XMLID_602_" class="st42" d="M42.8,50.7c0,0-1.1-2.5-3-2.9c-1.9-0.3-3.8,1.6-3.8,1.6s1.1,2.5,3,2.9S42.8,50.7,42.8,50.7z
			"/>
		
			<linearGradient id="XMLID_20_" gradientUnits="userSpaceOnUse" x1="45.3448" y1="22.35" x2="51.9195" y2="22.35" gradientTransform="matrix(1 0 0 -1 0 66)">
			<stop  offset="0" style="stop-color:#6874E7"/>
			<stop  offset="0.4803" style="stop-color:#747FE9"/>
			<stop  offset="0.9847" style="stop-color:#858EEC"/>
		</linearGradient>
		<path id="XMLID_601_" class="st43" d="M51.9,42.5c0,0-2.2-1.6-4-1s-2.5,3.3-2.5,3.3s2.2,1.6,4,1S51.9,42.5,51.9,42.5z"/>
		
			<linearGradient id="XMLID_22_" gradientUnits="userSpaceOnUse" x1="50.9565" y1="32.55" x2="55.8898" y2="32.55" gradientTransform="matrix(1 0 0 -1 0 66)">
			<stop  offset="0" style="stop-color:#6874E7"/>
			<stop  offset="0.4803" style="stop-color:#747FE9"/>
			<stop  offset="0.9847" style="stop-color:#858EEC"/>
		</linearGradient>
		<path id="XMLID_530_" class="st44" d="M55.7,30.8c0,0-2.7-0.3-4,1.2s-0.5,4.1-0.5,4.1s2.7,0.3,4-1.2
			C56.4,33.5,55.7,30.8,55.7,30.8z"/>
		
			<linearGradient id="XMLID_23_" gradientUnits="userSpaceOnUse" x1="50.2065" y1="43.8" x2="54.7555" y2="43.8" gradientTransform="matrix(1 0 0 -1 0 66)">
			<stop  offset="0" style="stop-color:#6874E7"/>
			<stop  offset="0.4803" style="stop-color:#747FE9"/>
			<stop  offset="0.9847" style="stop-color:#858EEC"/>
		</linearGradient>
		<path id="XMLID_500_" class="st45" d="M53.1,18.8c0,0-2.5,1.1-2.9,3s1.6,3.8,1.6,3.8s2.5-1.1,2.9-3C55.1,20.8,53.1,18.8,53.1,18.8
			z"/>
		
			<linearGradient id="XMLID_24_" gradientUnits="userSpaceOnUse" x1="45.2151" y1="49.75" x2="49.7973" y2="49.75" gradientTransform="matrix(1 0 0 -1 0 66)">
			<stop  offset="0" style="stop-color:#6874E7"/>
			<stop  offset="0.4803" style="stop-color:#747FE9"/>
			<stop  offset="0.9847" style="stop-color:#858EEC"/>
		</linearGradient>
		<path id="XMLID_161_" class="st46" d="M46.3,13c0,0-1.6,2.2-1,4s3.3,2.5,3.3,2.5s1.6-2.2,1-4S46.3,13,46.3,13z"/>
		
			<linearGradient id="XMLID_26_" gradientUnits="userSpaceOnUse" x1="21.1738" y1="15.9396" x2="28.0368" y2="15.9396" gradientTransform="matrix(1 0 0 -1 0 66)">
			<stop  offset="0" style="stop-color:#6874E7"/>
			<stop  offset="0.4803" style="stop-color:#747FE9"/>
			<stop  offset="0.9847" style="stop-color:#858EEC"/>
		</linearGradient>
		<path id="XMLID_148_" class="st47" d="M21.2,50.7c0,0,1.1-2.5,3-2.9c1.9-0.3,3.8,1.6,3.8,1.6s-1.1,2.5-3,2.9S21.2,50.7,21.2,50.7z
			"/>
		
			<linearGradient id="XMLID_27_" gradientUnits="userSpaceOnUse" x1="12.0805" y1="22.35" x2="18.6552" y2="22.35" gradientTransform="matrix(1 0 0 -1 0 66)">
			<stop  offset="0" style="stop-color:#6874E7"/>
			<stop  offset="0.4803" style="stop-color:#747FE9"/>
			<stop  offset="0.9847" style="stop-color:#858EEC"/>
		</linearGradient>
		<path id="XMLID_147_" class="st48" d="M12.1,42.5c0,0,2.2-1.6,4-1s2.5,3.3,2.5,3.3s-2.2,1.6-4,1S12.1,42.5,12.1,42.5z"/>
		
			<linearGradient id="XMLID_28_" gradientUnits="userSpaceOnUse" x1="8.112" y1="32.55" x2="13.0453" y2="32.55" gradientTransform="matrix(1 0 0 -1 0 66)">
			<stop  offset="0" style="stop-color:#6874E7"/>
			<stop  offset="0.4803" style="stop-color:#747FE9"/>
			<stop  offset="0.9847" style="stop-color:#858EEC"/>
		</linearGradient>
		<path id="XMLID_144_" class="st49" d="M8.3,30.8c0,0,2.7-0.3,4,1.2s0.5,4.1,0.5,4.1s-2.7,0.3-4-1.2C7.6,33.5,8.3,30.8,8.3,30.8z"
			/>
		
			<linearGradient id="XMLID_29_" gradientUnits="userSpaceOnUse" x1="9.2471" y1="43.8" x2="13.7961" y2="43.8" gradientTransform="matrix(1 0 0 -1 0 66)">
			<stop  offset="0" style="stop-color:#6874E7"/>
			<stop  offset="0.4803" style="stop-color:#747FE9"/>
			<stop  offset="0.9847" style="stop-color:#858EEC"/>
		</linearGradient>
		<path id="XMLID_143_" class="st50" d="M10.9,18.8c0,0,2.5,1.1,2.9,3s-1.6,3.8-1.6,3.8s-2.5-1.1-2.9-3
			C8.9,20.8,10.9,18.8,10.9,18.8z"/>
		
			<linearGradient id="XMLID_30_" gradientUnits="userSpaceOnUse" x1="14.9654" y1="51.05" x2="19.5475" y2="51.05" gradientTransform="matrix(1 0 0 -1 0 66)">
			<stop  offset="0" style="stop-color:#6874E7"/>
			<stop  offset="0.4803" style="stop-color:#747FE9"/>
			<stop  offset="0.9847" style="stop-color:#858EEC"/>
		</linearGradient>
		<path id="XMLID_142_" class="st51" d="M18.4,11.7c0,0,1.6,2.2,1,4s-3.3,2.5-3.3,2.5s-1.6-2.2-1-4C15.8,12.4,18.4,11.7,18.4,11.7z"
			/>
		<path id="XMLID_535_" class="st4" d="M42.8,50.7c0,0-1.1-2.5-3-2.9c-1.9-0.3-3.8,1.6-3.8,1.6s1.1,2.5,3,2.9S42.8,50.7,42.8,50.7z"
			/>
		<path id="XMLID_533_" class="st4" d="M51.9,42.5c0,0-2.2-1.6-4-1s-2.5,3.3-2.5,3.3s2.2,1.6,4,1S51.9,42.5,51.9,42.5z"/>
		<path id="XMLID_531_" class="st4" d="M55.7,30.8c0,0-2.7-0.3-4,1.2s-0.5,4.1-0.5,4.1s2.7,0.3,4-1.2C56.4,33.5,55.7,30.8,55.7,30.8
			z"/>
		<path id="XMLID_529_" class="st4" d="M53.1,18.8c0,0-2.5,1.1-2.9,3s1.6,3.8,1.6,3.8s2.5-1.1,2.9-3C55.1,20.8,53.1,18.8,53.1,18.8z
			"/>
		<path id="XMLID_528_" class="st4" d="M46.3,13c0,0-1.6,2.2-1,4s3.3,2.5,3.3,2.5s1.6-2.2,1-4S46.3,13,46.3,13z"/>
		<path id="XMLID_526_" class="st4" d="M21.2,50.7c0,0,1.1-2.5,3-2.9c1.9-0.3,3.8,1.6,3.8,1.6s-1.1,2.5-3,2.9S21.2,50.7,21.2,50.7z"
			/>
		<path id="XMLID_524_" class="st4" d="M12.1,42.5c0,0,2.2-1.6,4-1s2.5,3.3,2.5,3.3s-2.2,1.6-4,1S12.1,42.5,12.1,42.5z"/>
		<path id="XMLID_519_" class="st4" d="M8.3,30.8c0,0,2.7-0.3,4,1.2s0.5,4.1,0.5,4.1s-2.7,0.3-4-1.2C7.6,33.5,8.3,30.8,8.3,30.8z"/>
		<path id="XMLID_513_" class="st4" d="M10.9,18.8c0,0,2.5,1.1,2.9,3s-1.6,3.8-1.6,3.8s-2.5-1.1-2.9-3C8.9,20.8,10.9,18.8,10.9,18.8
			z"/>
		<path id="XMLID_512_" class="st4" d="M18.4,11.7c0,0,1.6,2.2,1,4s-3.3,2.5-3.3,2.5s-1.6-2.2-1-4C15.8,12.4,18.4,11.7,18.4,11.7z"
			/>
		<g id="XMLID_527_" class="st6">
			<line id="XMLID_536_" class="st18" x1="37.2" y1="11.6" x2="34.8" y2="11.6"/>
			<line id="XMLID_534_" class="st18" x1="33.2" y1="11.6" x2="30.8" y2="11.6"/>
			<line id="XMLID_532_" class="st18" x1="29.2" y1="11.6" x2="26.8" y2="11.6"/>
		</g>
	</g>
	<g id="XMLID_605_" class="st0">
		<path id="XMLID_690_" class="st9" d="M11.3,21.2c-0.8,0-1.5,0.7-1.5,1.5v15.1c0,0.8,0.7,1.5,1.5,1.5h33.5V21.2H11.3z"/>
		<rect id="XMLID_604_" x="15.2" y="21.2" class="st3" width="29.5" height="18.1"/>
		<path id="XMLID_693_" class="st16" d="M9.7,35.8v2c0,0.8,0.7,1.5,1.5,1.5h33.5v-2H11.3C10.4,37.4,9.7,36.7,9.7,35.8z"/>
		<path id="XMLID_691_" class="st15" d="M9.7,24.8v-2c0-0.8,0.7-1.5,1.5-1.5h33.5v2H11.3C10.4,23.2,9.7,23.9,9.7,24.8z"/>
		<path id="XMLID_504_" class="st1" d="M52.4,46.8l-2.6-13.9l-3.9-10.4l-6.5-5l-6.9,0.6c0,0-0.6,3.1,1.9,3.1h4.5l3.1,2.6
			c0,0,1.7,9,1.8,9.4c0,0.5-0.8,3.3-1.3,4.9c-0.2,0.7-0.9,1.2-1.6,1.2H29.2c-2.2,0.1-1.9,2.1-1.9,2.1l4.6,2c0.2,0.1,0.4,0.1,0.6,0.1
			l6,0.5l3.1,2.6v2.5h10.8C52.4,49.1,52.4,46.8,52.4,46.8z"/>
		<polygon id="XMLID_689_" class="st11" points="49.7,32.9 45.9,22.5 39.4,17.5 37.6,17.6 43.9,22.5 47.7,32.9 50.4,46.8 50.4,49.2 
			52.4,49.2 52.4,46.8 		"/>
		<path id="XMLID_505_" class="st4" d="M52.4,46.8l-2.6-13.9l-3.9-10.4l-6.5-5l-6.9,0.6c0,0-0.6,3.1,1.9,3.1h4.5l3.1,2.6
			c0,0,1.7,9,1.8,9.4c0,0.5-0.8,3.3-1.3,4.9c-0.2,0.7-0.9,1.2-1.6,1.2H29.2c-2.2,0.1-1.9,2.1-1.9,2.1l4.6,2c0.2,0.1,0.4,0.1,0.6,0.1
			l6,0.5l3.1,2.6v2.5h10.8C52.4,49.1,52.4,46.8,52.4,46.8z"/>
		<g id="XMLID_510_" class="st6">
			<path id="XMLID_562_" class="st52" d="M24.4,17.4c0.5-0.1,1.1-0.2,1.6-0.2s1.1,0.1,1.6,0.2"/>
			<path id="XMLID_561_" class="st52" d="M21.9,14.7c0.6-0.3,1.3-0.5,2-0.6s1.4-0.2,2.1-0.2s1.4,0.1,2.1,0.2s1.3,0.3,2,0.6"/>
			<path id="XMLID_560_" class="st52" d="M18.6,12.5c0.7-0.5,1.5-0.9,2.2-1.2c0.8-0.3,1.6-0.6,2.5-0.8s1.7-0.3,2.7-0.3
				c0.9,0,1.8,0.1,2.7,0.3c0.9,0.2,1.7,0.4,2.5,0.8c0.8,0.3,1.5,0.7,2.2,1.2"/>
		</g>
		<g id="XMLID_514_" class="st6">
			<path id="XMLID_552_" class="st52" d="M24.4,45.3c0.5,0.1,1.1,0.2,1.6,0.2s1.1-0.1,1.6-0.2"/>
			<path id="XMLID_551_" class="st52" d="M21.9,48c0.6,0.3,1.3,0.5,2,0.6s1.4,0.2,2.1,0.2s1.4-0.1,2.1-0.2c0.7-0.1,1.3-0.3,2-0.6"/>
			<path id="XMLID_521_" class="st52" d="M18.6,50.1c0.7,0.5,1.5,0.9,2.2,1.2c0.8,0.3,1.6,0.6,2.5,0.8s1.7,0.3,2.7,0.3
				c0.9,0,1.8-0.1,2.7-0.3c0.9-0.2,1.7-0.4,2.5-0.8c0.8-0.3,1.5-0.7,2.2-1.2"/>
		</g>
		
			<linearGradient id="XMLID_31_" gradientUnits="userSpaceOnUse" x1="37.0537" y1="15.8" x2="54.2678" y2="15.8" gradientTransform="matrix(1 0 0 -1 0 66)">
			<stop  offset="0" style="stop-color:#6874E7"/>
			<stop  offset="0.4803" style="stop-color:#747FE9"/>
			<stop  offset="0.9847" style="stop-color:#858EEC"/>
		</linearGradient>
		<path id="XMLID_517_" class="st53" d="M54.1,46.7H37.2c-0.1,0-0.2,0.1-0.2,0.2v6.8h17.2v-6.8C54.3,46.8,54.2,46.7,54.1,46.7z"/>
		<path id="XMLID_542_" class="st1" d="M30.7,29.8l-4.9,2.8c-0.1,0.1-0.2,0-0.2-0.1v-5.7c0-0.1,0.1-0.2,0.2-0.1l4.9,2.8
			C30.8,29.6,30.8,29.8,30.7,29.8l-4.9,2.8c-0.1,0.1-0.2,0-0.2-0.1v-5.7c0-0.1,0.1-0.2,0.2-0.1l4.9,2.8
			C30.8,29.6,30.8,29.8,30.7,29.8z"/>
		<path id="XMLID_540_" class="st4" d="M31.2,21.2h-20c-0.8,0-1.5,0.7-1.5,1.5v15.1c0,0.8,0.7,1.5,1.5,1.5h14.4"/>
		<line id="XMLID_525_" class="st4" x1="15.4" y1="39.5" x2="15.4" y2="21.4"/>
		<line id="XMLID_523_" class="st4" x1="12.1" y1="33.2" x2="12.1" y2="29.1"/>
		<line id="XMLID_563_" class="st4" x1="12.1" y1="28.7" x2="12.1" y2="27.4"/>
		<line id="XMLID_508_" class="st32" x1="21.6" y1="29.6" x2="23.6" y2="29.6"/>
		<line id="XMLID_506_" class="st32" x1="18" y1="29.6" x2="20" y2="29.6"/>
		<line id="XMLID_575_" class="st32" x1="36" y1="29.6" x2="38" y2="29.6"/>
		<line id="XMLID_574_" class="st32" x1="32.4" y1="29.6" x2="34.4" y2="29.6"/>
	</g>
	<g id="XMLID_62_" class="st0">
		<path id="XMLID_730_" class="st9" d="M14.6,30.9v18.7c0,1.7,1.4,3.1,3.1,3.1s3.1-1.4,3.1-3.1V30.9H14.6z"/>
		
			<linearGradient id="XMLID_32_" gradientUnits="userSpaceOnUse" x1="14.6117" y1="16.2" x2="20.8551" y2="16.2" gradientTransform="matrix(1 0 0 -1 0 66)">
			<stop  offset="0" style="stop-color:#6874E7"/>
			<stop  offset="0.4803" style="stop-color:#747FE9"/>
			<stop  offset="0.9847" style="stop-color:#858EEC"/>
		</linearGradient>
		<path id="XMLID_729_" class="st54" d="M14.6,46.9v2.7c0,1.7,1.4,3.1,3.1,3.1s3.1-1.4,3.1-3.1v-2.7H14.6z"/>
		<path id="XMLID_724_" class="st9" d="M28.9,30.8v18.7c0,1.7,1.4,3.1,3.1,3.1s3.1-1.4,3.1-3.1V30.8H28.9z"/>
		<path id="XMLID_723_" class="st3" d="M28.9,42.8v6.7c0,1.7,1.4,3.1,3.1,3.1s3.1-1.4,3.1-3.1v-6.7H28.9z"/>
		<path id="XMLID_722_" class="st9" d="M43.1,30.7v18.8c0,1.7,1.4,3.1,3.1,3.1c1.7,0,3.1-1.4,3.1-3.1V30.7H43.1z"/>
		
			<linearGradient id="XMLID_33_" gradientUnits="userSpaceOnUse" x1="43.1461" y1="17.1" x2="49.3895" y2="17.1" gradientTransform="matrix(1 0 0 -1 0 66)">
			<stop  offset="0" style="stop-color:#6874E7"/>
			<stop  offset="0.4803" style="stop-color:#747FE9"/>
			<stop  offset="0.9847" style="stop-color:#858EEC"/>
		</linearGradient>
		<path id="XMLID_721_" class="st55" d="M43.1,45.2v4.3c0,1.7,1.4,3.1,3.1,3.1c1.7,0,3.1-1.4,3.1-3.1v-4.3H43.1z"/>
		<path id="XMLID_720_" class="st11" d="M19.4,30.9v18.7c0,1.5-1,2.7-2.4,3c0.2,0.1,0.5,0.1,0.8,0.1c1.7,0,3.1-1.4,3.1-3.1V30.9
			H19.4z"/>
		<path id="XMLID_719_" class="st11" d="M33.6,30.8v18.7c0,1.5-1,2.7-2.4,3c0.2,0.1,0.5,0.1,0.8,0.1c1.7,0,3.1-1.4,3.1-3.1V30.8
			H33.6z"/>
		<path id="XMLID_718_" class="st11" d="M47.9,30.7v18.8c0,1.5-1,2.7-2.4,3c0.2,0.1,0.5,0.1,0.8,0.1c1.7,0,3.1-1.4,3.1-3.1V30.7
			H47.9z"/>
		<line id="XMLID_717_" class="st4" x1="12.6" y1="30.3" x2="22.9" y2="30.3"/>
		<line id="XMLID_702_" class="st4" x1="26.8" y1="30.3" x2="37.2" y2="30.3"/>
		<line id="XMLID_701_" class="st4" x1="41.1" y1="30.3" x2="51.4" y2="30.3"/>
		<line id="XMLID_695_" class="st4" x1="14.6" y1="46.8" x2="20.9" y2="46.8"/>
		<line id="XMLID_694_" class="st4" x1="28.9" y1="42.8" x2="35.1" y2="42.8"/>
		<line id="XMLID_692_" class="st4" x1="43.1" y1="45.1" x2="49.4" y2="45.1"/>
		<path id="XMLID_621_" class="st4" d="M17.6,29.2c0-7.9,6.4-14.4,14.4-14.4c7.9,0,14.4,6.4,14.4,14.4"/>
		<path id="XMLID_564_" class="st32" d="M14.4,28.3c0.3-9.7,8.4-17.3,18.1-17.1c9.7,0.3,17.3,8.4,17.1,18.1"/>
		<path id="XMLID_610_" class="st4" d="M37,15.7c2.2,3.5,3.5,8.2,3.5,13.4"/>
		<path id="XMLID_609_" class="st4" d="M27.3,15.7c-2.2,3.5-3.5,8.2-3.5,13.4"/>
		<line id="XMLID_608_" class="st4" x1="32" y1="29.2" x2="32" y2="14.8"/>
		<line id="XMLID_607_" class="st4" x1="19.8" y1="22.4" x2="44.6" y2="22.4"/>
	</g>
	<g id="XMLID_56_" class="st0">
		<path id="XMLID_706_" class="st56" d="M50.9,52.4H13.1c-0.1,0-0.2-0.1-0.2-0.2V27c0-0.1,0.1-0.2,0.2-0.2h37.8
			c0.1,0,0.2,0.1,0.2,0.2v25.2C51.1,52.3,51,52.4,50.9,52.4z"/>
		<rect id="XMLID_705_" x="14.9" y="28.3" class="st3" width="33.8" height="20.9"/>
		<path id="XMLID_703_" class="st13" d="M51.4,54.3H12.6c-0.5,0-0.9-0.4-1-0.9l-0.4-2.3h17.3l0.7,0.9H34l0.7-0.9h18.2l-0.4,2.3
			C52.3,53.9,51.9,54.3,51.4,54.3z"/>
		<path id="XMLID_571_" class="st4" d="M51.4,54.3H12.6c-0.5,0-0.9-0.4-1-0.9l-0.4-2.3h17.3l0.7,0.9H34l0.7-0.9h18.2l-0.4,2.3
			C52.3,53.9,51.9,54.3,51.4,54.3z"/>
		<line id="XMLID_569_" class="st4" x1="14.9" y1="49.2" x2="48.8" y2="49.2"/>
		<path id="XMLID_481_" class="st11" d="M26.8,46h-2.6c-0.9,0-1.6,0.7-1.6,1.6v1.5h2.6v-1.5C25.2,46.8,26,46,26.8,46z"/>
		<rect id="XMLID_335_" x="25.8" y="25.1" class="st11" width="3.4" height="2.7"/>
		<g id="XMLID_331_" class="st57">
			<path id="XMLID_333_" class="st58" d="M27.5,21.5c0.2-1.3,1.1-2.4,2.3-2.7c-0.4-0.1-0.9-0.2-1.4-0.1c-1.4,0.2-2.5,1.4-2.6,2.8
				c-0.2,2,1.3,3.6,3.2,3.6h1.7C28.8,25.1,27.3,23.4,27.5,21.5z"/>
		</g>
		
			<linearGradient id="XMLID_34_" gradientUnits="userSpaceOnUse" x1="25.743" y1="15.6081" x2="38.9196" y2="44.0078" gradientTransform="matrix(1 0 0 -1 0 66)">
			<stop  offset="0" style="stop-color:#6874E7"/>
			<stop  offset="0.9847" style="stop-color:#858EEC"/>
		</linearGradient>
		<path id="XMLID_118_" class="st59" d="M39.5,46h-1.2c2.8-5.1-0.7-8.6-2.4-10.9c-2.9-3.9-0.6-6.7-0.1-7.2h2.4v-2.8H35
			c1.9,0,3.4-1.7,3.2-3.6c-0.2-1.4-1.3-2.5-2.6-2.8c-0.8-0.1-1.6,0-2.2,0.4l0,0v-2.9h2.4c0,0,0.1,0,0.1-0.1v-3c0,0,0-0.1-0.1-0.1
			h-2.4V9.9c0,0,0-0.1-0.1-0.1h-2.5c0,0-0.1,0-0.1,0.1V13h-2.4c0,0-0.1,0-0.1,0.1v3c0,0,0,0.1,0.1,0.1h2.4v2.9l0,0
			c-0.6-0.4-1.4-0.5-2.2-0.4c-1.4,0.2-2.5,1.4-2.6,2.8c-0.2,2,1.3,3.6,3.2,3.6h-3.2v2.8H28c0.5,0.5,2.8,3.3-0.1,7.2
			c-1.7,2.2-5.2,5.8-2.4,10.9h-1.2c-0.9,0-1.6,0.7-1.6,1.6v1.5h18.5v-1.5C41.1,46.8,40.4,46,39.5,46z"/>
		<path id="XMLID_116_" class="st11" d="M29.6,35.1c3.2-4.3,0-7.3,0-7.3h-1.7c0,0,3.2,3,0,7.3c-1.7,2.3-5.3,5.9-2.3,11h1.7
			C24.3,41,27.9,37.4,29.6,35.1z"/>
		<g id="XMLID_36_" class="st6">
			<path id="XMLID_53_" class="st18" d="M27.8,27.7c0,0,3.2,3,0,7.3c-1.7,2.3-5.3,5.9-2.3,11"/>
			<path id="XMLID_51_" class="st18" d="M35.8,27.7c0,0-3.2,3,0,7.3c1.7,2.3,5.3,5.9,2.3,11"/>
			<path id="XMLID_50_" class="st18" d="M33.5,45.9h6c0.9,0,1.6,0.7,1.6,1.6V49H22.6v-1.5c0-0.9,0.7-1.6,1.6-1.6h4.4"/>
			<line id="XMLID_49_" class="st18" x1="29.6" y1="45.9" x2="30.9" y2="45.9"/>
			<line id="XMLID_48_" class="st18" x1="32.1" y1="27.7" x2="31" y2="27.7"/>
			<polyline id="XMLID_44_" class="st18" points="30.1,27.7 25.7,27.7 25.7,25 38.1,25 38.1,27.7 34.6,27.7 			"/>
			<path id="XMLID_40_" class="st18" d="M28.9,25c-1.9,0-3.4-1.7-3.2-3.6c0.2-1.4,1.3-2.5,2.6-2.8c0.8-0.1,1.6,0,2.2,0.4l0,0v-3
				h-2.4c0,0-0.1,0-0.1-0.1v-3c0,0,0-0.1,0.1-0.1h2.4v-3c0,0,0-0.1,0.1-0.1h2.5c0,0,0.1,0,0.1,0.1v3.1h2.4c0,0,0.1,0,0.1,0.1v3
				c0,0,0,0.1-0.1,0.1h-2.4V19l0,0c0.6-0.4,1.4-0.5,2.2-0.4c1.4,0.2,2.5,1.4,2.6,2.8c0.2,2-1.3,3.6-3.2,3.6"/>
		</g>
	</g>
	<g id="XMLID_103_" class="st0">
		<path id="XMLID_588_" class="st9" d="M43.3,45.8H21c-0.1,0-0.2,0.1-0.2,0.2v3.5h22.7V46C43.5,45.9,43.4,45.8,43.3,45.8z"/>
		<path id="XMLID_587_" class="st9" d="M20.8,14.5V18c0,0.1,0.1,0.2,0.2,0.2h22.3c0.1,0,0.2-0.1,0.2-0.2v-3.5H20.8z"/>
		
			<linearGradient id="XMLID_35_" gradientUnits="userSpaceOnUse" x1="21.1171" y1="19.7551" x2="42.2421" y2="48.255" gradientTransform="matrix(1 0 0 -1 0 66)">
			<stop  offset="0" style="stop-color:#6874E7"/>
			<stop  offset="0.4803" style="stop-color:#747FE9"/>
			<stop  offset="0.9847" style="stop-color:#858EEC"/>
		</linearGradient>
		<path id="XMLID_106_" class="st60" d="M21.4,45.6v-5.5c0-0.3,0.1-0.5,0.3-0.7l5.9-7.1v-0.8l-5.9-7.1c-0.2-0.2-0.3-0.4-0.3-0.7
			v-5.5h20.7v5.5c0,0.3-0.1,0.5-0.3,0.7l-5.9,7.1v0.8l5.9,7.1c0.2,0.2,0.3,0.4,0.3,0.7v5.5H21.4z"/>
		<polygon id="XMLID_589_" class="st11" points="38.4,44.5 30,44.5 21.4,44.5 21.4,45.6 42.1,45.6 42.1,44.5 		"/>
		<path id="XMLID_578_" class="st9" d="M47.2,48.5h-8.7h-8.4H16.8c-0.1,0-0.2,0.1-0.2,0.2v4c0,0.1,0.1,0.2,0.2,0.2h30.4
			c0.1,0,0.2-0.1,0.2-0.2v-4C47.4,48.6,47.3,48.5,47.2,48.5z"/>
		<path id="XMLID_101_" class="st4" d="M38.5,48.5h8.7c0.1,0,0.2,0.1,0.2,0.2v4c0,0.1-0.1,0.2-0.2,0.2H16.8c-0.1,0-0.2-0.1-0.2-0.2
			v-4c0-0.1,0.1-0.2,0.2-0.2h13.3"/>
		<polygon id="XMLID_592_" class="st11" points="21.4,19.4 24,19.4 33.4,19.4 42.1,19.4 42.1,18.3 21.4,18.3 		"/>
		<path id="XMLID_576_" class="st9" d="M47.2,11.1H16.8c-0.1,0-0.2,0.1-0.2,0.2v4c0,0.1,0.1,0.2,0.2,0.2h7.6h9.4h13.4
			c0.1,0,0.2-0.1,0.2-0.2v-4C47.4,11.2,47.3,11.1,47.2,11.1z"/>
		<path id="XMLID_128_" class="st4" d="M24.4,15.5h-7.6c-0.1,0-0.2-0.1-0.2-0.2v-4c0-0.1,0.1-0.2,0.2-0.2h30.4
			c0.1,0,0.2,0.1,0.2,0.2v4c0,0.1-0.1,0.2-0.2,0.2H33.8"/>
		<line id="XMLID_111_" class="st4" x1="18.5" y1="15.9" x2="18.5" y2="29.9"/>
		<line id="XMLID_117_" class="st4" x1="45.7" y1="15.9" x2="45.7" y2="29.9"/>
		<line id="XMLID_110_" class="st4" x1="18.5" y1="32" x2="18.5" y2="47.9"/>
		<line id="XMLID_112_" class="st4" x1="45.7" y1="31.6" x2="45.7" y2="47.9"/>
		<line id="XMLID_122_" class="st4" x1="32" y1="24.3" x2="32" y2="26"/>
		<line id="XMLID_120_" class="st4" x1="32" y1="27.7" x2="32" y2="29.4"/>
		<line id="XMLID_123_" class="st4" x1="32" y1="31.1" x2="32" y2="32.8"/>
		<line id="XMLID_125_" class="st4" x1="32" y1="34.5" x2="32" y2="36.2"/>
		<line id="XMLID_126_" class="st4" x1="32" y1="37.9" x2="32" y2="39.6"/>
		<path id="XMLID_129_" class="st4" d="M20.8,15.5V18c0,0.1,0.1,0.2,0.2,0.2h22.3c0.1,0,0.2-0.1,0.2-0.2v-2.5"/>
		<path id="XMLID_130_" class="st4" d="M20.8,48.5V46c0-0.1,0.1-0.2,0.2-0.2h22.3c0.1,0,0.2,0.1,0.2,0.2v2.5"/>
		<circle id="XMLID_109_" class="st3" cx="18.5" cy="31.5" r="1.6"/>
		<circle id="XMLID_115_" class="st3" cx="45.7" cy="31.5" r="1.6"/>
	</g>
	<g id="XMLID_193_" class="st0">
		<path id="XMLID_648_" class="st13" d="M45.4,11.4c0-1.3-1-2.3-2.3-2.3H20.6c-1.3,0-2.3,1-2.3,2.3v41.1c0,1.3,1,2.3,2.3,2.3h22.6
			c1.3,0,2.3-1,2.3-2.3L45.4,11.4L45.4,11.4z"/>
		
			<linearGradient id="XMLID_37_" gradientUnits="userSpaceOnUse" x1="19.0689" y1="18.7131" x2="45.0259" y2="49.5371" gradientTransform="matrix(1 0 0 -1 0 66)">
			<stop  offset="0" style="stop-color:#6874E7"/>
			<stop  offset="0.4803" style="stop-color:#747FE9"/>
			<stop  offset="0.9847" style="stop-color:#858EEC"/>
		</linearGradient>
		<rect id="XMLID_647_" x="18.3" y="16.1" class="st61" width="27.2" height="31.9"/>
		<line id="XMLID_646_" class="st4" x1="29.2" y1="12.8" x2="34.9" y2="12.8"/>
		<line id="XMLID_645_" class="st4" x1="35.6" y1="12.8" x2="37.3" y2="12.8"/>
		<path id="XMLID_207_" class="st15" d="M43.1,9.1H41c1.3,0,2.3,1,2.3,2.3v41.1c0,1.3-1,2.3-2.3,2.3h2.2c1.3,0,2.3-1,2.3-2.3V11.4
			C45.4,10.2,44.4,9.1,43.1,9.1z"/>
		<path id="XMLID_200_" class="st16" d="M20.6,9.1h2.2c-1.3,0-2.3,1-2.3,2.3v41.1c0,1.3,1,2.3,2.3,2.3h-2.2c-1.3,0-2.3-1-2.3-2.3
			V11.4C18.3,10.2,19.3,9.1,20.6,9.1z"/>
		<path id="XMLID_208_" class="st4" d="M18.3,40v12.6c0,1.3,1,2.3,2.3,2.3h22.6c1.3,0,2.3-1,2.3-2.3V40"/>
		<path id="XMLID_194_" class="st4" d="M45.4,24.1V11.4c0-1.3-1-2.3-2.3-2.3H20.6c-1.3,0-2.3,1-2.3,2.3v12.7"/>
		<g id="XMLID_223_" class="st6">
			<path id="XMLID_275_" class="st52" d="M16.4,30.2c-0.1,0.6-0.2,1.3-0.2,1.9c0,0.7,0.1,1.3,0.2,1.9"/>
			<path id="XMLID_273_" class="st52" d="M14.1,27.2c-0.3,0.8-0.6,1.6-0.7,2.4c-0.2,0.8-0.3,1.7-0.3,2.6c0,0.9,0.1,1.7,0.3,2.6
				c0.2,0.8,0.4,1.6,0.7,2.4"/>
			<path id="XMLID_272_" class="st52" d="M12.6,23.2c-0.6,0.9-1.1,1.8-1.5,2.7c-0.4,1-0.7,2-0.9,3S9.9,31,9.9,32.1
				c0,1.1,0.1,2.2,0.3,3.2s0.5,2.1,0.9,3c0.4,1,0.9,1.9,1.5,2.7"/>
		</g>
		<g id="XMLID_230_" class="st6">
			<path id="XMLID_233_" class="st52" d="M47.6,30.2c0.1,0.6,0.2,1.3,0.2,1.9c0,0.7-0.1,1.3-0.2,1.9"/>
			<path id="XMLID_232_" class="st52" d="M49.9,27.2c0.3,0.8,0.6,1.6,0.7,2.4c0.2,0.8,0.3,1.7,0.3,2.6c0,0.9-0.1,1.7-0.3,2.6
				c-0.2,0.8-0.4,1.6-0.7,2.4"/>
			<path id="XMLID_231_" class="st52" d="M51.4,23.2c0.6,0.9,1.1,1.8,1.5,2.7s0.7,2,0.9,3s0.3,2.1,0.3,3.2c0,1.1-0.1,2.2-0.3,3.2
				s-0.5,2.1-0.9,3c-0.4,1-0.9,1.9-1.5,2.7"/>
		</g>
		<path id="XMLID_244_" class="st3" d="M40.3,29.6h-0.6c0.9,0,1.6-0.7,1.6-1.6s-0.7-1.6-1.6-1.6h-6h-3.8c0,0,1.3-3.3,1.3-4.8
			c0-0.7,0.2-2.1-0.3-2.8c-0.2-0.3-1.4-0.3-1.6,0c0,0-1.2,3.7-2,4.8c-0.5,0.6-2.2,2.9-2.2,2.9h-1.6v10.2h0.9c0.3,0,0.7,0.1,0.9,0.4
			l1.6,1.6c0.3,0.3,0.7,0.5,1.1,0.5h9c0.9,0,1.6-0.7,1.6-1.6c0-0.7-0.4-1.2-1-1.5l1.1-0.1c0.9,0,1.6-0.7,1.6-1.6
			c0-0.9-0.7-1.6-1.6-1.6h1.7c0.9,0,1.6-0.7,1.6-1.6C41.9,30.3,41.2,29.6,40.3,29.6z"/>
		<g id="XMLID_421_" class="st6">
			<path id="XMLID_747_" class="st18" d="M37.7,32.8h2.7c0.9,0,1.6-0.7,1.6-1.6l0,0c0-0.9-0.7-1.6-1.6-1.6h-2.7"/>
			<path id="XMLID_431_" class="st18" d="M36.6,35.9h2.1c0.9,0,1.6-0.7,1.6-1.6l0,0c0-0.9-0.7-1.6-1.6-1.6h-2.1"/>
			<path id="XMLID_745_" class="st18" d="M36.4,35.9h0.7c0.9,0,1.6,0.7,1.6,1.6l0,0c0,0.9-0.7,1.6-1.6,1.6h-9
				c-0.4,0-0.8-0.2-1.1-0.5L25.4,37c-0.2-0.2-0.6-0.4-0.9-0.4h-0.9"/>
			<path id="XMLID_430_" class="st18" d="M36.6,29.6h3.2c0.9,0,1.6-0.7,1.6-1.6l0,0c0-0.9-0.7-1.6-1.6-1.6h-6H30
				c0,0,1.3-3.3,1.3-4.8c0-0.7,0.2-2.1-0.3-2.8c-0.2-0.3-1.4-0.3-1.6,0c0,0-1.2,3.7-2,4.8c-0.5,0.6-2.2,2.9-2.2,2.9h-1"/>
			<line id="XMLID_256_" class="st18" x1="23.8" y1="23.8" x2="23.8" y2="39.2"/>
		</g>
	</g>
	<g id="XMLID_236_" class="st0">
		<path id="XMLID_226_" class="st13" d="M13.6,18.9v24.9c0,0.1,0.1,0.2,0.2,0.2h36.4c0.1,0,0.2-0.1,0.2-0.2V18.9H13.6z"/>
		<path id="XMLID_235_" class="st4" d="M50.4,22.4v21.4c0,0.1-0.1,0.2-0.2,0.2H13.8c-0.1,0-0.2-0.1-0.2-0.2V22.4"/>
		<polygon id="XMLID_246_" class="st11" points="50.4,18.9 13.6,18.9 13.6,22.3 34.8,22.3 42.7,22.3 50.4,22.3 		"/>
		
			<linearGradient id="XMLID_38_" gradientUnits="userSpaceOnUse" x1="11.6" y1="48.5" x2="52.5" y2="48.5" gradientTransform="matrix(1 0 0 -1 0 66)">
			<stop  offset="0" style="stop-color:#6874E7"/>
			<stop  offset="0.4803" style="stop-color:#747FE9"/>
			<stop  offset="0.9847" style="stop-color:#858EEC"/>
		</linearGradient>
		<path id="XMLID_229_" class="st62" d="M52.2,14.2H11.8c-0.1,0-0.2,0.1-0.2,0.2v6.2c0,0.1,0.1,0.2,0.2,0.2h23h7.9h9.6
			c0.1,0,0.2-0.1,0.2-0.2v-6.2C52.4,14.3,52.3,14.2,52.2,14.2z"/>
		<path id="XMLID_220_" class="st4" d="M25.8,20.8h-14c-0.1,0-0.2-0.1-0.2-0.2v-6.2c0-0.1,0.1-0.2,0.2-0.2h40.4
			c0.1,0,0.2,0.1,0.2,0.2v6.2c0,0.1-0.1,0.2-0.2,0.2h-9.6"/>
		<line id="XMLID_212_" class="st4" x1="32.3" y1="20.8" x2="27.9" y2="20.8"/>
		<line id="XMLID_240_" class="st4" x1="15.9" y1="10.4" x2="15.9" y2="16.6"/>
		<line id="XMLID_237_" class="st4" x1="23.9" y1="10.4" x2="23.9" y2="16.6"/>
		<line id="XMLID_241_" class="st4" x1="31.9" y1="10.4" x2="31.9" y2="16.6"/>
		<line id="XMLID_242_" class="st4" x1="39.9" y1="10.4" x2="39.9" y2="16.6"/>
		<line id="XMLID_249_" class="st4" x1="47.9" y1="10.4" x2="47.9" y2="16.6"/>
		<line id="XMLID_252_" class="st4" x1="22.7" y1="39.5" x2="24.6" y2="39.5"/>
		<line id="XMLID_251_" class="st4" x1="26.7" y1="39.5" x2="28.6" y2="39.5"/>
		<line id="XMLID_253_" class="st4" x1="30.7" y1="39.5" x2="32.6" y2="39.5"/>
		<line id="XMLID_257_" class="st4" x1="34.7" y1="39.5" x2="36.6" y2="39.5"/>
		<line id="XMLID_259_" class="st4" x1="38.7" y1="39.5" x2="40.6" y2="39.5"/>
		
			<linearGradient id="XMLID_39_" gradientUnits="userSpaceOnUse" x1="25.7663" y1="35.5" x2="38.7154" y2="35.5" gradientTransform="matrix(1 0 0 -1 0 66)">
			<stop  offset="0" style="stop-color:#6874E7"/>
			<stop  offset="0.4803" style="stop-color:#747FE9"/>
			<stop  offset="0.9847" style="stop-color:#858EEC"/>
		</linearGradient>
		<circle id="XMLID_261_" class="st63" cx="32.2" cy="30.5" r="6.5"/>
		<polygon id="XMLID_735_" class="st3" points="47.4,49.7 49.7,51.6 47.4,53.6 15,53.6 15,49.7 		"/>
		<polygon id="XMLID_228_" class="st11" points="48.5,52.6 15,52.6 15,53.6 47.4,53.6 49.7,51.6 49.7,51.6 		"/>
		<line id="XMLID_741_" class="st4" x1="11.7" y1="51.6" x2="15" y2="51.6"/>
		<line id="XMLID_743_" class="st4" x1="49" y1="51.6" x2="52.3" y2="51.6"/>
		<line id="XMLID_742_" class="st4" x1="33.8" y1="53.6" x2="33.8" y2="49.7"/>
		<line id="XMLID_736_" class="st4" x1="44.5" y1="53.6" x2="44.5" y2="49.7"/>
		<polyline id="XMLID_744_" class="st4" points="17.3,49.7 17.3,47 27.9,47 		"/>
		<polyline id="XMLID_250_" class="st64" points="29.7,30.4 31.7,32.4 36,28.1 		"/>
	</g>
	<g id="XMLID_170_" class="st0">
		<rect id="XMLID_666_" x="29.7" y="29.6" class="st9" width="5.5" height="7.4"/>
		<rect id="XMLID_665_" x="32.5" y="29.6" class="st65" width="2.7" height="7.4"/>
		<path id="XMLID_664_" class="st9" d="M37.1,23.6l0.1-0.9c-0.4-4.9-4.7-4.7-4.7-4.7c-4.9,0.5-4.7,4.7-4.7,4.7l0.1,0.9l0.2,2.4l0,0
			l0.2,2.4c0.1,0.8,0.5,1.4,1.2,1.8l2.3,1.5h1.5l2.4-1.5c0.7-0.4,1.1-1,1.2-1.8l0.2-2.5V23.6z"/>
		<path id="XMLID_663_" class="st65" d="M37.1,23.6l0.1-0.9c-0.4-4.9-4.7-4.7-4.7-4.7c-0.2,0-0.4,0.1-0.6,0.1
			c1.3,0.3,3.4,1.2,3.7,4.6l-0.1,0.9l-0.2,2.3l-0.2,2.5c-0.1,0.8-0.5,1.4-1.2,1.8l-2.3,1.5h0.1h1.5l2.4-1.5c0.7-0.4,1.1-1,1.2-1.8
			l0.2-2.5C36.9,25.8,37.2,23.5,37.1,23.6z"/>
		<g id="XMLID_661_" class="st6">
			
				<linearGradient id="XMLID_41_" gradientUnits="userSpaceOnUse" x1="22.7777" y1="27.8" x2="42.222" y2="27.8" gradientTransform="matrix(1 0 0 -1 0 66)">
				<stop  offset="0" style="stop-color:#6874E7"/>
				<stop  offset="0.4803" style="stop-color:#747FE9"/>
				<stop  offset="0.9847" style="stop-color:#858EEC"/>
			</linearGradient>
			<path id="XMLID_662_" class="st66" d="M35.3,34.2l6.2,2.1c0.4,0.1,0.7,0.5,0.7,1v5H22.8v-5c0-0.4,0.3-0.8,0.7-1l6.2-2.2l2.8,2.5
				L35.3,34.2z"/>
		</g>
		<g id="XMLID_629_" class="st57">
			<path id="XMLID_659_" class="st58" d="M41.5,36.4l-6.2-2.1l-0.5,0.5l4.9,1.7c0.4,0.1,0.7,0.5,0.7,1v5h1.9v-5
				C42.2,36.9,41.9,36.5,41.5,36.4z"/>
		</g>
		<polyline id="XMLID_168_" class="st4" points="35.3,30.4 35.3,34.2 32.5,36.6 29.7,34.2 29.7,30.4 		"/>
		<line id="XMLID_595_" class="st4" x1="20.5" y1="42.4" x2="44.5" y2="42.4"/>
		<path id="XMLID_277_" class="st4" d="M22.5,50.4c-0.6-0.3-1.2-0.7-1.7-1c-0.6-0.4-1.1-0.8-1.6-1.2s-1-0.9-1.5-1.4s-0.9-1-1.4-1.5
			c-0.4-0.5-0.8-1.1-1.2-1.6c-0.4-0.6-0.7-1.1-1-1.7c-0.3-0.6-0.6-1.2-0.9-1.8c-0.3-0.6-0.5-1.3-0.7-1.9c-0.2-0.7-0.4-1.3-0.5-2
			s-0.2-1.4-0.3-2.1c-0.1-0.7-0.1-1.4-0.1-2.1s0-1.4,0.1-2.1s0.2-1.4,0.3-2.1s0.3-1.4,0.5-2c0.2-0.7,0.4-1.3,0.7-1.9
			s0.6-1.2,0.9-1.8c0.3-0.6,0.7-1.2,1-1.7c0.4-0.6,0.8-1.1,1.2-1.6s0.9-1,1.4-1.5s1-0.9,1.5-1.4c0.5-0.4,1.1-0.8,1.6-1.2
			c0.6-0.4,1.1-0.7,1.7-1s1.2-0.6,1.8-0.9c0.6-0.3,1.3-0.5,1.9-0.7s1.3-0.4,2-0.5s1.4-0.2,2.1-0.3s1.4-0.1,2.1-0.1
			c0.7,0,1.4,0,2.1,0.1c0.7,0.1,1.4,0.2,2.1,0.3c0.7,0.1,1.4,0.3,2,0.5c0.7,0.2,1.3,0.4,1.9,0.7c0.6,0.3,1.2,0.6,1.8,0.9
			s1.2,0.7,1.7,1c0.6,0.4,1.1,0.8,1.6,1.2s1,0.9,1.5,1.4"/>
		<path id="XMLID_271_" class="st4" d="M28.2,52.5c-0.7-0.1-1.4-0.3-2-0.5"/>
		<path id="XMLID_270_" class="st4" d="M34.6,52.8c-0.7,0.1-1.4,0.1-2.1,0.1"/>
		<path id="XMLID_269_" class="st4" d="M40.6,51.3c-0.6,0.3-1.3,0.5-1.9,0.7"/>
		<path id="XMLID_268_" class="st4" d="M45.8,48.2c-0.5,0.4-1.1,0.8-1.6,1.2"/>
		<path id="XMLID_266_" class="st4" d="M49.8,43.7c-0.4,0.6-0.8,1.1-1.2,1.6"/>
		<path id="XMLID_258_" class="st4" d="M52.5,38.2c-0.2,0.7-0.4,1.3-0.7,1.9"/>
		<polyline id="XMLID_254_" class="st4" points="48.1,14.4 48.1,18.1 44.6,18.1 		"/>
		<path id="XMLID_167_" class="st4" d="M37.1,23.6l0.1-0.9c-0.4-4.9-4.7-4.7-4.7-4.7c-4.9,0.5-4.7,4.7-4.7,4.7l0.1,0.9l0.2,2.4l0,0
			l0.2,2.4c0.1,0.8,0.5,1.4,1.2,1.8l2.3,1.5h1.5l2.4-1.5c0.7-0.4,1.1-1,1.2-1.8l0.2-2.5V23.6z"/>
	</g>
	<g id="XMLID_2_" class="st0">
		<path id="XMLID_321_" class="st65" d="M48.8,18.1h6.5c0,0,1.1-6.7-3.4-6.6H40.7v6.6H48.8z"/>
		<path id="XMLID_339_" class="st9" d="M47.1,11.4H18.7c-2.5,0-4.6,2.1-4.6,4.6v26h32.8V15.2c0-2.1,1.7-3.7,3.7-3.7L47.1,11.4z"/>
		<path id="XMLID_361_" class="st11" d="M19.9,42h20.3c-0.8-4.9-5-8.6-10.1-8.6C24.9,33.4,20.7,37.1,19.9,42z"/>
		
			<linearGradient id="XMLID_42_" gradientUnits="userSpaceOnUse" x1="8.5" y1="22.35" x2="55.05" y2="22.35" gradientTransform="matrix(1 0 0 -1 0 66)">
			<stop  offset="0" style="stop-color:#6874E7"/>
			<stop  offset="0.4803" style="stop-color:#747FE9"/>
			<stop  offset="0.9847" style="stop-color:#858EEC"/>
		</linearGradient>
		<path id="XMLID_287_" class="st67" d="M18.8,46.9h-10c-0.2,0-0.3-0.1-0.3-0.3v-5.9c0-0.2,0.1-0.3,0.3-0.3h10.4h22.1h9.4l4.2,3.1
			c0.2,0.1,0.2,0.3,0,0.4l-4.2,3h-9.4H18.8z"/>
		<path id="XMLID_289_" class="st1" d="M18.8,46.9h-10c-0.2,0-0.3-0.1-0.3-0.3v-5.9c0-0.2,0.1-0.3,0.3-0.3h10.4h22.1H12.7v6.4h28.6
			L18.8,46.9L18.8,46.9z"/>
		<path id="XMLID_352_" class="st11" d="M54.9,43.5l-0.4-0.3l-3.8,1.1h-9.4H18.8h-10c-0.2,0-0.3-0.1-0.3-0.3v2.5
			c0,0.2,0.1,0.3,0.3,0.3h10h22.5h9.4l4.2-3C55.1,43.8,55.1,43.6,54.9,43.5z"/>
		<path id="XMLID_263_" class="st1" d="M50,46.9v-6.4h0.7l4.2,3.1c0.2,0.1,0.2,0.3,0,0.4l-4.2,3L50,46.9L50,46.9z"/>
		<line id="XMLID_326_" class="st4" x1="12.8" y1="40.5" x2="12.8" y2="46.9"/>
		<line id="XMLID_325_" class="st4" x1="50.2" y1="40.5" x2="50.2" y2="46.9"/>
		<circle id="XMLID_329_" class="st3" cx="30" cy="43.7" r="8.9"/>
		<path id="XMLID_338_" class="st24" d="M30,34.7c-2.9,0-5.4,1.3-7,3.4c1.5-1.2,3.4-1.9,5.5-1.9c4.9,0,8.9,4,8.9,8.9
			c0,2.1-0.7,4-1.9,5.5c2.1-1.6,3.4-4.2,3.4-7C38.9,38.7,34.9,34.7,30,34.7z"/>
		<g id="XMLID_332_" class="st6">
			<path id="XMLID_337_" class="st18" d="M32.9,40h-3.8c-1,0-1.9,0.8-1.9,1.9l0,0c0,1,0.8,1.9,1.9,1.9H31c1,0,1.9,0.8,1.9,1.9l0,0
				c0,1-0.8,1.9-1.9,1.9h-3.9"/>
			<line id="XMLID_336_" class="st18" x1="30.2" y1="38.1" x2="30.2" y2="40"/>
			<line id="XMLID_334_" class="st18" x1="30.2" y1="47.5" x2="30.2" y2="49.3"/>
		</g>
		<line id="XMLID_328_" class="st4" x1="23.2" y1="43.7" x2="25.3" y2="43.7"/>
		<line id="XMLID_300_" class="st4" x1="34.8" y1="43.7" x2="36.9" y2="43.7"/>
		<path id="XMLID_491_" class="st4" d="M52,11.5c4.5,0,3.4,6.6,3.4,6.6h-7.5"/>
		<path id="XMLID_488_" class="st4" d="M14.1,39.5V16c0-2.5,2.1-4.6,4.6-4.6h33.4"/>
		<path id="XMLID_486_" class="st4" d="M52.5,11.5h-1.8c-2.1,0-3.7,1.7-3.7,3.7v24.3"/>
		<line id="XMLID_490_" class="st4" x1="17" y1="19.6" x2="43" y2="19.6"/>
		<line id="XMLID_493_" class="st4" x1="17" y1="25.1" x2="43" y2="25.1"/>
		<line id="XMLID_320_" class="st4" x1="17" y1="30.5" x2="43" y2="30.5"/>
		<path id="XMLID_340_" class="st10" d="M54.9,43.5l-1.4-1v2.4l1.4-1C55.1,43.8,55.1,43.6,54.9,43.5z"/>
	</g>
</g>
<g id="headline" class="st0">
</g>
</svg>
