<?xml version="1.0" encoding="utf-8"?>
<!-- Generator: Adobe Illustrator 19.2.0, SVG Export Plug-In . SVG Version: 6.00 Build 0)  -->
<svg version="1.1" id="Layer_1" xmlns="http://www.w3.org/2000/svg" xmlns:xlink="http://www.w3.org/1999/xlink" x="0px" y="0px"
	 viewBox="0 0 64 64" style="enable-background:new 0 0 64 64;" xml:space="preserve">
<style type="text/css">
	.st0{display:none;}
	.st1{display:inline;fill:#FFFFFF;}
	.st2{display:inline;fill:#E6E7E8;}
	.st3{display:inline;fill:#FFC107;}
	.st4{display:inline;fill:#F1F2F2;}
	.st5{display:inline;fill:none;stroke:#4C5159;stroke-miterlimit:10;}
	.st6{display:inline;opacity:0.3;fill:#414042;enable-background:new    ;}
	.st7{display:inline;fill:url(#XMLID_5_);}
	.st8{display:inline;fill:none;stroke:#FFFFFF;stroke-miterlimit:10;}
	.st9{display:inline;fill:#EDEDED;}
	.st10{display:inline;fill:url(#XMLID_6_);}
	.st11{display:inline;}
	.st12{fill:#FFC107;}
	.st13{fill:none;stroke:#4C5159;stroke-miterlimit:10;}
	.st14{display:inline;fill:url(#XMLID_10_);}
	.st15{display:inline;opacity:0.2;fill:#FFFFFF;enable-background:new    ;}
	.st16{display:inline;opacity:0.2;fill:#414042;enable-background:new    ;}
	.st17{fill:#FBE2C9;}
	.st18{fill:#E6E7E8;}
	.st19{fill:#FFFFFF;}
	.st20{fill:#C1DFF3;}
	.st21{fill:#E89B3E;}
	.st22{fill:#D1D3D4;}
	.st23{fill:#F1F2F2;}
	.st24{fill:url(#XMLID_11_);}
	.st25{display:inline;fill:#D1D3D4;}
	.st26{display:inline;fill:none;stroke:#4C5159;stroke-miterlimit:10;stroke-dasharray:1;}
	.st27{fill:url(#XMLID_12_);}
	.st28{display:inline;fill:url(#XMLID_18_);}
	.st29{opacity:0.53;}
	.st30{opacity:0.53;fill:#FFFFFF;enable-background:new    ;}
	.st31{display:inline;fill:url(#XMLID_19_);}
	.st32{display:inline;fill:none;stroke:#4C5159;stroke-width:2;stroke-miterlimit:10;}
	.st33{display:inline;fill:url(#XMLID_20_);}
	.st34{fill:url(#XMLID_22_);}
	.st35{display:inline;opacity:0.3;}
	.st36{fill:#414042;}
	.st37{display:inline;fill:url(#XMLID_23_);}
	.st38{fill:none;stroke:#4C5159;stroke-miterlimit:10;stroke-dasharray:1.9857,1.9857;}
	.st39{display:inline;fill:url(#XMLID_24_);}
	.st40{fill:url(#XMLID_26_);}
	.st41{fill:none;stroke:#4C5159;stroke-miterlimit:10;stroke-dasharray:1;}
	.st42{fill:url(#XMLID_31_);}
	.st43{fill:url(#XMLID_32_);}
	.st44{opacity:0.2;fill:#FFFFFF;enable-background:new    ;}
	.st45{fill:url(#XMLID_33_);}
	.st46{fill:url(#XMLID_34_);}
	.st47{fill:url(#XMLID_35_);}
	.st48{fill:none;stroke:#FFFFFF;stroke-miterlimit:10;}
	.st49{display:inline;fill:url(#XMLID_37_);}
	.st50{fill:#EDEDED;}
	.st51{fill:url(#XMLID_38_);}
	.st52{fill:url(#XMLID_39_);}
	.st53{fill:url(#XMLID_41_);}
	.st54{display:inline;fill:none;stroke:#4C5159;stroke-miterlimit:10;stroke-dasharray:1.9857,1.9857;}
	.st55{display:inline;fill:url(#XMLID_42_);}
	.st56{display:inline;fill:#FFDA6A;}
	.st57{display:inline;fill:url(#XMLID_43_);}
	.st58{display:inline;fill:url(#XMLID_45_);}
	.st59{display:inline;fill:url(#XMLID_46_);}
	.st60{fill:url(#XMLID_47_);}
	.st61{display:inline;fill:url(#XMLID_55_);}
	.st62{display:inline;fill:url(#XMLID_63_);}
	.st63{enable-background:new    ;}
	.st64{fill:#4C5159;}
	.st65{fill:#6874E7;}
</style>
<g id="bg" class="st0">
	<rect id="XMLID_119_" x="-218" y="-268.2" class="st1" width="500" height="600.3"/>
</g>
<g id="icons">
	<g id="XMLID_54_" class="st0">
		<path id="XMLID_706_" class="st2" d="M52,50.9H12c-0.1,0-0.2-0.1-0.2-0.2V23.9c0-0.1,0.1-0.2,0.2-0.2h40c0.1,0,0.2,0.1,0.2,0.2
			v26.7C52.3,50.8,52.2,50.9,52,50.9z"/>
		<rect id="XMLID_705_" x="13.9" y="25.3" class="st3" width="35.8" height="22.2"/>
		<path id="XMLID_703_" class="st4" d="M52.6,52.9H11.4c-0.5,0-1-0.4-1.1-0.9L10,49.5h18.3l0.7,1h5l0.8-1H54L53.6,52
			C53.5,52.5,53.1,52.9,52.6,52.9z"/>
		<path id="XMLID_797_" class="st5" d="M52.6,52.9H11.4c-0.5,0-1-0.4-1.1-0.9L10,49.5h18.3l0.7,1h5l0.8-1H54L53.6,52
			C53.5,52.5,53.1,52.9,52.6,52.9z"/>
		<line id="XMLID_324_" class="st5" x1="13.9" y1="47.5" x2="49.8" y2="47.5"/>
		<path id="XMLID_713_" class="st6" d="M18.6,23.7v19.7c0,0.1,0.1,0.2,0.2,0.2h29.9c0.1,0,0.2-0.1,0.2-0.2V23.7H18.6z"/>
		
			<linearGradient id="XMLID_5_" gradientUnits="userSpaceOnUse" x1="16.7362" y1="24.39" x2="47.2363" y2="55.3901" gradientTransform="matrix(1 0 0 -1 0 66)">
			<stop  offset="0" style="stop-color:#6874E7"/>
			<stop  offset="0.4803" style="stop-color:#747FE9"/>
			<stop  offset="0.9847" style="stop-color:#858EEC"/>
		</linearGradient>
		<path id="XMLID_4_" class="st7" d="M46.7,41.6H16.8c-0.1,0-0.2-0.1-0.2-0.2V11.3c0-0.1,0.1-0.2,0.2-0.2h29.9
			c0.1,0,0.2,0.1,0.2,0.2v30.1C46.9,41.5,46.8,41.6,46.7,41.6z"/>
		<path id="XMLID_704_" class="st5" d="M46.7,41.6H16.8c-0.1,0-0.2-0.1-0.2-0.2V11.3c0-0.1,0.1-0.2,0.2-0.2h29.9
			c0.1,0,0.2,0.1,0.2,0.2v30.1C46.9,41.5,46.8,41.6,46.7,41.6z"/>
		<line id="XMLID_13_" class="st5" x1="16.6" y1="16.5" x2="46.9" y2="16.5"/>
		<line id="XMLID_14_" class="st8" x1="19.4" y1="13.7" x2="20.8" y2="13.7"/>
		<line id="XMLID_7_" class="st8" x1="21.7" y1="13.7" x2="23.1" y2="13.7"/>
		<line id="XMLID_15_" class="st8" x1="24" y1="13.7" x2="25.4" y2="13.7"/>
		<line id="XMLID_16_" class="st8" x1="20.3" y1="22" x2="22.2" y2="22"/>
		<line id="XMLID_36_" class="st8" x1="24.6" y1="22" x2="35.4" y2="22"/>
		<line id="XMLID_40_" class="st8" x1="40.8" y1="22" x2="37.4" y2="22"/>
		<line id="XMLID_17_" class="st8" x1="20.3" y1="25.8" x2="22.2" y2="25.8"/>
		<line id="XMLID_44_" class="st8" x1="24.4" y1="25.8" x2="29.2" y2="25.8"/>
		<line id="XMLID_48_" class="st8" x1="43.6" y1="25.8" x2="31.4" y2="25.8"/>
		<line id="XMLID_21_" class="st8" x1="20.3" y1="29.6" x2="22.2" y2="29.6"/>
		<line id="XMLID_49_" class="st8" x1="24.7" y1="29.6" x2="35.8" y2="29.6"/>
		<line id="XMLID_25_" class="st8" x1="20.3" y1="33.3" x2="22.2" y2="33.3"/>
		<line id="XMLID_50_" class="st8" x1="24.5" y1="33.3" x2="31.8" y2="33.3"/>
		<line id="XMLID_51_" class="st8" x1="39.9" y1="33.3" x2="33.9" y2="33.3"/>
		<line id="XMLID_29_" class="st8" x1="20.3" y1="37.1" x2="22.2" y2="37.1"/>
		<line id="XMLID_52_" class="st8" x1="24.6" y1="37.1" x2="37.4" y2="37.1"/>
		<line id="XMLID_53_" class="st8" x1="40.9" y1="37.1" x2="38.4" y2="37.1"/>
	</g>
	<g id="XMLID_145_" class="st0">
		<path id="XMLID_710_" class="st9" d="M50.4,11.1H13.2c-0.1,0-0.2,0.1-0.2,0.2V45h37.7V11.4C50.6,11.3,50.5,11.1,50.4,11.1z"/>
		<path id="XMLID_712_" class="st2" d="M50.4,11.1h-4c0.1,0,0.2,0.1,0.2,0.2V45h4V11.4C50.6,11.3,50.5,11.1,50.4,11.1z"/>
		
			<linearGradient id="XMLID_6_" gradientUnits="userSpaceOnUse" x1="11.1081" y1="46.9945" x2="57.1081" y2="57.4945" gradientTransform="matrix(1 0 0 -1 0 66)">
			<stop  offset="0" style="stop-color:#6874E7"/>
			<stop  offset="0.4803" style="stop-color:#747FE9"/>
			<stop  offset="0.9847" style="stop-color:#858EEC"/>
		</linearGradient>
		<path id="XMLID_708_" class="st10" d="M50.4,11.1H13.2c-0.1,0-0.2,0.1-0.2,0.3v6h37.7v-6C50.6,11.3,50.5,11.1,50.4,11.1z"/>
		<path id="XMLID_64_" class="st5" d="M50.1,17.5v-5.9c0-0.1-0.1-0.2-0.2-0.2H13.7c-0.1,0-0.2,0.1-0.2,0.2v5.9h24.4"/>
		<line id="XMLID_72_" class="st8" x1="16.6" y1="14.6" x2="17.9" y2="14.6"/>
		<line id="XMLID_62_" class="st8" x1="19.6" y1="14.6" x2="20.9" y2="14.6"/>
		<line id="XMLID_80_" class="st8" x1="22.6" y1="14.6" x2="23.9" y2="14.6"/>
		<polyline id="XMLID_82_" class="st5" points="45.8,29.6 17.6,29.6 17.6,20 		"/>
		<polyline id="XMLID_83_" class="st5" points="17.6,40.4 17.6,33.8 24.3,33.8 		"/>
		<polyline id="XMLID_81_" class="st5" points="27.6,40.4 27.6,33.8 34.3,33.8 		"/>
		<polyline id="XMLID_84_" class="st5" points="37.6,40.4 37.6,33.8 44.3,33.8 		"/>
		<rect id="XMLID_711_" x="12.9" y="42" class="st6" width="37.7" height="3"/>
		<g id="XMLID_56_" class="st11">
			<path id="XMLID_707_" class="st12" d="M55.4,52.9H8.6c-0.1,0-0.2-0.1-0.2-0.2v-8.5c0-0.1,0.1-0.2,0.2-0.2h46.8
				c0.1,0,0.2,0.1,0.2,0.2v8.5C55.6,52.8,55.5,52.9,55.4,52.9z"/>
			<line id="XMLID_78_" class="st13" x1="12.9" y1="44" x2="12.9" y2="47.6"/>
			<line id="XMLID_75_" class="st13" x1="17.6" y1="44" x2="17.6" y2="46.6"/>
			<line id="XMLID_74_" class="st13" x1="22.4" y1="44" x2="22.4" y2="47.6"/>
			<line id="XMLID_70_" class="st13" x1="27.1" y1="44" x2="27.1" y2="46.6"/>
			<line id="XMLID_69_" class="st13" x1="31.8" y1="44" x2="31.8" y2="47.6"/>
			<line id="XMLID_68_" class="st13" x1="36.5" y1="44" x2="36.5" y2="46.6"/>
			<line id="XMLID_59_" class="st13" x1="41.2" y1="44" x2="41.2" y2="47.6"/>
			<line id="XMLID_58_" class="st13" x1="45.9" y1="44" x2="45.9" y2="46.6"/>
			<line id="XMLID_57_" class="st13" x1="50.6" y1="44" x2="50.6" y2="47.6"/>
		</g>
		<line id="XMLID_183_" class="st5" x1="39.5" y1="17.5" x2="41.5" y2="17.5"/>
	</g>
	<g id="XMLID_73_" class="st0">
		<path id="XMLID_158_" class="st4" d="M44.6,13c0-1.2-0.9-2.1-2.1-2.1H21.6c-1.2,0-2.1,0.9-2.1,2.1v38c0,1.2,0.9,2.1,2.1,2.1h20.9
			c1.2,0,2.1-0.9,2.1-2.1V13z"/>
		
			<linearGradient id="XMLID_10_" gradientUnits="userSpaceOnUse" x1="20.1292" y1="19.9128" x2="44.1292" y2="48.4128" gradientTransform="matrix(1 0 0 -1 0 66)">
			<stop  offset="0" style="stop-color:#6874E7"/>
			<stop  offset="0.4803" style="stop-color:#747FE9"/>
			<stop  offset="0.9847" style="stop-color:#858EEC"/>
		</linearGradient>
		<rect id="XMLID_215_" x="19.4" y="17.3" class="st14" width="25.1" height="29.5"/>
		<line id="XMLID_90_" class="st5" x1="29.5" y1="14.2" x2="34.8" y2="14.2"/>
		<line id="XMLID_709_" class="st5" x1="35.4" y1="14.2" x2="37" y2="14.2"/>
		<path id="XMLID_718_" class="st3" d="M34.1,33.8V31c0.5-0.2,0.8-0.7,0.8-1.2l0.3-3.9c0-1.8-1.4-3.2-3.2-3.2s-3.2,1.4-3.2,3.2
			l0.3,3.9c0,0.5,0.3,1,0.8,1.2l0.2,0.1v2.6l-4.5,1.6v3.8l13.1,0.2v-4L34.1,33.8z"/>
		<g id="XMLID_346_" class="st11">
			<path id="XMLID_357_" class="st13" d="M25.3,39.4V36c0-0.3,0.2-0.6,0.5-0.7l4.3-1.5v-2.4"/>
			<path id="XMLID_355_" class="st13" d="M38.7,39.4V36c0-0.3-0.2-0.6-0.5-0.7l-4.3-1.5v-2.4"/>
			<path id="XMLID_354_" class="st13" d="M35.2,26c0-1.8-1.4-3.2-3.2-3.2s-3.2,1.4-3.2,3.2l0.3,3.9c0,0.5,0.3,1,0.8,1.2l1.6,1h1
				l0.4-0.3l1.2-0.8c0.5-0.2,0.8-0.7,0.8-1.2L35.2,26z"/>
		</g>
		<line id="XMLID_86_" class="st5" x1="22.6" y1="39.4" x2="41.8" y2="39.4"/>
		<path id="XMLID_716_" class="st15" d="M42.4,10.9h-2c1.2,0,2.1,0.9,2.1,2.1v38c0,1.2-0.9,2.1-2.1,2.1h2c1.2,0,2.1-0.9,2.1-2.1V13
			C44.6,11.8,43.6,10.9,42.4,10.9z"/>
		<path id="XMLID_714_" class="st16" d="M21.6,10.9h2c-1.2,0-2.1,0.9-2.1,2.1v38c0,1.2,0.9,2.1,2.1,2.1h-2c-1.2,0-2.1-0.9-2.1-2.1
			V13C19.4,11.8,20.4,10.9,21.6,10.9z"/>
		<path id="XMLID_76_" class="st5" d="M44.6,13c0-1.2-0.9-2.1-2.1-2.1H21.6c-1.2,0-2.1,0.9-2.1,2.1v38c0,1.2,0.9,2.1,2.1,2.1h20.9
			c1.2,0,2.1-0.9,2.1-2.1V13z"/>
	</g>
	<g id="XMLID_122_">
		<path id="XMLID_113_" class="st17" d="M52.7,16.2c0,1.5-0.6,2.9-1.6,3.9s-2.4,1.6-3.9,1.6s-2.9-0.6-3.9-1.6s-1.6-2.4-1.6-3.9
			s0.6-2.9,1.6-3.9s2.4-1.6,3.9-1.6s2.9,0.6,3.9,1.6C52.1,13.4,52.7,14.7,52.7,16.2z"/>
		<g id="XMLID_111_">
			<path id="XMLID_717_" class="st18" d="M31.8,12.5c-3.5,1.7-5.7,5.2-5.7,9.1v21.2h1.5H36h1.6V21.6C37.6,17.7,35.3,14.2,31.8,12.5z
				"/>
			<path id="XMLID_720_" class="st19" d="M31.8,12.5c-0.5,0.3-1,0.6-1.5,0.9c2.6,1.9,4.2,4.9,4.2,8.2v21.2H36h1.6V21.6
				C37.6,17.7,35.3,14.2,31.8,12.5z"/>
			<path id="XMLID_721_" class="st20" d="M36.8,17.5c-1-2.1-2.8-3.9-5-5c-2.2,1.1-3.9,2.8-5,4.9L36.8,17.5z"/>
			<path id="XMLID_94_" class="st13" d="M27.6,42.8h-1.5V21.6c0-3.9,2.2-7.4,5.7-9.1l0,0l0,0c3.5,1.7,5.7,5.2,5.7,9.1v21.2H36"/>
			<path id="XMLID_719_" class="st18" d="M22.5,45.8h-5v-9.2c0-1.7,1-3.2,2.5-3.9l0,0l0,0c1.5,0.7,2.5,2.3,2.5,3.9V45.8z"/>
			<path id="XMLID_715_" class="st18" d="M46,45.8h-5v-9.2c0-1.7,1-3.2,2.5-3.9l0,0l0,0C45,33.4,46,35,46,36.6V45.8z"/>
			<path id="XMLID_347_" class="st18" d="M34.2,45.8h-5v-9.2c0-1.7,1-3.2,2.5-3.9l0,0l0,0c1.5,0.7,2.5,2.3,2.5,3.9V45.8z"/>
			<path id="XMLID_67_" class="st13" d="M22.5,45.8h-5v-9.2c0-1.7,1-3.2,2.5-3.9l0,0l0,0c1.5,0.7,2.5,2.3,2.5,3.9V45.8z"/>
			<path id="XMLID_724_" class="st21" d="M18.2,46.8v3.6c0,1.2,0.7,2.3,1.8,2.9l0,0l0,0c1.1-0.5,1.8-1.6,1.8-2.9v-3.6"/>
			<path id="XMLID_120_" class="st21" d="M30,46.8v3.6c0,1.2,0.7,2.3,1.8,2.9c1.1-0.5,1.8-1.6,1.8-2.9v-3.6H30z"/>
			<path id="XMLID_121_" class="st21" d="M41.8,46.8v3.6c0,1.2,0.7,2.3,1.8,2.9c1.1-0.5,1.8-1.6,1.8-2.9v-3.6H41.8z"/>
			<path id="XMLID_71_" class="st13" d="M46,45.8h-5v-9.2c0-1.7,1-3.2,2.5-3.9l0,0l0,0C45,33.4,46,35,46,36.6V45.8z"/>
			<path id="XMLID_88_" class="st13" d="M34.2,45.8h-5v-9.2c0-1.7,1-3.2,2.5-3.9l0,0l0,0c1.5,0.7,2.5,2.3,2.5,3.9V45.8z"/>
			<line id="XMLID_93_" class="st13" x1="22.5" y1="39.2" x2="26.1" y2="35.4"/>
			<line id="XMLID_92_" class="st13" x1="22.5" y1="42.8" x2="26.1" y2="39"/>
			<line id="XMLID_96_" class="st13" x1="41.2" y1="39.2" x2="37.6" y2="35.4"/>
			<line id="XMLID_95_" class="st13" x1="41.2" y1="42.8" x2="37.6" y2="39"/>
			<circle id="XMLID_66_" class="st20" cx="31.8" cy="25.6" r="3.1"/>
			<line id="XMLID_98_" class="st13" x1="26.8" y1="17.7" x2="36.8" y2="17.7"/>
			<line id="XMLID_97_" class="st13" x1="17.9" y1="40" x2="22.8" y2="40"/>
			<line id="XMLID_100_" class="st13" x1="29.6" y1="40" x2="34.6" y2="40"/>
			<line id="XMLID_102_" class="st13" x1="41.4" y1="40" x2="46.4" y2="40"/>
		</g>
		<path id="XMLID_117_" class="st13" d="M50,28.4c1.6,0,3.1,0.7,4.1,1.7c1.1,1.1,1.7,2.5,1.7,4.1c0,1.6-0.7,3.1-1.7,4.1"/>
		<path id="XMLID_116_" class="st13" d="M48.9,31.4c0.7-0.7,1.1-1.6,1.1-2.7c0-1-0.4-2-1.1-2.7c-0.7-0.7-1.6-1.1-2.7-1.1
			c-1,0-2,0.4-2.7,1.1s-1.1,1.6-1.1,2.7h-2.6"/>
		<g id="XMLID_115_">
			<path id="XMLID_112_" class="st13" d="M8.2,23.6c0-0.8,0.3-1.5,0.9-2.1c0.5-0.5,1.3-0.9,2.1-0.9c0.8,0,1.5,0.3,2.1,0.9
				c0.5,0.5,0.9,1.3,0.9,2.1c0,0.8-0.3,1.5-0.9,2.1"/>
			<path id="XMLID_114_" class="st13" d="M13.9,22.6c0-2.2,1.8-4,4-4s4,1.8,4,4h2.4"/>
		</g>
	</g>
	<g id="XMLID_129_" class="st0">
		<g id="XMLID_243_" class="st11">
			<rect id="XMLID_730_" x="19.8" y="41.5" class="st19" width="23.5" height="6.5"/>
			<rect id="XMLID_731_" x="19.8" y="41.5" class="st18" width="23.5" height="2.6"/>
			<path id="XMLID_727_" class="st19" d="M49.1,41.5h-38c-0.8,0-1.4-0.6-1.4-1.4V17.4c0-0.8,0.6-1.4,1.4-1.4h38
				c0.8,0,1.4,0.6,1.4,1.4v22.7C50.5,40.9,49.9,41.5,49.1,41.5z"/>
			<path id="XMLID_728_" class="st22" d="M50.5,36H9.7V17.4c0-0.8,0.6-1.4,1.4-1.4h38c0.8,0,1.4,0.6,1.4,1.4V36z"/>
			<line id="XMLID_242_" class="st13" x1="19.8" y1="41" x2="19.8" y2="48"/>
			<line id="XMLID_244_" class="st13" x1="16.3" y1="48" x2="37.5" y2="48"/>
			<rect id="XMLID_729_" x="11.8" y="17.9" class="st12" width="36.5" height="18.1"/>
			<path id="XMLID_8_" class="st13" d="M39.1,41.5H11.6c-0.8,0-1.4-0.6-1.4-1.4v-3.8h28.9"/>
		</g>
		<path id="XMLID_91_" class="st6" d="M39.2,23.5c-0.9,0-1.7,0.8-1.7,1.7v21.6c0,0.5,0.2,0.9,0.5,1.2h5.3v-4v-2.6h5.8
			c0.8,0,1.4-0.6,1.4-1.4v-4V23.5H39.2z"/>
		<g id="XMLID_124_" class="st11">
			<path id="XMLID_723_" class="st23" d="M54.3,25.2c0-0.7-0.5-1.2-1.2-1.2H41.2c-0.7,0-1.2,0.5-1.2,1.2v21.6c0,0.7,0.5,1.2,1.2,1.2
				H53c0.7,0,1.2-0.5,1.2-1.2L54.3,25.2L54.3,25.2z"/>
			
				<linearGradient id="XMLID_11_" gradientUnits="userSpaceOnUse" x1="40.3432" y1="29.45" x2="54.2777" y2="29.45" gradientTransform="matrix(1 0 0 -1 0 66)">
				<stop  offset="0" style="stop-color:#6874E7"/>
				<stop  offset="0.4803" style="stop-color:#747FE9"/>
				<stop  offset="0.9847" style="stop-color:#858EEC"/>
			</linearGradient>
			<rect id="XMLID_726_" x="40.3" y="29.7" class="st24" width="13.9" height="13.7"/>
			<path id="XMLID_136_" class="st13" d="M54.3,25.2c0-0.7-0.5-1.2-1.2-1.2H41.2c-0.7,0-1.2,0.5-1.2,1.2v21.6c0,0.7,0.5,1.2,1.2,1.2
				H53c0.7,0,1.2-0.5,1.2-1.2L54.3,25.2L54.3,25.2z"/>
			<line id="XMLID_133_" class="st13" x1="44.9" y1="26.9" x2="49.4" y2="26.9"/>
		</g>
	</g>
	<g id="XMLID_138_" class="st0">
		<path id="XMLID_99_" class="st9" d="M50.7,11.1H13.3c-0.1,0-0.2,0.1-0.2,0.2v41.6h37.7V11.3C50.9,11.2,50.8,11.1,50.7,11.1z"/>
		<path id="XMLID_132_" class="st25" d="M50.7,11.1h-3c0.1,0,0.2,0.1,0.2,0.2v41.6h3V11.3C50.9,11.2,50.8,11.1,50.7,11.1z"/>
		<path id="XMLID_9_" class="st3" d="M50.7,11.1H13.3c-0.1,0-0.2,0.1-0.2,0.2v4.6h37.7v-4.6C50.9,11.2,50.8,11.1,50.7,11.1z"/>
		<path id="XMLID_143_" class="st5" d="M50.3,15.9v-4.5c0-0.1-0.1-0.2-0.2-0.2H13.8c-0.1,0-0.2,0.1-0.2,0.2v4.5h19.7"/>
		<line id="XMLID_140_" class="st5" x1="16.9" y1="13.7" x2="18.3" y2="13.7"/>
		<line id="XMLID_89_" class="st5" x1="19.2" y1="13.7" x2="20.6" y2="13.7"/>
		<line id="XMLID_101_" class="st5" x1="21.5" y1="13.7" x2="23" y2="13.7"/>
		<polyline id="XMLID_139_" class="st5" points="46,32 17.9,32 17.9,20 		"/>
		<path id="XMLID_163_" class="st26" d="M47.4,52.9c0-4.3-1.7-8.2-4.6-11c-2.8-2.8-6.7-4.6-11-4.6s-8.2,1.7-11,4.6
			c-2.8,2.8-4.6,6.7-4.6,11"/>
		<g id="XMLID_162_" class="st11">
			
				<linearGradient id="XMLID_12_" gradientUnits="userSpaceOnUse" x1="19.4271" y1="19.3" x2="44.0971" y2="19.3" gradientTransform="matrix(1 0 0 -1 0 66)">
				<stop  offset="0" style="stop-color:#6874E7"/>
				<stop  offset="0.4803" style="stop-color:#747FE9"/>
				<stop  offset="0.9847" style="stop-color:#858EEC"/>
			</linearGradient>
			<path id="XMLID_77_" class="st27" d="M44.1,52.9v-1.3L39.9,51c-0.2-0.9-0.6-1.7-1-2.5l2.5-3.4l-1.9-1.9l-3.4,2.5
				c-0.8-0.5-1.6-0.8-2.5-1L33,40.5h-2.6l-0.6,4.2c-0.9,0.2-1.7,0.6-2.5,1L24,43.2l-1.9,1.9l2.5,3.4c-0.5,0.8-0.8,1.6-1,2.5
				l-4.2,0.6v1.3H28c0-2.1,1.7-3.8,3.8-3.8s3.8,1.7,3.8,3.8H44.1z"/>
		</g>
		<line id="XMLID_144_" class="st5" x1="34.2" y1="15.9" x2="37.6" y2="15.9"/>
	</g>
	<g id="XMLID_166_" class="st0">
		<path id="XMLID_146_" class="st9" d="M52.2,52.6c0.1,0,0.3-0.1,0.3-0.3V11.7c0-0.1-0.1-0.3-0.3-0.3H11.8c-0.1,0-0.3,0.1-0.3,0.3
			v40.6c0,0.1,0.1,0.3,0.3,0.3H52.2z"/>
		<path id="XMLID_126_" class="st2" d="M52.2,11.4h-3c0.1,0,0.3,0.1,0.3,0.3v40.6c0,0.1-0.1,0.3-0.3,0.3h3c0.1,0,0.3-0.1,0.3-0.3
			V11.7C52.5,11.6,52.3,11.4,52.2,11.4z"/>
		<path id="XMLID_105_" class="st3" d="M52.5,18.9v-7.1c0-0.2-0.1-0.3-0.3-0.3H11.8c-0.1,0-0.3,0.1-0.3,0.3v7.1H52.5z"/>
		<path id="XMLID_103_" class="st5" d="M52.1,18.9v-6.8c0-0.1-0.1-0.2-0.3-0.2H12.3c-0.1,0-0.3,0.1-0.3,0.2v6.8h24.7"/>
		<line id="XMLID_184_" class="st8" x1="15.3" y1="14.8" x2="16.8" y2="14.8"/>
		<line id="XMLID_106_" class="st8" x1="18.3" y1="14.8" x2="19.8" y2="14.8"/>
		<line id="XMLID_108_" class="st8" x1="21.3" y1="14.8" x2="22.8" y2="14.8"/>
		
			<linearGradient id="XMLID_18_" gradientUnits="userSpaceOnUse" x1="28.7" y1="30.7" x2="35.6453" y2="30.7" gradientTransform="matrix(1 0 0 -1 0 66)">
			<stop  offset="0" style="stop-color:#6874E7"/>
			<stop  offset="0.4803" style="stop-color:#747FE9"/>
			<stop  offset="0.9847" style="stop-color:#858EEC"/>
		</linearGradient>
		<circle id="XMLID_104_" class="st28" cx="32.2" cy="35.3" r="3.5"/>
		<g id="XMLID_160_" class="st11">
			<path id="XMLID_165_" class="st13" d="M43.6,36.6v-2.4l-3.9-0.6c-0.2-0.8-0.5-1.6-1-2.3l2.3-3.1l-1.7-1.7l-3.1,2.3
				c-0.7-0.4-1.5-0.8-2.3-1L33.4,24H31l-0.6,3.9c-0.8,0.2-1.6,0.5-2.3,0.9L25,26.4l-1.7,1.7l2.3,3.1c-0.4,0.7-0.8,1.5-1,2.3
				l-3.9,0.6v2.4l3.9,0.6c0.2,0.8,0.5,1.6,0.9,2.3l-2.3,3.1l1.7,1.7l3.1-2.3c0.7,0.4,1.5,0.8,2.3,1l0.6,3.9h2.4l0.6-3.9
				c0.8-0.2,1.6-0.5,2.3-0.9l3.1,2.3l1.7-1.7l-2.3-3.1c0.4-0.7,0.8-1.5,1-2.3L43.6,36.6z"/>
			<path id="XMLID_167_" class="st13" d="M35.6,35.3c0,1-0.4,1.8-1,2.5c-0.6,0.6-1.5,1-2.5,1s-1.8-0.4-2.5-1c-0.6-0.6-1-1.5-1-2.5
				s0.4-1.8,1-2.5c0.6-0.6,1.5-1,2.5-1"/>
		</g>
		<line id="XMLID_107_" class="st5" x1="38" y1="18.9" x2="40.7" y2="18.9"/>
	</g>
	<g id="XMLID_118_" class="st0">
		<g id="XMLID_168_" class="st11">
			<path id="XMLID_110_" class="st23" d="M44,31.5v-5.1h2.2c0.1,0,0.2-0.1,0.2-0.2v-5.8c0-0.1-0.1-0.2-0.2-0.2H34.6
				c-0.1,0-0.2,0.1-0.2,0.2v5.8c0,0.1,0.1,0.2,0.2,0.2h2.2v5.1c-4.9,1.7-8.3,6.6-7.5,12.2c0.7,5.1,4.8,9.1,9.8,9.7
				c6.8,0.8,12.6-4.5,12.6-11.2C51.6,37.2,48.4,33.1,44,31.5z"/>
			<g id="XMLID_141_" class="st29">
				<path id="XMLID_153_" class="st19" d="M47.3,33.3c1.5,1.9,2.4,4.3,2.4,6.9c0,6.7-5.8,12-12.6,11.2c-2.1-0.2-4-1.1-5.6-2.3
					c1.8,2.3,4.5,4,7.6,4.3c6.8,0.8,12.6-4.5,12.6-11.2C51.6,38.6,49.9,35.4,47.3,33.3z"/>
			</g>
			<path id="XMLID_170_" class="st13" d="M44,31.5v-5.1h2.2c0.1,0,0.2-0.1,0.2-0.2v-5.8c0-0.1-0.1-0.2-0.2-0.2H34.6
				c-0.1,0-0.2,0.1-0.2,0.2v5.8c0,0.1,0.1,0.2,0.2,0.2h2.2v5.1c-4.9,1.7-8.3,6.6-7.5,12.2c0.7,5.1,4.8,9.1,9.8,9.7
				c6.8,0.8,12.6-4.5,12.6-11.2C51.6,37.2,48.4,33.1,44,31.5z"/>
			<line id="XMLID_169_" class="st13" x1="36.9" y1="26.4" x2="39.3" y2="26.4"/>
		</g>
		<g id="XMLID_181_" class="st11">
			<path id="XMLID_171_" class="st23" d="M15.8,53.5L15.8,53.5c-1.9,0-3.4-1.5-3.4-3.4V20.5h6.8v29.6C19.2,51.9,17.6,53.5,15.8,53.5
				z"/>
			<path id="XMLID_109_" class="st12" d="M15.8,53.5L15.8,53.5c-1.9,0-3.4-1.5-3.4-3.4V34.5h6.8v15.6C19.2,51.9,17.6,53.5,15.8,53.5
				z"/>
			<line id="XMLID_173_" class="st13" x1="12.4" y1="24.9" x2="14.8" y2="24.9"/>
			<line id="XMLID_172_" class="st13" x1="12.4" y1="29.3" x2="15.8" y2="29.3"/>
			<line id="XMLID_174_" class="st13" x1="12.4" y1="33.7" x2="14.8" y2="33.7"/>
			<line id="XMLID_176_" class="st13" x1="12.4" y1="38.2" x2="15.8" y2="38.2"/>
			<line id="XMLID_177_" class="st13" x1="12.4" y1="42.6" x2="14.8" y2="42.6"/>
			<line id="XMLID_178_" class="st13" x1="12.4" y1="47" x2="15.8" y2="47"/>
			<path id="XMLID_135_" class="st30" d="M17.2,20.5v29.6c0,1.5-1,2.8-2.4,3.2c0.3,0.1,0.6,0.2,1,0.2c1.9,0,3.4-1.5,3.4-3.4V20.5
				H17.2z"/>
		</g>
		<path id="XMLID_189_" class="st5" d="M15.8,19.3v-5c0-2.1,1.7-3.7,3.8-3.7l0,0c2.1,0,3.8,1.7,3.8,3.8V21c0,2.1,1.7,3.9,3.9,3.9
			l0,0c2.1,0,3.9-1.7,3.9-3.9v-5.8c0-2.6,2.1-4.7,4.7-4.7l0,0c2.6,0,4.7,2.1,4.7,4.7v3.5"/>
		
			<linearGradient id="XMLID_19_" gradientUnits="userSpaceOnUse" x1="32.981" y1="17.617" x2="47.8977" y2="31.0336" gradientTransform="matrix(1 0 0 -1 0 66)">
			<stop  offset="0" style="stop-color:#6874E7"/>
			<stop  offset="0.4803" style="stop-color:#747FE9"/>
			<stop  offset="0.9847" style="stop-color:#858EEC"/>
		</linearGradient>
		<circle id="XMLID_187_" class="st31" cx="40.3" cy="41.8" r="7.1"/>
		<line id="XMLID_191_" class="st32" x1="39.3" y1="41.8" x2="41.4" y2="41.8"/>
	</g>
	<g id="XMLID_27_" class="st0">
		
			<linearGradient id="XMLID_20_" gradientUnits="userSpaceOnUse" x1="27.7386" y1="31.1" x2="35.9574" y2="31.1" gradientTransform="matrix(1 0 0 -1 0 66)">
			<stop  offset="0" style="stop-color:#6874E7"/>
			<stop  offset="0.4803" style="stop-color:#747FE9"/>
			<stop  offset="0.9847" style="stop-color:#858EEC"/>
		</linearGradient>
		<circle id="XMLID_134_" class="st33" cx="31.8" cy="34.9" r="4.1"/>
		<g id="XMLID_179_" class="st11">
			<g id="XMLID_224_">
				<path id="XMLID_234_" class="st12" d="M55.4,53.2H8.6c-0.1,0-0.2-0.1-0.2-0.2v-8.5c0-0.1,0.1-0.2,0.2-0.2h46.8
					c0.1,0,0.2,0.1,0.2,0.2V53C55.6,53.1,55.5,53.2,55.4,53.2z"/>
				<line id="XMLID_233_" class="st13" x1="12.9" y1="44.3" x2="12.9" y2="47.9"/>
				<line id="XMLID_232_" class="st13" x1="17.6" y1="44.3" x2="17.6" y2="46.9"/>
				<line id="XMLID_231_" class="st13" x1="22.4" y1="44.3" x2="22.4" y2="47.9"/>
				<line id="XMLID_230_" class="st13" x1="27.1" y1="44.3" x2="27.1" y2="46.9"/>
				<line id="XMLID_229_" class="st13" x1="31.8" y1="44.3" x2="31.8" y2="47.9"/>
				<line id="XMLID_228_" class="st13" x1="36.5" y1="44.3" x2="36.5" y2="46.9"/>
				<line id="XMLID_227_" class="st13" x1="41.2" y1="44.3" x2="41.2" y2="47.9"/>
				<line id="XMLID_226_" class="st13" x1="45.9" y1="44.3" x2="45.9" y2="46.9"/>
				<line id="XMLID_225_" class="st13" x1="50.6" y1="44.3" x2="50.6" y2="47.9"/>
			</g>
			
				<linearGradient id="XMLID_22_" gradientUnits="userSpaceOnUse" x1="11.5" y1="47.75" x2="52.3395" y2="47.75" gradientTransform="matrix(1 0 0 -1 0 66)">
				<stop  offset="0" style="stop-color:#6874E7"/>
				<stop  offset="0.4803" style="stop-color:#747FE9"/>
				<stop  offset="0.9847" style="stop-color:#858EEC"/>
			</linearGradient>
			<path id="XMLID_186_" class="st34" d="M52.2,25.7H11.7c-0.1,0-0.2-0.1-0.2-0.2V11c0-0.1,0.1-0.2,0.2-0.2h40.5
				c0.1,0,0.2,0.1,0.2,0.2v14.5C52.4,25.7,52.3,25.7,52.2,25.7z"/>
			<g id="XMLID_192_">
				<polyline id="XMLID_193_" class="st13" points="14.5,15.7 14.5,13.4 21.4,13.4 21.4,15.7 				"/>
				<line id="XMLID_197_" class="st13" x1="17.9" y1="13.5" x2="17.9" y2="20.9"/>
			</g>
			<line id="XMLID_199_" class="st13" x1="24.2" y1="13.9" x2="48.9" y2="13.9"/>
			<line id="XMLID_198_" class="st13" x1="24.2" y1="18.3" x2="48.9" y2="18.3"/>
			<line id="XMLID_200_" class="st13" x1="14.3" y1="22.7" x2="48.9" y2="22.7"/>
			<path id="XMLID_203_" class="st13" d="M21.8,40H11.7c-0.1,0-0.2-0.1-0.2-0.2V29.7c0-0.1,0.1-0.2,0.2-0.2h10.1
				c0.1,0,0.2,0.1,0.2,0.2v10.1C22,39.9,21.9,40,21.8,40z"/>
			<line id="XMLID_207_" class="st13" x1="11.5" y1="39.9" x2="22" y2="29.7"/>
			<line id="XMLID_208_" class="st13" x1="11.5" y1="29.7" x2="22" y2="39.9"/>
			<path id="XMLID_210_" class="st13" d="M37,40H26.9c-0.1,0-0.2-0.1-0.2-0.2V29.7c0-0.1,0.1-0.2,0.2-0.2H37c0.1,0,0.2,0.1,0.2,0.2
				v10.1C37.2,39.9,37.1,40,37,40z"/>
			<line id="XMLID_209_" class="st13" x1="26.7" y1="39.9" x2="37.2" y2="29.7"/>
			<line id="XMLID_205_" class="st13" x1="26.7" y1="29.7" x2="37.2" y2="39.9"/>
			<path id="XMLID_213_" class="st13" d="M52.2,40H42.1c-0.1,0-0.2-0.1-0.2-0.2V29.7c0-0.1,0.1-0.2,0.2-0.2h10.1
				c0.1,0,0.2,0.1,0.2,0.2v10.1C52.4,39.9,52.3,40,52.2,40z"/>
			<line id="XMLID_212_" class="st13" x1="41.9" y1="39.9" x2="52.4" y2="29.7"/>
			<line id="XMLID_211_" class="st13" x1="41.9" y1="29.7" x2="52.4" y2="39.9"/>
		</g>
	</g>
	<g id="XMLID_271_" class="st0">
		<g id="XMLID_147_" class="st11">
			<path id="XMLID_151_" class="st12" d="M34.3,50.8h2l0.9-6.4c1.4-0.3,2.6-0.9,3.8-1.6l5.2,3.9l2.8-2.8l-3.9-5.2
				c0.7-1.2,1.3-2.4,1.6-3.8l6.4-0.9v-4l-6.4-0.9c-0.3-1.3-0.8-2.6-1.6-3.7l3.9-5.2l-2.8-2.8L41,21.2c-1.2-0.7-2.4-1.3-3.8-1.6
				l-0.9-6.4h-2v13.1c3.2,0,5.7,2.6,5.7,5.7s-2.6,5.7-5.7,5.7V50.8z"/>
		</g>
		<g id="XMLID_627_" class="st35">
			<path id="XMLID_628_" class="st36" d="M37,18l-0.7-4.8h-2v13.1c1,0,1.9,0.3,2.7,0.7V18z"/>
			<path id="XMLID_629_" class="st36" d="M37,45.7V37c-0.8,0.4-1.7,0.7-2.7,0.7v13.1h2L37,45.7z"/>
		</g>
		<path id="XMLID_128_" class="st4" d="M35,50.2c0,1.1-0.9,2-2,2H13c-1.1,0-2-0.9-2-2V13.8c0-1.1,0.9-2,2-2h20c1.1,0,2,0.9,2,2V50.2
			z"/>
		
			<linearGradient id="XMLID_23_" gradientUnits="userSpaceOnUse" x1="22.95" y1="19.8" x2="22.95" y2="48.1" gradientTransform="matrix(1 0 0 -1 0 66)">
			<stop  offset="0" style="stop-color:#6874E7"/>
			<stop  offset="0.4803" style="stop-color:#747FE9"/>
			<stop  offset="0.9847" style="stop-color:#858EEC"/>
		</linearGradient>
		<rect id="XMLID_131_" x="10.9" y="17.9" class="st37" width="24.1" height="28.3"/>
		<line id="XMLID_252_" class="st5" x1="19.1" y1="15" x2="26.8" y2="15"/>
		<path id="XMLID_150_" class="st15" d="M33,11.7h-2c1.1,0,2,0.9,2,2v36.4c0,1.1-0.9,2-2,2h2c1.1,0,2-0.9,2-2V13.8
			C35,12.7,34.1,11.7,33,11.7z"/>
		<path id="XMLID_148_" class="st16" d="M13,11.7h2c-1.1,0-2,0.9-2,2v36.4c0,1.1,0.9,2,2,2h-2c-1.1,0-2-0.9-2-2V13.8
			C10.9,12.7,11.8,11.7,13,11.7z"/>
		<path id="XMLID_216_" class="st5" d="M35,50.2c0,1.1-0.9,2-2,2H13c-1.1,0-2-0.9-2-2V13.8c0-1.1,0.9-2,2-2h20c1.1,0,2,0.9,2,2V50.2
			z"/>
		<path id="XMLID_195_" class="st1" d="M15.9,23.9h-2.1c-0.3,0-0.5-0.2-0.5-0.5v-2.1c0-0.3,0.2-0.5,0.5-0.5h2.1
			c0.3,0,0.5,0.2,0.5,0.5v2.1C16.4,23.6,16.2,23.9,15.9,23.9z"/>
		<path id="XMLID_217_" class="st1" d="M21.3,23.9h-2.1c-0.3,0-0.5-0.2-0.5-0.5v-2.1c0-0.3,0.2-0.5,0.5-0.5h2.1
			c0.3,0,0.5,0.2,0.5,0.5v2.1C21.8,23.6,21.6,23.9,21.3,23.9z"/>
		<path id="XMLID_251_" class="st1" d="M26.7,23.9h-2.1c-0.3,0-0.5-0.2-0.5-0.5v-2.1c0-0.3,0.2-0.5,0.5-0.5h2.1
			c0.3,0,0.5,0.2,0.5,0.5v2.1C27.3,23.6,27,23.9,26.7,23.9z"/>
		<path id="XMLID_253_" class="st1" d="M32.2,23.9h-2.1c-0.3,0-0.5-0.2-0.5-0.5v-2.1c0-0.3,0.2-0.5,0.5-0.5h2.1
			c0.3,0,0.5,0.2,0.5,0.5v2.1C32.7,23.6,32.5,23.9,32.2,23.9z"/>
		<path id="XMLID_261_" class="st1" d="M15.9,28.9h-2.1c-0.3,0-0.5-0.2-0.5-0.5v-2.1c0-0.3,0.2-0.5,0.5-0.5h2.1
			c0.3,0,0.5,0.2,0.5,0.5v2.1C16.4,28.6,16.2,28.9,15.9,28.9z"/>
		<path id="XMLID_259_" class="st1" d="M21.3,28.9h-2.1c-0.3,0-0.5-0.2-0.5-0.5v-2.1c0-0.3,0.2-0.5,0.5-0.5h2.1
			c0.3,0,0.5,0.2,0.5,0.5v2.1C21.8,28.6,21.6,28.9,21.3,28.9z"/>
		<path id="XMLID_257_" class="st1" d="M26.7,28.9h-2.1c-0.3,0-0.5-0.2-0.5-0.5v-2.1c0-0.3,0.2-0.5,0.5-0.5h2.1
			c0.3,0,0.5,0.2,0.5,0.5v2.1C27.3,28.6,27,28.9,26.7,28.9z"/>
		<path id="XMLID_254_" class="st1" d="M32.2,28.9h-2.1c-0.3,0-0.5-0.2-0.5-0.5v-2.1c0-0.3,0.2-0.5,0.5-0.5h2.1
			c0.3,0,0.5,0.2,0.5,0.5v2.1C32.7,28.6,32.5,28.9,32.2,28.9z"/>
		<path id="XMLID_265_" class="st1" d="M15.9,33.9h-2.1c-0.3,0-0.5-0.2-0.5-0.5v-2.1c0-0.3,0.2-0.5,0.5-0.5h2.1
			c0.3,0,0.5,0.2,0.5,0.5v2.1C16.4,33.6,16.2,33.9,15.9,33.9z"/>
		<path id="XMLID_264_" class="st1" d="M21.3,33.9h-2.1c-0.3,0-0.5-0.2-0.5-0.5v-2.1c0-0.3,0.2-0.5,0.5-0.5h2.1
			c0.3,0,0.5,0.2,0.5,0.5v2.1C21.8,33.6,21.6,33.9,21.3,33.9z"/>
		<path id="XMLID_263_" class="st1" d="M26.7,33.9h-2.1c-0.3,0-0.5-0.2-0.5-0.5v-2.1c0-0.3,0.2-0.5,0.5-0.5h2.1
			c0.3,0,0.5,0.2,0.5,0.5v2.1C27.3,33.6,27,33.9,26.7,33.9z"/>
		<path id="XMLID_262_" class="st1" d="M32.2,33.9h-2.1c-0.3,0-0.5-0.2-0.5-0.5v-2.1c0-0.3,0.2-0.5,0.5-0.5h2.1
			c0.3,0,0.5,0.2,0.5,0.5v2.1C32.7,33.6,32.5,33.9,32.2,33.9z"/>
		<path id="XMLID_269_" class="st1" d="M15.9,43.9h-2.1c-0.3,0-0.5-0.2-0.5-0.5v-2.1c0-0.3,0.2-0.5,0.5-0.5h2.1
			c0.3,0,0.5,0.2,0.5,0.5v2.1C16.4,43.6,16.2,43.9,15.9,43.9z"/>
		<path id="XMLID_268_" class="st1" d="M21.3,43.9h-2.1c-0.3,0-0.5-0.2-0.5-0.5v-2.1c0-0.3,0.2-0.5,0.5-0.5h2.1
			c0.3,0,0.5,0.2,0.5,0.5v2.1C21.8,43.6,21.6,43.9,21.3,43.9z"/>
		<path id="XMLID_267_" class="st1" d="M26.7,43.9h-2.1c-0.3,0-0.5-0.2-0.5-0.5v-2.1c0-0.3,0.2-0.5,0.5-0.5h2.1
			c0.3,0,0.5,0.2,0.5,0.5v2.1C27.3,43.6,27,43.9,26.7,43.9z"/>
		<path id="XMLID_266_" class="st1" d="M32.2,43.9h-2.1c-0.3,0-0.5-0.2-0.5-0.5v-2.1c0-0.3,0.2-0.5,0.5-0.5h2.1
			c0.3,0,0.5,0.2,0.5,0.5v2.1C32.7,43.6,32.5,43.9,32.2,43.9z"/>
	</g>
	<g id="XMLID_287_" class="st0">
		<g id="XMLID_385_" class="st11">
			<path id="XMLID_280_" class="st12" d="M51.1,37.4l-6.8-6.8h-0.1h-0.1l-6.8,6.8c-0.1,0.1,0,0.2,0.1,0.2h3v15.9H48V37.6h3
				C51.1,37.6,51.1,37.5,51.1,37.4z"/>
			<path id="XMLID_286_" class="st13" d="M48,41.5v-3.9h3c0.1,0,0.2-0.1,0.1-0.2l-6.8-6.8c0,0-0.1,0-0.2,0l-3.9,3.9"/>
			<line id="XMLID_387_" class="st38" x1="48" y1="53.7" x2="48" y2="42.5"/>
		</g>
		
			<linearGradient id="XMLID_24_" gradientUnits="userSpaceOnUse" x1="17.7654" y1="23.95" x2="38.8654" y2="23.95" gradientTransform="matrix(1 0 0 -1 0 66)">
			<stop  offset="0" style="stop-color:#6874E7"/>
			<stop  offset="0.4803" style="stop-color:#747FE9"/>
			<stop  offset="0.9847" style="stop-color:#858EEC"/>
		</linearGradient>
		<path id="XMLID_273_" class="st39" d="M38.7,53.7H18c-0.1,0-0.2-0.1-0.2-0.2V30.6c0-0.1,0.1-0.2,0.2-0.2h20.7
			c0.1,0,0.2,0.1,0.2,0.2v22.9C38.9,53.6,38.8,53.7,38.7,53.7z"/>
		<path id="XMLID_594_" class="st15" d="M21.8,53.5V30.6c0-0.1,0.1-0.2,0.2-0.2h-4c-0.1,0-0.2,0.1-0.2,0.2v22.9
			c0,0.1,0.1,0.2,0.2,0.2h4C21.9,53.7,21.8,53.6,21.8,53.5z"/>
		<path id="XMLID_593_" class="st16" d="M38.7,30.4h-4c0.1,0,0.2,0.1,0.2,0.2v22.9c0,0.1-0.1,0.2-0.2,0.2h4c0.1,0,0.2-0.1,0.2-0.2
			V30.6C38.9,30.5,38.8,30.4,38.7,30.4z"/>
		<line id="XMLID_279_" class="st5" x1="17.8" y1="38.2" x2="38.9" y2="38.2"/>
		<line id="XMLID_274_" class="st5" x1="17.8" y1="46.2" x2="38.9" y2="46.2"/>
		<line id="XMLID_281_" class="st5" x1="24.9" y1="50.2" x2="26" y2="50.2"/>
		<line id="XMLID_270_" class="st5" x1="27.9" y1="50.2" x2="29" y2="50.2"/>
		<line id="XMLID_275_" class="st5" x1="30.9" y1="50.2" x2="32" y2="50.2"/>
		<path id="XMLID_289_" class="st5" d="M52.9,32.8c1-1.5,1.6-3.3,1.6-5.2c0-5.2-4.2-9.4-9.4-9.4h-9.2"/>
		<path id="XMLID_292_" class="st5" d="M15.6,35c-3.3,0-6.1-2.7-6.1-6.1s2.7-6.1,6.1-6.1"/>
		<path id="XMLID_290_" class="st5" d="M16.2,25.5c-0.7-1.4-1.1-3-1.1-4.7c0-2.9,1.2-5.5,3.1-7.4s4.5-3.1,7.4-3.1s5.5,1.2,7.4,3.1
			c1.9,1.9,3.1,4.5,3.1,7.4"/>
	</g>
	<g id="XMLID_60_" class="st0">
		<g id="XMLID_607_" class="st11">
			<path id="XMLID_610_" class="st12" d="M54.4,19.3l-6.8-6.8h-0.1h-0.1l-6.8,6.8c-0.1,0.1,0,0.2,0.1,0.2h3v15.9h7.6V19.5h3
				C54.4,19.5,54.4,19.3,54.4,19.3z"/>
		</g>
		<g id="XMLID_282_" class="st11">
			
				<linearGradient id="XMLID_26_" gradientUnits="userSpaceOnUse" x1="10.1343" y1="25.95" x2="24.0042" y2="25.95" gradientTransform="matrix(1 0 0 -1 0 66)">
				<stop  offset="0" style="stop-color:#6874E7"/>
				<stop  offset="0.4803" style="stop-color:#747FE9"/>
				<stop  offset="0.9847" style="stop-color:#858EEC"/>
			</linearGradient>
			<path id="XMLID_304_" class="st40" d="M10.2,44.7l6.8,6.8h0.1h0.1l6.8-6.8c0.1-0.1,0-0.2-0.1-0.2h-3V28.6h-7.6v15.9h-3
				C10.1,44.5,10.1,44.7,10.2,44.7z"/>
		</g>
		<g id="XMLID_248_" class="st11">
			<path id="XMLID_250_" class="st13" d="M39,34.3l3.4-0.5v-2.2L39,31.2c-0.2-0.7-0.5-1.4-0.8-2l2.1-2.8l-1.5-1.5L36,27
				c-0.6-0.4-1.3-0.7-2-0.8l-0.5-3.4h-2.2L30.7,26c-0.7,0.2-1.4,0.5-2,0.8l-2.7-2l-1.5,1.5l2.1,2.8c-0.4,0.6-0.7,1.3-0.8,2l-3.4,0.5
				v2.2l3.4,0.5c0.2,0.7,0.5,1.4,0.8,2l-2.1,2.8l1.5,1.5l2.8-2.1c0.6,0.4,1.3,0.7,2,0.8l0.5,3.4"/>
			<circle id="XMLID_249_" class="st13" cx="32.3" cy="32.7" r="3.1"/>
		</g>
		<path id="XMLID_305_" class="st5" d="M20.9,25.4c-0.6-1.2-0.9-2.5-0.9-3.9c0-2.4,1-4.6,2.6-6.2s3.8-2.6,6.2-2.6s4.6,1,6.2,2.6
			c1.6,1.6,2.6,3.8,2.6,6.2"/>
		<path id="XMLID_291_" class="st5" d="M34.4,49.5c-0.6-1.2-0.9-2.5-0.9-3.9c0-2.4,1-4.6,2.6-6.2c1.6-1.6,3.8-2.6,6.2-2.6
			s4.6,1,6.2,2.6c1.6,1.6,2.6,3.8,2.6,6.2h4.4"/>
		<path id="XMLID_303_" class="st5" d="M19.7,20.7c-1.6,0-3,0.6-4.1,1.7c-1,1-1.7,2.5-1.7,4.1H8.6"/>
	</g>
	<g id="XMLID_300_" class="st0">
		<path id="XMLID_277_" class="st3" d="M30.7,14.3c-4.9,0-8.8,4-8.8,8.8c0,3.1,1.6,5.9,4.1,7.4v2.2h9.6v-2.2
			c2.4-1.6,4.1-4.3,4.1-7.4C39.5,18.3,35.6,14.3,30.7,14.3z"/>
		<g id="XMLID_298_" class="st11">
			<path id="XMLID_299_" class="st41" d="M17.4,23.6c0-7.3,5.9-13.2,13.2-13.2s13.2,5.9,13.2,13.2"/>
		</g>
		<g id="XMLID_294_" class="st11">
			
				<linearGradient id="XMLID_31_" gradientUnits="userSpaceOnUse" x1="13.5984" y1="35.0722" x2="21.4761" y2="35.0722" gradientTransform="matrix(1 0 0 -1 0 66)">
				<stop  offset="0" style="stop-color:#6874E7"/>
				<stop  offset="0.4803" style="stop-color:#747FE9"/>
				<stop  offset="0.9847" style="stop-color:#858EEC"/>
			</linearGradient>
			<path id="XMLID_595_" class="st42" d="M18.6,29C18.6,29,18.6,28.9,18.6,29h-5c0,0-0.1,0,0,0.1l2.6,3.8h5.3L18.6,29z"/>
			<path id="XMLID_369_" class="st13" d="M16.2,32.9L13.6,29v-0.1h4.9l0,0l2.9,3.9"/>
			
				<linearGradient id="XMLID_32_" gradientUnits="userSpaceOnUse" x1="16.1657" y1="23.95" x2="50.4016" y2="23.95" gradientTransform="matrix(1 0 0 -1 0 66)">
				<stop  offset="0" style="stop-color:#6874E7"/>
				<stop  offset="0.4803" style="stop-color:#747FE9"/>
				<stop  offset="0.9847" style="stop-color:#858EEC"/>
			</linearGradient>
			<path id="XMLID_276_" class="st43" d="M23.1,32.9h-6.9v20.6c0,0.1,0.1,0.1,0.1,0.1H47c0.1,0,0.1-0.1,0.1-0.1v-19l3.2-4l0,0h-7
				l0,0l-2.2,2.4h-6.3H23.1z"/>
			<path id="XMLID_599_" class="st44" d="M50.4,30.4h-7l0,0l0,0l0,0l-2.2,2.4v20.6c0,0.1-0.1,0.1-0.1,0.1h6c0.1,0,0.1-0.1,0.1-0.1
				v-19L50.4,30.4C50.4,30.5,50.4,30.4,50.4,30.4z"/>
			<path id="XMLID_297_" class="st13" d="M23.1,32.9h-6.9v20.6c0,0.1,0.1,0.1,0.1,0.1H47c0.1,0,0.1-0.1,0.1-0.1v-19l3.2-4l0,0h-7
				l0,0l-2.2,2.4h-6.3H23.1z"/>
			<line id="XMLID_370_" class="st13" x1="41.2" y1="53.6" x2="41.2" y2="34.7"/>
			<line id="XMLID_386_" class="st13" x1="45.7" y1="34.7" x2="43" y2="34.7"/>
		</g>
		<path id="XMLID_296_" class="st5" d="M33.3,23.3c0,0.7-0.3,1.4-0.8,1.9C32,25.7,31.4,26,30.6,26c-0.7,0-1.4-0.3-1.9-0.8
			s-0.8-1.1-0.8-1.9c0-0.7,0.3-1.4,0.8-1.9s1.1-0.8,1.9-0.8c0.7,0,1.4,0.3,1.9,0.8S33.3,22.6,33.3,23.3z"/>
		<line id="XMLID_301_" class="st5" x1="30.7" y1="24.5" x2="30.7" y2="31.9"/>
	</g>
	<g id="XMLID_359_" class="st0">
		<g id="XMLID_322_" class="st11">
			<path id="XMLID_295_" class="st19" d="M48.2,20.3H15.5c-0.1,0-0.2,0.1-0.2,0.2v25.1h33V20.4C48.4,20.3,48.3,20.3,48.2,20.3z"/>
			
				<linearGradient id="XMLID_33_" gradientUnits="userSpaceOnUse" x1="31.8207" y1="24.7" x2="31.8207" y2="45.7334" gradientTransform="matrix(1 0 0 -1 0 66)">
				<stop  offset="0" style="stop-color:#6874E7"/>
				<stop  offset="0.4803" style="stop-color:#747FE9"/>
				<stop  offset="0.9847" style="stop-color:#858EEC"/>
			</linearGradient>
			<path id="XMLID_278_" class="st45" d="M48.2,20.3H15.5c-0.1,0-0.2,0.1-0.2,0.1v20.9h33V20.4C48.4,20.3,48.3,20.3,48.2,20.3z"/>
			<path id="XMLID_308_" class="st19" d="M38.1,41.4c0-3.8-3.1-7-7-7c-2,0-3.8,0.9-5.1,2.2c-1.3-1.4-3.1-2.2-5.1-2.2
				c-2.3,0-4.3,1.1-5.6,2.8v4.3H30L38.1,41.4z"/>
			<path id="XMLID_316_" class="st13" d="M15.4,37.2c1.3-1.7,3.3-2.8,5.6-2.8c3.8,0,7,3.1,7,7"/>
			<path id="XMLID_293_" class="st13" d="M26,36.7c1.3-1.4,3.1-2.2,5.1-2.2c3.8,0,7,3.1,7,7"/>
			<circle id="XMLID_319_" class="st12" cx="39.3" cy="27" r="3.1"/>
			<line id="XMLID_323_" class="st13" x1="39.8" y1="37.9" x2="45.8" y2="37.9"/>
			<line id="XMLID_318_" class="st13" x1="15.4" y1="41.5" x2="48.9" y2="41.5"/>
			<path id="XMLID_314_" class="st13" d="M15.3,45.6V20.4c0-0.1,0.1-0.2,0.2-0.2h32.7c0.1,0,0.2,0.1,0.2,0.2v25.1"/>
		</g>
		<polygon id="XMLID_307_" class="st6" points="15.8,45.4 47.9,45.4 47.9,45.4 48.9,45.4 48.9,43.5 46.4,43.5 45.4,43.5 41.7,43.5 
			40.7,43.5 37,43.5 36,43.5 32.3,43.5 31.3,43.5 27.6,43.5 26.6,43.5 22.9,43.5 21.9,43.5 18.1,43.5 17.1,43.5 14.8,43.5 
			14.8,45.4 		"/>
		<g id="XMLID_339_" class="st11">
			<path id="XMLID_351_" class="st12" d="M55.4,54H8.6c-0.1,0-0.2-0.1-0.2-0.2v-8.5c0-0.1,0.1-0.2,0.2-0.2h46.8
				c0.1,0,0.2,0.1,0.2,0.2v8.5C55.6,53.9,55.5,54,55.4,54z"/>
			<line id="XMLID_350_" class="st13" x1="12.9" y1="45.2" x2="12.9" y2="48.8"/>
			<line id="XMLID_349_" class="st13" x1="17.6" y1="45.2" x2="17.6" y2="47.8"/>
			<line id="XMLID_348_" class="st13" x1="22.4" y1="45.2" x2="22.4" y2="48.8"/>
			<line id="XMLID_345_" class="st13" x1="27.1" y1="45.2" x2="27.1" y2="47.8"/>
			<line id="XMLID_344_" class="st13" x1="31.8" y1="45.2" x2="31.8" y2="48.8"/>
			<line id="XMLID_343_" class="st13" x1="36.5" y1="45.2" x2="36.5" y2="47.8"/>
			<line id="XMLID_342_" class="st13" x1="41.2" y1="45.2" x2="41.2" y2="48.8"/>
			<line id="XMLID_341_" class="st13" x1="45.9" y1="45.2" x2="45.9" y2="47.8"/>
			<line id="XMLID_340_" class="st13" x1="50.6" y1="45.2" x2="50.6" y2="48.8"/>
		</g>
		<line id="XMLID_326_" class="st5" x1="12.1" y1="40.5" x2="12.1" y2="42.1"/>
		<line id="XMLID_325_" class="st5" x1="12.1" y1="35.9" x2="12.1" y2="37.5"/>
		<line id="XMLID_327_" class="st5" x1="12.1" y1="31.3" x2="12.1" y2="32.9"/>
		<line id="XMLID_328_" class="st5" x1="12.1" y1="26.7" x2="12.1" y2="28.3"/>
		<line id="XMLID_331_" class="st5" x1="12.1" y1="22.2" x2="12.1" y2="23.8"/>
		<line id="XMLID_333_" class="st5" x1="12.1" y1="17.6" x2="12.1" y2="19.2"/>
		<line id="XMLID_335_" class="st5" x1="12.1" y1="13" x2="12.1" y2="14.6"/>
		<line id="XMLID_358_" class="st5" x1="51.1" y1="40.5" x2="51.1" y2="42.1"/>
		<line id="XMLID_356_" class="st5" x1="51.1" y1="35.9" x2="51.1" y2="37.5"/>
		<line id="XMLID_353_" class="st5" x1="51.1" y1="31.3" x2="51.1" y2="32.9"/>
		<line id="XMLID_352_" class="st5" x1="51.1" y1="26.7" x2="51.1" y2="28.3"/>
		<line id="XMLID_338_" class="st5" x1="51.1" y1="22.2" x2="51.1" y2="23.8"/>
		<line id="XMLID_337_" class="st5" x1="51.1" y1="17.6" x2="51.1" y2="19.2"/>
		<line id="XMLID_336_" class="st5" x1="51.1" y1="13" x2="51.1" y2="14.6"/>
		<line id="XMLID_360_" class="st5" x1="17.6" y1="13" x2="46" y2="13"/>
		<polyline id="XMLID_362_" class="st5" points="43.2,10 46,12.9 43.2,16 		"/>
		<polyline id="XMLID_332_" class="st5" points="20.4,10 17.6,12.9 20.4,16 		"/>
	</g>
	<g id="XMLID_388_" class="st0">
		<path id="XMLID_309_" class="st3" d="M51.8,32.7H43H21.3h-9c-0.1,0-0.3,0.1-0.3,0.3v21.4c0,0.1,0.1,0.3,0.3,0.3h39.5
			c0.1,0,0.3-0.1,0.3-0.3V33C52,32.8,51.9,32.7,51.8,32.7z"/>
		<path id="XMLID_408_" class="st6" d="M32.4,42.4l8.5-9.7H23.7l8.5,9.7C32.2,42.5,32.3,42.5,32.4,42.4z"/>
		<g id="XMLID_361_" class="st11">
			
				<linearGradient id="XMLID_34_" gradientUnits="userSpaceOnUse" x1="15.4289" y1="38.7625" x2="49.1531" y2="38.7625" gradientTransform="matrix(1 0 0 -1 0 66)">
				<stop  offset="0" style="stop-color:#6874E7"/>
				<stop  offset="0.4803" style="stop-color:#747FE9"/>
				<stop  offset="0.9847" style="stop-color:#858EEC"/>
			</linearGradient>
			<path id="XMLID_310_" class="st46" d="M44.9,14h-25L17,18.7l-1.5,2.6l16.8,19.1c0.1,0.1,0.1,0.1,0.2,0l16.8-19.1L44.9,14z"/>
			<path id="XMLID_384_" class="st13" d="M16.9,18.8l-1.5,2.6l16.8,19.1c0.1,0.1,0.1,0.1,0.2,0l16.8-19.1L44.9,14H24.1"/>
			<line id="XMLID_383_" class="st13" x1="15.4" y1="21.4" x2="49.2" y2="21.4"/>
			<line id="XMLID_382_" class="st13" x1="32.3" y1="40.5" x2="24.6" y2="22.9"/>
			<line id="XMLID_381_" class="st13" x1="32.3" y1="40.1" x2="39.8" y2="22.9"/>
			<line id="XMLID_791_" class="st13" x1="32.3" y1="22.9" x2="32.3" y2="40.1"/>
			<polyline id="XMLID_377_" class="st13" points="28.5,13.8 24.1,19.8 22.9,18.3 			"/>
			<polyline id="XMLID_374_" class="st13" points="36.6,13.8 32.1,19.8 28.2,14.7 			"/>
			<polyline id="XMLID_373_" class="st13" points="44.6,13.8 40.2,19.8 36.2,14.7 			"/>
			<g id="XMLID_364_">
				<line id="XMLID_372_" class="st13" x1="19.5" y1="9.3" x2="19.5" y2="11.5"/>
				<line id="XMLID_371_" class="st13" x1="23.6" y1="11.7" x2="21.7" y2="12.8"/>
				<line id="XMLID_368_" class="st13" x1="23.6" y1="16.4" x2="21.7" y2="15.3"/>
				<line id="XMLID_367_" class="st13" x1="19.5" y1="18.8" x2="19.5" y2="16.6"/>
				<line id="XMLID_366_" class="st13" x1="15.5" y1="16.4" x2="17.4" y2="15.3"/>
				<line id="XMLID_365_" class="st13" x1="15.4" y1="11.7" x2="17.3" y2="12.8"/>
			</g>
		</g>
		<rect id="XMLID_306_" x="15.6" y="36.8" class="st1" width="3.5" height="3.5"/>
		<rect id="XMLID_390_" x="15.6" y="41.8" class="st1" width="3.5" height="3.5"/>
		<rect id="XMLID_392_" x="21.5" y="41.8" class="st1" width="3.5" height="3.5"/>
		<rect id="XMLID_393_" x="27.4" y="41.8" class="st1" width="3.5" height="3.5"/>
		<rect id="XMLID_394_" x="33.3" y="41.8" class="st1" width="3.5" height="3.5"/>
		<rect id="XMLID_395_" x="39.2" y="41.8" class="st1" width="3.5" height="3.5"/>
		<rect id="XMLID_396_" x="45.1" y="41.8" class="st1" width="3.5" height="3.5"/>
		<rect id="XMLID_405_" x="15.6" y="46.8" class="st1" width="3.5" height="3.5"/>
		<rect id="XMLID_404_" x="21.5" y="46.8" class="st1" width="3.5" height="3.5"/>
		<rect id="XMLID_402_" x="27.4" y="46.8" class="st1" width="9.4" height="3.5"/>
		<rect id="XMLID_398_" x="39.2" y="46.8" class="st1" width="3.5" height="3.5"/>
		<rect id="XMLID_397_" x="45.1" y="46.8" class="st1" width="3.5" height="3.5"/>
		<rect id="XMLID_311_" x="21.5" y="36.8" class="st1" width="3.5" height="3.5"/>
		<rect id="XMLID_389_" x="39.2" y="36.8" class="st1" width="3.5" height="3.5"/>
		<rect id="XMLID_321_" x="45.2" y="36.8" class="st1" width="3.5" height="3.5"/>
	</g>
	<g id="XMLID_61_" class="st0">
		<g id="XMLID_413_" class="st11">
			<rect id="XMLID_597_" x="21.3" y="41.9" class="st19" width="20.1" height="6.8"/>
			<rect id="XMLID_596_" x="21.3" y="41.9" class="st18" width="20.1" height="2.7"/>
			<path id="XMLID_592_" class="st19" d="M51.8,41.9H12.2c-0.8,0-1.4-0.6-1.4-1.4V16.8c0-0.8,0.6-1.4,1.4-1.4h39.7
				c0.8,0,1.4,0.6,1.4,1.4v23.7C53.2,41.2,52.6,41.9,51.8,41.9z"/>
			<path id="XMLID_591_" class="st22" d="M53.2,36.1H10.8V16.8c0-0.8,0.6-1.4,1.4-1.4h39.7c0.8,0,1.4,0.6,1.4,1.4v19.3H53.2z"/>
			<line id="XMLID_590_" class="st13" x1="21.3" y1="41.9" x2="21.3" y2="48.6"/>
			<line id="XMLID_406_" class="st13" x1="41.3" y1="41.9" x2="41.3" y2="48.6"/>
			<line id="XMLID_418_" class="st13" x1="17.6" y1="48.6" x2="45.3" y2="48.6"/>
			
				<linearGradient id="XMLID_35_" gradientUnits="userSpaceOnUse" x1="13" y1="39.3" x2="51" y2="39.3" gradientTransform="matrix(1 0 0 -1 0 66)">
				<stop  offset="0" style="stop-color:#6874E7"/>
				<stop  offset="0.4803" style="stop-color:#747FE9"/>
				<stop  offset="0.9847" style="stop-color:#858EEC"/>
			</linearGradient>
			<rect id="XMLID_416_" x="13" y="17.3" class="st47" width="38" height="18.8"/>
			<path id="XMLID_407_" class="st13" d="M52.8,36.1v4.4c0,0.7-0.6,1.4-1.4,1.4H12.6c-0.7,0-1.4-0.6-1.4-1.4v-4.4H52.8z"/>
		</g>
		<g id="XMLID_409_" class="st11">
			<g id="XMLID_428_">
				<path id="XMLID_426_" class="st48" d="M20,32.1v-9.8c0-0.4,0.3-0.8,0.8-0.8H26c0.4,0,0.8,0.3,0.8,0.8v9.8"/>
				<line id="XMLID_427_" class="st48" x1="20.2" y1="26.8" x2="26.7" y2="26.8"/>
				<path id="XMLID_424_" class="st48" d="M32,32.1v-9.7c0-0.4,0.4-0.8,0.8-0.8h5.7c0.4,0,0.8,0.4,0.8,0.8V26c0,0.4-0.4,0.8-0.8,0.8
					h-6.4"/>
				<line id="XMLID_429_" class="st48" x1="43.9" y1="21" x2="43.9" y2="32.1"/>
			</g>
			<line id="XMLID_433_" class="st48" x1="42.5" y1="21" x2="45.2" y2="21"/>
			<line id="XMLID_403_" class="st48" x1="42.5" y1="31.7" x2="45.2" y2="31.7"/>
		</g>
	</g>
	<g id="XMLID_621_" class="st0">
		<g id="XMLID_410_" class="st11">
			<path id="XMLID_617_" class="st18" d="M52.7,51.9H11.3c-0.1,0-0.2-0.1-0.2-0.2V24c0-0.1,0.1-0.2,0.2-0.2h41.5
				c0.1,0,0.2,0.1,0.2,0.2v27.7C53,51.8,52.9,51.9,52.7,51.9z"/>
			<rect id="XMLID_616_" x="13.3" y="25.4" class="st12" width="37.1" height="22.9"/>
			<path id="XMLID_615_" class="st23" d="M53.3,53.9H10.7c-0.5,0-1-0.4-1.1-0.9l-0.4-2.5h18.9l0.7,1H34l0.8-1h19.9L54.4,53
				C54.3,53.5,53.8,53.9,53.3,53.9z"/>
			<path id="XMLID_614_" class="st13" d="M53.3,53.9H10.7c-0.5,0-1-0.4-1.1-0.9l-0.4-2.5h18.9l0.7,1H34l0.8-1h19.9L54.4,53
				C54.3,53.5,53.8,53.9,53.3,53.9z"/>
			<line id="XMLID_613_" class="st13" x1="13.3" y1="48.3" x2="50.4" y2="48.3"/>
		</g>
		<path id="XMLID_412_" class="st6" d="M31.7,46.8c0.1,0.1,0.2,0.1,0.2,0c1.2-1.1,11.5-10.6,11.5-18.9c0-1.5-0.3-2.9-0.8-4.1h-3.9
			c1,1.1-0.2,2.7-0.5,4.1c-0.7,3.5-2.9,6.4-6.4,6.4s-5.6-3-6.4-6.4c-0.4-1.6-1.4-3-0.5-4.1H21c-0.5,1.3-0.8,2.7-0.8,4.1
			C20.2,36.2,30.5,45.7,31.7,46.8z"/>
		
			<linearGradient id="XMLID_37_" gradientUnits="userSpaceOnUse" x1="20.283" y1="36.4125" x2="43.4326" y2="36.4125" gradientTransform="matrix(1 0 0 -1 0 66)">
			<stop  offset="0" style="stop-color:#6874E7"/>
			<stop  offset="0.4803" style="stop-color:#747FE9"/>
			<stop  offset="0.9847" style="stop-color:#858EEC"/>
		</linearGradient>
		<path id="XMLID_434_" class="st49" d="M43.4,25.9c0.1,8.3-10.2,17.8-11.5,18.9c-0.1,0.1-0.2,0.1-0.2,0
			c-1.2-1.1-11.5-10.6-11.5-18.9c0-6.4,5.2-11.6,11.6-11.6S43.4,19.5,43.4,25.9z M31.9,19.5c-3.5,0-6.4,2.9-6.4,6.4s2.9,6.4,6.4,6.4
			s6.4-2.9,6.4-6.4S35.4,19.5,31.9,19.5z"/>
		<path id="XMLID_452_" class="st26" d="M20.3,38.1c-3-3-4.8-7.1-4.8-11.6s1.8-8.6,4.8-11.6s7.1-4.8,11.6-4.8s8.6,1.8,11.6,4.8
			s4.8,7.1,4.8,11.6s-1.8,8.6-4.8,11.6"/>
	</g>
	<g id="XMLID_28_" class="st0">
		<g id="XMLID_411_" class="st11">
			<path id="XMLID_437_" class="st50" d="M51.8,11.1H11.5c-0.1,0-0.2,0.1-0.2,0.2v41.6H52V11.3C52,11.2,51.9,11.1,51.8,11.1z"/>
			<path id="XMLID_436_" class="st22" d="M51.8,11.1h-3c0.1,0,0.2,0.1,0.2,0.2v41.6h3V11.3C52,11.2,51.9,11.1,51.8,11.1z"/>
			<path id="XMLID_435_" class="st12" d="M51.8,11.1H11.5c-0.1,0-0.2,0.1-0.2,0.2v4.6H52v-4.6C52,11.2,51.9,11.1,51.8,11.1z"/>
			<path id="XMLID_431_" class="st13" d="M51.5,15.9v-4.5c0-0.1-0.1-0.2-0.2-0.2H11.9c-0.1,0-0.2,0.1-0.2,0.2v4.5h19.7"/>
			<line id="XMLID_430_" class="st13" x1="15" y1="13.7" x2="16.4" y2="13.7"/>
			<line id="XMLID_425_" class="st13" x1="17.3" y1="13.7" x2="18.8" y2="13.7"/>
			<line id="XMLID_423_" class="st13" x1="19.6" y1="13.7" x2="21.1" y2="13.7"/>
			<line id="XMLID_414_" class="st13" x1="32.3" y1="15.9" x2="35.7" y2="15.9"/>
		</g>
		<g id="XMLID_446_" class="st11">
			<polyline id="XMLID_442_" class="st13" points="21.4,31.4 16.3,31.4 16.3,21.1 45.9,21.1 45.9,26.3 			"/>
			<polyline id="XMLID_445_" class="st13" points="21.5,35.9 16.3,35.9 16.3,43 24.2,43 			"/>
			<line id="XMLID_458_" class="st13" x1="42.2" y1="42.3" x2="44.4" y2="44.5"/>
			<circle id="XMLID_455_" class="st13" cx="34.8" cy="34.5" r="11"/>
			
				<linearGradient id="XMLID_38_" gradientUnits="userSpaceOnUse" x1="27.3379" y1="31.5" x2="42.2053" y2="31.5" gradientTransform="matrix(1 0 0 -1 0 66)">
				<stop  offset="0" style="stop-color:#6874E7"/>
				<stop  offset="0.4803" style="stop-color:#747FE9"/>
				<stop  offset="0.9847" style="stop-color:#858EEC"/>
			</linearGradient>
			<circle id="XMLID_419_" class="st51" cx="34.8" cy="34.5" r="7.4"/>
			<polyline id="XMLID_443_" class="st48" points="32,34.2 33.9,36 37.1,32.8 			"/>
			
				<linearGradient id="XMLID_39_" gradientUnits="userSpaceOnUse" x1="13.035" y1="48.2694" x2="22.2159" y2="48.2694" gradientTransform="matrix(1.0668 6.680000e-02 -6.680000e-02 -1.0668 32.1161 98.1161)">
				<stop  offset="0" style="stop-color:#6874E7"/>
				<stop  offset="0.4803" style="stop-color:#747FE9"/>
				<stop  offset="0.9847" style="stop-color:#858EEC"/>
			</linearGradient>
			<path id="XMLID_460_" class="st52" d="M52.7,50.3l-2.5,2.5c-0.1,0.1-0.2,0.1-0.3,0l-7.2-7.2c-0.1-0.1-0.1-0.2,0-0.3l2.5-2.5
				c0.1-0.1,0.2-0.1,0.3,0l7.2,7.2C52.7,50.1,52.7,50.2,52.7,50.3z"/>
		</g>
	</g>
	<g id="XMLID_473_" class="st0">
		<circle id="XMLID_420_" class="st3" cx="32.2" cy="27.8" r="3"/>
		<g id="XMLID_475_" class="st11">
			<path id="XMLID_422_" class="st19" d="M41.2,36.3c-0.8,0-1.5,0.7-1.5,1.5v-1.6c0-0.8-0.7-1.5-1.5-1.5s-1.5,0.7-1.5,1.5v-1.6
				c0-0.8-0.7-1.5-1.5-1.5s-1.5,0.7-1.5,1.5v-4.7c0-0.8-0.7-1.5-1.5-1.5s-1.5,0.7-1.5,1.5v9.4h-2.1c-0.6,0-1,0.5-1,1v6.6
				c0,0.5,0.3,1,0.8,1.2l1.2,0.6c0.5,0.2,0.8,0.7,0.8,1.2l0,0h0.3h2.9h6.7v-0.4c0-0.3,0.1-0.6,0.4-0.9l1.5-1.5
				c0.3-0.3,0.4-0.6,0.4-1v-8.5C42.7,36.9,42,36.3,41.2,36.3z"/>
			<path id="XMLID_489_" class="st13" d="M33.7,39.8v-9.9c0-0.8-0.7-1.5-1.5-1.5l0,0c-0.8,0-1.5,0.7-1.5,1.5V42"/>
			<path id="XMLID_488_" class="st13" d="M36.7,36.2v-2.6c0-0.8-0.7-1.5-1.5-1.5l0,0c-0.8,0-1.5,0.7-1.5,1.5v2.6"/>
			<path id="XMLID_483_" class="st13" d="M39.7,39.8v-3.6c0-0.8-0.7-1.5-1.5-1.5l0,0c-0.8,0-1.5,0.7-1.5,1.5v3.6"/>
			<path id="XMLID_481_" class="st13" d="M39.7,39.2v-1.4c0-0.8,0.7-1.5,1.5-1.5l0,0c0.8,0,1.5,0.7,1.5,1.5v8.5c0,0.4-0.2,0.8-0.4,1
				l-1.5,1.5c-0.2,0.2-0.4,0.5-0.4,0.9V50"/>
			<path id="XMLID_478_" class="st13" d="M30.7,39.3h-2.1c-0.6,0-1,0.5-1,1v6.6c0,0.5,0.3,1,0.8,1.2l1.2,0.6
				c0.5,0.2,0.8,0.7,0.8,1.2l0,0"/>
			
				<linearGradient id="XMLID_41_" gradientUnits="userSpaceOnUse" x1="28.1601" y1="13.7" x2="42.7794" y2="13.7" gradientTransform="matrix(1 0 0 -1 0 66)">
				<stop  offset="0" style="stop-color:#6874E7"/>
				<stop  offset="0.4803" style="stop-color:#747FE9"/>
				<stop  offset="0.9847" style="stop-color:#858EEC"/>
			</linearGradient>
			<path id="XMLID_421_" class="st53" d="M42.6,49.3H28.4c-0.1,0-0.2,0.1-0.2,0.2v5.8h14.6v-5.8C42.8,49.4,42.7,49.3,42.6,49.3z"/>
		</g>
		<path id="XMLID_462_" class="st5" d="M28.9,30.9c-0.4-0.4-0.8-0.9-1-1.5s-0.4-1.2-0.4-1.8c0-0.6,0.1-1.3,0.4-1.8
			c0.2-0.6,0.6-1.1,1-1.5s0.9-0.8,1.5-1s1.2-0.4,1.8-0.4c0.6,0,1.3,0.1,1.8,0.4s1.1,0.6,1.5,1s0.8,0.9,1,1.5s0.4,1.2,0.4,1.8
			c0,0.6-0.1,1.3-0.4,1.8"/>
		<line id="XMLID_463_" class="st54" x1="18.8" y1="27.8" x2="25.3" y2="27.8"/>
		<line id="XMLID_456_" class="st54" x1="22.1" y1="18" x2="26.7" y2="22.6"/>
		<line id="XMLID_459_" class="st54" x1="32.3" y1="14.4" x2="32.4" y2="20"/>
		<line id="XMLID_464_" class="st54" x1="41.4" y1="17.2" x2="36.9" y2="21.7"/>
		<line id="XMLID_465_" class="st54" x1="45.1" y1="27.8" x2="39.2" y2="27.8"/>
		<circle id="XMLID_466_" class="st3" cx="15" cy="27.8" r="2.1"/>
		<circle id="XMLID_467_" class="st3" cx="32.2" cy="10.8" r="2.1"/>
		<circle id="XMLID_469_" class="st3" cx="19.6" cy="15.3" r="2.1"/>
		<circle id="XMLID_470_" class="st3" cx="43.8" cy="14.4" r="2.1"/>
		<circle id="XMLID_468_" class="st3" cx="49" cy="27.8" r="2.1"/>
	</g>
	<g id="XMLID_498_" class="st0">
		<path id="XMLID_600_" class="st9" d="M49.5,10.2H14.1c-0.1,0-0.3,0.1-0.3,0.3v35.4h35.9V10.5C49.8,10.4,49.6,10.2,49.5,10.2z"/>
		<path id="XMLID_477_" class="st25" d="M49.5,10.2h-3c0.1,0,0.3,0.1,0.3,0.3v35.4h3V10.5C49.8,10.4,49.6,10.2,49.5,10.2z"/>
		<path id="XMLID_500_" class="st1" d="M31.5,21.7l-3.1-1.8c-0.1,0-0.2,0-0.2,0.1v4.5L25.1,26L22,24.5V20c0-0.1-0.1-0.2-0.2-0.1
			l-3.1,1.8c0,0,0,0,0,0.1v5.7v0.1l3.9,1.9v16.1h5.3V29.3l3.6-1.8c0,0,0,0,0-0.1L31.5,21.7C31.5,21.8,31.5,21.7,31.5,21.7z"/>
		<g id="XMLID_598_" class="st11">
			<path id="XMLID_601_" class="st18" d="M31.5,21.7l-3.1-1.8c-0.1,0-0.1,0-0.2,0l1.3,0.7c0,0,0,0,0,0.1v5.7v0.1l-3.6,1.8v16.2h-3.3
				v1h5.3V29.3l3.6-1.8c0,0,0,0,0-0.1L31.5,21.7C31.5,21.8,31.5,21.7,31.5,21.7z"/>
		</g>
		<path id="XMLID_471_" class="st5" d="M27.9,43.6V29.3l3.6-1.8c0,0,0,0,0-0.1v-5.7c0,0,0,0,0-0.1l-3.1-1.8c-0.1,0-0.2,0-0.2,0.1
			v4.5L25.1,26L22,24.5V20c0-0.1-0.1-0.2-0.2-0.1l-3.1,1.8c0,0,0,0,0,0.1v5.7v0.1l3.9,1.9v14.1"/>
		<g id="XMLID_491_" class="st11">
			<polygon id="XMLID_501_" class="st19" points="42.5,19.6 38.9,19.6 38.6,24.3 39.2,24.3 39.2,38.1 42.3,38.1 42.3,24.3 
				42.9,24.3 			"/>
			<rect id="XMLID_511_" x="38.3" y="38.3" class="st19" width="4.9" height="7.9"/>
			<rect id="XMLID_496_" x="41.2" y="38.3" class="st18" width="2" height="7.9"/>
			<polyline id="XMLID_494_" class="st13" points="43.2,43.6 43.2,38.3 38.3,38.3 38.3,43.6 			"/>
			<line id="XMLID_509_" class="st13" x1="45.4" y1="38.3" x2="36" y2="38.3"/>
			<polyline id="XMLID_495_" class="st13" points="39.2,38.1 39.2,24.3 38.6,24.3 38.9,19.6 42.5,19.6 42.9,24.3 42.3,24.3 
				42.3,38.1 			"/>
		</g>
		
			<linearGradient id="XMLID_42_" gradientUnits="userSpaceOnUse" x1="13.8" y1="52.95" x2="49.7273" y2="52.95" gradientTransform="matrix(1 0 0 -1 0 66)">
			<stop  offset="0" style="stop-color:#6874E7"/>
			<stop  offset="0.4803" style="stop-color:#747FE9"/>
			<stop  offset="0.9847" style="stop-color:#858EEC"/>
		</linearGradient>
		<path id="XMLID_454_" class="st55" d="M49.5,10.2H14.1c-0.1,0-0.3,0.1-0.3,0.3v5.4h35.9v-5.4C49.8,10.4,49.6,10.2,49.5,10.2z"/>
		<path id="XMLID_450_" class="st5" d="M49.3,15.9v-5.4c0-0.1-0.1-0.2-0.2-0.2H14.5c-0.1,0-0.2,0.1-0.2,0.2v5.3h20.4"/>
		<line id="XMLID_451_" class="st5" x1="36" y1="15.9" x2="39.3" y2="15.9"/>
		<line id="XMLID_510_" class="st5" x1="17.7" y1="12.8" x2="18.9" y2="12.8"/>
		<line id="XMLID_449_" class="st5" x1="20.7" y1="12.8" x2="21.9" y2="12.8"/>
		<line id="XMLID_453_" class="st5" x1="23.7" y1="12.8" x2="24.9" y2="12.8"/>
		<polygon id="XMLID_512_" class="st6" points="13.8,45.9 49.8,45.9 49.8,42.9 46.4,42.9 46.4,42.9 45.4,42.9 45.4,42.9 41.7,42.9 
			41.7,42.9 40.7,42.9 40.7,42.9 37,42.9 37,42.9 36,42.9 36,42.9 32.3,42.9 32.3,42.9 31.3,42.9 31.3,42.9 27.6,42.9 27.6,42.9 
			26.6,42.9 26.6,42.9 22.9,42.9 22.9,42.9 21.9,42.9 21.9,42.9 18.1,42.9 18.1,42.9 17.1,42.9 17.1,42.9 13.8,42.9 		"/>
		<g id="XMLID_513_" class="st11">
			<path id="XMLID_523_" class="st12" d="M55.4,53.8H8.6c-0.1,0-0.2-0.1-0.2-0.2v-8.5c0-0.1,0.1-0.2,0.2-0.2h46.8
				c0.1,0,0.2,0.1,0.2,0.2v8.5C55.6,53.7,55.5,53.8,55.4,53.8z"/>
			<line id="XMLID_522_" class="st13" x1="12.9" y1="44.9" x2="12.9" y2="48.5"/>
			<line id="XMLID_521_" class="st13" x1="17.6" y1="44.9" x2="17.6" y2="47.5"/>
			<line id="XMLID_520_" class="st13" x1="22.4" y1="44.9" x2="22.4" y2="48.5"/>
			<line id="XMLID_519_" class="st13" x1="27.1" y1="44.9" x2="27.1" y2="47.5"/>
			<line id="XMLID_518_" class="st13" x1="31.8" y1="44.9" x2="31.8" y2="48.5"/>
			<line id="XMLID_517_" class="st13" x1="36.5" y1="44.9" x2="36.5" y2="47.5"/>
			<line id="XMLID_516_" class="st13" x1="41.2" y1="44.9" x2="41.2" y2="48.5"/>
			<line id="XMLID_515_" class="st13" x1="45.9" y1="44.9" x2="45.9" y2="47.5"/>
			<line id="XMLID_514_" class="st13" x1="50.6" y1="44.9" x2="50.6" y2="48.5"/>
		</g>
	</g>
	<g id="XMLID_492_" class="st0">
		<path id="XMLID_524_" class="st3" d="M45.3,27.9c0-7.3-5.9-13.3-13.3-13.3s-13.3,5.9-13.3,13.3c0,4.7,2.4,8.8,6.1,11.1v3.3h14.4
			V39C42.9,36.7,45.3,32.5,45.3,27.9z"/>
		<path id="XMLID_626_" class="st56" d="M32.1,14.6c-0.7,0-1.3,0.1-2,0.2c6.4,1,11.3,6.5,11.3,13.1c0,4.7-2.4,8.8-6.1,11.1v3.3h4V39
			c3.7-2.4,6.1-6.5,6.1-11.1C45.3,20.5,39.4,14.6,32.1,14.6z"/>
		<polyline id="XMLID_493_" class="st5" points="33.9,18.5 28.9,27.5 35.5,27.5 29.4,36.6 		"/>
		
			<linearGradient id="XMLID_43_" gradientUnits="userSpaceOnUse" x1="22.6" y1="18.95" x2="41.4" y2="18.95" gradientTransform="matrix(1 0 0 -1 0 66)">
			<stop  offset="0" style="stop-color:#6874E7"/>
			<stop  offset="0.4803" style="stop-color:#747FE9"/>
			<stop  offset="0.9847" style="stop-color:#858EEC"/>
		</linearGradient>
		<polygon id="XMLID_497_" class="st57" points="40.3,51.8 23.7,51.8 22.6,49.4 22.6,42.3 41.4,42.3 41.4,49.3 		"/>
		
			<linearGradient id="XMLID_45_" gradientUnits="userSpaceOnUse" x1="29.3638" y1="12.7" x2="34.6568" y2="12.7" gradientTransform="matrix(1 0 0 -1 0 66)">
			<stop  offset="0" style="stop-color:#6874E7"/>
			<stop  offset="0.4803" style="stop-color:#747FE9"/>
			<stop  offset="0.9847" style="stop-color:#858EEC"/>
		</linearGradient>
		<rect id="XMLID_438_" x="29.4" y="51.8" class="st58" width="5.3" height="3"/>
		<polygon id="XMLID_526_" class="st5" points="40.3,51.8 23.7,51.8 22.6,49.4 22.6,42.3 41.4,42.3 41.4,49.3 		"/>
		<rect id="XMLID_525_" x="29.4" y="51.8" class="st5" width="5.3" height="3"/>
		<line id="XMLID_508_" class="st5" x1="22.6" y1="47.1" x2="30.8" y2="47.1"/>
		<g id="XMLID_504_" class="st11">
			<path id="XMLID_506_" class="st41" d="M16.1,38.9c-2-3-3.2-6.7-3.2-10.6c0-10.5,8.6-19.1,19.1-19.1s19.1,8.6,19.1,19.1
				c0,4.3-1.4,8.2-3.8,11.4"/>
		</g>
	</g>
	<g id="XMLID_542_" class="st0">
		<path id="XMLID_535_" class="st9" d="M51.1,51.4c0.1,0,0.3-0.1,0.3-0.3V12.8c0-0.1-0.1-0.3-0.3-0.3H12.9c-0.1,0-0.3,0.1-0.3,0.3
			v38.3c0,0.1,0.1,0.3,0.3,0.3C12.9,51.4,51.1,51.4,51.1,51.4z"/>
		<path id="XMLID_624_" class="st25" d="M51.1,12.6h-3c0.1,0,0.3,0.1,0.3,0.3v38.3c0,0.1-0.1,0.3-0.3,0.3h3c0.1,0,0.3-0.1,0.3-0.3
			V12.8C51.3,12.7,51.2,12.6,51.1,12.6z"/>
		
			<linearGradient id="XMLID_46_" gradientUnits="userSpaceOnUse" x1="12.6535" y1="49.95" x2="51.3465" y2="49.95" gradientTransform="matrix(1 0 0 -1 0 66)">
			<stop  offset="0" style="stop-color:#6874E7"/>
			<stop  offset="0.4803" style="stop-color:#747FE9"/>
			<stop  offset="0.9847" style="stop-color:#858EEC"/>
		</linearGradient>
		<path id="XMLID_602_" class="st59" d="M51.1,19.4c0.1,0,0.3,0,0.3,0v-6.7c0,0-0.1,0-0.3,0H12.9c-0.1,0-0.3,0-0.3,0v6.7
			c0,0,0.1,0,0.3,0H51.1z"/>
		<path id="XMLID_581_" class="st5" d="M50.8,19.4v-6.7c0,0-0.1,0-0.2,0H13.4c-0.1,0-0.2,0-0.2,0v6.5h21.6"/>
		<line id="XMLID_533_" class="st5" x1="16.3" y1="15.7" x2="17.4" y2="15.7"/>
		<line id="XMLID_531_" class="st5" x1="19.3" y1="15.7" x2="20.4" y2="15.7"/>
		<line id="XMLID_532_" class="st5" x1="22.3" y1="15.7" x2="23.4" y2="15.7"/>
		<circle id="XMLID_527_" class="st3" cx="22" cy="29.3" r="3.1"/>
		<circle id="XMLID_528_" class="st3" cx="31.7" cy="43.8" r="3.1"/>
		<circle id="XMLID_529_" class="st3" cx="42" cy="35.1" r="3.1"/>
		<line id="XMLID_536_" class="st5" x1="22" y1="33.9" x2="22" y2="45.6"/>
		<line id="XMLID_530_" class="st5" x1="31.7" y1="27.3" x2="31.7" y2="39.7"/>
		<line id="XMLID_537_" class="st5" x1="42" y1="39.1" x2="42" y2="45.6"/>
		<line id="XMLID_540_" class="st5" x1="42" y1="27.3" x2="42" y2="31.4"/>
		<line id="XMLID_622_" class="st5" x1="35.8" y1="19.4" x2="38" y2="19.4"/>
	</g>
	<g id="XMLID_30_" class="st0">
		<g id="XMLID_603_" class="st11">
			<rect id="XMLID_619_" x="21.2" y="47.7" class="st19" width="20.2" height="6.8"/>
			<rect id="XMLID_618_" x="21.2" y="47.7" class="st18" width="20.2" height="2.7"/>
			<path id="XMLID_612_" class="st19" d="M52,47.7H12c-0.8,0-1.4-0.6-1.4-1.4V22.4c0-0.8,0.6-1.4,1.4-1.4h40c0.8,0,1.4,0.6,1.4,1.4
				v23.9C53.4,47,52.7,47.7,52,47.7z"/>
			<path id="XMLID_611_" class="st22" d="M53.4,41.9H10.6V22.4c0-0.8,0.6-1.4,1.4-1.4h40c0.8,0,1.4,0.6,1.4,1.4V41.9z"/>
			<line id="XMLID_609_" class="st13" x1="21.2" y1="47.7" x2="21.2" y2="54.5"/>
			<line id="XMLID_608_" class="st13" x1="41.3" y1="47.7" x2="41.3" y2="54.5"/>
			<line id="XMLID_606_" class="st13" x1="17.5" y1="54.5" x2="45.4" y2="54.5"/>
			
				<linearGradient id="XMLID_47_" gradientUnits="userSpaceOnUse" x1="12.9" y1="33.65" x2="51.1" y2="33.65" gradientTransform="matrix(1 0 0 -1 0 66)">
				<stop  offset="0" style="stop-color:#6874E7"/>
				<stop  offset="0.4803" style="stop-color:#747FE9"/>
				<stop  offset="0.9847" style="stop-color:#858EEC"/>
			</linearGradient>
			<rect id="XMLID_605_" x="12.9" y="22.9" class="st60" width="38.2" height="18.9"/>
			<path id="XMLID_604_" class="st13" d="M52.9,41.9v4.4c0,0.8-0.6,1.4-1.4,1.4h-39c-0.8,0-1.4-0.6-1.4-1.4v-4.4H52.9z"/>
		</g>
		<g id="XMLID_547_" class="st11">
			<polygon id="XMLID_551_" class="st19" points="40.9,27.5 22.5,27.5 17.4,27.5 17.4,36.9 47.2,36.9 47.2,27.5 			"/>
			<polyline id="XMLID_552_" class="st13" points="22.5,27.5 17.4,27.5 17.4,36.9 47.2,36.9 47.2,27.5 40.9,27.5 			"/>
			<line id="XMLID_561_" class="st13" x1="21.1" y1="32.6" x2="22.8" y2="32.6"/>
			<line id="XMLID_550_" class="st13" x1="26.4" y1="32.6" x2="28.1" y2="32.6"/>
			<line id="XMLID_562_" class="st13" x1="31.8" y1="32.6" x2="33.4" y2="32.6"/>
			<line id="XMLID_563_" class="st13" x1="37.1" y1="32.6" x2="38.8" y2="32.6"/>
			<line id="XMLID_564_" class="st13" x1="42.4" y1="32.6" x2="44.1" y2="32.6"/>
			<g id="XMLID_548_">
				<path id="XMLID_538_" class="st12" d="M38.4,30H25.3c-0.1,0-0.2-0.1-0.2-0.2V17.5c0-0.1,0.1-0.2,0.2-0.2h13.1
					c0.1,0,0.2,0.1,0.2,0.2v12.3C38.6,29.9,38.5,30,38.4,30z"/>
				<path id="XMLID_545_" class="st13" d="M27.2,17.4v-3.2c0-2.6,2.1-4.7,4.7-4.7l0,0c2.6,0,4.7,2.1,4.7,4.7v3.2"/>
				<circle id="XMLID_541_" class="st13" cx="31.9" cy="23.7" r="2.4"/>
			</g>
		</g>
	</g>
	<g id="XMLID_127_" class="st0">
		<g id="XMLID_142_" class="st11">
			<path id="XMLID_487_" class="st50" d="M52.2,52.6c0.1,0,0.3-0.1,0.3-0.3V11.7c0-0.1-0.1-0.3-0.3-0.3H11.8c-0.1,0-0.3,0.1-0.3,0.3
				v40.6c0,0.1,0.1,0.3,0.3,0.3H52.2z"/>
			<path id="XMLID_486_" class="st18" d="M52.2,11.4h-3c0.1,0,0.3,0.1,0.3,0.3v40.6c0,0.1-0.1,0.3-0.3,0.3h3c0.1,0,0.3-0.1,0.3-0.3
				V11.7C52.5,11.6,52.3,11.4,52.2,11.4z"/>
			<path id="XMLID_485_" class="st12" d="M52.5,18.9v-7.1c0-0.2-0.1-0.3-0.3-0.3H11.8c-0.1,0-0.3,0.1-0.3,0.3v7.1H52.5z"/>
			<path id="XMLID_484_" class="st13" d="M52.1,18.9v-6.8c0-0.1-0.1-0.2-0.3-0.2H12.3c-0.1,0-0.3,0.1-0.3,0.2v6.8h24.7"/>
			<line id="XMLID_482_" class="st48" x1="15.3" y1="14.8" x2="16.8" y2="14.8"/>
			<line id="XMLID_480_" class="st48" x1="18.3" y1="14.8" x2="19.8" y2="14.8"/>
			<line id="XMLID_241_" class="st48" x1="21.3" y1="14.8" x2="22.8" y2="14.8"/>
			<line id="XMLID_155_" class="st13" x1="38" y1="18.9" x2="40.7" y2="18.9"/>
		</g>
		
			<linearGradient id="XMLID_55_" gradientUnits="userSpaceOnUse" x1="16.7" y1="37.0662" x2="45.5519" y2="37.0662" gradientTransform="matrix(1 0 0 -1 0 66)">
			<stop  offset="0" style="stop-color:#6874E7"/>
			<stop  offset="0.4803" style="stop-color:#747FE9"/>
			<stop  offset="0.9847" style="stop-color:#858EEC"/>
		</linearGradient>
		<path id="XMLID_182_" class="st61" d="M16.7,36.9c0,0,0-0.1,0-0.4c0-0.3,0-0.7,0.1-1.2c0.1-1.1,0.3-2.6,1-4.3s1.8-3.6,3.4-5.3
			c1.6-1.7,3.8-3.1,6.2-3.9s5-1,7.4-0.7c1.2,0.2,2.3,0.5,3.3,0.9s2,0.9,2.8,1.4c1.7,1,2.8,2.2,3.6,3s1.1,1.4,1.1,1.4L43,29.4
			c0,0-0.3-0.5-0.9-1.2c-0.6-0.7-1.5-1.7-2.8-2.6c-0.7-0.5-1.4-0.9-2.3-1.3c-0.9-0.4-1.8-0.7-2.8-0.9c-2-0.4-4.3-0.4-6.4,0.2
			s-4.1,1.7-5.7,3.1c-1.6,1.4-2.7,3.1-3.4,4.6c-0.7,1.6-1,3-1.1,4c-0.1,0.5-0.1,0.9-0.1,1.2s0,0.4,0,0.4L16.7,36.9z"/>
		<circle id="XMLID_175_" class="st3" cx="32" cy="36.9" r="12.3"/>
		<path id="XMLID_130_" class="st1" d="M46.6,29.6L32,35.4l0.9,2.5L46.6,29.6C46.7,29.7,46.6,29.6,46.6,29.6z"/>
		<path id="XMLID_125_" class="st5" d="M32.9,37.9l13.8-8.2c0.1,0,0-0.1,0-0.1L32,35.4"/>
		<circle id="XMLID_65_" class="st1" cx="32" cy="36.9" r="2"/>
		<circle id="XMLID_219_" class="st5" cx="32" cy="36.9" r="2"/>
	</g>
	<g id="XMLID_577_" class="st0">
		<path id="XMLID_620_" class="st2" d="M52.5,51.8h-41c-0.1,0-0.2-0.1-0.2-0.2V21.2c0-0.1,0.1-0.2,0.2-0.2h41c0.1,0,0.2,0.1,0.2,0.2
			v30.3C52.7,51.7,52.6,51.8,52.5,51.8z"/>
		<rect id="XMLID_560_" x="13.5" y="22.6" class="st3" width="36.6" height="25.7"/>
		<path id="XMLID_558_" class="st4" d="M53,53.8H11c-0.5,0-1-0.4-1.1-0.9l-0.4-2.5h18.7l0.7,1h5.2l0.8-1h19.7l-0.4,2.5
			C54,53.4,53.6,53.8,53,53.8z"/>
		<path id="XMLID_556_" class="st5" d="M53,53.8H11c-0.5,0-1-0.4-1.1-0.9l-0.4-2.5h18.7l0.7,1h5.2l0.8-1h19.7l-0.4,2.5
			C54,53.4,53.6,53.8,53,53.8z"/>
		<polygon id="XMLID_549_" class="st6" points="48.6,21 46.6,48.3 17.4,48.3 15.4,21 		"/>
		<rect id="XMLID_557_" x="17.4" y="10.2" class="st4" width="29.2" height="38"/>
		<rect id="XMLID_568_" x="43.6" y="10.2" class="st25" width="3" height="38"/>
		<line id="XMLID_246_" class="st5" x1="20.7" y1="27.8" x2="20.7" y2="48.3"/>
		<line id="XMLID_223_" class="st5" x1="23.9" y1="25.2" x2="23.9" y2="48.3"/>
		<line id="XMLID_247_" class="st5" x1="27.1" y1="22.6" x2="27.1" y2="48.3"/>
		<line id="XMLID_554_" class="st5" x1="30.4" y1="25.4" x2="30.4" y2="48.3"/>
		<line id="XMLID_569_" class="st5" x1="33.6" y1="24.5" x2="33.6" y2="48.3"/>
		<line id="XMLID_570_" class="st5" x1="36.8" y1="22.1" x2="36.8" y2="48.3"/>
		<line id="XMLID_571_" class="st5" x1="40" y1="19.7" x2="40" y2="48.3"/>
		<line id="XMLID_572_" class="st5" x1="43.3" y1="17.3" x2="43.3" y2="48.3"/>
		
			<linearGradient id="XMLID_63_" gradientUnits="userSpaceOnUse" x1="17.4" y1="53" x2="46.6388" y2="53" gradientTransform="matrix(1 0 0 -1 0 66)">
			<stop  offset="0" style="stop-color:#6874E7"/>
			<stop  offset="0.4803" style="stop-color:#747FE9"/>
			<stop  offset="0.9847" style="stop-color:#858EEC"/>
		</linearGradient>
		<rect id="XMLID_565_" x="17.4" y="10.2" class="st62" width="29.2" height="5.6"/>
		<polyline id="XMLID_575_" class="st5" points="34.8,15.9 17.9,15.9 17.9,10.5 46.2,10.5 46.2,15.9 		"/>
		<line id="XMLID_579_" class="st5" x1="20.7" y1="13.1" x2="22" y2="13.1"/>
		<line id="XMLID_566_" class="st5" x1="23.7" y1="13.1" x2="25" y2="13.1"/>
		<line id="XMLID_567_" class="st5" x1="26.7" y1="13.1" x2="28" y2="13.1"/>
		<polyline id="XMLID_237_" class="st5" points="17.7,30.4 27.2,22.4 31.2,26.2 46.3,15 		"/>
		<line id="XMLID_580_" class="st5" x1="35.6" y1="15.8" x2="37.6" y2="15.8"/>
		<line id="XMLID_553_" class="st5" x1="13.5" y1="48.3" x2="50.2" y2="48.3"/>
	</g>
</g>
<g id="headline">
	<g id="XMLID_1_">
		<text transform="matrix(1 0 0 1 -171.767 -223.7222)" class="st64" style="font-family:'ArialMT'; font-size:22.512px;">FLAT </text>
		<text transform="matrix(1 0 0 1 -126.267 -223.7222)" class="st65" style="font-family:'ArialMT'; font-size:22.512px;">LINE </text>
		<text transform="matrix(1 0 0 1 -171.767 -196.7222)" class="st12" style="font-family:'ArialMT'; font-size:22.512px;">COLOR</text>
		<text transform="matrix(1 0 0 1 -115.867 -196.7222)" class="st64" style="font-family:'ArialMT'; font-size:22.512px;"> </text>
		<text transform="matrix(1 0 0 1 -111.467 -196.7222)" class="st64" style="font-family:'ArialMT'; font-size:22.512px;">ICONS</text>
	</g>
	<g id="XMLID_2_">
		
			<text id="XMLID_625_" transform="matrix(1 0 0 1 110.4282 -193.9051)" class="st64" style="font-family:'ArialMT'; font-size:12px;">WEB DESIGN &amp; DEVELOPMENT</text>
	</g>
</g>
</svg>
