<?xml version="1.0" encoding="utf-8"?>
<!-- Generator: Adobe Illustrator 19.2.0, SVG Export Plug-In . SVG Version: 6.00 Build 0)  -->
<svg version="1.1" id="Layer_1" xmlns="http://www.w3.org/2000/svg" xmlns:xlink="http://www.w3.org/1999/xlink" x="0px" y="0px"
	 viewBox="0 0 512 512" style="enable-background:new 0 0 512 512;" xml:space="preserve">
<style type="text/css">
	.st0{fill:#FFFFFF;}
	.st1{fill:#E0E0E0;}
	.st2{fill:#C1DFF3;}
	.st3{fill:#4A555F;}
	.st4{fill:#E89B3E;}
	.st5{fill:#FFD552;}
</style>
<g>
	<g>
		<g>
			<path class="st0" d="M258.9,184.4h-58.5v-40.7h26.4c4.6,0,9-1.4,12.8-4.1l25.2-17.9c6.4-4.5,14.6-5.3,21.8-2.2l25.5,11.4
				c8,3.5,13.1,11.5,13.1,20.2v43.1l-9.5-2.8c-15.5-6.4-15.5-6.4-15.5-6.4"/>
		</g>
	</g>
	<g>
		<g>
			<rect x="131" y="259.1" class="st0" width="92.7" height="118.9"/>
		</g>
	</g>
	<g>
		<g>
			<polygon class="st1" points="217.6,268.4 217.6,372 137.1,372 137.1,293.7 196.9,293.7 			"/>
		</g>
	</g>
	<g>
		<g>
			<polygon class="st2" points="217.6,298.2 198.7,327.1 137.1,327.1 137.1,293.7 196.9,293.7 217.6,268.4 			"/>
		</g>
	</g>
	<g>
		<g>
			<rect x="223.7" y="259.1" class="st0" width="142.3" height="118.9"/>
		</g>
	</g>
	<g>
		<g>
			<polygon class="st1" points="359.8,293.7 359.8,372 229.8,372 229.5,264.3 230.6,265.2 262.7,293.7 			"/>
		</g>
	</g>
	<g>
		<g>
			<polygon class="st2" points="359.8,293.7 359.8,325.7 250,325.7 229.5,303.9 229.5,264.3 262.7,293.7 			"/>
		</g>
	</g>
	<g>
		<g>
			<g>
				<rect x="146.1" y="248.7" class="st0" width="52.6" height="10.4"/>
			</g>
		</g>
		<g>
			<g>
				<path class="st3" d="M200.5,261h-56.3v-14.1h56.3V261z M147.9,257.3h49v-6.8h-49V257.3z"/>
			</g>
		</g>
		<g>
			<g>
				<rect x="151.8" y="252.1" class="st4" width="41.9" height="3.7"/>
			</g>
		</g>
	</g>
	<g>
		<g>
			<g>
				<circle class="st0" cx="207.1" cy="241.4" r="28.5"/>
			</g>
		</g>
		<g>
			<g>
				<path class="st3" d="M207.1,271.8c-2.6,0-5.2-0.3-7.8-1c-7.8-2.1-14.4-7.1-18.5-14.1s-5.2-15.2-3.1-23
					c3.5-13.3,15.6-22.6,29.3-22.6c2.6,0,5.2,0.3,7.8,1c16.2,4.3,25.8,20.9,21.6,37.1C232.9,262.5,220.8,271.8,207.1,271.8z
					 M207,214.7c-12.1,0-22.7,8.2-25.8,19.9c-1.8,6.9-0.9,14.1,2.7,20.2c3.6,6.2,9.3,10.6,16.2,12.4c2.2,0.6,4.5,0.9,6.8,0.9
					c12.1,0,22.7-8.2,25.8-19.9c3.8-14.2-4.7-28.9-19-32.6C211.6,215,209.3,214.7,207,214.7z"/>
			</g>
		</g>
		<g>
			<g>
				<circle class="st4" cx="207.1" cy="241.4" r="22.5"/>
			</g>
		</g>
		<g>
			<g>
				<path class="st0" d="M214.3,241.8c1.2,0.1,2.3-0.2,3.2-0.7c1.2-0.7,2.2-1.9,2.6-3.4c0.8-3-1-6.1-4-6.9l-2.3-0.6l2.8-10.4
					l-3.2-0.9l-2.8,10.4l-2-0.5l0,0l2.8-10.4l-3.2-0.9l-2.8,10.4l-2.6-0.7l0,0l-3.9-1l-0.9,3.5l2.4,0.6c0,0,1.6,0.2,1.1,1.9
					l-3.8,14.2c-0.4,1.7-1.9,1.1-1.9,1.1l-2.4-0.6l-0.9,3.5l3.9,1l0,0l2.6,0.7l-2.8,10.8l3.2,0.9l2.8-10.8l0,0l0,0l2,0.5l-2.9,10.8
					l3.2,0.9l2.9-10.8l3.2,0.8c1.8,0.5,3.7,0.2,5.2-0.7s2.7-2.3,3.2-4.2C220.1,246.5,218,242.8,214.3,241.8z M207.7,232.5l3.6,0.9
					c1.8,0.5,2.8,2.3,2.4,4.1c-0.2,0.9-0.8,1.6-1.5,2s-1.6,0.6-2.5,0.3l-3.6-0.9L207.7,232.5z M211,250.1c-0.8,0.5-1.8,0.6-2.7,0.4
					l-5-1.3l1.8-6.9l5,1.3c1.9,0.5,3.1,2.5,2.6,4.4C212.4,248.8,211.8,249.6,211,250.1z"/>
			</g>
		</g>
	</g>
	<g>
		<g>
			<g>
				<rect x="92.9" y="207.7" class="st3" width="3.7" height="6"/>
			</g>
		</g>
		<g>
			<g>
				<rect x="92.9" y="224.2" class="st3" width="3.7" height="6"/>
			</g>
		</g>
		<g>
			<g>
				<rect x="99.9" y="217.1" class="st3" width="6" height="3.7"/>
			</g>
		</g>
		<g>
			<g>
				<rect x="83.5" y="217.1" class="st3" width="6" height="3.7"/>
			</g>
		</g>
	</g>
	<g>
		<g>
			<g>
				<rect x="381.4" y="159.7" class="st3" width="3.7" height="6"/>
			</g>
		</g>
		<g>
			<g>
				<rect x="381.4" y="176.1" class="st3" width="3.7" height="6"/>
			</g>
		</g>
		<g>
			<g>
				<rect x="388.4" y="169" class="st3" width="6" height="3.7"/>
			</g>
		</g>
		<g>
			<g>
				<rect x="372" y="169" class="st3" width="6" height="3.7"/>
			</g>
		</g>
	</g>
	<g>
		<g>
			<circle class="st4" cx="89.5" cy="333.5" r="4.3"/>
		</g>
	</g>
	<g>
		<g>
			<circle class="st1" cx="93.8" cy="176.1" r="8.7"/>
		</g>
	</g>
	<g>
		<g>
			<circle class="st5" cx="383.2" cy="212.9" r="8.7"/>
		</g>
	</g>
	<g>
		<g>
			<circle class="st2" cx="416.7" cy="341.3" r="11.8"/>
		</g>
	</g>
	<g>
		<g>
			<path class="st3" d="M367.8,379.9H221.9V257.3h145.9V379.9z M225.5,376.2h138.6V260.9H225.5V376.2z"/>
		</g>
	</g>
	<g>
		<g>
			<path class="st3" d="M225.5,379.9h-96.3V257.3h96.3V379.9z M132.8,376.2h89V260.9h-89V376.2z"/>
		</g>
	</g>
	<g>
		<g>
			<rect x="152.2" y="128.8" class="st2" width="46.5" height="69.2"/>
		</g>
	</g>
	<g>
		<g>
			<path class="st3" d="M327,196.6l-12-3.5l-15.5-6.4l1.4-3.4l15.4,6.4l7.1,2.1v-40.7c0-8-4.7-15.2-12-18.5l-25.5-11.4
				c-6.5-2.9-14.1-2.1-19.9,2l-25.2,17.9c-4.1,2.9-8.8,4.4-13.8,4.4h-24.5v37.1h56.6v3.7h-60.3v-44.4H227c4.2,0,8.3-1.3,11.7-3.7
				l25.2-17.9c6.9-4.9,15.9-5.8,23.6-2.3l25.5,11.4c8.6,3.8,14.2,12.4,14.2,21.8L327,196.6z"/>
		</g>
	</g>
	<g>
		<g>
			<circle class="st0" cx="325.2" cy="170.9" r="28.5"/>
		</g>
	</g>
	<g>
		<g>
			<path class="st3" d="M325.2,201.2c-16.7,0-30.3-13.6-30.3-30.3s13.6-30.3,30.3-30.3c16.7,0,30.3,13.6,30.3,30.3
				S341.9,201.2,325.2,201.2z M325.2,144.2c-14.7,0-26.7,12-26.7,26.7s12,26.7,26.7,26.7s26.7-12,26.7-26.7
				C351.9,156.2,339.9,144.2,325.2,144.2z"/>
		</g>
	</g>
	<g>
		<g>
			<circle class="st4" cx="325.2" cy="170.9" r="21.9"/>
		</g>
	</g>
	<g>
		<g>
			<path class="st0" d="M257.5,184.4h67.1c7.5,0,13.5-6.1,13.5-13.5l0,0c0-7.5-6.1-13.5-13.5-13.5h-42.3L257.5,184.4z"/>
		</g>
	</g>
	<g>
		<g>
			<path class="st3" d="M324.6,186.2h-67.1v-3.7h67.1c6.4,0,11.7-5.2,11.7-11.7s-5.2-11.7-11.7-11.7h-42.3v-3.7h42.3
				c8.5,0,15.4,6.9,15.4,15.4C339.9,179.3,333,186.2,324.6,186.2z"/>
		</g>
	</g>
	<g>
		<g>
			<circle class="st0" cx="175.5" cy="141.1" r="6.5"/>
		</g>
	</g>
	<g>
		<g>
			<polygon class="st0" points="365.9,259.1 321.6,259.5 223.7,259.1 262.7,293.7 315.9,293.7 334.3,293.7 404.9,293.7 			"/>
		</g>
	</g>
	<g>
		<g>
			<path class="st3" d="M409.8,295.5H262l-43.2-38.3l102.8,0.4l45-0.4L409.8,295.5z M263.4,291.9h136.7L365.2,261l-43.6,0.4
				l-93.1-0.3L263.4,291.9z"/>
		</g>
	</g>
	<g>
		<g>
			<polygon class="st0" points="173.5,259.1 173.5,259.1 131,259.1 102.8,293.7 173.5,293.7 184.7,293.7 196.9,293.7 225.2,259.1 
							"/>
		</g>
	</g>
	<g>
		<g>
			<path class="st3" d="M197.8,295.5H98.9l31.2-38.2H229L197.8,295.5z M106.6,291.9h89.5l25.2-30.9h-89.5L106.6,291.9z"/>
		</g>
	</g>
	<g>
		<g>
			<g>
				<rect x="244.3" y="248.7" class="st0" width="52.6" height="10.4"/>
			</g>
		</g>
		<g>
			<g>
				<path class="st3" d="M298.7,261h-56.3v-14.1h56.3V261z M246.1,257.3h49v-6.8h-49V257.3z"/>
			</g>
		</g>
		<g>
			<g>
				<rect x="250" y="252.1" class="st4" width="41.9" height="3.7"/>
			</g>
		</g>
	</g>
	<g>
		<g>
			<g>
				<rect x="250" y="238.3" class="st0" width="52.6" height="10.4"/>
			</g>
		</g>
		<g>
			<g>
				<path class="st3" d="M304.5,250.5h-56.3v-14.1h56.3V250.5z M251.8,246.9h49v-6.8h-49L251.8,246.9L251.8,246.9z"/>
			</g>
		</g>
		<g>
			<g>
				<rect x="255.7" y="241.7" class="st4" width="41.9" height="3.7"/>
			</g>
		</g>
	</g>
	<g>
		<g>
			<g>
				<rect x="241.2" y="227.9" class="st0" width="52.6" height="10.4"/>
			</g>
		</g>
		<g>
			<g>
				<path class="st3" d="M295.6,240.1h-56.3V226h56.3V240.1z M243,236.5h49v-6.8h-49V236.5z"/>
			</g>
		</g>
		<g>
			<g>
				<rect x="246.9" y="231.2" class="st4" width="41.9" height="3.7"/>
			</g>
		</g>
	</g>
	<g>
		<g>
			<g>
				<rect x="307" y="248.7" class="st0" width="52.6" height="10.4"/>
			</g>
		</g>
		<g>
			<g>
				<path class="st3" d="M361.5,261h-56.3v-14.1h56.3V261z M308.8,257.3h49v-6.8h-49V257.3z"/>
			</g>
		</g>
		<g>
			<g>
				<rect x="312.7" y="252.1" class="st4" width="41.9" height="3.7"/>
			</g>
		</g>
	</g>
	<g>
		<g>
			<g>
				<path class="st2" d="M287.6,344.7c0.3,1.2,0.4,2.5,0.4,3.8v5.7h17.9v-6c0-1.2,0.1-2.4,0.4-3.5H287.6z"/>
			</g>
		</g>
		<g>
			<g>
				<rect x="290.9" y="357.1" class="st2" width="12.1" height="3.8"/>
			</g>
		</g>
	</g>
	<g>
		<g>
			<g>
				<path class="st2" d="M284,337c1.2,1.3,2,2.7,2.7,4.3h20.6c0.7-1.5,1.6-3,2.7-4.3c2.7-3,4.4-7,4.6-11.3h-35.2
					C279.5,330.1,281.2,334,284,337z"/>
			</g>
		</g>
		<g>
			<g>
				<path class="st4" d="M295,307.7c-8,0.9-14.5,7.3-15.5,15.3c-0.1,0.9-0.1,1.8-0.1,2.7h35.2c0-0.2,0-0.3,0-0.5
					C314.6,314.8,305.6,306.5,295,307.7z"/>
			</g>
		</g>
	</g>
	<g>
		<g>
			<path class="st3" d="M339.9,396.2h-4v-3.7h2.2v0.4h1.8V396.2z M332.2,396.2h-3.7v-3.7h3.7V396.2z M324.9,396.2h-3.7v-3.7h3.7
				V396.2z M317.6,396.2h-3.7v-3.7h3.7V396.2z M310.3,396.2h-3.7v-3.7h3.7V396.2z M302.9,396.2h-3.7v-3.7h3.7V396.2z M295.6,396.2
				H292v-3.7h3.7v3.7H295.6z M288.3,396.2h-3.7v-3.7h3.7V396.2z M281,396.2h-3.7v-3.7h3.7V396.2z M273.6,396.2H270v-3.7h3.7v3.7
				H273.6z M266.3,396.2h-3.7v-3.7h3.7V396.2z M259,396.2h-3.7v-3.7h3.7V396.2z M251.7,396.2H248v-3.7h3.7V396.2z M244.4,396.2h-3.7
				v-3.7h3.7V396.2z M237,396.2h-3.7v-3.7h3.7V396.2z M229.7,396.2H226v-3.7h3.7V396.2z M222.4,396.2h-3.7v-3.7h3.7V396.2z
				 M215.1,396.2h-3.7v-3.7h3.7V396.2z M207.7,396.2H204v-3.7h3.7V396.2z M200.4,396.2h-3.7v-3.7h3.7V396.2z M193.1,396.2h-3.7v-3.7
				h3.7V396.2z M185.8,396.2h-3.7v-3.7h3.7V396.2z M178.4,396.2h-3.7v-3.7h3.7V396.2z M171.1,396.2h-3.7v-3.7h3.7V396.2z
				 M163.8,396.2h-3.7v-3.7h3.7V396.2z M156.5,396.2h-3.7v-3.7h3.7V396.2z M149.2,396.2h-3.7v-3.7h3.7V396.2z M141.8,396.2h-3.7
				v-3.7h3.7V396.2z M134.5,396.2h-3.7v-3.7h3.7V396.2z M127.2,396.2h-3.7v-3.7h3.7V396.2z M119.9,396.2h-3.7v-3.7h3.7V396.2z
				 M112.5,396.2h-3.7v-3.7h3.7V396.2z M105.2,396.2h-3.7v-3.7h3.7V396.2z M101.8,392.3h-3.7v-3.7h3.7V392.3z M339.9,389.2h-3.7
				v-3.7h3.7V389.2z M101.8,385h-3.7v-3.7h3.7V385z M101.8,377.6h-3.7V374h3.7V377.6z M101.8,370.3h-3.7v-3.7h3.7V370.3z M101.8,363
				h-3.7v-3.7h3.7V363z M101.8,355.7h-3.7v-4.4h2.9v1.8h0.8C101.8,353.1,101.8,355.7,101.8,355.7z M123,354.9h-3.7v-3.7h3.7V354.9z
				 M115.7,354.9H112v-3.7h3.7V354.9z M108.3,354.9h-3.7v-3.7h3.7V354.9z"/>
		</g>
	</g>
	<g>
		<g>
			<path class="st3" d="M418.6,275.2h-3.5v-1.8h-0.2v-2h3.7V275.2z M411.4,275.2h-3.7v-3.7h3.7V275.2z M404.1,275.2h-3.7v-3.7h3.7
				V275.2z M396.8,275.2h-3.7v-3.7h3.7V275.2z M418.6,267.7h-3.7V264h3.7V267.7z M418.6,260.4h-3.7v-3.7h3.7V260.4z M418.6,253.1
				h-3.7v-3.7h3.7V253.1z M418.6,245.7h-3.7V242h3.7V245.7z M416.7,240.1h-3.5v-3.7h5.4v2h-1.8v1.7H416.7z M409.5,240.1h-3.7v-3.7
				h3.7V240.1z M402.2,240.1h-3.7v-3.7h3.7V240.1z M394.9,240.1h-3.7v-3.7h3.7V240.1z M387.6,240.1h-3.7v-3.7h3.7V240.1z
				 M380.2,240.1h-3.7v-3.7h3.7V240.1z M372.9,240.1h-3.7v-3.7h3.7V240.1z M365.6,240.1h-3.7v-3.7h3.7V240.1z M358.3,240.1h-3.7
				v-3.7h3.7V240.1z"/>
		</g>
	</g>
</g>
</svg>
