<?xml version="1.0" encoding="utf-8"?>
<!-- Generator: Adobe Illustrator 19.2.0, SVG Export Plug-In . SVG Version: 6.00 Build 0)  -->
<svg version="1.1" xmlns="http://www.w3.org/2000/svg" xmlns:xlink="http://www.w3.org/1999/xlink" x="0px" y="0px"
	 viewBox="0 0 1400 1400" style="enable-background:new 0 0 1400 1400;" xml:space="preserve">
<style type="text/css">
	.st0{fill:#FBE2C9;}
	.st1{fill:#FFFFFF;}
	.st2{fill:#6A79A8;}
	.st3{fill:#FFF3C2;}
	.st4{fill:#FF9C81;}
	.st5{fill:#E89B3E;}
</style>
<g id="_x2014_ÎÓÈ_x5F_1_x5F_1_x5F_">
</g>
<g id="_x2014_ÎÓÈ_x5F_2">
</g>
<g id="_x2014_ÎÓÈ_x5F_3">
	<path class="st0" d="M370.9,1189.2c-29.1-5.4-378.1-54.5-352.4-416.1S76.4,302.8,212.2,263c135.7-39.8,465.6-228,724.4-49
		s538.2,339.5,427.3,625.3s-129,381.1-418.2,366.6S509,1215.1,370.9,1189.2z"/>
	<g id="XMLID_28_">
		<path id="XMLID_36_" class="st1" d="M103.9,463.9h497.6c15.6,0,28.4,12.8,28.4,28.4v29.2c0,15.6-12.8,28.4-28.4,28.4H103.9
			c-15.6,0-28.4-12.8-28.4-28.4v-29.2C75.5,476.7,88.3,463.9,103.9,463.9z"/>
		<path id="XMLID_35_" class="st1" d="M67.7,579.7H264c17,0,30.9,15.4,30.9,34.3l0,0c0,18.9-13.9,34.3-30.9,34.3H67.7
			c-17,0-30.9-15.4-30.9-34.3l0,0C36.7,595.1,50.7,579.7,67.7,579.7z"/>
		<path id="XMLID_34_" class="st1" d="M27.2,368.7H231c15,0,27.2,12.2,27.2,27.2v14.2c0,15-12.2,27.2-27.2,27.2H27.2
			c-15,0-27.2-12.2-27.2-27.2l0-14.2C0,380.9,12.2,368.7,27.2,368.7z"/>
		<path id="XMLID_33_" class="st1" d="M134.1,434.6c9.6,0,17.3,6.6,17.3,14.7c0,8.1-7.8,14.7-17.3,14.7h75.6
			c-9.6,0-17.3-6.6-17.3-14.7c0-8.1,7.8-14.7,17.3-14.7H134.1z"/>
		<path id="XMLID_30_" class="st1" d="M109.6,549c10,0,18.1,6.9,18.1,15.3c0,8.5-8.1,15.3-18.1,15.3h79c-10,0-18.1-6.9-18.1-15.3
			c0-8.5,8.1-15.3,18.1-15.3H109.6z"/>
	</g>
	<g id="XMLID_8_">
		<path id="XMLID_27_" class="st1" d="M1296.1,932.6H798.6c-15.6,0-28.4-12.8-28.4-28.4V875c0-15.6,12.8-28.4,28.4-28.4h497.6
			c15.6,0,28.4,12.8,28.4,28.4v29.2C1324.5,919.9,1311.7,932.6,1296.1,932.6z"/>
		<path id="XMLID_14_" class="st1" d="M1332.3,816.9H1136c-17,0-30.9-15.4-30.9-34.3l0,0c0-18.9,13.9-34.3,30.9-34.3h196.4
			c17,0,30.9,15.4,30.9,34.3l0,0C1363.3,801.4,1349.3,816.9,1332.3,816.9z"/>
		<path id="XMLID_13_" class="st1" d="M1369.1,1027.9h-196.4c-17,0-30.9-15.4-30.9-34.3l0,0c0-18.9,13.9-34.3,30.9-34.3h196.4
			c17,0,30.9,15.4,30.9,34.3l0,0C1400,1012.5,1386.1,1027.9,1369.1,1027.9z"/>
		<path id="XMLID_10_" class="st1" d="M1265.9,962c-9.6,0-17.3-6.6-17.3-14.7c0-8.1,7.8-14.7,17.3-14.7h-75.6
			c9.6,0,17.3,6.6,17.3,14.7c0,8.1-7.8,14.7-17.3,14.7H1265.9z"/>
		<path id="XMLID_9_" class="st1" d="M1290.4,847.5c-10,0-18.1-6.9-18.1-15.3s8.1-15.3,18.1-15.3h-79c10,0,18.1,6.9,18.1,15.3
			s-8.1,15.3-18.1,15.3H1290.4z"/>
	</g>
</g>
<g id="_x2014_ÎÓÈ_x5F_4">
	<g id="XMLID_20_">
		<path id="XMLID_25_" class="st1" d="M768.3,979l0.2,145c0.1,66.8-49.8,121-111.6,121.1h0c-67.7,0.1-122.6-59.2-122.7-132.4
			L534,979.4L768.3,979z"/>
		<g>
			<g id="XMLID_24_">
				<path class="st2" d="M656.7,1247.6c-33.3,0-64.5-14-88.1-39.4c-23.6-25.5-36.7-59.4-36.7-95.5l-0.2-133.3l4.5,0l0.2,133.3
					c0.1,34.7,12.6,67.4,35.3,91.9c22.7,24.5,52.9,38,84.9,38c0.1,0,0.1,0,0.2,0c60.4-0.1,109.4-53.3,109.3-118.6L766,979l4.5,0
					l0.2,145c0.1,68.1-51,123.5-113.8,123.6C656.9,1247.6,656.8,1247.6,656.7,1247.6z"/>
			</g>
			<g id="XMLID_23_">
				<polygon class="st2" points="768.1,1032.5 533.8,1002 534.3,997 768.6,1027.5 				"/>
			</g>
			<g id="XMLID_22_">
				<polygon class="st2" points="768.2,1097.4 533.9,1066.9 534.4,1061.9 768.7,1092.4 				"/>
			</g>
			<g id="XMLID_21_">
				<polygon class="st2" points="763.3,1162.4 534,1131.9 534.5,1126.8 763.8,1157.4 				"/>
			</g>
		</g>
	</g>
	<g id="XMLID_18_">
		<path class="st1" d="M776.2,980.6l-252.1,0.5l0-18.4c-0.1-60.8-24-119.2-65.7-160.1l-7.7-7.2c-61.7-60.8-97-147-97.2-236.8
			c-0.3-176.7,132.4-320.6,295.6-321c163.3-0.2,296.3,143.3,296.5,319.9c0.1,89.8-34.9,176.1-96.2,236.8l-8.3,7.8
			c-41.3,40.9-65.1,99.4-65,160.1L776.2,980.6z"/>
		<path class="st2" d="M521.8,983.6l0-20.9c-0.1-60.1-23.8-117.8-65-158.3l-7.7-7.2c-62.1-61.2-97.8-148.2-98-238.7
			c-0.3-178,133.4-323.2,297.9-323.5c0.1,0,0.3,0,0.4,0c164.3,0,298.1,144.6,298.4,322.4C948,648,912.7,735,850.9,796.2l-8.3,7.8
			c-40.9,40.5-64.3,98.1-64.2,158.2l0,20.9L521.8,983.6z M649.5,240.1c-0.1,0-0.3,0-0.4,0c-162,0.3-293.6,143.2-293.3,318.5
			c0.1,89.1,35.3,174.7,96.4,234.9l7.7,7.2c42.2,41.5,66.5,100.5,66.5,162.1l0,15.9l247.5-0.4l0-15.9c-0.1-61.5,23.9-120.5,65.8-162
			l8.3-7.8c60.7-60.2,95.5-145.9,95.4-234.9C943.1,382.4,811.3,240.1,649.5,240.1z"/>
	</g>
	<ellipse class="st3" cx="675.1" cy="534.9" rx="256.6" ry="284.9"/>
	<g>
		<ellipse class="st2" cx="598.8" cy="845.6" rx="7" ry="7.8"/>
		<ellipse class="st2" cx="710.2" cy="845.6" rx="7" ry="7.8"/>
		<g>
			<path class="st2" d="M574,817c-1.1,0-2-0.9-2.2-2.1c-0.2-1.4,0.6-2.7,1.9-2.9l21.7-4.2c1.2-0.2,2.4,0.7,2.6,2.1
				c0.2,1.4-0.6,2.7-1.9,2.9l-21.7,4.2C574.3,817,574.1,817,574,817z"/>
		</g>
		<g>
			<path class="st2" d="M726.9,817.1c-0.1,0-0.3,0-0.4,0l-21.7-4.5c-1.2-0.3-2-1.6-1.8-2.9c0.2-1.4,1.4-2.3,2.7-2l21.7,4.5
				c1.2,0.3,2,1.6,1.8,2.9C729,816.3,728,817.1,726.9,817.1z"/>
		</g>
		<g>
			<path class="st2" d="M648.4,892.3c-14.4,0-26.2-12.9-26.3-28.9c0-1.4,1-2.5,2.2-2.5c0,0,0,0,0,0c1.2,0,2.3,1.1,2.3,2.5
				c0.1,13.3,9.9,23.9,21.8,23.9c0.1,0,0.1,0,0.2,0c12-0.1,21.7-11.1,21.6-24.4c0-1.4,1-2.5,2.2-2.5c1.3,0,2.3,1.1,2.3,2.5
				c0.1,16.1-11.5,29.4-26.1,29.5C648.6,892.3,648.5,892.3,648.4,892.3z"/>
		</g>
	</g>
	<g>
		<g>
			<path class="st2" d="M462.4,644.7c-21,0-39.8-14.8-40.1-15c-1-0.8-1.3-2.4-0.5-3.5c0.7-1.1,2.2-1.4,3.2-0.6
				c0.1,0.1,10.2,8.1,23.4,12c17.3,5.1,31.5,1.2,42.2-11.6c26-31.2,5.6-74.4,5.4-74.9c-0.6-1.2-0.2-2.8,0.9-3.4
				c1.1-0.7,2.5-0.2,3.1,1c0.2,0.5,22.1,46.9-6.1,80.7C484.3,640.9,473.1,644.7,462.4,644.7z"/>
		</g>
		<g>
			<path class="st2" d="M591,632.9c-10.8,0-21.1-3.6-29.2-10.4c-18.2-15.2-17.3-37.2-16.4-58.4c0.5-10.9,0.9-22.2-1.3-32.2
				c-3.2-14.4-11-25.9-21.1-30.9c-18-8.9-41.5,1.5-56.8,15.7c-24.4,22.7-9.6,73.7-9.5,74.2c0.3,1,0,2.1-0.8,2.8
				c-0.8,0.7-1.8,0.7-2.6,0.1c-0.3-0.2-25.7-18.9-46.5-19.6c-19.5-0.7-24.3,17.4-24.4,18.2c-0.3,1.3-1.6,2.1-2.8,1.8
				c-1.2-0.4-1.9-1.7-1.6-3.1c0.1-0.2,5.8-22.7,29-21.9c16.5,0.6,35.1,11.3,43.8,17c-3.4-15.1-9.1-53.3,12.5-73.4
				c16.4-15.2,41.7-26.2,61.5-16.4c11.3,5.6,20.2,18.4,23.7,34.3c2.4,10.8,1.9,22.4,1.4,33.7c-0.9,20.9-1.7,40.6,14.5,54.2
				c9.4,7.8,21.9,11,34.5,8.7c17.7-3.2,34.6-16.1,42.3-32.1c11.2-23.5,8.2-63.2-1-86.5c-4.8-12.2-19.6-28.7-19.7-28.9
				c-0.9-1-0.9-2.6,0-3.6c0.9-1,2.3-1,3.2,0c0.6,0.7,15.5,17.3,20.7,30.4c9.8,24.9,12.8,65.7,0.8,90.9
				c-8.4,17.6-26.2,31.2-45.5,34.7C596.8,632.6,593.9,632.9,591,632.9z"/>
		</g>
		<g>
			<path class="st2" d="M420,536.3c-18.7,0-34.8-13.9-42.3-37.3c-8.1-25.2-4.2-58.2,18.8-72.4c13.3-8.2,26.4-9.1,27-9.1
				c1.2-0.1,2.3,1,2.4,2.4c0.1,1.4-0.9,2.6-2.1,2.7c-0.1,0-12.7,0.9-25,8.5c-20.8,12.8-24.1,43-16.7,66.3
				c6.1,19.1,21.1,37.9,44.8,33.2c1.2-0.2,2.4,0.7,2.6,2c0.2,1.4-0.6,2.7-1.8,2.9C425.1,536.1,422.5,536.3,420,536.3z"/>
		</g>
		<g>
			<path class="st2" d="M427.2,492.3c-0.7,0-1.3-0.3-1.8-0.9c-16.5-22.4-8.3-50.8,3.6-68.4c15.6-22.9,36.6-31.8,64.2-27.1
				c1.2,0.2,2.1,1.5,1.9,2.9c-0.2,1.4-1.4,2.3-2.6,2.1c-25.8-4.4-45.4,3.9-59.9,25.2c-11,16.1-18.5,42-3.7,62.1
				c0.8,1.1,0.6,2.7-0.3,3.5C428.2,492.1,427.7,492.3,427.2,492.3z"/>
		</g>
		<g>
			<path class="st2" d="M506.3,460.6c-0.4,0-0.8-0.1-1.1-0.3c-14.2-9.2-21.2-28.1-17.1-46c2.6-11.2,9.1-22,18.9-31.1
				c7.9-7.4,16.9-12.7,25.7-17.9c2.9-1.7,5.8-3.4,8.7-5.2c10.5-6.6,17.7-16.1,19.8-26c1.8-8.5-0.1-17.2-5.5-25.9
				c-20.3-32.4-58.4-8.6-73.9,3.1c-8.9,6.7-21.3,17.1-26.1,29c-0.3,0.8-0.7,1.9-0.6,2.5c0.3,1.5,3.3,1.7,6,1
				c19-4.6,38.9-10.3,60.9-17.5c1.2-0.4,2.5,0.4,2.8,1.7c0.4,1.3-0.3,2.7-1.5,3.1c-22.1,7.2-42.1,12.9-61.2,17.5
				c-5.9,1.4-10.4-0.4-11.3-4.8c-0.5-2.1,0.2-4.1,0.8-5.8c5.3-13.1,18.3-24,27.6-31.1c16.6-12.6,57.6-37.9,80.2-1.8
				c6.2,9.9,8.3,19.9,6.2,29.9c-2.3,11.3-10.3,22-22,29.3c-2.9,1.8-5.9,3.6-8.8,5.3c-8.6,5.1-17.4,10.3-24.9,17.3
				c-6.3,5.9-14.5,15.7-17.4,28.5c-3.6,15.7,2.5,32.3,15,40.4c1.1,0.7,1.5,2.2,0.8,3.5C507.9,460.2,507.1,460.6,506.3,460.6z"/>
		</g>
		<g>
			<path class="st2" d="M494,492.8c-10.7,0-19-3.6-24.7-10.7c-13.5-17-6.9-47.7-6.7-49c0.3-1.4,1.5-2.2,2.7-1.8c1.2,0.3,2,1.7,1.7,3
				c-0.1,0.3-6.3,29.4,5.7,44.4c5.8,7.3,15.2,10.2,27.9,8.6c47.9-6.2,58.6-44.6,58.6-57.6c0-6.2-3.6-17-7-27.5
				c-3.9-11.7-7.5-22.8-6.7-28.9l1.4-10.6c0.2-1.4,1.3-2.3,2.6-2.1c1.2,0.2,2.1,1.5,1.9,2.9l-1.4,10.6c-0.7,4.8,3,15.8,6.5,26.4
				c3.6,10.9,7.3,22.1,7.3,29.2c0,14.2-11.5,56-62.7,62.6C498.7,492.6,496.3,492.8,494,492.8z"/>
		</g>
		<g>
			<path class="st2" d="M586.8,578.1c-0.6,0-1.2-0.3-1.7-0.8c-0.9-1-0.8-2.6,0.1-3.6c0.8-0.9,19.3-20.9-0.4-57.8
				c-12.4-23.2-11.9-59.9,8.5-77.5c7.9-6.8,18.1-8.1,28-9.3c13.1-1.6,25.5-3.1,31.2-17.6c3.2-8.1,3.4-16.9,3.6-26.1
				c0.1-3.9,0.2-8,0.5-11.9c0.1-1.4,1.2-2.4,2.5-2.3c1.2,0.1,2.2,1.4,2,2.8c-0.3,3.8-0.4,7.7-0.5,11.5c-0.2,9.4-0.5,19-4,28
				c-6.8,17.1-21,18.9-34.9,20.5c-9.3,1.1-18.8,2.3-25.7,8.3c-18.5,16-18.8,49.6-7.4,71c21.6,40.6-0.2,63.8-0.4,64.1
				C587.9,577.9,587.4,578.1,586.8,578.1z"/>
		</g>
		<g>
			<path class="st2" d="M466,728.6c-5.8,0-11.3-2-16.3-5.9c-1-0.8-1.3-2.4-0.5-3.5c0.7-1.1,2.1-1.4,3.2-0.6
				c9.2,7.2,18.6,5.2,24.8,2.3c14.1-6.7,27.4-25.4,29.6-41.8c2.4-17.5-4.6-29.5-12.6-43.3c-1.3-2.2-2.6-4.4-3.8-6.7
				c-0.7-1.2-0.3-2.7,0.7-3.5c1.1-0.7,2.5-0.4,3.1,0.8c1.3,2.3,2.5,4.5,3.8,6.6c8.2,14.1,16,27.5,13.3,46.8
				c-2.5,18.2-16.7,38.3-32.4,45.7C474.5,727.6,470.2,728.6,466,728.6z"/>
		</g>
		<g>
			<path class="st2" d="M666.2,472.3c-1,0-2-0.8-2.2-2c-0.3-1.4,0.5-2.7,1.7-3c25.2-6.4,35.3-33.1,36.3-56
				c0.4-9.6-1.4-17.9-3.2-26.8c-0.7-3.5-1.5-7.1-2.2-10.9c-2.7-15.8,7.4-27.7,16.3-38.2c1.5-1.8,2.9-3.4,4.2-5.1
				c5.1-6.4,11.3-14.9,13.4-24.9c2.8-12.9-3.2-25.7-16-34.1c-14.7-9.7-25.8-7.8-41.2-5.2c-1.7,0.3-3.5,0.6-5.3,0.9
				c-1.2,0.2-2.4-0.8-2.6-2.1c-0.2-1.4,0.7-2.7,1.9-2.9c1.8-0.3,3.6-0.6,5.3-0.9c15.7-2.6,28.1-4.7,44.2,5.9
				c14.6,9.6,21.4,24.5,18.1,39.6c-2.4,11.1-9,20.3-14.4,27.1c-1.4,1.7-2.8,3.4-4.3,5.2c-8.6,10.1-17.4,20.5-15.1,33.8
				c0.6,3.7,1.4,7.2,2.1,10.7c2,9.2,3.8,17.9,3.4,28.2c-1.4,31-17,54.8-39.8,60.6C666.6,472.3,666.4,472.3,666.2,472.3z"/>
		</g>
		<g>
			<path class="st2" d="M609.6,367.7c-2.6,0-5.2-0.1-7.8-0.4c-1.3-0.1-2.2-1.4-2.1-2.7c0.1-1.4,1.2-2.4,2.5-2.3
				c25.9,2.6,51.2-8.6,64.4-28.5c8.9-13.4,12.5-32.5,9-47.7c-2.5-11.1-8.6-19.3-17.5-23.9c-14.1-7.3-32.2-7.9-53.9-1.9
				c-1.2,0.3-2.5,0.7-3.7,1c-13.1,3.5-26.6,7.2-35.2,18.6c-4.7,6.3-7,14.4-6,21.5c1.5,10.6,10.1,19.8,21.1,22.3
				c22.2,5.2,42.8-12.3,58.3-28.1c0.9-0.9,2.4-0.9,3.2,0.2c0.8,1,0.8,2.6-0.1,3.6c-16.3,16.6-38.1,35-62.3,29.3
				c-12.8-3-22.9-13.9-24.7-26.5c-1.2-8.5,1.4-18.1,7-25.5c9.5-12.7,24.4-16.7,37.6-20.3c1.2-0.3,2.5-0.7,3.7-1
				c22.7-6.3,41.8-5.5,56.9,2.2c10.2,5.3,17.1,14.7,20,27.2c3.9,16.8,0,37.2-9.8,51.9C657.4,356,634.2,367.7,609.6,367.7z"/>
		</g>
		<g>
			<path class="st2" d="M830.3,399.8c-2.2,0-4.6-0.3-7.2-1c-10.8-2.8-21.5-11.5-28.6-23.1c-7.4-12.2-5-25.6-2.7-38.5
				c0.6-3.1,1.1-6.3,1.5-9.3c1.7-13,0.6-31-14.9-42.3c-11.7-8.6-30.4-13.7-43.8-4.5c-1.1,0.7-2.5,0.4-3.1-0.8
				c-0.7-1.2-0.3-2.7,0.7-3.5c15.1-10.5,35.3-5.3,48.7,4.6c13.8,10.1,19.6,26.5,16.8,47.3c-0.4,3.2-1,6.4-1.6,9.6
				c-2.2,12.5-4.4,24.2,2,34.7c6.3,10.5,16.2,18.5,25.8,21c13,3.4,20.4-4.3,29.8-14l1.6,1.8l1.5,1.8
				C848.7,392.2,841.4,399.8,830.3,399.8z"/>
		</g>
		<g>
			<path class="st2" d="M731.9,675.8c-7.1,0-13.7-1.7-19.2-4.9c-12.2-7.2-21-19.2-24.5-33.8c-3.9-16-1.5-33.5,6.7-48.2
				c18.1-32.6,48.1-46.9,78.2-37.3c3.6,1.1,6.6,3.7,8.6,7.2c2.9-8.8,9.4-14.9,17.9-20.9l2.3-1.6c14.4-10,26.7-18.7,29.7-37.9
				c2.5-16.1,0.1-39.4-14.8-52.2c-13.6-11.7-30.4-11.3-42.8,1c-0.3,0.3-0.5,0.5-0.8,0.8c-4.9,6.5-10.4,12.4-15.1,17.1
				c-0.9,0.9-2.4,0.8-3.2-0.2c-0.8-1-0.8-2.6,0.1-3.5c2.6-2.7,5.1-5.6,7.5-8.5c2.3-2.7,4.6-5.4,7-8c10.1-13.5,18.4-30.6,8.9-43.1
				c-3.2-4.3-8.1-7.6-14.9-10.1c-18.9-7.1-40.3-4.3-58.8,7.7c-1.1,0.7-2.5,0.3-3.1-0.9c-0.6-1.2-0.3-2.7,0.8-3.5
				c19.6-12.7,42.4-15.7,62.5-8.1c7.6,2.9,13.2,6.7,17,11.7c8.6,11.3,5.8,25-1,37.6c12.4-6.3,26.7-4.3,38.7,6
				c16.4,14.2,19.1,39.6,16.5,57c-3.3,21.4-17.1,31.1-31.8,41.3l-2.2,1.6c-10.5,7.4-17.1,14.4-17.5,26.7c-0.1,1.3-1,2.4-2.2,2.4
				c0,0,0,0,0,0c-1.2,0-2.2-1-2.3-2.3c-0.4-6.1-3.6-11-8.1-12.5c-28.5-9.1-55.8,4.1-73.1,35.1c-7.5,13.5-9.7,29.6-6.2,44.2
				c3.3,13.3,11.2,24.2,22.3,30.7c7,4.1,15.9,5.3,25.2,3.6c11.7-2.2,26.8-7.6,31.1-15.6l2.2-4c0.6-1.2,2-1.6,3.1-0.9
				c1.1,0.7,1.4,2.3,0.8,3.5l-2.2,4c-6.4,11.8-27.8,16.7-34.2,17.9C737.8,675.6,734.8,675.8,731.9,675.8z"/>
		</g>
		<g>
			<path class="st2" d="M715.5,763.1c-14.2,0-28.3-5.4-39.3-15.3c-10.5-9.4-14.1-18-13.6-28c-6.4,9.1-14.9,15.8-25.1,19.5
				c-19.5,7.2-43.2,3.1-63.4-10.9c-18.6-13-32.5-39.1-19.3-65.9c0.6-1.2,2-1.7,3.1-1c1.1,0.7,1.5,2.2,0.9,3.4
				c-11.8,23.9,0.9,47.4,17.8,59.2c19,13.3,41.3,17.2,59.5,10.4c14.4-5.3,25.1-17,30.9-33.7c0.5-1.3,1.8-2,2.9-1.4
				c1.2,0.5,1.8,2,1.3,3.3c-6.4,18.4-6.7,28.1,7.8,41.2c12.9,11.6,30.4,16.5,46.8,13.1c18.3-3.8,49.3-21.8,54.5-40.3
				c2.9-10.4,2.9-10.4,2.9-10.5c0.9-3.1,5.1-4.4,18.5-5.9c1.4-0.2,2.7-0.3,3.2-0.4c11.2-2.2,19.3-6.4,26.3-13.4
				c8.2-8.3,15.1-19.4,19.9-32.1c2.1-5.5,2.8-12.3,3.5-18.8c0.8-7.9,1.6-15.5,4.9-20.2c0.2-0.3,0.6-0.6,0.9-0.8
				c1-0.4,25.1-11,35.1-12.8c1.2-0.2,2.4,0.7,2.6,2.1c0.2,1.4-0.7,2.7-1.9,2.9c-8.6,1.5-29.6,10.5-33.5,12.2
				c-2.3,3.7-2.9,10.2-3.6,17.1c-0.7,6.9-1.4,14-3.8,20.2c-5.1,13.4-12.4,25-21.1,33.8c-7.6,7.7-16.4,12.2-28.5,14.6
				c-0.7,0.1-1.9,0.3-3.5,0.4c-3.2,0.4-12.7,1.4-14.7,2.9c-0.2,0.8-0.8,3.1-2.8,10c-6.1,22.1-41,40.2-58,43.7
				C723,762.7,719.2,763.1,715.5,763.1z"/>
		</g>
		<g>
			<path class="st2" d="M812.1,779.3c-1,0-2-0.8-2.2-1.9c-0.3-1.4,0.5-2.7,1.7-3c13.9-3.8,25-17.4,28.8-35.5c3.8-18-1.7-30-8.6-45
				c-0.7-1.4-1.3-2.9-2-4.3c-0.6-1.2-0.1-2.8,1-3.4c1.1-0.6,2.5-0.1,3.1,1.1c0.7,1.5,1.3,2.9,2,4.3c7.1,15.4,13.2,28.6,9,48.5
				c-4.2,20-16.5,35-32.1,39.2C812.5,779.3,812.3,779.3,812.1,779.3z"/>
		</g>
		<g>
			<path class="st2" d="M671.7,548.6c-5.2,0-10.7-0.6-16.7-1.8c-1.2-0.2-2.1-1.6-1.8-2.9c0.2-1.4,1.4-2.3,2.6-2
				c22.5,4.5,38.8,0.1,48.5-13.3c3.8-5.2,5.7-11.2,5.5-17c-0.2-5.5-2.2-10.5-4.3-15.7c-2.2-5.6-4.5-11.4-4.7-18
				c-0.3-11.7,4.6-22.9,13.9-31.6c5.5-5.2,11.8-9.2,17.9-13.1c2.1-1.3,4.1-2.6,6.2-4c1.1-0.7,2.5-0.3,3.1,0.9
				c0.7,1.2,0.3,2.7-0.8,3.5c-2.1,1.4-4.2,2.8-6.3,4.1c-5.9,3.8-12,7.7-17.2,12.6c-8.2,7.7-12.5,17.5-12.3,27.6
				c0.2,5.6,2.2,10.7,4.3,16.1c2.2,5.5,4.4,11.1,4.7,17.6c0.3,7-2,14.2-6.5,20.4C699.7,542.9,687.6,548.6,671.7,548.6z"/>
		</g>
		<g>
			<path class="st2" d="M858.4,446.7c-6.3,0-13.1-1.4-20.4-4.3c-1.2-0.5-1.8-1.9-1.4-3.2c0.4-1.3,1.7-2,2.9-1.5
				c10.5,4.2,36.3,11,47.5-15.9c5.2-12.6,5.4-27.7,0.4-40.4c-7.7-19.6-26.8-31.8-48.5-30.9c-1.3,0-2.3-1-2.3-2.4
				c0-1.4,0.9-2.6,2.2-2.6c23.6-0.9,44.3,12.4,52.8,33.9c5.5,14,5.4,30.7-0.4,44.5C884.9,438.9,873.3,446.7,858.4,446.7z"/>
		</g>
		<g>
			<path class="st2" d="M778.3,629.3c-3.2,0-6.3-0.2-9.4-0.6c-12.5-1.6-23.7-7.8-30.6-17.2c-0.8-1.1-0.7-2.7,0.3-3.6
				c1-0.9,2.4-0.7,3.2,0.4c6.2,8.4,16.2,14,27.6,15.4c30.5,3.8,65.7-12.5,81.8-38.1c14.1-22.4,15-53.1,2.3-80.2
				c-0.6-1.2-0.1-2.8,1-3.4c1.1-0.6,2.5-0.2,3.1,1.1c13.5,28.8,12.5,61.6-2.7,85.5C839.5,612.8,807.8,629.3,778.3,629.3z"/>
		</g>
		<g>
			<path class="st2" d="M866.1,672.7c-1.1,0-2.1-0.9-2.3-2.2c-0.1-1.4,0.7-2.6,2-2.8c21.3-2.8,39-13.3,50-29.6
				c10-14.9,13.6-33.6,10.4-53.9c-5.6-35.3-28.4-38.3-57.4-42.1c-1.2-0.2-2.1-1.4-2-2.8c0.1-1.4,1.3-2.4,2.5-2.2
				c28.4,3.7,55.2,7.2,61.3,46.3c3.4,21.7-0.5,41.7-11.3,57.8c-11.7,17.5-30.6,28.7-53.1,31.6C866.3,672.7,866.2,672.7,866.1,672.7z
				"/>
		</g>
		<g>
			<path class="st2" d="M742.6,527.6c-6.6,0-13.3-1.7-19.7-5.1c-1.1-0.6-1.6-2.1-1.1-3.4c0.5-1.3,1.9-1.8,3-1.2
				c14.6,7.8,30.2,5.8,42.7-5.5c12.3-11,20.3-27.2,24.8-38.8c0.5-1.3,1.8-1.9,3-1.3c1.2,0.6,1.7,2,1.2,3.3
				c-4.7,12.2-13.1,29.1-26.1,40.7C762.2,523.8,752.5,527.6,742.6,527.6z"/>
		</g>
		<g>
			<path class="st2" d="M911.8,536.3c-0.8,0-1.6-0.5-2-1.4c-0.6-1.2-0.1-2.8,1-3.4c8-4.4,9.1-11.8,8.6-17.2
				c-1.4-14.4-14.8-31-28.1-34.7c-6.5-1.8-15.8-1.5-23.2,10.5c-0.7,1.1-2.1,1.4-3.2,0.6c-1-0.8-1.3-2.4-0.6-3.5
				c7-11.2,17-15.7,28.1-12.5c15.2,4.3,30,22.6,31.5,39.1c0.9,9.9-3,17.8-11.1,22.3C912.4,536.2,912.1,536.3,911.8,536.3z"/>
		</g>
	</g>
	<g>
		<g>
			<path class="st2" d="M445.6,987.6c-0.4,0-0.8,0-1.2,0c-30.4-0.3-58.5-14.1-79.2-38.7L306,878.5c-0.9-1-0.8-2.6,0.1-3.6
				c0.9-0.9,2.4-0.9,3.2,0.1l59.2,70.4c19.9,23.6,46.8,36.8,76,37.1c29.1,0.3,56.3-12.2,76.6-35.4c0.9-1,2.3-1,3.2,0
				c0.9,1,0.9,2.6,0,3.6C503.5,974.5,475.5,987.6,445.6,987.6z"/>
		</g>
		<g>
			<g>
				<path class="st4" d="M299.5,882.8c-1.6,0-3.2-1-4-2.7l-10.8-22.8c-1.2-2.5-0.3-5.5,1.9-6.8c2.2-1.3,5-0.4,6.1,2.1l10.8,22.8
					c1.2,2.5,0.3,5.5-1.9,6.8C301,882.7,300.2,882.8,299.5,882.8z"/>
			</g>
			<g>
				<path class="st4" d="M304.6,879.9c-1.7,0-3.3-1-4.1-2.8l-11.8-26.3c-1.1-2.5-0.2-5.5,2-6.8c2.2-1.2,5-0.2,6.1,2.3l11.8,26.3
					c1.1,2.5,0.2,5.5-2,6.8C305.9,879.7,305.3,879.9,304.6,879.9z"/>
			</g>
			<g id="XMLID_17_">
				<path class="st5" d="M312.1,875.4c-1.6,0-3.1-0.9-3.9-2.5c-4.1-7.8-10.8-20.5-11.7-22.1c-1.3-2-1.1-4.8,0.5-6.6
					c1.8-1.9,4.7-1.9,6.4,0.1c0.2,0.3,0.4,0.5,2,3.4l-3-32.8c-0.3-2.8,1.6-5.2,4.1-5.5c2.5-0.3,4.7,1.7,5,4.5l5.2,55.9
					c0.2,2.4-1.1,4.6-3.1,5.3C313,875.3,312.6,875.4,312.1,875.4z M296.5,850.9c0.2,0.3,0.3,0.4,0.4,0.5
					C296.7,851.2,296.6,851,296.5,850.9z"/>
			</g>
			<g>
				<path class="st4" d="M299.3,883.2c-1.6,0-3.2-1-4-2.7c-1.2-2.5-0.4-5.5,1.9-6.8l12.5-7.5c2.2-1.3,5-0.4,6.2,2.1s0.4,5.5-1.9,6.8
					l-12.5,7.5C300.8,883,300,883.2,299.3,883.2z"/>
			</g>
		</g>
	</g>
	<g>
		<g>
			<g>
				<g id="XMLID_1_">
					<path class="st2" d="M859.6,973.7c-12.6,0-25.3-2.1-37.8-6.3l-42.5-14.6c-1.2-0.4-1.9-1.8-1.5-3.2c0.4-1.3,1.6-2.1,2.8-1.7
						l42.5,14.6c47.5,16.3,98.8-0.5,130.7-42.9l31.4-41.7c0.8-1.1,2.2-1.2,3.2-0.3c1,0.9,1.1,2.5,0.3,3.6l-31.4,41.7
						C932.6,955.7,896.7,973.7,859.6,973.7z"/>
				</g>
			</g>
		</g>
		<g>
			<g>
				<path class="st5" d="M984.7,886.6c-1.2,0-2.3-0.5-3.2-1.5c-1.8-2-1.7-5.2,0-7.1l31-34c1.8-2,4.7-1.9,6.4,0c1.8,2,1.7,5.2,0,7.1
					l-31,34C987,886.1,985.9,886.6,984.7,886.6z"/>
			</g>
			<g>
				<path class="st5" d="M984.7,886.6c-1.5,0-3-0.9-3.9-2.4c-1.3-2.4-0.6-5.5,1.5-6.9l29.3-19.7c2.1-1.4,4.9-0.7,6.2,1.7
					c1.3,2.4,0.6,5.5-1.5,6.9l-29.3,19.7C986.3,886.4,985.5,886.6,984.7,886.6z"/>
			</g>
			<g>
				<path class="st5" d="M984.7,886.6c-1.9,0-3.7-1.4-4.3-3.5l-1.9-6.6c-0.8-2.7,0.5-5.5,2.9-6.4c2.4-0.9,5,0.6,5.7,3.2l1.9,6.6
					c0.8,2.7-0.5,5.5-2.9,6.4C985.7,886.5,985.2,886.6,984.7,886.6z"/>
			</g>
			<g>
				<path class="st5" d="M982.8,880c-0.3,0-0.6,0-0.9-0.1c-2.5-0.6-4-3.2-3.5-6l5.8-31.3c0.5-2.7,2.9-4.5,5.4-3.9
					c2.5,0.6,4,3.2,3.5,6l-5.8,31.3C986.8,878.3,984.9,880,982.8,880z"/>
			</g>
			<g>
				<path class="st5" d="M983.6,876.7c-1.1,0-2.2-0.5-3.1-1.4c-1.8-1.9-1.9-5.1-0.2-7.1l31.2-37c1.7-2,4.6-2.1,6.4-0.2
					c1.8,1.9,1.9,5.1,0.2,7.1l-31.2,37C986,876.2,984.8,876.7,983.6,876.7z"/>
			</g>
		</g>
	</g>
</g>
</svg>
