<?xml version="1.0" encoding="utf-8"?>
<!-- Generator: Adobe Illustrator 19.2.0, SVG Export Plug-In . SVG Version: 6.00 Build 0)  -->
<svg version="1.1" xmlns="http://www.w3.org/2000/svg" xmlns:xlink="http://www.w3.org/1999/xlink" x="0px" y="0px"
	 viewBox="0 0 1200 1400" style="enable-background:new 0 0 1200 1400;" xml:space="preserve">
<style type="text/css">
	.st0{fill:#FBE2C9;}
	.st1{fill:#FFFFFF;}
	.st2{fill:#6A79A8;}
	.st3{fill:#FFF0A9;}
	.st4{fill:#FF9C81;}
	.st5{fill:#F2F3F4;}
	.st6{fill:#E89B3E;}
</style>
<g id="_x2014_ÎÓÈ_x5F_1_x5F_1_x5F_">
</g>
<g id="_x2014_ÎÓÈ_x5F_2">
</g>
<g id="_x2014_ÎÓÈ_x5F_3">
	<path class="st0" d="M328.1,1136.4c-22.9-4.7-297.4-47.4-277.2-361.8s45.6-409,152.3-443.6s366.2-198.3,569.9-42.6
		s423.3,295.3,336.2,543.8c-87.2,248.6-101.5,331.5-329,318.8S436.8,1158.9,328.1,1136.4z"/>
	<g id="XMLID_28_">
		<path id="XMLID_36_" class="st1" d="M151.1,604.6h522.5c15.6,0,28.4,12.8,28.4,28.4v21.8c0,15.6-12.8,28.4-28.4,28.4H151.1
			c-15.6,0-28.4-12.8-28.4-28.4V633C122.7,617.4,135.5,604.6,151.1,604.6z"/>
		<path id="XMLID_35_" class="st1" d="M114.5,710.4h205.2c17.8,0,32.3,14.1,32.3,31.4l0,0c0,17.3-14.5,31.4-32.3,31.4H114.5
			c-17.8,0-32.3-14.1-32.3-31.4l0,0C82.2,724.5,96.8,710.4,114.5,710.4z"/>
		<path id="XMLID_34_" class="st1" d="M71,517.5h215.4c15,0,27.2,12.2,27.2,27.2v8.3c0,15-12.2,27.2-27.2,27.2H71
			c-15,0-27.2-12.2-27.2-27.2v-8.3C43.8,529.7,56.1,517.5,71,517.5z"/>
		<path id="XMLID_33_" class="st1" d="M183.9,577.7c10,0,18.1,6,18.1,13.4c0,7.4-8.1,13.4-18.1,13.4h79c-10,0-18.1-6-18.1-13.4
			c0-7.4,8.1-13.4,18.1-13.4H183.9z"/>
		<path id="XMLID_30_" class="st1" d="M158.3,682.4c10.4,0,18.9,6.3,18.9,14s-8.5,14-18.9,14h82.5c-10.4,0-18.9-6.3-18.9-14
			s8.5-14,18.9-14H158.3z"/>
	</g>
	<g id="XMLID_8_">
		<path id="XMLID_27_" class="st1" d="M981.7,498.6H459.2c-15.6,0-28.4-12.8-28.4-28.4v-21.8c0-15.6,12.8-28.4,28.4-28.4h522.5
			c15.6,0,28.4,12.8,28.4,28.4v21.8C1010.1,485.9,997.3,498.6,981.7,498.6z"/>
		<path id="XMLID_14_" class="st1" d="M1018.3,392.8H813.1c-17.8,0-32.3-14.1-32.3-31.4l0,0c0-17.3,14.5-31.4,32.3-31.4h205.2
			c17.8,0,32.3,14.1,32.3,31.4l0,0C1050.6,378.7,1036.1,392.8,1018.3,392.8z"/>
		<path id="XMLID_13_" class="st1" d="M1056.7,585.7H851.5c-17.8,0-32.3-14.1-32.3-31.4l0,0c0-17.3,14.5-31.4,32.3-31.4h205.2
			c17.8,0,32.3,14.1,32.3,31.4l0,0C1089,571.6,1074.5,585.7,1056.7,585.7z"/>
		<path id="XMLID_10_" class="st1" d="M948.9,525.5c-10,0-18.1-6-18.1-13.4c0-7.4,8.1-13.4,18.1-13.4h-79c10,0,18.1,6,18.1,13.4
			c0,7.4-8.1,13.4-18.1,13.4H948.9z"/>
		<path id="XMLID_9_" class="st1" d="M974.5,420.8c-10.4,0-18.9-6.3-18.9-14s8.5-14,18.9-14H892c10.4,0,18.9,6.3,18.9,14
			s-8.5,14-18.9,14H974.5z"/>
	</g>
</g>
<g id="_x2014_ÎÓÈ_x5F_4">
	<g>
		<path class="st1" d="M519.3,1151.8H155.5V699c0-19.1,15.5-34.6,34.6-34.6h294.6c19.1,0,34.6,15.5,34.6,34.6V1151.8z"/>
		<g>
			<path class="st2" d="M519.3,1142.7c-1.3,0-2.4-1-2.4-2.3V708.8c0-22.9-19.2-41.5-42.8-41.5H200.6c-23.6,0-42.8,18.6-42.8,41.5
				v431.6c0,1.3-1.1,2.3-2.4,2.3s-2.4-1-2.4-2.3V708.8c0-25.4,21.3-46.1,47.5-46.1h273.5c26.2,0,47.5,20.7,47.5,46.1v431.6
				C521.7,1141.7,520.6,1142.7,519.3,1142.7z"/>
		</g>
		<g>
			<path class="st2" d="M499.2,1142.7c-1.3,0-2.4-1-2.4-2.3V741.8H178v398.6c0,1.3-1.1,2.3-2.4,2.3c-1.3,0-2.4-1-2.4-2.3V739.5
				c0-1.3,1.1-2.3,2.4-2.3h323.5c1.3,0,2.4,1,2.4,2.3v400.9C501.5,1141.7,500.5,1142.7,499.2,1142.7z"/>
		</g>
		<g>
			<path class="st2" d="M459.9,709.6h-6.6c-3.9,0-7.1-3.1-7.1-6.8v-3.9c0-3.8,3.2-6.8,7.1-6.8h6.6c3.9,0,7.1,3.1,7.1,6.8v3.9
				C466.9,706.5,463.8,709.6,459.9,709.6z M453.3,696.6c-1.3,0-2.3,1-2.3,2.2v3.9c0,1.2,1,2.2,2.3,2.2h6.6c1.3,0,2.3-1,2.3-2.2v-3.9
				c0-1.2-1-2.2-2.3-2.2H453.3z"/>
		</g>
		<g>
			<path class="st2" d="M370.2,709.6h-65.8c-3.9,0-7.1-3.1-7.1-6.8v-3.9c0-3.8,3.2-6.8,7.1-6.8h65.8c3.9,0,7.1,3.1,7.1,6.8v3.9
				C377.3,706.5,374.1,709.6,370.2,709.6z M304.4,696.6c-1.3,0-2.3,1-2.3,2.2v3.9c0,1.2,1,2.2,2.3,2.2h65.8c1.3,0,2.3-1,2.3-2.2
				v-3.9c0-1.2-1-2.2-2.3-2.2H304.4z"/>
		</g>
	</g>
	<g>
		<g>
			<rect x="247.3" y="1110.3" class="st3" width="33.1" height="33.1"/>
			<g>
				<path class="st2" d="M274.5,1140c-1.3,0-2.4-1-2.4-2.3v-30.4h-23.6c-1.3,0-2.4-1-2.4-2.3c0-1.3,1.1-2.3,2.4-2.3h26
					c1.3,0,2.4,1,2.4,2.3v32.7C276.8,1138.9,275.8,1140,274.5,1140z"/>
			</g>
		</g>
		<g>
			<path class="st2" d="M274.5,1082.1h-26c-1.3,0-2.4-1-2.4-2.3c0-1.3,1.1-2.3,2.4-2.3h23.6v-32c0-1.3,1.1-2.3,2.4-2.3
				c1.3,0,2.4,1,2.4,2.3v34.3C276.8,1081,275.8,1082.1,274.5,1082.1z"/>
		</g>
		<g>
			<path class="st2" d="M255.1,1031.7h-6.6c-1.3,0-2.4-1-2.4-2.3c0-1.3,1.1-2.3,2.4-2.3h6.6c1.3,0,2.4,1,2.4,2.3
				C257.5,1030.7,256.4,1031.7,255.1,1031.7z"/>
		</g>
		<g>
			<path class="st2" d="M274.5,1006.6h-26c-1.3,0-2.4-1-2.4-2.3c0-1.3,1.1-2.3,2.4-2.3h23.6v-45.7h-23.6c-1.3,0-2.4-1-2.4-2.3
				c0-1.3,1.1-2.3,2.4-2.3h26c1.3,0,2.4,1,2.4,2.3v50.3C276.8,1005.5,275.8,1006.6,274.5,1006.6z"/>
		</g>
		<g>
			<rect x="331.4" y="960.2" class="st3" width="29.6" height="50.3"/>
			<g>
				<path class="st2" d="M355.5,1006.6H326c-1.3,0-2.4-1-2.4-2.3v-50.3c0-1.3,1.1-2.3,2.4-2.3h29.6c1.3,0,2.4,1,2.4,2.3
					c0,1.3-1.1,2.3-2.4,2.3h-27.2v45.7h27.2c1.3,0,2.4,1,2.4,2.3C357.9,1005.5,356.9,1006.6,355.5,1006.6z"/>
			</g>
		</g>
		<g>
			<rect x="331.4" y="809.2" class="st3" width="29.6" height="50.3"/>
			<g>
				<path class="st2" d="M355.5,855.6H326c-1.3,0-2.4-1-2.4-2.3v-50.3c0-1.3,1.1-2.3,2.4-2.3h29.6c1.3,0,2.4,1,2.4,2.3
					c0,1.3-1.1,2.3-2.4,2.3h-27.2v45.7h27.2c1.3,0,2.4,1,2.4,2.3C357.9,854.5,356.9,855.6,355.5,855.6z"/>
			</g>
		</g>
		<rect x="240.7" y="884.7" class="st3" width="39.2" height="50.3"/>
		<g>
			<path class="st2" d="M274.5,931.1h-26c-1.3,0-2.4-1-2.4-2.3c0-1.3,1.1-2.3,2.4-2.3h23.6v-45.7h-34.9c-1.3,0-2.4-1-2.4-2.3
				c0-1.3,1.1-2.3,2.4-2.3h37.3c1.3,0,2.4,1,2.4,2.3v50.3C276.8,930,275.8,931.1,274.5,931.1z"/>
		</g>
		<g>
			<path class="st2" d="M262,855.6h-39.4c-1.3,0-2.4-1-2.4-2.3v-50.3c0-1.3,1.1-2.3,2.4-2.3h51.9c1.3,0,2.4,1,2.4,2.3v30
				c0,1.3-1.1,2.3-2.4,2.3c-1.3,0-2.4-1-2.4-2.3v-27.7h-47.2v45.7H262c1.3,0,2.4,1,2.4,2.3C264.4,854.5,263.3,855.6,262,855.6z"/>
		</g>
		<g>
			<path class="st2" d="M355.5,931.1H326c-1.3,0-2.4-1-2.4-2.3v-50.3c0-1.3,1.1-2.3,2.4-2.3h29.6c1.3,0,2.4,1,2.4,2.3
				c0,1.3-1.1,2.3-2.4,2.3h-27.2v45.7h27.2c1.3,0,2.4,1,2.4,2.3C357.9,930,356.9,931.1,355.5,931.1z"/>
		</g>
		<g>
			<path class="st2" d="M355.5,1082.4H326c-1.3,0-2.4-1-2.4-2.3v-50.3c0-1.3,1.1-2.3,2.4-2.3h29.6c1.3,0,2.4,1,2.4,2.3
				c0,1.3-1.1,2.3-2.4,2.3h-27.2v45.7h27.2c1.3,0,2.4,1,2.4,2.3S356.9,1082.4,355.5,1082.4z"/>
		</g>
		<g>
			<path class="st2" d="M326,1140c-1.3,0-2.4-1-2.4-2.3v-32.7c0-1.3,1.1-2.3,2.4-2.3h29.6c1.3,0,2.4,1,2.4,2.3
				c0,1.3-1.1,2.3-2.4,2.3h-27.2v30.4C328.3,1138.9,327.3,1140,326,1140z"/>
		</g>
	</g>
</g>
<g id="_x2014_ÎÓÈ_x5F_5_x5F_1_x5F_">
	<g id="XMLID_5_">
		<path class="st1" d="M967.8,1160.1H721.5V801.4c0-14.6,11.8-26.4,26.4-26.4h193.5c14.6,0,26.4,11.8,26.4,26.4V1160.1z"/>
		<g>
			<path class="st2" d="M967.8,1151.9c-1.3,0-2.4-1-2.4-2.3v-346c0-15.1-12.6-27.4-28.2-27.4H752c-15.5,0-28.2,12.3-28.2,27.4v346
				c0,1.3-1.1,2.3-2.4,2.3s-2.4-1-2.4-2.3v-346c0-17.6,14.8-32,32.9-32h185.2c18.2,0,32.9,14.4,32.9,32v346
				C970.2,1150.8,969.1,1151.9,967.8,1151.9z"/>
		</g>
		<g>
			<path class="st2" d="M954.2,1152.8c-1.3,0-2.4-1-2.4-2.3V826.7H737.5v322.9c0,1.3-1.1,2.3-2.4,2.3s-2.4-1-2.4-2.3V824.4
				c0-1.3,1.1-2.3,2.4-2.3h219.1c1.3,0,2.4,1,2.4,2.3v326.1C956.5,1151.8,955.5,1152.8,954.2,1152.8z"/>
		</g>
		<g>
			<path class="st2" d="M865.9,805.2h-42.7c-3.6,0-6.5-2.8-6.5-6.3v-0.9c0-3.5,2.9-6.3,6.5-6.3h42.7c3.6,0,6.5,2.8,6.5,6.3v0.9
				C872.4,802.4,869.5,805.2,865.9,805.2z M823.2,796.4c-0.9,0-1.7,0.7-1.7,1.7v0.9c0,0.9,0.8,1.7,1.7,1.7h42.7
				c0.9,0,1.7-0.8,1.7-1.7v-0.9c0-0.9-0.8-1.7-1.7-1.7H823.2z"/>
		</g>
		<g>
			<path class="st2" d="M926.6,805.2H924c-3.6,0-6.5-2.8-6.5-6.3v-0.9c0-3.5,2.9-6.3,6.5-6.3h2.6c3.6,0,6.5,2.8,6.5,6.3v0.9
				C933.1,802.4,930.2,805.2,926.6,805.2z M924,796.4c-0.9,0-1.7,0.7-1.7,1.7v0.9c0,0.9,0.8,1.7,1.7,1.7h2.6c0.9,0,1.7-0.8,1.7-1.7
				v-0.9c0-0.9-0.8-1.7-1.7-1.7H924z"/>
		</g>
	</g>
	<g>
		<g>
			<g>
				<path class="st2" d="M821,901.9c-12,0-21.6-9.4-21.6-21c0-11.6,9.7-21,21.6-21c2.3,0,4.6,0.3,6.7,1c1.2,0.4,1.9,1.7,1.5,2.9
					c-0.4,1.2-1.7,1.9-3,1.5c-1.7-0.5-3.4-0.8-5.2-0.8c-9.3,0-16.9,7.3-16.9,16.3c0,9,7.5,16.3,16.8,16.3c9.3,0,16.9-7.3,16.9-16.3
					c0-3.1-0.9-6.2-2.6-8.8c-0.7-1.1-0.4-2.5,0.7-3.2c1.1-0.7,2.6-0.4,3.3,0.7c2.2,3.4,3.4,7.3,3.4,11.3
					C842.6,892.5,832.9,901.9,821,901.9z"/>
			</g>
			<g>
				<path class="st2" d="M901.6,883.2h-41.1c-1.3,0-2.4-1-2.4-2.3c0-1.3,1.1-2.3,2.4-2.3h41.1c1.3,0,2.4,1,2.4,2.3
					C903.9,882.2,902.9,883.2,901.6,883.2z"/>
			</g>
		</g>
		<g>
			<g>
				<path class="st2" d="M821,1040.2c-12,0-21.6-9.4-21.6-21c0-11.6,9.7-21,21.6-21c12,0,21.6,9.4,21.6,21c0,3.5-0.9,6.9-2.6,10
					c-0.6,1.1-2.1,1.5-3.2,0.9c-1.2-0.6-1.6-2-1-3.1c1.3-2.4,2-5.1,2-7.8c0-9-7.5-16.3-16.8-16.3c-9.3,0-16.9,7.3-16.9,16.3
					c0,9,7.5,16.3,16.8,16.3c1.7,0,3.4-0.2,4.9-0.7c1.3-0.4,2.6,0.3,3,1.5c0.4,1.2-0.3,2.5-1.6,2.9
					C825.2,1039.9,823.1,1040.2,821,1040.2z"/>
			</g>
			<g>
				<path class="st2" d="M901.6,1021.6h-41.1c-1.3,0-2.4-1-2.4-2.3c0-1.3,1.1-2.3,2.4-2.3h41.1c1.3,0,2.4,1,2.4,2.3
					C903.9,1020.6,902.9,1021.6,901.6,1021.6z"/>
			</g>
		</g>
		<g>
			<path class="st4" d="M846.1,955.9L846.1,955.9c0,10.3-8.6,18.6-19.2,18.6h-0.1c-10.6,0-19.2-8.3-19.2-18.6l0,0
				c0-10.3,8.6-18.6,19.2-18.6h0.1C837.5,937.2,846.1,945.6,846.1,955.9z"/>
			<g>
				<path class="st2" d="M821,971c-12,0-21.6-9.4-21.6-21c0-11.6,9.7-21,21.6-21c12,0,21.6,9.4,21.6,21
					C842.6,961.7,832.9,971,821,971z M821,933.8c-9.3,0-16.9,7.3-16.9,16.3s7.5,16.3,16.8,16.3c9.3,0,16.9-7.3,16.9-16.3
					S830.3,933.8,821,933.8z"/>
			</g>
			<g>
				<path class="st2" d="M901.6,947.8h-41.1c-1.3,0-2.4-1-2.4-2.3c0-1.3,1.1-2.3,2.4-2.3h41.1c1.3,0,2.4,1,2.4,2.3
					C903.9,946.8,902.9,947.8,901.6,947.8z"/>
			</g>
			<g>
				<path class="st2" d="M901.6,958.2h-41.1c-1.3,0-2.4-1-2.4-2.3c0-1.3,1.1-2.3,2.4-2.3h41.1c1.3,0,2.4,1,2.4,2.3
					C903.9,957.1,902.9,958.2,901.6,958.2z"/>
			</g>
		</g>
		<g>
			<g>
				<path class="st2" d="M901.6,1076.7H863c-1.3,0-2.4-1-2.4-2.3s1.1-2.3,2.4-2.3h38.6c1.3,0,2.4,1,2.4,2.3
					S902.9,1076.7,901.6,1076.7z"/>
			</g>
			<g>
				<path class="st2" d="M846.1,1076.7h-34.5c-1.3,0-2.4-1-2.4-2.3s1.1-2.3,2.4-2.3h34.5c1.3,0,2.4,1,2.4,2.3
					S847.4,1076.7,846.1,1076.7z"/>
			</g>
			<g>
				<path class="st2" d="M882.3,1087h-70.7c-1.3,0-2.4-1-2.4-2.3c0-1.3,1.1-2.3,2.4-2.3h70.7c1.3,0,2.4,1,2.4,2.3
					C884.6,1086,883.6,1087,882.3,1087z"/>
			</g>
		</g>
	</g>
</g>
<g id="_x2014_ÎÓÈ_x5F_6">
	<g>
		<path class="st1" d="M233.1,1152.6H53.5V909.1c0-10.5,8.5-19,19-19h141.6c10.5,0,19,8.5,19,19V1152.6z"/>
		<g>
			<path class="st2" d="M233.1,1144.2c-1.3,0-2.4-1-2.4-2.3V911.7c0-10.7-8.9-19.3-19.9-19.3H75.8c-11,0-19.9,8.7-19.9,19.3v230.1
				c0,1.3-1.1,2.3-2.4,2.3c-1.3,0-2.4-1-2.4-2.3V911.7c0-13.2,11.1-24,24.7-24h135.1c13.6,0,24.7,10.7,24.7,24v230.1
				C235.5,1143.1,234.4,1144.2,233.1,1144.2z"/>
		</g>
		<g>
			<path class="st2" d="M223.2,1144.3c-1.3,0-2.4-1-2.4-2.3V929.2h-155v212.6c0,1.3-1.1,2.3-2.4,2.3c-1.3,0-2.4-1-2.4-2.3V926.9
				c0-1.3,1.1-2.3,2.4-2.3h159.7c1.3,0,2.4,1,2.4,2.3V1142C225.6,1143.3,224.5,1144.3,223.2,1144.3z"/>
		</g>
		<g>
			<path class="st2" d="M158.8,913.6h-31.1c-3,0-5.4-2.3-5.4-5.2v-0.6c0-2.9,2.4-5.2,5.4-5.2h31.1c3,0,5.4,2.3,5.4,5.2v0.6
				C164.2,911.2,161.8,913.6,158.8,913.6z M127.7,907.2c-0.3,0-0.6,0.3-0.6,0.6v0.6c0,0.3,0.3,0.6,0.6,0.6h31.1
				c0.3,0,0.6-0.3,0.6-0.6v-0.6c0-0.3-0.3-0.6-0.6-0.6H127.7z"/>
		</g>
	</g>
	<g>
		<path class="st2" d="M195,1011.5h-38.5c-1.3,0-2.4-1-2.4-2.3v-10.1c0-1.3,1.1-2.3,2.4-2.3s2.4,1,2.4,2.3v7.8h33.7v-32.7h-33.7v8.1
			c0,1.3-1.1,2.3-2.4,2.3s-2.4-1-2.4-2.3v-10.5c0-1.3,1.1-2.3,2.4-2.3H195c1.3,0,2.4,1,2.4,2.3v37.3
			C197.4,1010.5,196.3,1011.5,195,1011.5z"/>
	</g>
	<g>
		<path class="st2" d="M195,1069.2h-25.6c-1.3,0-2.4-1-2.4-2.3s1.1-2.3,2.4-2.3h23.2v-32.7h-33.7v21.4c0,1.3-1.1,2.3-2.4,2.3
			s-2.4-1-2.4-2.3v-23.7c0-1.3,1.1-2.3,2.4-2.3H195c1.3,0,2.4,1,2.4,2.3v37.3C197.4,1068.2,196.3,1069.2,195,1069.2z"/>
	</g>
	<rect x="97.5" y="977.7" class="st4" width="38.5" height="95"/>
	<g>
		<path class="st2" d="M130.1,1069.2H91.6c-1.3,0-2.4-1-2.4-2.3v-18.6c0-1.3,1.1-2.3,2.4-2.3c1.3,0,2.4,1,2.4,2.3v16.3h33.7v-90.4
			H94v45.2c0,1.3-1.1,2.3-2.4,2.3c-1.3,0-2.4-1-2.4-2.3v-47.5c0-1.3,1.1-2.3,2.4-2.3h38.5c1.3,0,2.4,1,2.4,2.3v95
			C132.5,1068.2,131.4,1069.2,130.1,1069.2z"/>
	</g>
	<g>
		<g>
			<path class="st2" d="M169.4,1101.1h-52.2c-1.3,0-2.4-1-2.4-2.3c0-1.3,1.1-2.3,2.4-2.3h52.2c1.3,0,2.4,1,2.4,2.3
				C171.8,1100.1,170.7,1101.1,169.4,1101.1z"/>
		</g>
		<g>
			<path class="st2" d="M169.4,1111.5h-23.6c-1.3,0-2.4-1-2.4-2.3s1.1-2.3,2.4-2.3h23.6c1.3,0,2.4,1,2.4,2.3
				S170.7,1111.5,169.4,1111.5z"/>
		</g>
		<g>
			<path class="st2" d="M130.1,1111.5h-12.9c-1.3,0-2.4-1-2.4-2.3s1.1-2.3,2.4-2.3h12.9c1.3,0,2.4,1,2.4,2.3
				S131.4,1111.5,130.1,1111.5z"/>
		</g>
	</g>
</g>
<g id="_x2014_ÎÓÈ_x5F_7">
	<g id="XMLID_95_">
		<rect x="369.7" y="662.6" class="st5" width="211.4" height="488.7"/>
		<rect x="581.1" y="771.3" class="st5" width="211.4" height="380"/>
		<path class="st1" d="M774.2,1151.3h-386V596.7c0-22.6,18.3-40.9,40.9-40.9h304.2c22.6,0,40.9,18.3,40.9,40.9V1151.3z"/>
		<g>
			<path class="st2" d="M774.2,1146.2c-1.3,0-2.4-1-2.4-2.3V602.3c0-24.4-20.4-44.2-45.5-44.2H436.1c-25.1,0-45.5,19.8-45.5,44.2
				v541.6c0,1.3-1.1,2.3-2.4,2.3c-1.3,0-2.4-1-2.4-2.3V602.3c0-26.9,22.6-48.8,50.3-48.8h290.2c27.7,0,50.3,21.9,50.3,48.8v541.6
				C776.6,1145.2,775.5,1146.2,774.2,1146.2z"/>
		</g>
		<g>
			<path class="st2" d="M409.6,1146.2c-1.3,0-2.4-1-2.4-2.3V635c0-1.3,1.1-2.3,2.4-2.3h343.2c1.3,0,2.4,1,2.4,2.3v507.4
				c0,1.3-1.1,2.3-2.4,2.3c-1.3,0-2.4-1-2.4-2.3V637.3H412v506.6C412,1145.2,410.9,1146.2,409.6,1146.2z"/>
		</g>
		<g>
			<path class="st2" d="M613.8,603.7h-65.5c-5.2,0-9.5-4.1-9.5-9.2c0-5.1,4.3-9.2,9.5-9.2h65.5c5.2,0,9.5,4.1,9.5,9.2
				C623.3,599.5,619.1,603.7,613.8,603.7z M548.3,589.9c-2.6,0-4.7,2.1-4.7,4.6s2.1,4.6,4.7,4.6h65.5c2.6,0,4.7-2.1,4.7-4.6
				s-2.1-4.6-4.7-4.6H548.3z"/>
		</g>
	</g>
	<g>
		<g>
			<path class="st2" d="M616.8,1105.2c-7.2,0-13.1-5.7-13.1-12.7c0-7,5.9-12.7,13.1-12.7c7.2,0,13.1,5.7,13.1,12.7
				C629.9,1099.5,624,1105.2,616.8,1105.2z M616.8,1084.4c-4.6,0-8.3,3.6-8.3,8.1s3.7,8.1,8.3,8.1c4.6,0,8.3-3.6,8.3-8.1
				S621.4,1084.4,616.8,1084.4z"/>
		</g>
		<ellipse class="st2" cx="581.2" cy="1092.5" rx="11.9" ry="11.5"/>
		<g>
			<path class="st2" d="M545.6,1105.2c-7.2,0-13.1-5.7-13.1-12.7c0-7,5.9-12.7,13.1-12.7c7.2,0,13.1,5.7,13.1,12.7
				C558.6,1099.5,552.8,1105.2,545.6,1105.2z M545.6,1084.4c-4.6,0-8.3,3.6-8.3,8.1s3.7,8.1,8.3,8.1c4.6,0,8.3-3.6,8.3-8.1
				S550.2,1084.4,545.6,1084.4z"/>
		</g>
	</g>
	<g>
		<g>
			<path class="st2" d="M628.7,1060.2h-95c-1.3,0-2.4-1-2.4-2.3c0-1.3,1.1-2.3,2.4-2.3h95c1.3,0,2.4,1,2.4,2.3
				C631.1,1059.2,630,1060.2,628.7,1060.2z"/>
		</g>
		<g>
			<path class="st2" d="M647.3,1022.9H515c-1.3,0-2.4-1-2.4-2.3c0-1.3,1.1-2.3,2.4-2.3h132.3c1.3,0,2.4,1,2.4,2.3
				C649.7,1021.9,648.7,1022.9,647.3,1022.9z"/>
		</g>
	</g>
	<g>
		<g>
			<path class="st2" d="M677.6,839.9H484.7c-1.3,0-2.4-1-2.4-2.3c0-1.3,1.1-2.3,2.4-2.3h192.9c1.3,0,2.4,1,2.4,2.3
				C680,838.9,679,839.9,677.6,839.9z"/>
		</g>
		<g>
			<path class="st2" d="M565.9,874.6h-81.2c-1.3,0-2.4-1-2.4-2.3c0-1.3,1.1-2.3,2.4-2.3h81.2c1.3,0,2.4,1,2.4,2.3
				C568.3,873.5,567.2,874.6,565.9,874.6z"/>
		</g>
		<g>
			<path class="st2" d="M677.6,874.6h-79.9c-1.3,0-2.4-1-2.4-2.3c0-1.3,1.1-2.3,2.4-2.3h79.9c1.3,0,2.4,1,2.4,2.3
				C680,873.5,679,874.6,677.6,874.6z"/>
		</g>
	</g>
	<g>
		<path class="st2" d="M649.3,980.3H482.5c-1.3,0-2.4-1-2.4-2.3v-61.1c0-1.3,1.1-2.3,2.4-2.3h197.4c1.3,0,2.4,1,2.4,2.3v37.9
			c0,1.3-1.1,2.3-2.4,2.3s-2.4-1-2.4-2.3v-35.6H484.9v56.5h164.5c1.3,0,2.4,1,2.4,2.3C651.7,979.3,650.6,980.3,649.3,980.3z"/>
	</g>
	<g>
		<polygon class="st6" points="684.8,820.3 489.8,790.3 499.7,730 694.6,760 		"/>
		<g>
			<path class="st2" d="M673.4,810.3c-0.1,0-0.2,0-0.4,0l-155.4-23.9c-1.3-0.2-2.2-1.4-2-2.6c0.2-1.3,1.4-2.1,2.7-1.9l153.1,23.6
				l9.1-55.8l-190.3-29.3l-6.5,40.1c-0.2,1.3-1.4,2.1-2.7,1.9c-1.3-0.2-2.2-1.4-2-2.6l6.9-42.4c0.2-1.3,1.4-2.1,2.7-1.9l195,30
				c0.6,0.1,1.2,0.4,1.6,0.9c0.4,0.5,0.5,1.1,0.4,1.7l-9.8,60.3c-0.1,0.6-0.4,1.1-0.9,1.5C674.4,810.2,673.9,810.3,673.4,810.3z"/>
		</g>
	</g>
</g>
<g id="_x2014_ÎÓÈ_x5F_8">
	<g>
		<g>
			<g>
				<path class="st2" d="M1010.2,1122.1H994c-1.3,0-2.4-1-2.4-2.3c0-1.3,1.1-2.3,2.4-2.3h16.2c1.3,0,2.4,1,2.4,2.3
					C1012.6,1121.1,1011.5,1122.1,1010.2,1122.1z"/>
			</g>
			<g>
				<path class="st2" d="M1028.7,1029.8H994c-1.3,0-2.4-1-2.4-2.3s1.1-2.3,2.4-2.3h34.7c1.3,0,2.4,1,2.4,2.3
					S1030,1029.8,1028.7,1029.8z"/>
			</g>
			<g>
				<path class="st2" d="M1040.6,1076h-34.7c-1.3,0-2.4-1-2.4-2.3s1.1-2.3,2.4-2.3h34.7c1.3,0,2.4,1,2.4,2.3
					S1041.9,1076,1040.6,1076z"/>
			</g>
			<g>
				<path class="st2" d="M1010.2,983.7H994c-1.3,0-2.4-1-2.4-2.3c0-1.3,1.1-2.3,2.4-2.3h16.2c1.3,0,2.4,1,2.4,2.3
					C1012.6,982.7,1011.5,983.7,1010.2,983.7z"/>
			</g>
			<g>
				<path class="st2" d="M1040.6,937.6H994c-1.3,0-2.4-1-2.4-2.3c0-1.3,1.1-2.3,2.4-2.3h46.6c1.3,0,2.4,1,2.4,2.3
					C1043,936.5,1041.9,937.6,1040.6,937.6z"/>
			</g>
			<g>
				<path class="st2" d="M1040.6,891.5H994c-1.3,0-2.4-1-2.4-2.3s1.1-2.3,2.4-2.3h46.6c1.3,0,2.4,1,2.4,2.3
					S1041.9,891.5,1040.6,891.5z"/>
			</g>
			<g>
				<path class="st2" d="M1040.6,845.3H994c-1.3,0-2.4-1-2.4-2.3c0-1.3,1.1-2.3,2.4-2.3h46.6c1.3,0,2.4,1,2.4,2.3
					C1043,844.3,1041.9,845.3,1040.6,845.3z"/>
			</g>
			<g>
				<path class="st2" d="M1040.6,799.2H994c-1.3,0-2.4-1-2.4-2.3c0-1.3,1.1-2.3,2.4-2.3h46.6c1.3,0,2.4,1,2.4,2.3
					C1043,798.2,1041.9,799.2,1040.6,799.2z"/>
			</g>
			<g>
				<path class="st2" d="M1040.6,753.1H994c-1.3,0-2.4-1-2.4-2.3s1.1-2.3,2.4-2.3h46.6c1.3,0,2.4,1,2.4,2.3
					S1041.9,753.1,1040.6,753.1z"/>
			</g>
			<g>
				<path class="st2" d="M1027.2,706.9h-19.5c-1.3,0-2.4-1-2.4-2.3c0-1.3,1.1-2.3,2.4-2.3h19.5c1.3,0,2.4,1,2.4,2.3
					C1029.6,705.9,1028.6,706.9,1027.2,706.9z"/>
			</g>
			<g>
				<path class="st2" d="M1007.7,706.9H994c-1.3,0-2.4-1-2.4-2.3c0-1.3,1.1-2.3,2.4-2.3h13.7c1.3,0,2.4,1,2.4,2.3
					C1010.1,705.9,1009,706.9,1007.7,706.9z"/>
			</g>
			<g>
				<path class="st2" d="M1040.6,660.8H994c-1.3,0-2.4-1-2.4-2.3c0-1.3,1.1-2.3,2.4-2.3h46.6c1.3,0,2.4,1,2.4,2.3
					C1043,659.8,1041.9,660.8,1040.6,660.8z"/>
			</g>
			<g>
				<path class="st2" d="M1022.2,614.7H994c-1.3,0-2.4-1-2.4-2.3s1.1-2.3,2.4-2.3h28.2c1.3,0,2.4,1,2.4,2.3
					S1023.5,614.7,1022.2,614.7z"/>
			</g>
			<g>
				<path class="st2" d="M1040.6,568.5h-14.8c-1.3,0-2.4-1-2.4-2.3c0-1.3,1.1-2.3,2.4-2.3h14.8c1.3,0,2.4,1,2.4,2.3
					C1043,567.5,1041.9,568.5,1040.6,568.5z"/>
			</g>
			<g>
				<path class="st2" d="M1011,568.5H994c-1.3,0-2.4-1-2.4-2.3c0-1.3,1.1-2.3,2.4-2.3h16.9c1.3,0,2.4,1,2.4,2.3
					C1013.4,567.5,1012.3,568.5,1011,568.5z"/>
			</g>
			<g>
				<path class="st2" d="M1040.6,522.4H994c-1.3,0-2.4-1-2.4-2.3c0-1.3,1.1-2.3,2.4-2.3h46.6c1.3,0,2.4,1,2.4,2.3
					C1043,521.4,1041.9,522.4,1040.6,522.4z"/>
			</g>
			<g>
				<path class="st2" d="M1040.6,476.3h-29.9c-1.3,0-2.4-1-2.4-2.3s1.1-2.3,2.4-2.3h29.9c1.3,0,2.4,1,2.4,2.3
					S1041.9,476.3,1040.6,476.3z"/>
			</g>
			<g>
				<path class="st2" d="M1040.6,430.1H994c-1.3,0-2.4-1-2.4-2.3s1.1-2.3,2.4-2.3h46.6c1.3,0,2.4,1,2.4,2.3
					S1041.9,430.1,1040.6,430.1z"/>
			</g>
			<g>
				<path class="st2" d="M1010.7,446.6c-0.6,0-1.2-0.2-1.7-0.7l-16.6-16.5c-0.9-0.9-0.9-2.4,0-3.3c0.9-0.9,2.4-0.9,3.4,0l16.6,16.5
					c0.9,0.9,0.9,2.4,0,3.3C1011.9,446.4,1011.3,446.6,1010.7,446.6z"/>
			</g>
			<g>
				<path class="st2" d="M1011,539.2c-0.6,0-1.2-0.2-1.7-0.7l-16.9-16.8c-0.9-0.9-0.9-2.3,0-3.2l44.9-44.5l-16.8-16.6
					c-0.9-0.9-0.9-2.4,0-3.3c0.9-0.9,2.4-0.9,3.4,0l18.4,18.2c0.9,0.9,0.9,2.3,0,3.2l-44.9,44.5l15.3,15.2c0.9,0.9,0.9,2.4,0,3.3
					C1012.2,539,1011.6,539.2,1011,539.2z"/>
			</g>
			<g>
				<path class="st2" d="M1007.7,628.2c-0.6,0-1.2-0.2-1.7-0.7L992.3,614c-0.9-0.9-0.9-2.3,0-3.2l44.9-44.5l-13.2-13.1
					c-0.9-0.9-0.9-2.4,0-3.3c0.9-0.9,2.4-0.9,3.4,0l14.8,14.7c0.9,0.9,0.9,2.3,0,3.2l-44.9,44.5l12.1,11.9c0.9,0.9,0.9,2.4,0,3.3
					C1008.9,628,1008.3,628.2,1007.7,628.2z"/>
			</g>
			<g>
				<path class="st2" d="M1005.1,788.2c-0.6,0-1.2-0.2-1.7-0.7c-0.9-0.9-1-2.4,0-3.3l33.9-33.6l-44.9-44.5c-0.9-0.9-0.9-2.3,0-3.2
					l44.9-44.5l-18-17.9c-0.9-0.9-0.9-2.4,0-3.3c0.9-0.9,2.4-0.9,3.4,0l19.7,19.5c0.9,0.9,0.9,2.3,0,3.2l-44.9,44.5l44.9,44.5
					c0.9,0.9,0.9,2.3,0,3.2l-35.5,35.2C1006.3,788,1005.7,788.2,1005.1,788.2z"/>
			</g>
			<g>
				<path class="st2" d="M1027.2,832.1c-0.6,0-1.2-0.2-1.7-0.7l-33.2-32.9c-0.9-0.9-0.9-2.3,0-3.2l6.1-6c0.9-0.9,2.4-0.9,3.4,0
					c0.9,0.9,1,2.4,0,3.3l-4.4,4.4l31.6,31.3c0.9,0.9,0.9,2.4,0,3.3C1028.4,831.9,1027.8,832.1,1027.2,832.1z"/>
			</g>
			<g>
				<path class="st2" d="M1010.2,967.7c-0.6,0-1.2-0.2-1.7-0.7c-0.9-0.9-1-2.4,0-3.3l28.8-28.5l-44.9-44.5c-0.9-0.9-0.9-2.3,0-3.2
					l34.7-34.4c0.9-0.9,2.4-0.9,3.4,0c0.9,0.9,1,2.4,0,3.3l-33.1,32.8l44.9,44.5c0.9,0.9,0.9,2.3,0,3.2l-30.4,30.1
					C1011.4,967.5,1010.8,967.7,1010.2,967.7z"/>
			</g>
			<g>
				<path class="st2" d="M1029.4,1040.9c-0.6,0-1.2-0.2-1.7-0.7c-0.9-0.9-1-2.4,0-3.3l9.6-9.5l-31.6-31.3c-0.9-0.9-0.9-2.4,0-3.3
					c0.9-0.9,2.4-0.9,3.4,0l33.2,32.9c0.9,0.9,0.9,2.3,0,3.2l-11.2,11.1C1030.6,1040.7,1030,1040.9,1029.4,1040.9z"/>
			</g>
			<g>
				<path class="st2" d="M1009.4,1091.2c-0.6,0-1.2-0.2-1.7-0.7l-15.3-15.2c-0.9-0.9-0.9-2.3,0-3.2l19-18.8c0.9-0.9,2.4-0.9,3.4,0
					c0.9,0.9,1,2.4,0,3.3l-17.4,17.2l13.7,13.6c0.9,0.9,0.9,2.4,0,3.3C1010.6,1090.9,1010,1091.2,1009.4,1091.2z"/>
			</g>
			<g>
				<path class="st2" d="M1040.6,1122.1c-0.6,0-1.2-0.2-1.7-0.7l-18.5-18.4c-0.9-0.9-0.9-2.4,0-3.3c0.9-0.9,2.4-0.9,3.4,0l18.5,18.4
					c0.9,0.9,0.9,2.4,0,3.3C1041.8,1121.9,1041.2,1122.1,1040.6,1122.1z"/>
			</g>
			<g>
				<path class="st2" d="M994,1122.1c-0.6,0-1.2-0.2-1.7-0.7c-0.9-0.9-0.9-2.4,0-3.3l44.9-44.1l-44.9-44.9c-0.9-0.9-0.9-2.4,0-3.3
					c0.9-0.9,2.4-0.9,3.4,0l46.6,46.5c0.9,0.9,0.9,2.3,0,3.2l-46.6,45.7C995.3,1121.9,994.6,1122.1,994,1122.1z"/>
			</g>
			<g>
				<path class="st2" d="M1033.2,515.5c-0.6,0-1.2-0.2-1.7-0.7l-39.6-39.3c-0.9-0.9-0.9-2.3,0-3.2l46.6-46.1c0.9-0.9,2.4-0.9,3.4,0
					c0.9,0.9,1,2.4,0,3.3L996.9,474l38,37.7c0.9,0.9,0.9,2.4,0,3.3C1034.4,515.3,1033.8,515.5,1033.2,515.5z"/>
			</g>
			<g>
				<path class="st2" d="M1004.2,671.4c-0.6,0-1.2-0.2-1.7-0.7l-10.7-10.6c-0.9-0.9-0.9-2.3,0-3.2l44.9-44.5l-44.9-44.5
					c-0.9-0.9-0.9-2.3,0-3.2l32.2-31.9c0.9-0.9,2.4-0.9,3.4,0c0.9,0.9,1,2.4,0,3.3l-30.6,30.3l44.9,44.5c0.9,0.9,0.9,2.3,0,3.2
					l-44.9,44.5l9,9c0.9,0.9,0.9,2.4,0,3.3C1005.4,671.2,1004.8,671.4,1004.2,671.4z"/>
			</g>
			<g>
				<path class="st2" d="M1031,716c-0.6,0-1.2-0.2-1.7-0.7c-0.9-0.9-1-2.4,0-3.3l7.5-7.4l-23.1-22.9c-0.9-0.9-0.9-2.4,0-3.3
					c0.9-0.9,2.4-0.9,3.4,0l24.7,24.5c0.9,0.9,0.9,2.3,0,3.2l-9.1,9C1032.2,715.7,1031.6,716,1031,716z"/>
			</g>
			<g>
				<path class="st2" d="M1009.6,769c-0.6,0-1.2-0.2-1.7-0.7l-16.1-15.9c-0.9-0.9-0.9-2.3,0-3.2l28.6-28.4c0.9-0.9,2.4-0.9,3.4,0
					c0.9,0.9,1,2.4,0,3.3l-27,26.8l14.5,14.3c0.9,0.9,0.9,2.4,0,3.3C1010.8,768.8,1010.2,769,1009.6,769z"/>
			</g>
			<g>
				<path class="st2" d="M1032.3,899.2c-0.6,0-1.2-0.2-1.7-0.7c-0.9-0.9-1-2.4,0-3.3l6.2-6.1l-44.9-44.5c-0.9-0.9-0.9-2.3,0-3.2
					l44.9-44.5l-13.7-13.6c-0.9-0.9-0.9-2.4,0-3.3c0.9-0.9,2.4-0.9,3.4,0l15.3,15.2c0.9,0.9,0.9,2.3,0,3.2L996.9,843l44.9,44.5
					c0.9,0.9,0.9,2.3,0,3.2l-7.8,7.7C1033.5,899,1032.9,899.2,1032.3,899.2z"/>
			</g>
			<g>
				<path class="st2" d="M993.6,1029.8c-0.6,0-1.2-0.2-1.7-0.7c-0.9-0.9-1-2.4,0-3.3l44.9-44.5l-44.9-44.5c-0.9-0.9-0.9-2.3,0-3.2
					l13.1-13c0.9-0.9,2.4-0.9,3.4,0c0.9,0.9,1,2.4,0,3.3l-11.5,11.4l44.9,44.5c0.9,0.9,0.9,2.3,0,3.2l-46.6,46.1
					C994.8,1029.6,994.2,1029.8,993.6,1029.8z"/>
			</g>
			<g>
				<path class="st2" d="M993.6,867c-1.3,0-2.4-1-2.4-2.3V652.1c0-1.3,1.1-2.3,2.4-2.3s2.4,1,2.4,2.3v212.6
					C995.9,866,994.9,867,993.6,867z"/>
			</g>
			<g>
				<path class="st2" d="M993.6,632.5c-1.3,0-2.4-1-2.4-2.3V505.6c0-1.3,1.1-2.3,2.4-2.3s2.4,1,2.4,2.3v124.6
					C995.9,631.5,994.9,632.5,993.6,632.5z"/>
			</g>
			<g>
				<path class="st2" d="M1041.1,538.7c-1.3,0-2.4-1-2.4-2.3V430.1h-42.8v58.2c0,1.3-1.1,2.3-2.4,2.3s-2.4-1-2.4-2.3v-60.5
					c0-1.3,1.1-2.3,2.4-2.3h47.5c1.3,0,2.4,1,2.4,2.3v108.6C1043.4,537.7,1042.4,538.7,1041.1,538.7z"/>
			</g>
			<g>
				<path class="st2" d="M1041.1,724.7c-1.3,0-2.4-1-2.4-2.3V548.5c0-1.3,1.1-2.3,2.4-2.3c1.3,0,2.4,1,2.4,2.3v173.9
					C1043.4,723.7,1042.4,724.7,1041.1,724.7z"/>
			</g>
			<g>
				<path class="st2" d="M1041.1,958.9c-1.3,0-2.4-1-2.4-2.3v-212c0-1.3,1.1-2.3,2.4-2.3c1.3,0,2.4,1,2.4,2.3v212
					C1043.4,957.8,1042.4,958.9,1041.1,958.9z"/>
			</g>
			<g>
				<path class="st2" d="M1041.1,1122.9c-1.3,0-2.4-1-2.4-2.3V974.9c0-1.3,1.1-2.3,2.4-2.3c1.3,0,2.4,1,2.4,2.3v145.7
					C1043.4,1121.8,1042.4,1122.9,1041.1,1122.9z"/>
			</g>
			<g>
				<path class="st2" d="M993.6,1123.6c-1.3,0-2.4-1-2.4-2.3v-10.5c0-1.3,1.1-2.3,2.4-2.3s2.4,1,2.4,2.3v10.5
					C995.9,1122.5,994.9,1123.6,993.6,1123.6z"/>
			</g>
			<g>
				<path class="st2" d="M993.6,1097.3c-1.3,0-2.4-1-2.4-2.3V884.3c0-1.3,1.1-2.3,2.4-2.3s2.4,1,2.4,2.3V1095
					C995.9,1096.2,994.9,1097.3,993.6,1097.3z"/>
			</g>
		</g>
		<g>
			<g>
				<path class="st2" d="M1183.7,429.7c-1.3,0-2.4-1-2.4-2.3v-44.7c0-1.3,1.1-2.3,2.4-2.3s2.4,1,2.4,2.3v44.7
					C1186.1,428.7,1185,429.7,1183.7,429.7z"/>
			</g>
			<g>
				<path class="st2" d="M1136.2,429.7c-1.3,0-2.4-1-2.4-2.3v-45.2c0-1.3,1.1-2.3,2.4-2.3s2.4,1,2.4,2.3v45.2
					C1138.6,428.7,1137.5,429.7,1136.2,429.7z"/>
			</g>
			<g>
				<path class="st2" d="M1088.7,429.7c-1.3,0-2.4-1-2.4-2.3v-45.2c0-1.3,1.1-2.3,2.4-2.3s2.4,1,2.4,2.3v45.2
					C1091.1,428.7,1090,429.7,1088.7,429.7z"/>
			</g>
			<g>
				<path class="st2" d="M1041.2,429.7c-1.3,0-2.4-1-2.4-2.3v-45.2c0-1.3,1.1-2.3,2.4-2.3c1.3,0,2.4,1,2.4,2.3v45.2
					C1043.6,428.7,1042.5,429.7,1041.2,429.7z"/>
			</g>
			<g>
				<path class="st2" d="M993.7,429.7c-1.3,0-2.4-1-2.4-2.3v-45.2c0-1.3,1.1-2.3,2.4-2.3c1.3,0,2.4,1,2.4,2.3v45.2
					C996.1,428.7,995,429.7,993.7,429.7z"/>
			</g>
			<g>
				<path class="st2" d="M946.2,429.7c-1.3,0-2.4-1-2.4-2.3v-45.2c0-1.3,1.1-2.3,2.4-2.3c1.3,0,2.4,1,2.4,2.3v45.2
					C948.6,428.7,947.5,429.7,946.2,429.7z"/>
			</g>
			<g>
				<path class="st2" d="M898.7,416.4c-1.3,0-2.4-1-2.4-2.3v-19c0-1.3,1.1-2.3,2.4-2.3c1.3,0,2.4,1,2.4,2.3v19
					C901.1,415.4,900,416.4,898.7,416.4z"/>
			</g>
			<g>
				<path class="st2" d="M898.7,429.7c-1.3,0-2.4-1-2.4-2.3v-13.3c0-1.3,1.1-2.3,2.4-2.3c1.3,0,2.4,1,2.4,2.3v13.3
					C901.1,428.7,900,429.7,898.7,429.7z"/>
			</g>
			<g>
				<path class="st2" d="M851.2,429.7c-1.3,0-2.4-1-2.4-2.3v-45.2c0-1.3,1.1-2.3,2.4-2.3c1.3,0,2.4,1,2.4,2.3v45.2
					C853.6,428.7,852.5,429.7,851.2,429.7z"/>
			</g>
			<g>
				<path class="st2" d="M803.7,429.7c-1.3,0-2.4-1-2.4-2.3V400c0-1.3,1.1-2.3,2.4-2.3c1.3,0,2.4,1,2.4,2.3v27.3
					C806.1,428.7,805,429.7,803.7,429.7z"/>
			</g>
			<g>
				<path class="st2" d="M756.2,398.9c-1.3,0-2.4-1-2.4-2.3v-14.4c0-1.3,1.1-2.3,2.4-2.3c1.3,0,2.4,1,2.4,2.3v14.4
					C758.6,397.8,757.5,398.9,756.2,398.9z"/>
			</g>
			<g>
				<path class="st2" d="M756.2,429.7c-1.3,0-2.4-1-2.4-2.3v-16.5c0-1.3,1.1-2.3,2.4-2.3c1.3,0,2.4,1,2.4,2.3v16.5
					C758.6,428.7,757.5,429.7,756.2,429.7z"/>
			</g>
			<g>
				<path class="st2" d="M708.7,429.7c-1.3,0-2.4-1-2.4-2.3v-45.2c0-1.3,1.1-2.3,2.4-2.3c1.3,0,2.4,1,2.4,2.3v45.2
					C711.1,428.7,710,429.7,708.7,429.7z"/>
			</g>
			<g>
				<path class="st2" d="M661.2,413.5c-1.3,0-2.4-1-2.4-2.3v-29.1c0-1.3,1.1-2.3,2.4-2.3c1.3,0,2.4,1,2.4,2.3v29.1
					C663.6,412.5,662.5,413.5,661.2,413.5z"/>
			</g>
			<g>
				<path class="st2" d="M613.7,429.7c-1.3,0-2.4-1-2.4-2.3v-45.2c0-1.3,1.1-2.3,2.4-2.3c1.3,0,2.4,1,2.4,2.3v45.2
					C616.1,428.7,615,429.7,613.7,429.7z"/>
			</g>
			<g>
				<path class="st2" d="M613.7,429.7c-0.6,0-1.2-0.2-1.7-0.7c-0.9-0.9-0.9-2.4,0-3.3l17-16.1c0.9-0.9,2.4-0.9,3.4,0
					c0.9,0.9,0.9,2.4,0,3.3l-17,16.1C614.9,429.5,614.3,429.7,613.7,429.7z"/>
			</g>
			<g>
				<path class="st2" d="M708.7,429.7c-0.6,0-1.2-0.2-1.7-0.7l-45.8-43.6l-17.1,16.3c-0.9,0.9-2.4,0.9-3.4,0c-0.9-0.9-0.9-2.4,0-3.3
					l18.8-17.9c0.9-0.9,2.4-0.9,3.3,0l45.8,43.6l15.6-14.9c0.9-0.9,2.4-0.9,3.4,0c0.9,0.9,0.9,2.4,0,3.3L710.4,429
					C709.9,429.5,709.3,429.7,708.7,429.7z"/>
			</g>
			<g>
				<path class="st2" d="M803.7,429.7c-0.6,0-1.2-0.2-1.7-0.7l-45.8-43.6l-13.4,12.8c-0.9,0.9-2.4,0.9-3.4,0c-0.9-0.9-0.9-2.4,0-3.3
					l15.1-14.4c0.9-0.9,2.4-0.9,3.3,0l45.8,43.6l12.3-11.7c0.9-0.9,2.4-0.9,3.4,0c0.9,0.9,0.9,2.4,0,3.3l-14,13.3
					C804.9,429.5,804.3,429.7,803.7,429.7z"/>
			</g>
			<g>
				<path class="st2" d="M898.7,429.7c-0.6,0-1.2-0.2-1.7-0.7l-45.8-43.6l-18.4,17.5c-0.9,0.9-2.4,0.9-3.4,0c-0.9-0.9-0.9-2.4,0-3.3
					l20.1-19.1c0.9-0.9,2.4-0.9,3.3,0l45.8,43.6l45.8-43.6c0.9-0.9,2.4-0.9,3.3,0l36.2,34.5c0.9,0.9,1,2.4,0,3.3
					c-0.9,0.9-2.4,0.9-3.4,0l-34.6-32.9L900.4,429C899.9,429.5,899.3,429.7,898.7,429.7z"/>
			</g>
			<g>
				<path class="st2" d="M993.7,429.7c-0.6,0-1.2-0.2-1.7-0.7l-6.2-5.9c-0.9-0.9-1-2.4,0-3.3c0.9-0.9,2.4-0.9,3.4,0l4.5,4.3
					l32.2-30.7c0.9-0.9,2.4-0.9,3.4,0c0.9,0.9,0.9,2.4,0,3.3L995.4,429C994.9,429.5,994.3,429.7,993.7,429.7z"/>
			</g>
			<g>
				<path class="st2" d="M1088.7,429.7c-0.6,0-1.2-0.2-1.7-0.7l-35.4-33.7c-0.9-0.9-1-2.4,0-3.3c0.9-0.9,2.4-0.9,3.4,0l33.8,32.1
					l45.8-43.6c0.9-0.9,2.4-0.9,3.3,0l31,29.5c0.9,0.9,1,2.4,0,3.3c-0.9,0.9-2.4,0.9-3.4,0l-29.4-27.9l-45.8,43.6
					C1089.9,429.5,1089.3,429.7,1088.7,429.7z"/>
			</g>
			<g>
				<path class="st2" d="M661.2,430.1c-0.6,0-1.2-0.2-1.7-0.7L612,384.3c-0.9-0.9-1-2.4,0-3.3c0.9-0.9,2.4-0.9,3.4,0l45.8,43.6
					l38.8-36.9c0.9-0.9,2.4-0.9,3.4,0c0.9,0.9,0.9,2.4,0,3.3l-40.4,38.5C662.4,429.9,661.8,430.1,661.2,430.1z"/>
			</g>
			<g>
				<path class="st2" d="M851.2,430.1c-0.6,0-1.2-0.2-1.7-0.7l-45.8-43.6l-45.8,43.6c-0.9,0.9-2.4,0.9-3.3,0l-32.9-31.3
					c-0.9-0.9-1-2.4,0-3.3c0.9-0.9,2.4-0.9,3.4,0l31.2,29.7L802,381c0.9-0.9,2.4-0.9,3.3,0l45.8,43.6l9.2-8.8c0.9-0.9,2.4-0.9,3.4,0
					c0.9,0.9,0.9,2.4,0,3.3l-10.9,10.4C852.4,429.9,851.8,430.1,851.2,430.1z"/>
			</g>
			<g>
				<path class="st2" d="M873.5,408.9c-0.6,0-1.2-0.2-1.7-0.7c-0.9-0.9-0.9-2.4,0-3.3l25.2-24c0.9-0.9,2.4-0.9,3.3,0l9.3,8.8
					c0.9,0.9,1,2.4,0,3.3c-0.9,0.9-2.4,0.9-3.4,0l-7.6-7.3l-23.6,22.4C874.7,408.7,874.1,408.9,873.5,408.9z"/>
			</g>
			<g>
				<path class="st2" d="M946.2,430.1c-0.6,0-1.2-0.2-1.7-0.7l-29.2-27.8c-0.9-0.9-1-2.4,0-3.3c0.9-0.9,2.4-0.9,3.4,0l27.6,26.2
					l14.8-14c0.9-0.9,2.4-0.9,3.4,0c0.9,0.9,0.9,2.4,0,3.3l-16.4,15.6C947.4,429.9,946.8,430.1,946.2,430.1z"/>
			</g>
			<g>
				<path class="st2" d="M1041.2,430.1c-0.6,0-1.2-0.2-1.7-0.7l-45.8-43.6l-14,13.3c-0.9,0.9-2.4,0.9-3.4,0c-0.9-0.9-0.9-2.4,0-3.3
					l15.6-14.9c0.9-0.9,2.4-0.9,3.3,0l45.8,43.6l45.8-43.6c0.9-0.9,2.4-0.9,3.3,0l8,7.6c0.9,0.9,1,2.4,0,3.3c-0.9,0.9-2.4,0.9-3.4,0
					l-6.3-6l-45.8,43.6C1042.4,429.9,1041.8,430.1,1041.2,430.1z"/>
			</g>
			<g>
				<path class="st2" d="M1136.2,430.1c-0.6,0-1.2-0.2-1.7-0.7l-13.4-12.8c-0.9-0.9-1-2.4,0-3.3c0.9-0.9,2.4-0.9,3.4,0l11.7,11.2
					l45.8-43.6c0.9-0.9,2.4-0.9,3.4,0c0.9,0.9,0.9,2.4,0,3.3l-47.5,45.2C1137.4,429.9,1136.8,430.1,1136.2,430.1z"/>
			</g>
			<g>
				<path class="st2" d="M1063.5,430.1H844.6c-1.3,0-2.4-1-2.4-2.3s1.1-2.3,2.4-2.3h218.9c1.3,0,2.4,1,2.4,2.3
					S1064.8,430.1,1063.5,430.1z"/>
			</g>
			<g>
				<path class="st2" d="M822.1,430.1H693.8c-1.3,0-2.4-1-2.4-2.3s1.1-2.3,2.4-2.3h128.3c1.3,0,2.4,1,2.4,2.3
					S823.4,430.1,822.1,430.1z"/>
			</g>
			<g>
				<path class="st2" d="M613.7,430.1c-1.3,0-2.4-1-2.4-2.3v-46.1c0-1.3,1.1-2.3,2.4-2.3h111.8c1.3,0,2.4,1,2.4,2.3
					c0,1.3-1.1,2.3-2.4,2.3H616.1v43.8C616.1,429.1,615,430.1,613.7,430.1z"/>
			</g>
			<g>
				<path class="st2" d="M917,384H737.9c-1.3,0-2.4-1-2.4-2.3c0-1.3,1.1-2.3,2.4-2.3H917c1.3,0,2.4,1,2.4,2.3
					C919.4,383,918.3,384,917,384z"/>
			</g>
			<g>
				<path class="st2" d="M676,430.1H563.9c-1.3,0-2.4-1-2.4-2.3s1.1-2.3,2.4-2.3H676c1.3,0,2.4,1,2.4,2.3S677.3,430.1,676,430.1z"/>
			</g>
			<g>
				<path class="st2" d="M563.9,731.5c-1.3,0-2.4-1-2.4-2.3V427.8c0-0.6,0.3-1.2,0.7-1.7l49.8-46.1c0.2-0.2,0.4-0.3,0.6-0.4
					l403.5-182.7c1-0.4,2.1-0.2,2.8,0.6l165.9,182.7c0.6,0.7,0.8,1.6,0.4,2.5c-0.4,0.8-1.2,1.4-2.2,1.4H939.8c-1.3,0-2.4-1-2.4-2.3
					c0-1.3,1.1-2.3,2.4-2.3h238l-161.2-177.6L615.1,383.6l-48.8,45.2v300.4C566.2,730.5,565.2,731.5,563.9,731.5z"/>
			</g>
			<g>
				<path class="st2" d="M1083.7,430.1c-1.3,0-2.4-1-2.4-2.3c0-1.3,1.1-2.3,2.4-2.3l100-0.5c0,0,0,0,0,0c1.3,0,2.4,1,2.4,2.3
					c0,1.3-1.1,2.3-2.4,2.3L1083.7,430.1C1083.7,430.1,1083.7,430.1,1083.7,430.1z"/>
			</g>
		</g>
		<g>
			<g>
				<path class="st2" d="M1040.8,338.2h-46.6c-1.3,0-2.4-1-2.4-2.3s1.1-2.3,2.4-2.3h46.6c1.3,0,2.4,1,2.4,2.3
					S1042.1,338.2,1040.8,338.2z"/>
			</g>
			<g>
				<path class="st2" d="M1040.8,292.1h-29.9c-1.3,0-2.4-1-2.4-2.3c0-1.3,1.1-2.3,2.4-2.3h29.9c1.3,0,2.4,1,2.4,2.3
					C1043.1,291.1,1042.1,292.1,1040.8,292.1z"/>
			</g>
			<g>
				<path class="st2" d="M1040.8,246h-46.6c-1.3,0-2.4-1-2.4-2.3c0-1.3,1.1-2.3,2.4-2.3h46.6c1.3,0,2.4,1,2.4,2.3
					C1043.1,245,1042.1,246,1040.8,246z"/>
			</g>
			<g>
				<path class="st2" d="M1010.8,262.5c-0.6,0-1.2-0.2-1.7-0.7l-16.6-16.5c-0.9-0.9-0.9-2.4,0-3.3c0.9-0.9,2.4-0.9,3.4,0l16.6,16.5
					c0.9,0.9,0.9,2.4,0,3.3C1012,262.2,1011.4,262.5,1010.8,262.5z"/>
			</g>
			<g>
				<path class="st2" d="M1011.1,355c-0.6,0-1.2-0.2-1.7-0.7l-16.9-16.8c-0.9-0.9-0.9-2.3,0-3.2l44.9-44.5l-16.8-16.6
					c-0.9-0.9-0.9-2.4,0-3.3c0.9-0.9,2.4-0.9,3.4,0l18.4,18.2c0.9,0.9,0.9,2.3,0,3.2l-44.9,44.5l15.3,15.2c0.9,0.9,0.9,2.4,0,3.3
					C1012.3,354.8,1011.7,355,1011.1,355z"/>
			</g>
			<g>
				<path class="st2" d="M1040.8,384.4c-0.6,0-1.2-0.2-1.7-0.7l-14.8-14.7c-0.9-0.9-0.9-2.4,0-3.3c0.9-0.9,2.4-0.9,3.4,0l14.8,14.7
					c0.9,0.9,0.9,2.4,0,3.3C1042,384.2,1041.4,384.4,1040.8,384.4z"/>
			</g>
			<g>
				<path class="st2" d="M1033.4,331.4c-0.6,0-1.2-0.2-1.7-0.7L992,291.4c-0.9-0.9-0.9-2.3,0-3.2l46.6-46.1c0.9-0.9,2.4-0.9,3.4,0
					c0.9,0.9,1,2.4,0,3.3l-44.9,44.5l38,37.7c0.9,0.9,0.9,2.4,0,3.3C1034.6,331.2,1034,331.4,1033.4,331.4z"/>
			</g>
			<g>
				<path class="st2" d="M993.7,384.4c-0.6,0-1.2-0.2-1.7-0.7c-0.9-0.9-1-2.4,0-3.3l32.2-31.9c0.9-0.9,2.4-0.9,3.4,0
					c0.9,0.9,1,2.4,0,3.3l-32.2,31.9C995,384.1,994.3,384.4,993.7,384.4z"/>
			</g>
			<g>
				<path class="st2" d="M993.7,384.4c-1.3,0-2.4-1-2.4-2.3v-60.6c0-1.3,1.1-2.3,2.4-2.3c1.3,0,2.4,1,2.4,2.3v60.6
					C996.1,383.3,995,384.4,993.7,384.4z"/>
			</g>
			<g>
				<path class="st2" d="M1041.2,385.2c-1.3,0-2.4-1-2.4-2.3V246h-42.8v58.2c0,1.3-1.1,2.3-2.4,2.3c-1.3,0-2.4-1-2.4-2.3v-60.5
					c0-1.3,1.1-2.3,2.4-2.3h47.5c1.3,0,2.4,1,2.4,2.3v139.2C1043.6,384.1,1042.5,385.2,1041.2,385.2z"/>
			</g>
			<g>
				<path class="st2" d="M993.7,246.2c-0.4,0-0.7-0.1-1.1-0.3c-1.2-0.6-1.6-2-1-3.1l23.5-44.9c0.4-0.8,1.2-1.3,2.1-1.3
					c0.9,0,1.7,0.5,2.1,1.2l24,44.9c0.6,1.1,0.1,2.5-1,3.1c-1.2,0.6-2.6,0.1-3.2-1l-21.9-40.9l-21.4,40.9
					C995.4,245.8,994.6,246.2,993.7,246.2z"/>
			</g>
		</g>
	</g>
</g>
<g id="_x2014_ÎÓÈ_x5F_9_x5F_1_x5F_">
	<g id="XMLID_97_">
		<path class="st1" d="M1118.2,1152.3H925V909.3c0-10.8,8.7-19.5,19.5-19.5h154.2c10.8,0,19.5,8.7,19.5,19.5V1152.3z"/>
		<g>
			<path class="st2" d="M1118.2,1144.3c-1.3,0-2.4-1-2.4-2.3V913.1c0-11.6-9.7-21-21.6-21H948.9c-11.9,0-21.6,9.4-21.6,21V1142
				c0,1.3-1.1,2.3-2.4,2.3s-2.4-1-2.4-2.3V913.1c0-14.1,11.8-25.6,26.4-25.6h145.3c14.5,0,26.4,11.5,26.4,25.6V1142
				C1120.6,1143.3,1119.5,1144.3,1118.2,1144.3z"/>
		</g>
		<g>
			<path class="st2" d="M1107.5,1144.3c-1.3,0-2.4-1-2.4-2.3V931.8H938V1142c0,1.3-1.1,2.3-2.4,2.3c-1.3,0-2.4-1-2.4-2.3V929.5
				c0-1.3,1.1-2.3,2.4-2.3h171.8c1.3,0,2.4,1,2.4,2.3V1142C1109.9,1143.3,1108.8,1144.3,1107.5,1144.3z"/>
		</g>
		<g>
			<path class="st2" d="M1037.9,914.9h-32.8c-3.3,0-5.9-2.6-5.9-5.8s2.7-5.8,5.9-5.8h32.8c3.3,0,5.9,2.6,5.9,5.8
				S1041.2,914.9,1037.9,914.9z M1005.1,908c-0.7,0-1.2,0.5-1.2,1.1c0,0.6,0.5,1.1,1.2,1.1h32.8c0.7,0,1.2-0.5,1.2-1.1
				c0-0.6-0.5-1.1-1.2-1.1H1005.1z"/>
		</g>
		<g>
			<path class="st2" d="M1085.6,914.9h-1.4c-3.3,0-5.9-2.6-5.9-5.8s2.7-5.8,5.9-5.8h1.4c3.3,0,5.9,2.6,5.9,5.8
				S1088.8,914.9,1085.6,914.9z M1084.2,908c-0.7,0-1.2,0.5-1.2,1.1c0,0.6,0.5,1.1,1.2,1.1h1.4c0.7,0,1.2-0.5,1.2-1.1
				c0-0.6-0.5-1.1-1.2-1.1H1084.2z"/>
		</g>
	</g>
	<g>
		<g>
			<g>
				<path class="st2" d="M1039.6,1106.3h-44.3c-1.3,0-2.4-1-2.4-2.3s1.1-2.3,2.4-2.3h44.3c1.3,0,2.4,1,2.4,2.3
					S1040.9,1106.3,1039.6,1106.3z"/>
			</g>
			<g>
				<path class="st2" d="M1048.2,1089h-61.7c-1.3,0-2.4-1-2.4-2.3c0-1.3,1.1-2.3,2.4-2.3h61.7c1.3,0,2.4,1,2.4,2.3
					C1050.6,1087.9,1049.6,1089,1048.2,1089z"/>
			</g>
		</g>
		<g>
			<g>
				<path class="st2" d="M1064.6,1003.6h-90c-1.3,0-2.4-1-2.4-2.3s1.1-2.3,2.4-2.3h90c1.3,0,2.4,1,2.4,2.3
					S1065.9,1003.6,1064.6,1003.6z"/>
			</g>
			<g>
				<path class="st2" d="M1012.5,1019.8h-37.9c-1.3,0-2.4-1-2.4-2.3c0-1.3,1.1-2.3,2.4-2.3h37.9c1.3,0,2.4,1,2.4,2.3
					C1014.9,1018.7,1013.8,1019.8,1012.5,1019.8z"/>
			</g>
			<g>
				<path class="st2" d="M1064.6,1019.8h-37.3c-1.3,0-2.4-1-2.4-2.3c0-1.3,1.1-2.3,2.4-2.3h37.3c1.3,0,2.4,1,2.4,2.3
					C1067,1018.7,1065.9,1019.8,1064.6,1019.8z"/>
			</g>
		</g>
		<rect x="978.4" y="1044.1" class="st3" width="92.1" height="28.5"/>
		<g>
			<path class="st2" d="M1050.4,1069.1h-77.8c-1.3,0-2.4-1-2.4-2.3v-28.5c0-1.3,1.1-2.3,2.4-2.3h92.1c1.3,0,2.4,1,2.4,2.3v17.7
				c0,1.3-1.1,2.3-2.4,2.3s-2.4-1-2.4-2.3v-15.4H975v23.9h75.4c1.3,0,2.4,1,2.4,2.3S1051.7,1069.1,1050.4,1069.1z"/>
		</g>
		<rect x="978.5" y="963.3" class="st3" width="92.1" height="28.5"/>
		<g>
			<path class="st2" d="M1064.6,988.4h-73.4c-1.3,0-2.4-1-2.4-2.3s1.1-2.3,2.4-2.3h71v-23.9H975v17.7c0,1.3-1.1,2.3-2.4,2.3
				s-2.4-1-2.4-2.3v-20c0-1.3,1.1-2.3,2.4-2.3h92.1c1.3,0,2.4,1,2.4,2.3V986C1067,987.3,1065.9,988.4,1064.6,988.4z"/>
		</g>
	</g>
	<g>
		<g id="XMLID_181_">
			<path class="st2" d="M899.7,1154.8H448.4c-1.3,0-2.4-1-2.4-2.3s1.1-2.3,2.4-2.3h451.3c1.3,0,2.4,1,2.4,2.3
				S901.1,1154.8,899.7,1154.8z"/>
		</g>
		<g id="XMLID_4_">
			<path class="st2" d="M1116.1,1154.8h-25.5c-1.3,0-2.4-1-2.4-2.3s1.1-2.3,2.4-2.3h25.5c1.3,0,2.4,1,2.4,2.3
				S1117.4,1154.8,1116.1,1154.8z"/>
		</g>
		<g id="XMLID_3_">
			<path class="st2" d="M1063.3,1154.8h-117c-1.3,0-2.4-1-2.4-2.3s1.1-2.3,2.4-2.3h117c1.3,0,2.4,1,2.4,2.3
				S1064.6,1154.8,1063.3,1154.8z"/>
		</g>
		<g id="XMLID_184_">
			<path class="st2" d="M137.4,1154.8H68.8c-1.3,0-2.4-1-2.4-2.3s1.1-2.3,2.4-2.3h68.6c1.3,0,2.4,1,2.4,2.3
				S138.7,1154.8,137.4,1154.8z"/>
		</g>
		<g id="XMLID_183_">
			<path class="st2" d="M369.9,1154.8h-184c-1.3,0-2.4-1-2.4-2.3s1.1-2.3,2.4-2.3h184c1.3,0,2.4,1,2.4,2.3
				S371.2,1154.8,369.9,1154.8z"/>
		</g>
	</g>
</g>
</svg>
