<?xml version="1.0" encoding="utf-8"?>
<!-- Generator: Adobe Illustrator 19.2.0, SVG Export Plug-In . SVG Version: 6.00 Build 0)  -->
<svg version="1.1" id="Layer_1" xmlns="http://www.w3.org/2000/svg" xmlns:xlink="http://www.w3.org/1999/xlink" x="0px" y="0px"
	 viewBox="0 0 512 512" style="enable-background:new 0 0 512 512;" xml:space="preserve">
<style type="text/css">
	.st0{fill:#FFFFFF;}
	.st1{fill:#4A555F;}
	.st2{fill:#FFD552;}
	.st3{fill:#C1DFF3;}
	.st4{fill:#E89B3E;}
	.st5{fill:#FBE2C9;}
	.st6{fill:#E0E0E0;}
</style>
<g>
	<g>
		<g>
			<g>
				<polygon class="st0" points="231.8,205.6 197.6,228.7 197.6,306.2 275.1,306.2 275.1,306.2 309.3,283.2 309.3,251.9 
					309.3,205.6 286.7,205.6 				"/>
			</g>
		</g>
		<g>
			<g>
				<polygon class="st0" points="268.7,171.8 268.7,171.8 285.3,160.6 285.3,145.3 285.3,122.7 274.3,122.7 247.5,122.7 230.8,134 
					230.8,171.8 				"/>
			</g>
		</g>
		<g>
			<g>
				<polygon class="st0" points="242.9,340.2 226.2,351.4 226.2,389.3 264,389.3 264,389.2 280.7,378 280.7,362.7 280.7,340.2 
					269.6,340.2 				"/>
			</g>
		</g>
		<g>
			<g>
				<polygon class="st0" points="131.3,231.4 114.6,242.6 114.6,280.5 152.4,280.5 152.4,280.4 169.1,269.2 169.1,253.9 
					169.1,231.4 158.1,231.4 				"/>
			</g>
		</g>
		<g>
			<g>
				<polygon class="st0" points="386.4,224 359.6,224 342.9,235.3 342.9,273.1 380.7,273.1 380.7,273.1 397.4,261.9 397.4,246.6 
					397.4,224 				"/>
			</g>
		</g>
	</g>
	<g>
		<g>
			<path class="st1" d="M353.4,212.2c-0.5-1.1-1.1-2.2-1.6-3.2l3.2-1.7c0.6,1.1,1.1,2.2,1.7,3.3L353.4,212.2z M350,205.8
				c-0.6-1-1.2-2.1-1.8-3.1l3.1-1.9c0.6,1.1,1.3,2.1,1.9,3.2L350,205.8z M346.3,199.7c-0.7-1-1.3-2-2-3l3-2.1c0.7,1,1.4,2,2.1,3.1
				L346.3,199.7z M342.1,193.8c-0.7-1-1.5-1.9-2.2-2.8l2.9-2.3c0.8,1,1.5,1.9,2.3,2.9L342.1,193.8z M337.6,188.2
				c-0.8-0.9-1.6-1.8-2.4-2.7l2.7-2.5c0.8,0.9,1.7,1.8,2.5,2.8L337.6,188.2z M332.8,182.8c-0.8-0.9-1.7-1.7-2.6-2.5l2.5-2.6
				c0.9,0.9,1.8,1.7,2.6,2.6L332.8,182.8z M327.6,177.9c-0.9-0.8-1.8-1.6-2.7-2.4l2.4-2.8c0.9,0.8,1.9,1.6,2.8,2.4L327.6,177.9z
				 M322.1,173.2c-0.9-0.7-1.9-1.5-2.9-2.2l2.2-2.9c1,0.7,2,1.5,3,2.3L322.1,173.2z M316.3,168.9c-1-0.7-2-1.3-3-2l2-3.1
				c1,0.7,2.1,1.4,3.1,2.1L316.3,168.9z M310.2,165c-1-0.6-2.1-1.2-3.1-1.8l1.8-3.2c1.1,0.6,2.2,1.2,3.2,1.9L310.2,165z
				 M303.9,161.6c-1.1-0.5-2.1-1.1-3.2-1.6l1.6-3.3c1.1,0.5,2.2,1.1,3.3,1.6L303.9,161.6z M297.4,158.5c-1.1-0.5-2.2-0.9-3.3-1.4
				l1.3-3.4c1.2,0.5,2.3,0.9,3.4,1.4L297.4,158.5z"/>
		</g>
	</g>
	<g>
		<g>
			<path class="st1" d="M149.2,222.3l-3.4-1.3c0.4-1.2,0.9-2.3,1.3-3.5l3.4,1.4C150,220.1,149.6,221.2,149.2,222.3z M151.8,215.7
				l-3.4-1.5c0.5-1.1,1-2.3,1.6-3.4l3.3,1.6C152.8,213.5,152.3,214.6,151.8,215.7z M155,209.2l-3.2-1.7c0.6-1.1,1.2-2.2,1.8-3.3
				l3.2,1.8C156.1,207,155.5,208.1,155,209.2z M158.5,202.9l-3.1-1.9c0.6-1.1,1.3-2.1,2-3.1l3.1,2
				C159.8,200.8,159.1,201.9,158.5,202.9z M162.4,196.8l-3-2.1c0.7-1,1.4-2,2.2-3l2.9,2.2C163.8,194.9,163.1,195.9,162.4,196.8z
				 M166.8,191.1l-2.9-2.3c0.8-1,1.6-1.9,2.4-2.9l2.8,2.4C168.3,189.2,167.5,190.1,166.8,191.1z M171.5,185.6l-2.7-2.5
				c0.8-0.9,1.7-1.8,2.6-2.7l2.6,2.6C173.1,183.8,172.3,184.7,171.5,185.6z M176.5,180.4l-2.5-2.6c0.9-0.9,1.8-1.7,2.7-2.5l2.5,2.7
				C178.2,178.8,177.3,179.6,176.5,180.4z M181.8,175.6l-2.4-2.8c0.9-0.8,1.9-1.6,2.9-2.4l2.3,2.9
				C183.7,174.1,182.7,174.8,181.8,175.6z M187.5,171.2l-2.2-2.9c1-0.7,2-1.5,3-2.2l2.1,3C189.4,169.7,188.4,170.4,187.5,171.2z
				 M193.4,167.1l-2-3.1c1-0.7,2.1-1.3,3.2-2l1.9,3.1C195.4,165.8,194.4,166.4,193.4,167.1z M199.6,163.4l-1.8-3.2
				c1.1-0.6,2.2-1.2,3.3-1.8l1.7,3.3C201.7,162.2,200.6,162.8,199.6,163.4z M206,160.1l-1.6-3.3c1.1-0.5,2.2-1,3.4-1.5l1.5,3.4
				C208.1,159.1,207.1,159.6,206,160.1z M212.6,157.2l-1.3-3.4c1.2-0.5,2.3-0.9,3.5-1.3l1.2,3.4
				C214.8,156.3,213.7,156.8,212.6,157.2z M219.3,154.8l-1.1-3.5l0.4-0.1l1.1,3.5L219.3,154.8z"/>
		</g>
	</g>
	<g>
		<g>
			<path class="st1" d="M216.8,369c-1.2-0.4-2.3-0.8-3.5-1.2l1.3-3.4c1.1,0.4,2.3,0.8,3.4,1.2L216.8,369z M209.8,366.4
				c-1.1-0.5-2.3-1-3.4-1.5l1.5-3.3c1.1,0.5,2.2,1,3.3,1.4L209.8,366.4z M203,363.4c-1.1-0.5-2.2-1.1-3.3-1.7l1.7-3.2
				c1.1,0.6,2.1,1.1,3.2,1.6L203,363.4z M196.4,359.9c-1.1-0.6-2.1-1.3-3.2-1.9l1.9-3.1c1,0.6,2.1,1.2,3.1,1.8L196.4,359.9z
				 M190.1,356c-1-0.7-2.1-1.4-3.1-2.1l2.1-3c1,0.7,2,1.4,3,2L190.1,356z M184,351.6c-1-0.8-2-1.5-2.9-2.3l2.3-2.8
				c0.9,0.8,1.9,1.5,2.8,2.2L184,351.6z M178.2,346.9c-0.9-0.8-1.9-1.6-2.8-2.5l2.5-2.7c0.9,0.8,1.8,1.6,2.7,2.4L178.2,346.9z
				 M172.8,341.9c-0.9-0.9-1.7-1.8-2.6-2.7l2.7-2.5c0.8,0.9,1.7,1.7,2.5,2.6L172.8,341.9z M167.7,336.5c-0.8-0.9-1.6-1.9-2.4-2.8
				l2.8-2.3c0.8,0.9,1.6,1.8,2.3,2.7L167.7,336.5z M162.9,330.8c-0.8-1-1.5-2-2.2-3l3-2.2c0.7,1,1.4,1.9,2.2,2.9L162.9,330.8z
				 M158.5,324.8c-0.7-1-1.4-2.1-2-3.1l3.1-2c0.6,1,1.3,2,2,3L158.5,324.8z M154.6,318.5c-0.6-1.1-1.2-2.1-1.8-3.2l3.2-1.8
				c0.6,1.1,1.2,2.1,1.8,3.1L154.6,318.5z M151,311.9c-0.6-1.1-1.1-2.2-1.6-3.3l3.3-1.5c0.5,1.1,1,2.2,1.6,3.2L151,311.9z
				 M147.9,305.2c-0.5-1.1-0.9-2.3-1.4-3.4l3.4-1.3c0.4,1.1,0.9,2.2,1.4,3.3L147.9,305.2z M145.2,298.3c-0.4-1.2-0.8-2.3-1.2-3.5
				l3.5-1.1c0.4,1.1,0.7,2.3,1.1,3.4L145.2,298.3z M143,291.2l-0.1-0.3l3.5-1l0.1,0.3L143,291.2z"/>
		</g>
	</g>
	<g>
		<g>
			<path class="st1" d="M289.9,369.1l-1.2-3.5c1.1-0.4,2.3-0.8,3.4-1.2l1.3,3.4C292.2,368.3,291.1,368.7,289.9,369.1z M296.8,366.5
				l-1.4-3.4c1.1-0.5,2.2-0.9,3.3-1.4l1.5,3.3C299.1,365.6,298,366,296.8,366.5z M303.6,363.5l-1.6-3.3c1.1-0.5,2.1-1.1,3.2-1.6
				l1.7,3.2C305.8,362.4,304.7,362.9,303.6,363.5z M310.2,360l-1.8-3.2c1-0.6,2.1-1.2,3.1-1.8l1.9,3.1
				C312.3,358.7,311.3,359.4,310.2,360z M316.5,356.1l-2-3.1c1-0.7,2-1.3,3-2l2.1,3C318.6,354.7,317.6,355.4,316.5,356.1z
				 M322.6,351.8l-2.2-2.9c1-0.7,1.9-1.5,2.8-2.2l2.3,2.8C324.6,350.3,323.6,351.1,322.6,351.8z M328.4,347.1l-2.4-2.8
				c0.9-0.8,1.8-1.6,2.7-2.4l2.5,2.7C330.2,345.5,329.3,346.3,328.4,347.1z M333.8,342.1l-2.6-2.6c0.9-0.8,1.7-1.7,2.5-2.6l2.7,2.5
				C335.6,340.3,334.7,341.2,333.8,342.1z M339,336.7l-2.7-2.4c0.8-0.9,1.6-1.8,2.4-2.7l2.8,2.3C340.6,334.8,339.8,335.8,339,336.7z
				 M343.7,331l-2.9-2.3c0.7-0.9,1.5-1.9,2.2-2.9l3,2.2C345.3,329,344.5,330,343.7,331z M348.1,325l-3-2.1c0.7-1,1.3-2,2-3l3.1,2
				C349.5,322.9,348.8,323.9,348.1,325z M352.1,318.7l-3.2-1.9c0.6-1,1.2-2.1,1.8-3.1l3.2,1.8C353.4,316.5,352.8,317.6,352.1,318.7z
				 M355.7,312.2l-3.3-1.7c0.5-1.1,1.1-2.2,1.6-3.2l3.3,1.5C356.8,309.9,356.3,311,355.7,312.2z M358.9,305.4l-3.4-1.4
				c0.5-1.1,0.9-2.2,1.4-3.3l3.4,1.3C359.8,303.1,359.4,304.3,358.9,305.4z M361.6,298.5l-3.5-1.2c0.4-1.1,0.8-2.3,1.1-3.4l3.5,1.1
				C362.4,296.1,362,297.3,361.6,298.5z M363.8,291.4l-3.5-1c0.3-1.2,0.6-2.3,0.9-3.5l3.6,0.9C364.5,289,364.1,290.2,363.8,291.4z"
				/>
		</g>
	</g>
	<g>
		<g>
			<g>
				<rect x="167.3" y="127.1" class="st1" width="3.7" height="6.9"/>
			</g>
		</g>
		<g>
			<g>
				<rect x="167.3" y="146.2" class="st1" width="3.7" height="6.9"/>
			</g>
		</g>
		<g>
			<g>
				<rect x="175.2" y="138.3" class="st1" width="6.9" height="3.7"/>
			</g>
		</g>
		<g>
			<g>
				<rect x="156.1" y="138.3" class="st1" width="6.9" height="3.7"/>
			</g>
		</g>
	</g>
	<g>
		<g>
			<g>
				<rect x="368.3" y="338.6" class="st1" width="3.7" height="6.9"/>
			</g>
		</g>
		<g>
			<g>
				<rect x="368.3" y="357.7" class="st1" width="3.7" height="6.9"/>
			</g>
		</g>
		<g>
			<g>
				<rect x="376.2" y="349.8" class="st1" width="6.9" height="3.7"/>
			</g>
		</g>
		<g>
			<g>
				<rect x="357.1" y="349.8" class="st1" width="6.9" height="3.7"/>
			</g>
		</g>
	</g>
	<g>
		<g>
			<circle class="st2" cx="120.7" cy="340.2" r="6.9"/>
		</g>
	</g>
	<g>
		<g>
			<circle class="st3" cx="352.3" cy="149.6" r="9.8"/>
		</g>
	</g>
	<g>
		<g>
			<circle class="st4" cx="152.4" cy="370.3" r="3.6"/>
		</g>
	</g>
	<g>
		<g>
			<g>
				<path class="st1" d="M277,308.1h-81.2v-81.2H277V308.1z M199.4,304.4h73.9v-73.9h-73.9V304.4z"/>
			</g>
		</g>
		<g>
			<g>
				<rect x="203.7" y="234.8" class="st5" width="65.4" height="65.4"/>
			</g>
		</g>
		<g>
			<g>
				<path class="st1" d="M275,230.5h-77.5l-1-3.4l34.2-23l1-0.3h77.5l1,3.4l-34.2,23L275,230.5z M203.6,226.8h70.9l28.8-19.4h-70.9
					L203.6,226.8z"/>
			</g>
		</g>
		<g>
			<g>
				<polygon class="st4" points="217.6,222.6 233.6,211.7 289.3,211.7 273.2,222.6 				"/>
			</g>
		</g>
		<g>
			<g>
				<path class="st1" d="M276.1,307.8l-2.9-1.5v-77.6l0.8-1.5l34.2-23l2.9,1.5v77.6l-0.8,1.5L276.1,307.8z M276.9,229.6v73.2
					l30.6-20.6V209L276.9,229.6z"/>
			</g>
		</g>
		<g>
			<g>
				<polygon class="st4" points="281.1,231.9 303.2,217.1 303.2,279.9 281.1,294.8 				"/>
			</g>
		</g>
	</g>
	<g>
		<g>
			<g>
				<path class="st1" d="M270.5,173.7H229v-41.5h41.5V173.7z M232.7,170h34.2v-34.2h-34.2V170z"/>
			</g>
		</g>
		<g>
			<g>
				<rect x="236.9" y="140.1" class="st6" width="25.7" height="25.7"/>
			</g>
		</g>
		<g>
			<g>
				<path class="st1" d="M268.6,135.8h-37.8l-1-3.4l16.7-11.2l1-0.3h37.8l1,3.4l-16.7,11.2L268.6,135.8z M236.8,132.2h31.3l11.3-7.6
					h-31.3L236.8,132.2z"/>
			</g>
		</g>
		<g>
			<g>
				<path class="st1" d="M269.7,173.4l-2.9-1.5V134l0.8-1.5l16.7-11.2l2.9,1.5v37.9l-0.8,1.5L269.7,173.4z M270.5,135v33.4l13-8.8
					v-33.4L270.5,135z"/>
			</g>
		</g>
		<g>
			<g>
				<polygon class="st3" points="274.7,137.2 279.2,134.2 279.2,157.4 274.7,160.4 				"/>
			</g>
		</g>
	</g>
	<g>
		<g>
			<g>
				<path class="st1" d="M265.8,391.1h-41.5v-41.5h41.5V391.1z M228,387.4h34.2v-34.2H228L228,387.4z"/>
			</g>
		</g>
		<g>
			<g>
				<rect x="232.3" y="357.5" class="st6" width="25.7" height="25.7"/>
			</g>
		</g>
		<g>
			<g>
				<path class="st1" d="M264,353.2h-37.8l-1-3.4l16.7-11.2l1-0.3h37.8l1,3.4L265,352.9L264,353.2z M232.2,349.6h31.3l11.3-7.6
					h-31.3L232.2,349.6z"/>
			</g>
		</g>
		<g>
			<g>
				<path class="st1" d="M265,390.8l-2.9-1.5v-37.9l0.8-1.5l16.7-11.2l2.9,1.5V378l-0.8,1.5L265,390.8z M265.8,352.4v33.4l13-8.8
					v-33.4L265.8,352.4z"/>
			</g>
		</g>
		<g>
			<g>
				<polygon class="st3" points="270.1,354.6 274.6,351.6 274.6,374.8 270.1,377.8 				"/>
			</g>
		</g>
	</g>
	<g>
		<g>
			<g>
				<path class="st1" d="M154.3,282.3h-41.5v-41.5h41.5V282.3z M116.4,278.6h34.2v-34.2h-34.2L116.4,278.6z"/>
			</g>
		</g>
		<g>
			<g>
				<rect x="120.7" y="248.7" class="st6" width="25.7" height="25.7"/>
			</g>
		</g>
		<g>
			<g>
				<path class="st1" d="M152.4,244.4h-37.8l-1-3.4l16.7-11.2l1-0.3h37.8l1,3.4l-16.7,11.2L152.4,244.4z M120.6,240.8h31.3l11.3-7.6
					h-31.3L120.6,240.8z"/>
			</g>
		</g>
		<g>
			<g>
				<path class="st1" d="M153.4,282l-2.9-1.5v-37.9l0.8-1.5l16.7-11.2l2.9,1.5v37.9l-0.8,1.5L153.4,282z M154.2,243.6V277l13-8.8
					v-33.4L154.2,243.6z"/>
			</g>
		</g>
		<g>
			<g>
				<polygon class="st3" points="158.5,245.9 163,242.8 163,266 158.5,269 				"/>
			</g>
		</g>
	</g>
	<g>
		<g>
			<g>
				<path class="st1" d="M382.6,275h-41.5v-41.5h41.5V275z M344.7,271.3h34.2v-34.2h-34.2V271.3z"/>
			</g>
		</g>
		<g>
			<g>
				<path class="st1" d="M380.7,237.1h-37.8l-1-3.4l16.7-11.2l1-0.3h37.8l1,3.4l-16.7,11.2L380.7,237.1z M348.9,233.5h31.3l11.3-7.6
					h-31.3L348.9,233.5z"/>
			</g>
		</g>
		<g>
			<g>
				<path class="st1" d="M381.7,274.7l-2.9-1.5v-37.9l0.8-1.5l16.7-11.2l2.9,1.5V262l-0.8,1.5L381.7,274.7z M382.5,236.3v33.4
					l13-8.8v-33.4L382.5,236.3z"/>
			</g>
		</g>
	</g>
	<g>
		<g>
			<g>
				<path class="st1" d="M382.6,275h-41.5v-41.5h41.5V275z M344.7,271.3h34.2v-34.2h-34.2V271.3z"/>
			</g>
		</g>
		<g>
			<g>
				<rect x="349" y="241.4" class="st6" width="25.7" height="25.7"/>
			</g>
		</g>
		<g>
			<g>
				<path class="st1" d="M380.7,237.1h-37.8l-1-3.4l16.7-11.2l1-0.3h37.8l1,3.4l-16.7,11.2L380.7,237.1z M348.9,233.5h31.3l11.3-7.6
					h-31.3L348.9,233.5z"/>
			</g>
		</g>
		<g>
			<g>
				<path class="st1" d="M381.7,274.7l-2.9-1.5v-37.9l0.8-1.5l16.7-11.2l2.9,1.5V262l-0.8,1.5L381.7,274.7z M382.5,236.3v33.4
					l13-8.8v-33.4L382.5,236.3z"/>
			</g>
		</g>
		<g>
			<g>
				<polygon class="st3" points="386.8,238.5 391.3,235.5 391.3,258.7 386.8,261.7 				"/>
			</g>
		</g>
	</g>
	<g>
		<g>
			<rect x="253.9" y="171.8" class="st1" width="3.7" height="43.6"/>
		</g>
	</g>
	<g>
		<g>
			<rect x="253.9" y="306.2" class="st1" width="3.7" height="39.5"/>
		</g>
	</g>
	<g>
		<g>
			<rect x="292.2" y="254.1" class="st1" width="50.7" height="3.7"/>
		</g>
	</g>
	<g>
		<g>
			<rect x="160.8" y="254.1" class="st1" width="36.8" height="3.7"/>
		</g>
	</g>
</g>
</svg>
