<?xml version="1.0" encoding="utf-8"?>
<!-- Generator: Adobe Illustrator 19.2.0, SVG Export Plug-In . SVG Version: 6.00 Build 0)  -->
<svg version="1.1" id="Layer_1" xmlns="http://www.w3.org/2000/svg" xmlns:xlink="http://www.w3.org/1999/xlink" x="0px" y="0px"
	 viewBox="0 0 512 512" style="enable-background:new 0 0 512 512;" xml:space="preserve">
<style type="text/css">
	.st0{fill:#FFFFFF;}
	.st1{fill:#FFD552;}
	.st2{fill:#71CDE1;}
	.st3{fill:#4A555F;}
	.st4{fill:#E89B3E;}
	.st5{fill:#E0E0E0;}
	.st6{fill:#C1DFF3;}
</style>
<g>
	<g>
		<g>
			<polygon class="st0" points="341.9,151.9 341.9,305 293.9,353.8 189.4,353.8 189.4,151.9 			"/>
		</g>
	</g>
	<g>
		<g>
			<circle class="st0" cx="409.2" cy="257.5" r="42.7"/>
		</g>
	</g>
	<g>
		<g>
			<rect x="74.2" y="213.4" class="st0" width="86.7" height="88.5"/>
		</g>
	</g>
	<g>
		<g>
			<rect x="80.3" y="219.5" class="st1" width="74.5" height="76.3"/>
		</g>
	</g>
	<g>
		<g>
			<path class="st2" d="M409.2,294.2c-20.2,0-36.6-16.4-36.6-36.6S389,221,409.2,221s36.6,16.4,36.6,36.6
				C445.9,277.7,429.5,294.2,409.2,294.2z"/>
		</g>
	</g>
	<g>
		<g>
			<circle class="st1" cx="405.3" cy="151.9" r="4.9"/>
		</g>
	</g>
	<g>
		<g>
			<g>
				<rect x="438.7" y="175.9" class="st3" width="3.7" height="6.3"/>
			</g>
		</g>
		<g>
			<g>
				<rect x="438.7" y="193.2" class="st3" width="3.7" height="6.3"/>
			</g>
		</g>
		<g>
			<g>
				<rect x="446" y="185.9" class="st3" width="6.3" height="3.7"/>
			</g>
		</g>
		<g>
			<g>
				<rect x="428.8" y="185.9" class="st3" width="6.3" height="3.7"/>
			</g>
		</g>
	</g>
	<g>
		<g>
			<g>
				<rect x="68.1" y="322.9" class="st3" width="3.7" height="6.3"/>
			</g>
		</g>
		<g>
			<g>
				<rect x="68.1" y="340.2" class="st3" width="3.7" height="6.3"/>
			</g>
		</g>
		<g>
			<g>
				<rect x="75.4" y="332.8" class="st3" width="6.3" height="3.7"/>
			</g>
		</g>
		<g>
			<g>
				<rect x="58.2" y="332.8" class="st3" width="6.3" height="3.7"/>
			</g>
		</g>
	</g>
	<g>
		<g>
			<circle class="st4" cx="81.7" cy="163.6" r="11.8"/>
		</g>
	</g>
	<g>
		<g>
			<circle class="st5" cx="362.4" cy="361.4" r="3.6"/>
		</g>
	</g>
	<g>
		<g>
			<path class="st3" d="M294.7,355.6H187.6V150.1h156.2v155.7L294.7,355.6z M191.2,352h101.9l46.9-47.7V153.8H191.2V352z"/>
		</g>
	</g>
	<g>
		<g>
			<polygon class="st3" points="239.2,206.1 213.1,206.1 213.1,178.1 241,178.1 241,194.5 237.3,194.5 237.3,181.8 216.7,181.8 
				216.7,202.4 239.2,202.4 			"/>
		</g>
	</g>
	<g>
		<g>
			<polygon class="st3" points="239.2,244.4 213.1,244.4 213.1,216.5 241,216.5 241,232.9 237.3,232.9 237.3,220.2 216.7,220.2 
				216.7,240.8 239.2,240.8 			"/>
		</g>
	</g>
	<g>
		<g>
			<polygon class="st3" points="239.2,282.8 213.1,282.8 213.1,254.9 241,254.9 241,271.3 237.3,271.3 237.3,258.6 216.7,258.6 
				216.7,279.2 239.2,279.2 			"/>
		</g>
	</g>
	<g>
		<g>
			<rect x="259.5" y="190.3" class="st3" width="59.1" height="3.7"/>
		</g>
	</g>
	<g>
		<g>
			<rect x="259.5" y="228.6" class="st3" width="59.1" height="3.7"/>
		</g>
	</g>
	<g>
		<g>
			<rect x="259.5" y="267" class="st3" width="59.1" height="3.7"/>
		</g>
	</g>
	<g>
		<g>
			<rect x="221.8" y="186.9" class="st4" width="10.5" height="10.5"/>
		</g>
	</g>
	<g>
		<g>
			<rect x="221.8" y="225.2" class="st4" width="10.5" height="10.5"/>
		</g>
	</g>
	<g>
		<g>
			<rect x="221.8" y="263.6" class="st4" width="10.5" height="10.5"/>
		</g>
	</g>
	<g>
		<g>
			<polygon class="st3" points="239.2,321.9 213.1,321.9 213.1,294 241,294 241,310.3 237.3,310.3 237.3,297.6 216.7,297.6 
				216.7,318.2 239.2,318.2 			"/>
		</g>
	</g>
	<g>
		<g>
			<rect x="259.5" y="306.1" class="st3" width="24.2" height="3.7"/>
		</g>
	</g>
	<g>
		<g>
			<rect x="221.8" y="302.7" class="st4" width="10.5" height="10.5"/>
		</g>
	</g>
	<g>
		<g>
			<path class="st3" d="M295.2,355.1l-3.1-1.3V305l1.8-1.8h48l1.3,3.1L295.2,355.1z M295.7,306.8v42.5l41.8-42.5H295.7z"/>
		</g>
	</g>
	<g>
		<g>
			<polygon class="st6" points="325.4,311.9 300.8,336.9 300.8,311.9 			"/>
		</g>
	</g>
	<g>
		<g>
			<polygon class="st3" points="411.1,204.5 407.4,204.5 407.4,181.8 356,181.8 356,178.1 411.1,178.1 			"/>
		</g>
	</g>
	<g>
		<g>
			<polygon class="st3" points="411.1,337.8 356,337.8 356,334.2 407.4,334.2 407.4,311.4 411.1,311.4 			"/>
		</g>
	</g>
	<g>
		<g>
			<polygon class="st3" points="117.4,204.5 113.7,204.5 113.7,178.1 168.8,178.1 168.8,181.8 117.4,181.8 			"/>
		</g>
	</g>
	<g>
		<g>
			<polygon class="st3" points="168.8,337.8 113.7,337.8 113.7,311.4 117.4,311.4 117.4,334.1 168.8,334.2 			"/>
		</g>
	</g>
	<g>
		<g>
			<path class="st0" d="M425.3,258.4c-2.9-2.8-7.1-4.3-11.1-4.8c-0.1,0-0.2,0-0.4,0v-12c3.7,2.1,4,6.1,4,6.1h9.6
				c-0.2-4.6-2.1-7.9-4.4-10.2c-2.5-2.5-5.8-4.2-9.3-4.8V226h-9.1v6.4c-7.8,1-12.9,5.5-14.1,12.1c0,0.2-0.1,0.3-0.1,0.5
				c-1,6.2,2.7,12.3,8.7,14.4c1.4,0.5,3.3,1.1,5.5,1.7v12.5c-3.9-1.1-5.5-3.8-5.9-7h-9.3c0,0-1.3,13,15.2,15.1v5.2h9.1v-5
				c0,0.1,5-1.1,5.4-1.2c2.1-0.8,4.1-1.9,5.6-3.5c3.5-3.6,5-9.3,3.5-14.1C427.8,261.4,426.7,259.8,425.3,258.4z M404.8,240.8v10.9
				c-4.6-1.6-5.3-3.6-5.3-4.9C399.5,245.2,399.7,241.9,404.8,240.8z M413.8,274.1v-10.8c0.2,0,0.4,0.1,0.7,0.1c0,0,4.8,1,4.8,4.9
				C419.3,271.2,417.8,273.2,413.8,274.1z"/>
		</g>
	</g>
	<g>
		<g>
			<path class="st3" d="M123.6,291.1h-9.2l-1.8-1.8v-13.7l1.8-1.8h9.2l1.8,1.8v13.7L123.6,291.1z M116.2,287.5h5.6v-10h-5.6V287.5z"
				/>
		</g>
	</g>
	<g>
		<g>
			<polygon class="st3" points="102.3,241.1 98.7,241.1 98.7,230.6 96.1,232.8 93.7,230.1 99.3,225.3 102.3,226.7 			"/>
		</g>
	</g>
	<g>
		<g>
			<rect x="94.9" y="239.2" class="st3" width="11" height="3.7"/>
		</g>
	</g>
	<g>
		<g>
			<polygon class="st3" points="120.9,265.3 117.2,265.3 117.2,254.9 114.7,257.1 112.3,254.3 117.9,249.5 120.9,250.9 			"/>
		</g>
	</g>
	<g>
		<g>
			<rect x="113.5" y="263.5" class="st3" width="11" height="3.7"/>
		</g>
	</g>
	<g>
		<g>
			<polygon class="st3" points="138.1,265.3 134.4,265.3 134.4,254.9 131.8,257.1 129.5,254.3 135,249.5 138.1,250.9 			"/>
		</g>
	</g>
	<g>
		<g>
			<rect x="130.6" y="263.5" class="st3" width="11" height="3.7"/>
		</g>
	</g>
	<g>
		<g>
			<path class="st3" d="M121.3,242.9h-9.2l-1.8-1.8v-13.7l1.8-1.8h9.2l1.8,1.8v13.7L121.3,242.9z M113.9,239.2h5.6v-10h-5.6V239.2z"
				/>
		</g>
	</g>
	<g>
		<g>
			<path class="st3" d="M140.7,291.1h-9.2l-1.8-1.8v-13.7l1.8-1.8h9.2l1.8,1.8v13.7L140.7,291.1z M133.4,287.5h5.6v-10h-5.6V287.5z"
				/>
		</g>
	</g>
	<g>
		<g>
			<path class="st3" d="M105.1,291.1h-9.2l-1.8-1.8v-13.7l1.8-1.8h9.2l1.8,1.8v13.7L105.1,291.1z M97.7,287.5h5.6v-10h-5.6V287.5z"
				/>
		</g>
	</g>
	<g>
		<g>
			<path class="st3" d="M105,266.8h-9.2L94,265v-13.7l1.8-1.8h9.2l1.8,1.8V265L105,266.8z M97.6,263.1h5.6v-10h-5.6V263.1z"/>
		</g>
	</g>
	<g>
		<g>
			<polygon class="st3" points="138,241.1 134.3,241.1 134.3,230.6 131.7,232.8 129.4,230.1 134.9,225.3 138,226.7 			"/>
		</g>
	</g>
	<g>
		<g>
			<rect x="130.6" y="239.2" class="st3" width="11" height="3.7"/>
		</g>
	</g>
	<g>
		<g>
			<path class="st3" d="M409.2,302.1c-0.8,0-1.7,0-2.5-0.1l0.2-3.7c1.2,0.1,2.3,0.1,3.5,0l0.1,3.7
				C410.1,302.1,409.7,302.1,409.2,302.1z M414.4,301.8l-0.4-3.6c1.2-0.1,2.3-0.3,3.5-0.5l0.7,3.6
				C416.9,301.5,415.6,301.7,414.4,301.8z M403,301.7c-1.3-0.2-2.5-0.4-3.8-0.7l0.8-3.6c1.1,0.3,2.3,0.5,3.4,0.6L403,301.7z
				 M421.8,300.3l-1-3.5c1.1-0.3,2.2-0.7,3.3-1.1l1.3,3.4C424.3,299.5,423.1,299.9,421.8,300.3z M395.5,300
				c-1.2-0.4-2.4-0.8-3.6-1.3l1.4-3.4c1.1,0.5,2.2,0.9,3.3,1.2L395.5,300z M428.9,297.5l-1.6-3.3c1-0.5,2.1-1.1,3.1-1.7l1.9,3.1
				C431.2,296.3,430.1,297,428.9,297.5z M388.5,297c-1.1-0.6-2.2-1.2-3.3-1.9l2-3.1c1,0.6,2,1.2,3,1.8L388.5,297z M435.5,293.6
				l-2.2-3c0.9-0.7,1.9-1.4,2.7-2.2l2.4,2.8C437.5,292,436.5,292.8,435.5,293.6z M382.1,292.9c-1-0.8-2-1.6-2.9-2.5l2.5-2.7
				c0.9,0.8,1.8,1.5,2.7,2.3L382.1,292.9z M441.2,288.6l-2.6-2.6c0.8-0.8,1.6-1.7,2.3-2.6l2.8,2.3
				C443,286.7,442.1,287.7,441.2,288.6z M376.4,287.7c-0.9-0.9-1.7-1.9-2.5-2.9l2.9-2.2c0.7,0.9,1.5,1.8,2.3,2.7L376.4,287.7z
				 M446.1,282.7l-3-2.1c0.7-1,1.3-2,1.9-3l3.2,1.8C447.5,280.5,446.8,281.6,446.1,282.7z M371.8,281.7c-0.7-1.1-1.3-2.2-1.9-3.3
				l3.2-1.7c0.5,1,1.1,2,1.8,3L371.8,281.7z M449.8,276l-3.3-1.5c0.5-1.1,0.9-2.2,1.3-3.2l3.4,1.2
				C450.8,273.7,450.3,274.9,449.8,276z M368.2,275c-0.5-1.2-0.9-2.4-1.3-3.6l3.5-1.1c0.4,1.1,0.8,2.2,1.2,3.3L368.2,275z
				 M452.4,268.9l-3.5-0.9c0.3-1.1,0.5-2.3,0.7-3.4l3.6,0.6C453,266.4,452.7,267.6,452.4,268.9z M365.8,267.7
				c-0.3-1.2-0.5-2.5-0.7-3.8l3.6-0.5c0.2,1.1,0.4,2.3,0.6,3.4L365.8,267.7z M453.7,261.3L450,261c0.1-1.2,0.1-2.3,0.1-3.5h3.7
				C453.8,258.8,453.8,260.1,453.7,261.3z M364.7,260.2c-0.1-0.9-0.1-1.7-0.1-2.6c0-0.4,0-0.8,0-1.2l3.7,0.1c0,0.4,0,0.7,0,1.1
				c0,0.8,0,1.6,0.1,2.4L364.7,260.2z M450.1,256.2c0-1.2-0.1-2.3-0.3-3.5l3.6-0.4c0.1,1.3,0.2,2.5,0.3,3.8L450.1,256.2z
				 M368.6,252.9l-3.6-0.4c0.1-1.3,0.3-2.5,0.6-3.8l3.6,0.7C368.9,250.6,368.7,251.8,368.6,252.9z M449.3,249.2
				c-0.2-1.1-0.5-2.3-0.9-3.4l3.5-1c0.4,1.2,0.7,2.5,0.9,3.7L449.3,249.2z M370,246.1l-3.5-1c0.4-1.2,0.8-2.4,1.2-3.6l3.4,1.3
				C370.7,243.8,370.3,245,370,246.1z M447.3,242.5c-0.4-1.1-0.9-2.2-1.4-3.2l3.3-1.6c0.6,1.1,1.1,2.3,1.6,3.5L447.3,242.5z
				 M372.5,239.6l-3.3-1.6c0.6-1.1,1.2-2.3,1.8-3.4l3.1,1.9C373.6,237.5,373,238.5,372.5,239.6z M444.2,236.3c-0.6-1-1.3-2-1.9-2.9
				l3-2.2c0.7,1,1.5,2.1,2.1,3.2L444.2,236.3z M376.1,233.6l-3-2.1c0.7-1,1.5-2,2.4-3l2.8,2.4C377.5,231.7,376.8,232.6,376.1,233.6z
				 M440.1,230.6c-0.8-0.9-1.6-1.7-2.4-2.5l2.5-2.6c0.9,0.9,1.8,1.8,2.6,2.8L440.1,230.6z M380.7,228.3l-2.6-2.6
				c0.9-0.9,1.9-1.7,2.8-2.5l2.3,2.8C382.4,226.7,381.5,227.4,380.7,228.3z M435,225.8c-0.9-0.7-1.8-1.4-2.8-2.1l2.1-3
				c1,0.7,2.1,1.5,3.1,2.3L435,225.8z M386.1,223.8l-2.1-3c1-0.7,2.1-1.4,3.2-2l1.8,3.2C388,222.5,387,223.1,386.1,223.8z
				 M429.3,221.8c-1-0.6-2.1-1.1-3.1-1.6l1.5-3.3c1.2,0.5,2.3,1.1,3.4,1.7L429.3,221.8z M392.1,220.3l-1.5-3.3
				c1.1-0.5,2.3-1,3.5-1.4l1.2,3.4C394.3,219.4,393.2,219.9,392.1,220.3z M422.9,218.9c-1.1-0.4-2.2-0.7-3.4-1l0.9-3.5
				c1.2,0.3,2.5,0.7,3.7,1.1L422.9,218.9z M398.7,218l-0.9-3.5c1.2-0.3,2.5-0.6,3.7-0.8l0.6,3.6C401,217.4,399.8,217.7,398.7,218z
				 M416.1,217.2c-1.1-0.2-2.3-0.3-3.5-0.4l0.3-3.6c1.3,0.1,2.5,0.3,3.8,0.5L416.1,217.2z M405.6,216.8l-0.3-3.6
				c1.3-0.1,2.5-0.2,3.8-0.2v3.7C408,216.6,406.8,216.7,405.6,216.8z"/>
		</g>
	</g>
	<g>
		<g>
			<path class="st3" d="M161,303.8h-3.7v-3.7h3.7V303.8z M153.6,303.8H150v-3.7h3.7L153.6,303.8L153.6,303.8z M146.3,303.8h-3.7
				v-3.7h3.7V303.8z M139,303.8h-3.7v-3.7h3.7V303.8z M131.7,303.8H128v-3.7h3.7V303.8z M124.3,303.8h-3.7v-3.7h3.7V303.8z
				 M117,303.8h-3.7v-3.7h3.7V303.8z M109.7,303.8H106v-3.7h3.7V303.8z M102.4,303.8h-3.7v-3.7h3.7V303.8z M95,303.8h-3.7v-3.7H95
				V303.8z M87.7,303.8H84v-3.7h3.7V303.8z M80.4,303.8h-3.7v-3.7h3.7V303.8z M76.1,300.8h-3.7v-3.7h3.7V300.8z M162.8,299.3h-3.7
				v-3.7h3.7V299.3z M76.1,293.5h-3.7v-3.7h3.7V293.5z M162.8,292h-3.7v-3.7h3.7V292z M76.1,286.2h-3.7v-3.7h3.7V286.2z
				 M162.8,284.6h-3.7V281h3.7V284.6z M76.1,278.9h-3.7v-3.7h3.7V278.9z M162.8,277.3h-3.7v-3.7h3.7V277.3z M76.1,271.5h-3.7v-3.7
				h3.7V271.5z M162.8,270h-3.7v-3.7h3.7V270z M76.1,264.2h-3.7v-3.7h3.7V264.2z M162.8,262.7h-3.7V259h3.7V262.7z M76.1,256.9h-3.7
				v-3.7h3.7V256.9z M162.8,255.4h-3.7v-3.7h3.7V255.4z M76.1,249.6h-3.7v-3.7h3.7V249.6z M162.8,248h-3.7v-3.7h3.7V248z
				 M76.1,242.2h-3.7v-3.7h3.7V242.2z M162.8,240.7h-3.7V237h3.7V240.7z M76.1,234.9h-3.7v-3.7h3.7V234.9z M162.8,233.4h-3.7v-3.7
				h3.7V233.4z M76.1,227.6h-3.7v-3.7h3.7V227.6z M162.8,226.1h-3.7v-3.7h3.7V226.1z M76.1,220.3h-3.7v-3.7h3.7V220.3z M162.8,218.7
				h-3.7V215h3.7V218.7z M158.9,215.3h-3.7v-3.7h3.7V215.3z M151.6,215.3H148v-3.7h3.7L151.6,215.3L151.6,215.3z M144.3,215.3h-3.7
				v-3.7h3.7V215.3z M137,215.3h-3.7v-3.7h3.7V215.3z M129.6,215.3h-3.7v-3.7h3.7V215.3z M122.3,215.3h-3.7v-3.7h3.7V215.3z
				 M115,215.3h-3.7v-3.7h3.7V215.3z M107.7,215.3H104v-3.7h3.7V215.3z M100.4,215.3h-3.7v-3.7h3.7V215.3z M93,215.3h-3.7v-3.7H93
				V215.3z M85.7,215.3H82v-3.7h3.7V215.3z M78.4,215.3h-3.7v-3.7h3.7V215.3z"/>
		</g>
	</g>
</g>
</svg>
