<?xml version="1.0" encoding="utf-8"?>
<!-- Generator: Adobe Illustrator 19.2.0, SVG Export Plug-In . SVG Version: 6.00 Build 0)  -->
<svg version="1.1" id="Layer_1" xmlns="http://www.w3.org/2000/svg" xmlns:xlink="http://www.w3.org/1999/xlink" x="0px" y="0px"
	 viewBox="0 0 64 64" style="enable-background:new 0 0 64 64;" xml:space="preserve">
<style type="text/css">
	.st0{display:none;}
	.st1{display:inline;fill:#FFFFFF;}
	.st2{display:inline;fill:url(#XMLID_4_);}
	.st3{display:inline;fill:none;stroke:#4C5159;stroke-miterlimit:10;}
	.st4{display:inline;}
	.st5{fill:none;stroke:#4C5159;stroke-miterlimit:10;}
	.st6{display:inline;fill:#FFC107;}
	.st7{display:inline;fill:#FFDA6A;}
	.st8{display:inline;fill:url(#XMLID_5_);}
	.st9{display:inline;fill:url(#XMLID_6_);}
	.st10{fill:none;stroke:#4C5159;stroke-miterlimit:10;stroke-dasharray:1,1;}
	.st11{display:inline;fill:url(#XMLID_10_);}
	.st12{display:inline;fill:none;stroke:#4C5159;stroke-miterlimit:10;stroke-dasharray:1,1;}
	.st13{display:inline;fill:#F1F2F2;}
	.st14{display:inline;fill:url(#XMLID_11_);}
	.st15{display:inline;opacity:0.2;fill:#FFFFFF;enable-background:new    ;}
	.st16{display:inline;opacity:0.2;fill:#414042;enable-background:new    ;}
	.st17{display:inline;opacity:0.3;fill:#414042;enable-background:new    ;}
	.st18{display:inline;fill:url(#XMLID_12_);}
	.st19{fill:none;stroke:#FFFFFF;stroke-miterlimit:10;}
	.st20{display:inline;fill:url(#XMLID_15_);}
	.st21{display:inline;fill:url(#XMLID_18_);}
	.st22{display:inline;fill:#EDEDED;}
	.st23{display:inline;fill:url(#XMLID_19_);}
	.st24{display:inline;fill:url(#XMLID_20_);}
	.st25{display:inline;fill:none;stroke:#4C5159;stroke-miterlimit:10;stroke-dasharray:1.9857,1.9857;}
	.st26{display:inline;fill:#E6E7E8;}
	.st27{display:inline;fill:url(#XMLID_22_);}
	.st28{display:inline;fill:url(#XMLID_23_);}
	.st29{display:inline;opacity:0.3;}
	.st30{fill:#414042;}
	.st31{display:inline;fill:url(#XMLID_24_);}
	.st32{fill:#FFDA6A;}
	.st33{fill:#FFC107;}
	.st34{display:inline;fill:url(#XMLID_26_);}
	.st35{display:inline;opacity:0.11;fill:#414042;enable-background:new    ;}
	.st36{display:inline;fill:url(#XMLID_27_);}
	.st37{display:inline;fill:url(#XMLID_28_);}
	.st38{display:inline;fill:url(#XMLID_30_);}
	.st39{display:inline;opacity:0.14;fill:#FFFFFF;enable-background:new    ;}
	.st40{fill:#EDEDED;}
	.st41{opacity:0.3;fill:#414042;enable-background:new    ;}
	.st42{fill:#E89B3E;}
	.st43{fill:#FFFFFF;}
	.st44{fill:#E6E7E8;}
	.st45{fill:#C1DFF3;}
	.st46{display:inline;fill:url(#XMLID_31_);}
	.st47{display:inline;fill:url(#XMLID_32_);}
	.st48{display:inline;fill:url(#XMLID_33_);}
	.st49{display:inline;opacity:0.15;fill:#414042;enable-background:new    ;}
	.st50{display:inline;fill:url(#XMLID_34_);}
	.st51{display:inline;fill:none;stroke:#4C5159;stroke-miterlimit:10;stroke-dasharray:1.986,1.9857;}
	.st52{display:inline;fill:url(#XMLID_35_);}
	.st53{display:inline;fill:url(#XMLID_37_);}
	.st54{display:inline;opacity:0.17;fill:#414042;enable-background:new    ;}
	.st55{display:inline;fill:url(#XMLID_38_);}
	.st56{display:inline;fill:url(#XMLID_39_);}
	.st57{display:inline;fill:url(#XMLID_41_);}
	.st58{fill:url(#XMLID_42_);}
	.st59{fill:url(#XMLID_43_);}
	.st60{display:inline;fill:#4C5159;}
	.st61{display:inline;fill:url(#XMLID_45_);}
	.st62{display:inline;fill:url(#XMLID_46_);}
	.st63{enable-background:new    ;}
	.st64{fill:#4C5159;}
	.st65{fill:#6874E7;}
</style>
<g id="bg" class="st0">
	<rect id="XMLID_119_" x="-218" y="-268.2" class="st1" width="500" height="600.3"/>
</g>
<g id="icons">
	<g id="XMLID_526_" class="st0">
		
			<linearGradient id="XMLID_4_" gradientUnits="userSpaceOnUse" x1="10.3" y1="30.9625" x2="53.8" y2="30.9625" gradientTransform="matrix(1 0 0 -1 0 66)">
			<stop  offset="0" style="stop-color:#6874E7"/>
			<stop  offset="0.4803" style="stop-color:#747FE9"/>
			<stop  offset="0.9847" style="stop-color:#858EEC"/>
		</linearGradient>
		<path id="XMLID_542_" class="st2" d="M48.3,18H16l-3.8,6l-1.9,3.3L31.9,52c0.1,0.1,0.2,0.1,0.3,0l21.6-24.6L48.3,18z"/>
		<path id="XMLID_541_" class="st3" d="M12.2,24l-1.9,3.3L31.9,52c0.1,0.1,0.2,0.1,0.3,0l21.6-24.6L48.3,18H21.5"/>
		<line id="XMLID_540_" class="st3" x1="10.3" y1="27.4" x2="53.7" y2="27.4"/>
		<line id="XMLID_539_" class="st3" x1="32" y1="52.1" x2="22" y2="29.4"/>
		<line id="XMLID_538_" class="st3" x1="32" y1="51.5" x2="41.7" y2="29.4"/>
		<line id="XMLID_537_" class="st3" x1="32" y1="29.4" x2="32" y2="51.5"/>
		<polyline id="XMLID_536_" class="st3" points="27.1,17.6 21.4,25.4 19.9,23.5 		"/>
		<polyline id="XMLID_535_" class="st3" points="37.5,17.6 31.8,25.4 26.7,18.7 		"/>
		<polyline id="XMLID_534_" class="st3" points="47.9,17.6 42.1,25.4 37,18.7 		"/>
		<g id="XMLID_527_" class="st4">
			<line id="XMLID_533_" class="st5" x1="16" y1="11.9" x2="16" y2="14.7"/>
			<line id="XMLID_532_" class="st5" x1="21.3" y1="14.9" x2="18.8" y2="16.4"/>
			<line id="XMLID_531_" class="st5" x1="21.3" y1="21" x2="18.8" y2="19.6"/>
			<line id="XMLID_530_" class="st5" x1="16.1" y1="24" x2="16.1" y2="21.2"/>
			<line id="XMLID_529_" class="st5" x1="10.8" y1="21" x2="13.3" y2="19.6"/>
			<line id="XMLID_528_" class="st5" x1="10.8" y1="15" x2="13.2" y2="16.4"/>
		</g>
		<circle id="XMLID_217_" class="st6" cx="16" cy="18" r="2.3"/>
	</g>
	<g id="XMLID_62_" class="st0">
		<path id="XMLID_25_" class="st6" d="M45.3,27.5c0-7.3-5.9-13.3-13.3-13.3s-13.3,5.9-13.3,13.3c0,4.7,2.4,8.8,6.1,11.1v3.3h14.4
			v-3.3C42.9,36.3,45.3,32.1,45.3,27.5z"/>
		<path id="XMLID_460_" class="st7" d="M32.1,14.2c-0.7,0-1.3,0.1-2,0.2c6.4,1,11.3,6.5,11.3,13.1c0,4.7-2.4,8.8-6.1,11.1v3.3h4
			v-3.3c3.7-2.4,6.1-6.5,6.1-11.1C45.3,20.1,39.4,14.2,32.1,14.2z"/>
		
			<linearGradient id="XMLID_5_" gradientUnits="userSpaceOnUse" x1="22.6" y1="19.35" x2="41.4" y2="19.35" gradientTransform="matrix(1 0 0 -1 0 66)">
			<stop  offset="0" style="stop-color:#6874E7"/>
			<stop  offset="0.4803" style="stop-color:#747FE9"/>
			<stop  offset="0.9847" style="stop-color:#858EEC"/>
		</linearGradient>
		<polygon id="XMLID_458_" class="st8" points="40.3,51.4 23.7,51.4 22.6,49 22.6,41.9 41.4,41.9 41.4,48.9 		"/>
		
			<linearGradient id="XMLID_6_" gradientUnits="userSpaceOnUse" x1="29.3638" y1="13.1" x2="34.6568" y2="13.1" gradientTransform="matrix(1 0 0 -1 0 66)">
			<stop  offset="0" style="stop-color:#6874E7"/>
			<stop  offset="0.4803" style="stop-color:#747FE9"/>
			<stop  offset="0.9847" style="stop-color:#858EEC"/>
		</linearGradient>
		<rect id="XMLID_457_" x="29.4" y="51.4" class="st9" width="5.3" height="3"/>
		<polygon id="XMLID_44_" class="st3" points="40.3,51.4 23.7,51.4 22.6,49 22.6,41.9 41.4,41.9 41.4,48.9 		"/>
		<rect id="XMLID_461_" x="29.4" y="51.4" class="st3" width="5.3" height="3"/>
		<line id="XMLID_21_" class="st3" x1="22.6" y1="46.7" x2="30.8" y2="46.7"/>
		<g id="XMLID_16_" class="st4">
			<path id="XMLID_17_" class="st10" d="M16.9,37.8c-1.9-2.9-3-6.3-3-10c0-10,8.1-18.1,18.1-18.1s18.1,8.1,18.1,18.1
				c0,4.1-1.3,7.8-3.6,10.8"/>
		</g>
		<polyline id="XMLID_14_" class="st3" points="26,26.8 30,30.9 38,22.8 		"/>
	</g>
	<g id="XMLID_64_" class="st0">
		<circle id="XMLID_29_" class="st6" cx="30.5" cy="30.5" r="12.8"/>
		
			<linearGradient id="XMLID_10_" gradientUnits="userSpaceOnUse" x1="14.9775" y1="45.7633" x2="25.5197" y2="45.7633" gradientTransform="matrix(1.0308 3.080000e-02 -3.080000e-02 -1.0308 28.3495 94.3495)">
			<stop  offset="0" style="stop-color:#6874E7"/>
			<stop  offset="0.4803" style="stop-color:#747FE9"/>
			<stop  offset="0.9847" style="stop-color:#858EEC"/>
		</linearGradient>
		<polygon id="XMLID_7_" class="st11" points="53.3,50.6 50.6,53.3 42.3,45 45,42.3 		"/>
		<line id="XMLID_9_" class="st3" x1="41.5" y1="41.5" x2="43.7" y2="43.7"/>
		<path id="XMLID_36_" class="st3" d="M45.5,26.2c1.5,5.3,0.2,11.2-4,15.3c-6.1,6.1-16,6.1-22.1,0s-6.1-16,0-22.1s16-6.1,22.1,0
			c0.8,0.8,1.6,1.8,2.2,2.7"/>
		<polyline id="XMLID_8_" class="st3" points="16.8,38.9 28.7,26.9 35.3,33.6 51,18 		"/>
		<polyline id="XMLID_2_" class="st3" points="48.5,17.2 51.8,17.2 51.8,20.5 		"/>
		<path id="XMLID_40_" class="st12" d="M39.5,48.1c-2.7,1.4-5.8,2.2-9.1,2.2c-10.9,0-19.8-8.9-19.8-19.8s8.9-19.8,19.8-19.8
			c5.4,0,10.3,2.2,13.9,5.7"/>
	</g>
	<g id="XMLID_459_" class="st0">
		<path id="XMLID_470_" class="st13" d="M38.9,12c0-1.2-1-2.2-2.2-2.2H14.8c-1.2,0-2.2,1-2.2,2.2v40c0,1.2,1,2.2,2.2,2.2h21.9
			c1.2,0,2.2-1,2.2-2.2V12z"/>
		
			<linearGradient id="XMLID_11_" gradientUnits="userSpaceOnUse" x1="13.2368" y1="19.2" x2="38.4619" y2="49.1549" gradientTransform="matrix(1 0 0 -1 0 66)">
			<stop  offset="0" style="stop-color:#6874E7"/>
			<stop  offset="0.4803" style="stop-color:#747FE9"/>
			<stop  offset="0.9847" style="stop-color:#858EEC"/>
		</linearGradient>
		<rect id="XMLID_469_" x="12.5" y="16.5" class="st14" width="26.4" height="31"/>
		<path id="XMLID_716_" class="st15" d="M36.7,9.8h-2.1c1.2,0,2.2,1,2.2,2.2v40c0,1.2-1,2.2-2.2,2.2h2.1c1.2,0,2.2-1,2.2-2.2V12
			C38.9,10.8,37.9,9.8,36.7,9.8z"/>
		<path id="XMLID_714_" class="st16" d="M14.8,9.8h2.1c-1.2,0-2.2,1-2.2,2.2v40c0,1.2,1,2.2,2.2,2.2h-2.1c-1.2,0-2.2-1-2.2-2.2V12
			C12.5,10.8,13.5,9.8,14.8,9.8z"/>
		<path id="XMLID_77_" class="st3" d="M38.9,40.8V52c0,1.2-1,2.2-2.2,2.2H14.8c-1.2,0-2.2-1-2.2-2.2V12c0-1.2,1-2.2,2.2-2.2h21.9
			c1.2,0,2.2,1,2.2,2.2v8.4"/>
		<line id="XMLID_68_" class="st3" x1="12.5" y1="16.5" x2="38.9" y2="16.5"/>
		<line id="XMLID_69_" class="st3" x1="21.5" y1="13.3" x2="27.6" y2="13.3"/>
		<line id="XMLID_99_" class="st3" x1="29.3" y1="13.3" x2="28.1" y2="13.3"/>
		<line id="XMLID_67_" class="st3" x1="12.5" y1="47.5" x2="38.9" y2="47.5"/>
		<path id="XMLID_464_" class="st17" d="M38.9,24.1H27.5c-1.2,0-2.1,1-2.1,2.1v19c0,0.1,0.1,0.1,0.1,0l5.8-4.7H39L38.9,24.1
			L38.9,24.1z"/>
		<path id="XMLID_70_" class="st6" d="M49.4,39h-18l-4.9,4.2h-0.1v-19c0-1.2,1-2.1,2.1-2.1h20.9c1.2,0,2.1,1,2.1,2.1v12.7
			C51.5,38,50.5,39,49.4,39z"/>
		<g id="XMLID_76_" class="st4">
			<path id="XMLID_72_" class="st5" d="M42.6,27H39c-1,0-1.8,0.8-1.8,1.8l0,0c0,1,0.8,1.8,1.8,1.8h1.7c1,0,1.8,0.8,1.8,1.8l0,0
				c0,1-0.8,1.8-1.8,1.8H37"/>
			<line id="XMLID_73_" class="st5" x1="39.9" y1="25.1" x2="39.9" y2="27"/>
			<line id="XMLID_71_" class="st5" x1="39.9" y1="34.2" x2="39.9" y2="35.9"/>
		</g>
	</g>
	<g id="XMLID_100_" class="st0">
		
			<linearGradient id="XMLID_12_" gradientUnits="userSpaceOnUse" x1="11.5" y1="40.25" x2="52.5092" y2="40.25" gradientTransform="matrix(1 0 0 -1 0 66)">
			<stop  offset="0" style="stop-color:#6874E7"/>
			<stop  offset="0.4803" style="stop-color:#747FE9"/>
			<stop  offset="0.9847" style="stop-color:#858EEC"/>
		</linearGradient>
		<path id="XMLID_80_" class="st18" d="M50.5,36.6h-37c-1.1,0-2-0.9-2-2V16.9c0-1.1,0.9-2,2-2h37.1c1.1,0,2,0.9,2,2v17.7
			C52.5,35.7,51.6,36.6,50.5,36.6z"/>
		<path id="XMLID_465_" class="st17" d="M13,35.6V17.9c0-1.1,0.9-2,2-2h37c0.1,0,0.1,0,0.2,0c-0.3-0.6-1-1-1.7-1h-37
			c-1.1,0-2,0.9-2,2v17.7c0,1,0.8,1.8,1.8,1.9C13.1,36.3,13,35.9,13,35.6z"/>
		<g id="XMLID_94_" class="st4">
			<path id="XMLID_98_" class="st19" d="M34.7,22.5h-3.4c-0.9,0-1.7,0.8-1.7,1.7l0,0c0,0.9,0.8,1.7,1.7,1.7h1.6
				c0.9,0,1.7,0.8,1.7,1.7l0,0c0,0.9-0.8,1.7-1.7,1.7h-3.5"/>
			<line id="XMLID_97_" class="st19" x1="32.1" y1="20.7" x2="32.1" y2="22.5"/>
			<line id="XMLID_95_" class="st19" x1="32.1" y1="29.2" x2="32.1" y2="30.8"/>
		</g>
		<path id="XMLID_82_" class="st3" d="M17.9,15c0,3.5-2.8,6.4-6.4,6.4"/>
		<path id="XMLID_83_" class="st3" d="M46.1,15c0,3.5,2.8,6.4,6.4,6.4"/>
		<path id="XMLID_87_" class="st3" d="M17.9,36.6c0-3.5-2.8-6.4-6.4-6.4"/>
		<path id="XMLID_86_" class="st3" d="M46.1,36.6c0-3.5,2.8-6.4,6.4-6.4"/>
		<circle id="XMLID_85_" class="st3" cx="32" cy="25.8" r="7.5"/>
		<line id="XMLID_89_" class="st3" x1="19.8" y1="25.8" x2="22.2" y2="25.8"/>
		<line id="XMLID_88_" class="st3" x1="41.5" y1="25.8" x2="43.9" y2="25.8"/>
		<line id="XMLID_91_" class="st3" x1="11.5" y1="41.1" x2="52.5" y2="41.1"/>
		<line id="XMLID_90_" class="st3" x1="11.5" y1="45" x2="52.5" y2="45"/>
		<line id="XMLID_92_" class="st3" x1="11.5" y1="49" x2="52.5" y2="49"/>
	</g>
	<g id="XMLID_105_" class="st0">
		<path id="XMLID_476_" class="st6" d="M45.3,27.5c0-7.3-5.9-13.3-13.3-13.3s-13.3,5.9-13.3,13.3c0,4.7,2.4,8.8,6.1,11.1v3.3h14.4
			v-3.3C42.9,36.3,45.3,32.1,45.3,27.5z"/>
		<path id="XMLID_475_" class="st7" d="M32.1,14.2c-0.7,0-1.3,0.1-2,0.2c6.4,1,11.3,6.5,11.3,13.1c0,4.7-2.4,8.8-6.1,11.1v3.3h4
			v-3.3c3.7-2.4,6.1-6.5,6.1-11.1C45.3,20.1,39.4,14.2,32.1,14.2z"/>
		
			<linearGradient id="XMLID_15_" gradientUnits="userSpaceOnUse" x1="22.6" y1="19.35" x2="41.4" y2="19.35" gradientTransform="matrix(1 0 0 -1 0 66)">
			<stop  offset="0" style="stop-color:#6874E7"/>
			<stop  offset="0.4803" style="stop-color:#747FE9"/>
			<stop  offset="0.9847" style="stop-color:#858EEC"/>
		</linearGradient>
		<polygon id="XMLID_474_" class="st20" points="40.3,51.4 23.7,51.4 22.6,49 22.6,41.9 41.4,41.9 41.4,48.9 		"/>
		
			<linearGradient id="XMLID_18_" gradientUnits="userSpaceOnUse" x1="29.3638" y1="13.1" x2="34.6568" y2="13.1" gradientTransform="matrix(1 0 0 -1 0 66)">
			<stop  offset="0" style="stop-color:#6874E7"/>
			<stop  offset="0.4803" style="stop-color:#747FE9"/>
			<stop  offset="0.9847" style="stop-color:#858EEC"/>
		</linearGradient>
		<rect id="XMLID_472_" x="29.4" y="51.4" class="st21" width="5.3" height="3"/>
		<polygon id="XMLID_471_" class="st3" points="40.3,51.4 23.7,51.4 22.6,49 22.6,41.9 41.4,41.9 41.4,48.9 		"/>
		<rect id="XMLID_467_" x="29.4" y="51.4" class="st3" width="5.3" height="3"/>
		<line id="XMLID_179_" class="st3" x1="22.6" y1="46.7" x2="30.8" y2="46.7"/>
		<g id="XMLID_174_" class="st4">
			<path id="XMLID_175_" class="st10" d="M16.9,37.8c-1.9-2.9-3-6.3-3-10c0-10,8.1-18.1,18.1-18.1s18.1,8.1,18.1,18.1
				c0,4.1-1.3,7.8-3.6,10.8"/>
		</g>
		<g id="XMLID_146_" class="st4">
			<path id="XMLID_148_" class="st5" d="M41.3,28.6v-2l-3.1-0.5c-0.2-0.7-0.4-1.3-0.8-1.9l1.9-2.5l-1.4-1.4l-2.5,1.9
				c-0.6-0.4-1.2-0.6-1.9-0.8L33,18.3h-2l-0.5,3.1c-0.7,0.2-1.3,0.4-1.9,0.8l-2.5-1.9l-1.4,1.4l1.9,2.6c-0.4,0.6-0.6,1.2-0.8,1.9
				l-3.1,0.4v2l3.1,0.5c0.2,0.7,0.4,1.3,0.8,1.9l-1.9,2.5l1.4,1.4l2.6-1.9c0.6,0.4,1.2,0.6,1.9,0.8l0.5,3.1h2l0.5-3.1
				c0.7-0.2,1.3-0.4,1.9-0.8l2.5,1.9l1.4-1.4l-1.9-2.6c0.4-0.6,0.6-1.2,0.8-1.9L41.3,28.6z"/>
			<circle id="XMLID_147_" class="st5" cx="32" cy="27.6" r="2.8"/>
		</g>
	</g>
	<g id="XMLID_107_" class="st0">
		<path id="XMLID_84_" class="st22" d="M50.1,52.7H22.4c-0.8,0-1.4-0.6-1.4-1.4v-33c0-0.8,0.6-1.4,1.4-1.4h31.7v31.8
			C54.1,50.9,52.3,52.7,50.1,52.7z"/>
		<path id="XMLID_473_" class="st17" d="M28.4,30.6l2.3-3L29,25.9l-3,2.3c-0.7-0.4-1.4-0.7-2.2-0.9l-0.5-3.8H21v7.9
			c0.3-0.1,0.6-0.2,1-0.2c1.9,0,3.4,1.5,3.4,3.4S23.9,38,22,38c-0.4,0-0.7-0.1-1-0.2v7.9h2.2l0.5-3.8c0.8-0.2,1.5-0.5,2.2-0.9l3,2.3
			l1.7-1.7l-2.3-3c0.4-0.7,0.7-1.4,0.9-2.2l3.8-0.5v-2.4L29.2,33C29.1,32.1,28.8,31.3,28.4,30.6z"/>
		<path id="XMLID_466_" class="st6" d="M32.1,35.8v-2.4l-3.8-0.5c-0.2-0.8-0.5-1.5-0.9-2.2l2.3-3L28,25.9l-3,2.3
			c-0.7-0.4-1.4-0.7-2.2-0.9l-0.5-3.8h-2.4l-0.5,3.8c-0.8,0.2-1.5,0.5-2.2,0.9l-3-2.3l-1.7,1.7l2.3,3c-0.4,0.7-0.7,1.4-0.9,2.2
			l-3.8,0.5v2.4l3.8,0.6c0.2,0.8,0.5,1.5,0.9,2.2l-2.3,3l1.7,1.7l3-2.3c0.7,0.4,1.4,0.7,2.2,0.9l0.5,3.8h2.4l0.5-3.8
			c0.8-0.2,1.5-0.5,2.2-0.9l3,2.3l1.7-1.7l-2.3-3c0.4-0.7,0.7-1.4,0.9-2.2L32.1,35.8z M21,38c-1.9,0-3.4-1.5-3.4-3.4
			s1.5-3.4,3.4-3.4s3.4,1.5,3.4,3.4S22.9,38,21,38z"/>
		<polygon id="XMLID_468_" class="st17" points="54.1,43.9 54.1,26.8 52.5,16.9 44.5,16.9 44.5,45.7 52.2,44.6 		"/>
		
			<linearGradient id="XMLID_19_" gradientUnits="userSpaceOnUse" x1="46.4569" y1="35.9" x2="54.0685" y2="35.9" gradientTransform="matrix(1 0 0 -1 0 66)">
			<stop  offset="0" style="stop-color:#6874E7"/>
			<stop  offset="0.4803" style="stop-color:#747FE9"/>
			<stop  offset="0.9847" style="stop-color:#858EEC"/>
		</linearGradient>
		<path id="XMLID_81_" class="st23" d="M54.1,48.9c0-5.2-7.6-3.9-7.6-3.9V11.3h3.8c2.1,0,3.8,1.7,3.8,3.8v27V48.9z"/>
		<path id="XMLID_93_" class="st3" d="M54.1,48.9c0-5.2-7.6-3.9-7.6-3.9V11.3h3.8c2.1,0,3.8,1.7,3.8,3.8v27V48.9z"/>
		<path id="XMLID_102_" class="st3" d="M20.9,21v-2.2c0-1,0.8-1.8,1.8-1.8h21.9"/>
		<path id="XMLID_96_" class="st3" d="M54.1,42.3v6.1c0,2.4-1.9,4.3-4.3,4.3h-27c-1,0-1.8-0.8-1.8-1.8V48"/>
		<path id="XMLID_104_" class="st12" d="M28.3,21c5.8,2,9.9,7.5,9.9,14c0,6-3.6,11.2-8.8,13.5"/>
	</g>
	<g id="XMLID_112_" class="st0">
		<path id="XMLID_489_" class="st22" d="M54.2,40.7l-8.8-8.8h-0.1h-0.1l-8.8,8.8c-0.1,0.1,0,0.2,0.1,0.2h3.9v11.2h9.9V40.9h3.9
			C54.3,40.9,54.3,40.8,54.2,40.7z"/>
		<path id="XMLID_488_" class="st17" d="M36.4,40.7c-0.1,0.1,0,0.2,0.1,0.2h3.9v11.2h1.5V35.2L36.4,40.7z"/>
		
			<linearGradient id="XMLID_20_" gradientUnits="userSpaceOnUse" x1="21.2225" y1="34.4222" x2="45.232" y2="34.4222" gradientTransform="matrix(1 0 0 -1 0 66)">
			<stop  offset="0" style="stop-color:#6874E7"/>
			<stop  offset="0.4803" style="stop-color:#747FE9"/>
			<stop  offset="0.9847" style="stop-color:#858EEC"/>
		</linearGradient>
		<path id="XMLID_143_" class="st24" d="M45.2,22.9L33.4,11.1c0,0-0.1-0.1-0.2,0c-0.1,0-0.1,0-0.2,0L21.3,22.9
			c-0.1,0.1,0,0.3,0.1,0.3h5.2v28.9h13.2V23.2H45C45.2,23.2,45.3,23,45.2,22.9z"/>
		<path id="XMLID_491_" class="st17" d="M26.6,29.7v22.4h1.5c4.2-1.9,7.1-6,7.1-10.9C35.2,35.8,31.6,31.2,26.6,29.7z"/>
		<circle id="XMLID_120_" class="st6" cx="21.3" cy="41.2" r="12"/>
		<path id="XMLID_483_" class="st7" d="M21.3,29.2c-3.1,0-6,1.2-8.1,3.2c1.8-1.1,3.9-1.7,6.1-1.7c6.6,0,12,5.4,12,12
			c0,3.5-1.5,6.6-3.8,8.8c3.5-2.1,5.8-5.9,5.8-10.3C33.2,34.6,27.9,29.2,21.3,29.2z"/>
		<g id="XMLID_128_" class="st4">
			<path id="XMLID_133_" class="st5" d="M25.2,36.3h-5c-1.4,0-2.5,1.1-2.5,2.5l0,0c0,1.4,1.1,2.5,2.5,2.5h2.4c1.4,0,2.5,1.1,2.5,2.5
				l0,0c0,1.4-1.1,2.5-2.5,2.5h-5.2"/>
			<line id="XMLID_132_" class="st5" x1="21.5" y1="33.7" x2="21.5" y2="36.3"/>
			<line id="XMLID_131_" class="st5" x1="21.5" y1="46.3" x2="21.5" y2="48.7"/>
		</g>
		<line id="XMLID_108_" class="st3" x1="12.1" y1="41.2" x2="15" y2="41.2"/>
		<line id="XMLID_106_" class="st3" x1="27.6" y1="41.2" x2="30.5" y2="41.2"/>
		<path id="XMLID_121_" class="st3" d="M39.9,30.4v-7h5.4c0.2,0,0.3-0.2,0.1-0.3L33.3,10.9c-0.1-0.1-0.2-0.1-0.3,0L20.8,23.1
			c-0.1,0.1,0,0.3,0.1,0.3h5.4v4.5"/>
		<path id="XMLID_117_" class="st3" d="M50.4,52.1V41.6h4.2c0.1,0,0.2-0.2,0.1-0.3l-9.4-9.4c-0.1-0.1-0.2-0.1-0.2,0l-2.4,2.4"/>
		<line id="XMLID_110_" class="st25" x1="39.9" y1="52.1" x2="39.9" y2="30.4"/>
	</g>
	<g id="XMLID_123_" class="st0">
		<path id="XMLID_109_" class="st22" d="M53.3,31.8c0,0.1,0,0.1,0,0.2C52.2,33.2,40.7,45.6,32,45.6S11.8,33.1,10.7,31.9
			c0-0.1,0-0.1,0-0.2C11.8,30.5,23.3,18,32,18C40.7,18.1,52.2,30.6,53.3,31.8z"/>
		<path id="XMLID_164_" class="st26" d="M52.4,30.9c-3,3.2-12.8,12.7-20.4,12.7c-7.7,0-17.4-9.6-20.4-12.7c-0.4,0.4-0.7,0.8-0.8,0.9
			c0,0.1,0,0.1,0,0.2c1.1,1.2,12.6,13.7,21.3,13.7S52.3,33.2,53.4,32c0-0.1,0-0.1,0-0.2C53.1,31.7,52.9,31.3,52.4,30.9z"/>
		<circle id="XMLID_135_" class="st1" cx="31.8" cy="32" r="9.9"/>
		
			<linearGradient id="XMLID_22_" gradientUnits="userSpaceOnUse" x1="27.1283" y1="34" x2="36.5036" y2="34" gradientTransform="matrix(1 0 0 -1 0 66)">
			<stop  offset="0" style="stop-color:#6874E7"/>
			<stop  offset="0.4803" style="stop-color:#747FE9"/>
			<stop  offset="0.9847" style="stop-color:#858EEC"/>
		</linearGradient>
		<circle id="XMLID_136_" class="st27" cx="31.8" cy="32" r="4.7"/>
		<path id="XMLID_114_" class="st3" d="M41.4,34.6c-1.1,4.2-5,7.3-9.6,7.3c-5.5,0-9.9-4.4-9.9-9.9c0-4.6,3.1-8.4,7.4-9.6"/>
		<path id="XMLID_142_" class="st6" d="M41.5,32h-9.6V22C37,21.9,41.5,27.1,41.5,32z"/>
		<polyline id="XMLID_113_" class="st3" points="31.8,20 31.8,32 44.5,32 		"/>
		<path id="XMLID_111_" class="st3" d="M31.6,22.1c5.5,0,9.9,4.4,9.9,9.9"/>
		<line id="XMLID_116_" class="st3" x1="31.9" y1="11.1" x2="31.9" y2="15.4"/>
		<line id="XMLID_122_" class="st3" x1="42.2" y1="13.8" x2="40" y2="17.5"/>
		<line id="XMLID_115_" class="st3" x1="21.5" y1="14" x2="23.6" y2="17.7"/>
		<line id="XMLID_126_" class="st3" x1="31.9" y1="52.9" x2="31.9" y2="48.6"/>
		<line id="XMLID_125_" class="st3" x1="42.2" y1="50.2" x2="40" y2="46.5"/>
		<line id="XMLID_124_" class="st3" x1="21.5" y1="50" x2="23.6" y2="46.3"/>
		<path id="XMLID_137_" class="st3" d="M36.5,32c0,2.6-2.1,4.7-4.7,4.7s-4.7-2.1-4.7-4.7s2.1-4.7,4.7-4.7"/>
	</g>
	<g id="XMLID_163_" class="st0">
		<path id="XMLID_706_" class="st26" d="M51.2,50.3h-40c-0.1,0-0.2-0.1-0.2-0.2V23.3c0-0.1,0.1-0.2,0.2-0.2h40.1
			c0.1,0,0.2,0.1,0.2,0.2V50C51.4,50.2,51.3,50.3,51.2,50.3z"/>
		<rect id="XMLID_705_" x="13.1" y="24.7" class="st6" width="35.8" height="22.2"/>
		<path id="XMLID_703_" class="st13" d="M51.7,52.2H10.6c-0.5,0-1-0.4-1.1-0.9l-0.4-2.4h18.3l0.7,1h5l0.8-1h19.2l-0.4,2.4
			C52.7,51.8,52.3,52.2,51.7,52.2z"/>
		<path id="XMLID_495_" class="st3" d="M51.7,52.2H10.6c-0.5,0-1-0.4-1.1-0.9l-0.4-2.4h18.3l0.7,1h5l0.8-1h19.2l-0.4,2.4
			C52.7,51.8,52.3,52.2,51.7,52.2z"/>
		<line id="XMLID_494_" class="st3" x1="13.1" y1="46.8" x2="48.9" y2="46.8"/>
		<path id="XMLID_172_" class="st17" d="M28.8,26c-0.3,2.6,0.3,5.1,1.6,7.1l-0.9,5c0,0.1,0.1,0.1,0.1,0.1l5.5-1
			c1.8,0.8,3.8,1.1,5.9,0.8c4.8-0.7,8.6-4.6,9.2-9.4c0.2-2-0.1-3.9-0.8-5.6H29.6C29.2,24,28.9,25,28.8,26z"/>
		
			<linearGradient id="XMLID_23_" gradientUnits="userSpaceOnUse" x1="30.224" y1="40.137" x2="51.7982" y2="40.137" gradientTransform="matrix(1 0 0 -1 0 66)">
			<stop  offset="0" style="stop-color:#6874E7"/>
			<stop  offset="0.4803" style="stop-color:#747FE9"/>
			<stop  offset="0.9847" style="stop-color:#858EEC"/>
		</linearGradient>
		<path id="XMLID_443_" class="st28" d="M31.1,36.7l5.5-1c1.8,0.8,3.8,1.1,5.9,0.8c4.8-0.7,8.6-4.6,9.2-9.4c0.8-7-5.1-12.8-12.1-12
			c-4.8,0.6-8.7,4.5-9.3,9.3c-0.3,2.6,0.3,5.1,1.6,7.1l-0.9,5C30.9,36.7,31,36.7,31.1,36.7z"/>
		<path id="XMLID_171_" class="st1" d="M43.9,26l-5.6,3.3c-0.1,0-0.1,0-0.1-0.1v-6.5c0-0.1,0.1-0.1,0.1-0.1l5.6,3.3
			C43.9,25.9,43.9,25.9,43.9,26l-5.6,3.3c-0.1,0-0.1,0-0.1-0.1v-6.5c0-0.1,0.1-0.1,0.1-0.1l5.6,3.3C43.9,25.9,43.9,25.9,43.9,26z"/>
		<path id="XMLID_178_" class="st3" d="M41.1,11.8c7.6,0,13.8,6.2,13.8,13.8c0,3.1-1,5.9-2.7,8.2"/>
		<path id="XMLID_177_" class="st25" d="M28.1,20.9c1.9-5.3,7-9.2,13-9.2"/>
	</g>
	<g id="XMLID_169_" class="st0">
		<path id="XMLID_257_" class="st6" d="M34.6,51.2c0,0-4-7.6-4-11.9V33H18.1v6.3c0,4.3-1.4,8.5-4,11.9l0,0
			C14.1,51.2,34.6,51.2,34.6,51.2z"/>
		<path id="XMLID_500_" class="st7" d="M21.1,33h-3v6.3c0,4.3-1.4,8.5-4,11.9h3c2.6-3.4,4-7.6,4-11.9V33z"/>
		<path id="XMLID_194_" class="st17" d="M14.1,51.2h19.6v-1H14.8C14.6,50.6,14.4,50.9,14.1,51.2z"/>
		<path id="XMLID_499_" class="st6" d="M14.3,51.2c-1.2,0-2.2,1-2.2,2.2v1.1h21.6v-3.3H14.3z"/>
		<path id="XMLID_481_" class="st17" d="M35.2,51.2h-3c-1,0-1.9,0.8-1.9,1.9v1.8h3v-1.8C33.4,52.1,34.2,51.2,35.2,51.2z"/>
		<rect id="XMLID_144_" x="34" y="26.9" class="st17" width="4" height="3.2"/>
		<g id="XMLID_480_" class="st29">
			<path id="XMLID_493_" class="st30" d="M36,22.7c0.2-1.5,1.3-2.7,2.7-3.1c-0.5-0.1-1.1-0.2-1.6-0.1c-1.6,0.3-2.9,1.6-3.1,3.2
				c-0.3,2.3,1.5,4.2,3.7,4.2h2C37.5,26.9,35.7,25,36,22.7z"/>
		</g>
		
			<linearGradient id="XMLID_24_" gradientUnits="userSpaceOnUse" x1="33.9653" y1="9.7002" x2="49.257" y2="42.6585" gradientTransform="matrix(1 0 0 -1 0 66)">
			<stop  offset="0" style="stop-color:#6874E7"/>
			<stop  offset="0.9847" style="stop-color:#858EEC"/>
		</linearGradient>
		<path id="XMLID_492_" class="st31" d="M50,51.2h-1.4c3.3-5.9-0.8-10-2.8-12.6c-3.3-4.5-0.7-7.8-0.1-8.4h2.8v-3.3h-3.7
			c2.2,0,4-1.9,3.7-4.2c-0.2-1.6-1.5-3-3.1-3.2c-0.9-0.2-1.8,0-2.6,0.5h-0.1v-3.4h2.8c0.1,0,0.1,0,0.1-0.1V13c0-0.1,0-0.1-0.1-0.1
			h-2.8V9.4c0-0.1,0-0.1-0.1-0.1h-2.8c-0.1,0-0.1,0-0.1,0.1v3.5h-2.8c-0.1,0-0.1,0-0.1,0.1v3.5c0,0.1,0,0.1,0.1,0.1h2.8V20
			c0,0,0,0-0.1,0c-0.7-0.4-1.6-0.6-2.6-0.5c-1.6,0.3-2.9,1.6-3.1,3.2c-0.3,2.3,1.5,4.2,3.7,4.2H34v3.3h2.6c0.6,0.6,3.2,3.9-0.1,8.4
			c-1.9,2.6-6,6.7-2.8,12.6h-1.4c-1,0-1.9,0.8-1.9,1.9v1.8h21.5v-1.8C51.8,52.1,51,51.2,50,51.2z"/>
		<path id="XMLID_479_" class="st17" d="M38.4,38.6c3.7-5,0-8.5,0-8.5h-2c0,0,3.7,3.5,0,8.5c-1.9,2.6-6.1,6.8-2.7,12.8h2
			C32.3,45.4,36.5,41.2,38.4,38.6z"/>
		<path id="XMLID_502_" class="st7" d="M18.3,51.2h-4c-1.2,0-2.2,1-2.2,2.2v1.1h4v-1.1C16.2,52.2,17.1,51.2,18.3,51.2z"/>
		<rect id="XMLID_503_" x="18.1" y="33" class="st17" width="12.5" height="2.1"/>
		<path id="XMLID_145_" class="st6" d="M33.2,22.4h-2.5c-0.2,0-0.4,0.2-0.4,0.4v2.4h-4.5v-2.4c0-0.2-0.2-0.4-0.4-0.4h-2.7
			c-0.2,0-0.4,0.2-0.4,0.4v2.4h-4.5v-2.4c0-0.2-0.2-0.4-0.4-0.4h-2.3c-0.2,0-0.4,0.2-0.4,0.4v2.4v2.9V33l0,0h19.2V23
			C33.7,22.7,33.5,22.4,33.2,22.4z"/>
		<path id="XMLID_173_" class="st6" d="M33.2,22.4h-2.5c-0.2,0-0.4,0.2-0.4,0.4v2.4h-4.5v-2.4c0-0.2-0.2-0.4-0.4-0.4h-2.7
			c-0.2,0-0.4,0.2-0.4,0.4v2.4h-4.5v-2.4c0-0.2-0.2-0.4-0.4-0.4h-2.3c-0.2,0-0.4,0.2-0.4,0.4v2.4v2.9V33l0,0h19.2V23
			C33.7,22.7,33.5,22.4,33.2,22.4z"/>
		<g id="XMLID_267_" class="st4">
			<path id="XMLID_478_" class="st32" d="M19,28.2v-2.9h-1.4v-2.4c0-0.2-0.2-0.4-0.4-0.4h-2.3c-0.2,0-0.4,0.2-0.4,0.4v2.4v2.9v4.9
				l0,0H19l0,0V28.2z"/>
		</g>
		<g id="XMLID_189_" class="st4">
			<path id="XMLID_183_" class="st5" d="M36.3,30c0,0,3.7,3.5,0,8.5c-1.9,2.6-6.1,6.8-2.7,12.8"/>
			<path id="XMLID_188_" class="st5" d="M45.6,30c0,0-3.7,3.5,0,8.5c1.9,2.6,6.1,6.8,2.7,12.8"/>
			<path id="XMLID_490_" class="st5" d="M42.9,51.1h6.9c1,0,1.9,0.8,1.9,1.9v1.8H30.3V53c0-1,0.8-1.9,1.9-1.9h5.1"/>
			<line id="XMLID_182_" class="st5" x1="38.5" y1="51.1" x2="39.9" y2="51.1"/>
			<line id="XMLID_477_" class="st5" x1="41.4" y1="30" x2="40.1" y2="30"/>
			<polyline id="XMLID_187_" class="st5" points="39.1,30 33.9,30 33.9,26.8 48.3,26.8 48.3,30 44.2,30 			"/>
			<path id="XMLID_190_" class="st5" d="M37.6,26.8c-2.2,0-4-1.9-3.7-4.2c0.2-1.6,1.5-3,3.1-3.2c0.9-0.2,1.8,0,2.6,0.5h0.1v-3.4
				h-2.8c-0.1,0-0.1,0-0.1-0.1v-3.5c0-0.1,0-0.1,0.1-0.1h2.8V9.2c0-0.1,0-0.1,0.1-0.1h2.8c0.1,0,0.1,0,0.1,0.1v3.5h2.8
				c0.1,0,0.1,0,0.1,0.1v3.5c0,0.1,0,0.1-0.1,0.1h-2.8v3.4c0,0,0,0,0.1,0c0.7-0.4,1.6-0.6,2.6-0.5c1.6,0.3,2.9,1.6,3.1,3.2
				c0.3,2.3-1.5,4.2-3.7,4.2"/>
		</g>
	</g>
	<g id="XMLID_191_" class="st0">
		<path id="XMLID_497_" class="st22" d="M32,13.5c-10.2,0-18.5,8.3-18.5,18.5S21.8,50.5,32,50.5S50.5,42.2,50.5,32
			S42.2,13.5,32,13.5z M32,43.9c-6.6,0-11.9-5.3-11.9-11.9S25.4,20.1,32,20.1S43.9,25.4,43.9,32S38.6,43.9,32,43.9z"/>
		<g id="XMLID_180_" class="st4">
			<path id="XMLID_206_" class="st33" d="M42.3,38c-1,1.8-2.5,3.3-4.3,4.3l4.7,4.7c1.7-1.2,3.1-2.6,4.3-4.3L42.3,38z"/>
			<path id="XMLID_504_" class="st33" d="M21.8,38.2l-4.7,4.7c1.2,1.6,2.7,3.1,4.4,4.3l4.7-4.7C24.4,41.4,22.9,40,21.8,38.2z"/>
			<path id="XMLID_505_" class="st33" d="M21.7,26c1-1.8,2.5-3.3,4.3-4.3L21.3,17c-1.7,1.2-3.1,2.6-4.3,4.3L21.7,26z"/>
			<path id="XMLID_509_" class="st33" d="M42.9,17.1l-4.7,4.7c1.8,1.1,3.2,2.6,4.2,4.4l4.7-4.7C46,19.8,44.6,18.3,42.9,17.1z"/>
		</g>
		
			<linearGradient id="XMLID_26_" gradientUnits="userSpaceOnUse" x1="23.2549" y1="33.95" x2="40.7452" y2="33.95" gradientTransform="matrix(1 0 0 -1 0 66)">
			<stop  offset="0" style="stop-color:#6874E7"/>
			<stop  offset="0.4803" style="stop-color:#747FE9"/>
			<stop  offset="0.9847" style="stop-color:#858EEC"/>
		</linearGradient>
		<path id="XMLID_498_" class="st34" d="M40.7,32.9V31l-3-0.4c-0.1-0.6-0.4-1.2-0.7-1.8l1.8-2.4l-1.3-1.3L35.1,27
			c-0.5-0.3-1.1-0.6-1.8-0.7l-0.4-3H31l-0.4,3c-0.6,0.1-1.2,0.4-1.7,0.7l-2.4-1.8l-1.3,1.3l1.8,2.4c-0.3,0.5-0.6,1.1-0.7,1.8l-3,0.4
			V33l3,0.4c0.1,0.6,0.4,1.2,0.7,1.8l-1.8,2.4l1.3,1.3l2.4-1.8c0.5,0.3,1.1,0.6,1.8,0.7l0.4,3H33l0.4-3c0.6-0.1,1.2-0.4,1.8-0.7
			l2.4,1.8l1.3-1.3L37,35.1c0.3-0.5,0.6-1.1,0.7-1.8L40.7,32.9z M32,34.7c-1.5,0-2.7-1.2-2.7-2.7s1.2-2.7,2.7-2.7s2.7,1.2,2.7,2.7
			S33.5,34.7,32,34.7z"/>
		<path id="XMLID_508_" class="st35" d="M32,17.2c-8.2,0-14.8,6.6-14.8,14.8S23.8,46.8,32,46.8S46.8,40.2,46.8,32S40.2,17.2,32,17.2
			z M32,43.9c-6.6,0-11.9-5.3-11.9-11.9S25.4,20.1,32,20.1S43.9,25.4,43.9,32S38.6,43.9,32,43.9z"/>
		<path id="XMLID_214_" class="st12" d="M49.7,20c2.3,3.4,3.7,7.5,3.7,12s-1.4,8.6-3.7,12"/>
		<path id="XMLID_218_" class="st12" d="M20.6,13.9c3.3-2.1,7.2-3.3,11.4-3.3c4.4,0,8.6,1.4,12,3.7"/>
		<path id="XMLID_216_" class="st12" d="M14.3,44c-2.3-3.4-3.7-7.5-3.7-12c0-4.7,1.6-9.1,4.2-12.7"/>
		<path id="XMLID_213_" class="st12" d="M43,50.3c-3.2,1.9-7,3.1-11,3.1c-4.9,0-9.4-1.6-13-4.4"/>
		<circle id="XMLID_193_" class="st3" cx="32" cy="32" r="11.9"/>
		<line id="XMLID_197_" class="st3" x1="16.9" y1="21.4" x2="21.7" y2="25.9"/>
		<line id="XMLID_196_" class="st3" x1="21.2" y1="17.1" x2="26" y2="21.6"/>
		<line id="XMLID_203_" class="st3" x1="42.6" y1="47.1" x2="38" y2="42.5"/>
		<line id="XMLID_202_" class="st3" x1="46.9" y1="42.8" x2="42.3" y2="38.2"/>
		<line id="XMLID_200_" class="st3" x1="47.3" y1="21.4" x2="42.6" y2="25.9"/>
		<line id="XMLID_199_" class="st3" x1="43" y1="17.1" x2="38.3" y2="21.9"/>
		<line id="XMLID_201_" class="st3" x1="26" y1="42.7" x2="21.4" y2="47.3"/>
		<line id="XMLID_198_" class="st3" x1="21.7" y1="38.4" x2="17.1" y2="43"/>
		<path id="XMLID_210_" class="st3" d="M16.9,18.6L15.2,17c-0.6-0.6-0.6-1.7,0-2.3l0,0c0.6-0.6,1.7-0.6,2.3,0"/>
		<path id="XMLID_204_" class="st3" d="M45.4,16.9l1.6-1.6c0.6-0.6,1.7-0.6,2.3,0l0,0c0.6,0.6,0.6,1.7,0,2.3"/>
		<path id="XMLID_211_" class="st3" d="M47.1,45.4l1.6,1.6c0.6,0.6,0.6,1.7,0,2.3l0,0c-0.6,0.6-1.7,0.6-2.3,0"/>
		<path id="XMLID_212_" class="st3" d="M18.6,47.1L17,48.8c-0.6,0.6-1.7,0.6-2.3,0l0,0c-0.6-0.6-0.6-1.7,0-2.3"/>
	</g>
	<g id="XMLID_403_" class="st0">
		
			<linearGradient id="XMLID_27_" gradientUnits="userSpaceOnUse" x1="23.3337" y1="25.1" x2="40.5712" y2="25.1" gradientTransform="matrix(1 0 0 -1 0 66)">
			<stop  offset="0" style="stop-color:#6874E7"/>
			<stop  offset="0.4803" style="stop-color:#747FE9"/>
			<stop  offset="0.9847" style="stop-color:#858EEC"/>
		</linearGradient>
		<path id="XMLID_560_" class="st36" d="M34.6,42.4v-3.7c0.6-0.3,1-0.9,1.1-1.6l0.4-5.1c0-2.3-1.9-4.2-4.2-4.2s-4.2,1.9-4.2,4.2
			l0.4,5.1c0.1,0.7,0.5,1.3,1.1,1.6l0.3,0.2v3.4l-6,2.1V54h17.2v-9.5L34.6,42.4z"/>
		<path id="XMLID_394_" class="st6" d="M23.9,48.4v-3.7c0.6-0.3,1-0.9,1.1-1.6l0.4-5.2c0-2.4-1.9-4.3-4.3-4.3s-4.3,1.9-4.3,4.3
			l0.4,5.2c0.1,0.7,0.5,1.3,1.1,1.6l0.3,0.2v3.4l-5.3,1.8C12.5,50.3,12,51,12,51.7V54h18.4v-2.5c0-0.5-0.3-0.9-0.8-1.1L23.9,48.4z"
			/>
		<path id="XMLID_546_" class="st22" d="M45.6,48.8l-0.1-4.1c0.6-0.3,1-0.9,1.1-1.6l0.4-5.2c0-2.4-1.9-4.3-4.3-4.3
			c-2.4,0-4.3,1.9-4.3,4.3l0.4,5.2c0.1,0.7,0.5,1.3,1.1,1.6l0.3,0.2v3.9l-5.3,1.8c-0.7,0.2-1.2,0.4-1.2,1.2V54h18.4v-2.5
			c0-0.5-0.2-0.6-0.7-0.7L45.6,48.8z"/>
		<g id="XMLID_375_" class="st4">
			<path id="XMLID_379_" class="st5" d="M11.9,54v-2.4c0-0.5,0.3-0.9,0.7-1l5.9-2v-3.3"/>
			<path id="XMLID_378_" class="st5" d="M30.3,54v-2.4c0-0.5-0.3-0.9-0.7-1l-5.9-2v-3.3"/>
			<path id="XMLID_377_" class="st5" d="M25.6,37.8c0-2.5-2-4.4-4.4-4.4c-2.5,0-4.4,2-4.4,4.4l0.4,5.3c0.1,0.7,0.5,1.4,1.1,1.7
				l2.2,1.4h1.4l2.2-1.4c0.6-0.3,1.1-1,1.1-1.7L25.6,37.8z"/>
			<polyline id="XMLID_376_" class="st5" points="18.5,48.5 20.2,50.4 22.2,50.4 23.8,48.5 			"/>
		</g>
		<g id="XMLID_381_" class="st4">
			<path id="XMLID_386_" class="st5" d="M33.7,54v-2.2c0-0.5,0.3-0.9,0.7-1l5.9-2v-3.3"/>
			<path id="XMLID_384_" class="st5" d="M52.1,54v-2.2c0-0.5-0.3-0.9-0.7-1l-5.9-2v-3.3"/>
			<path id="XMLID_383_" class="st5" d="M47.3,38c0-2.5-2-4.4-4.4-4.4c-2.5,0-4.4,2-4.4,4.4l0.4,5.3C39,44,39.4,44.7,40,45l2.2,1.4
				h1.4l2.2-1.4c0.6-0.3,1.1-1,1.1-1.7L47.3,38z"/>
			<polyline id="XMLID_382_" class="st5" points="40.3,48.8 41.9,50.7 43.9,50.7 45.6,48.8 			"/>
		</g>
		<g id="XMLID_387_" class="st4">
			<polyline id="XMLID_392_" class="st5" points="27,43 29.5,42.2 29.5,39.1 			"/>
			<polyline id="XMLID_391_" class="st5" points="36.8,43.1 34.4,42.2 34.4,39.1 			"/>
			<path id="XMLID_390_" class="st5" d="M36.2,32c0-2.3-1.9-4.2-4.2-4.2s-4.2,1.9-4.2,4.2l0.4,5.1c0,0.7,0.4,1.3,1.1,1.6l2,1.3h1.3
				l2.1-1.3c0.6-0.3,1-0.9,1.1-1.6L36.2,32z"/>
			<polyline id="XMLID_389_" class="st5" points="29.5,42.2 31.1,44 32.9,44 34.5,42.2 			"/>
		</g>
		<g id="XMLID_412_" class="st4">
			<path id="XMLID_393_" class="st5" d="M46.8,32.4v-3.2l-5-0.7c-0.3-1.1-0.7-2.1-1.2-3l3.1-4.1l-2.2-2.2l-4.1,3.1
				c-0.9-0.6-1.9-1-3-1.2L33.7,16h-3.2l-0.7,5.1c-1.1,0.3-2.1,0.7-3,1.2l-4.1-3.1l-2.3,2.2l3,4.1c-0.6,0.9-1,1.9-1.2,3l-5.1,0.7v3.2
				"/>
		</g>
		<path id="XMLID_413_" class="st12" d="M13.8,38.1c-1.2-2.6-1.9-5.4-1.9-8.4C12,18.8,20.8,10,31.6,10c10.9,0,19.7,8.8,19.7,19.7
			c0,2.9-0.6,5.6-1.7,8"/>
	</g>
	<g id="XMLID_224_" class="st0">
		<path id="XMLID_222_" class="st3" d="M32.6,52c8.5,0,15.5-7,15.5-15.5v-3.2"/>
		<path id="XMLID_219_" class="st3" d="M31.2,35.6H25c-0.4,0-0.7-0.3-0.7-0.7v-1.5c0-0.4,0.2-0.9,0.6-1.1l4.6-3.4
			c0.4-0.3,0.7-0.8,0.7-1.3V27c0-0.7-0.6-1.3-1.3-1.3h-3.3c-0.7,0-1.3,0.6-1.3,1.3l0,0v0.5"/>
		<path id="XMLID_220_" class="st3" d="M37.9,36.5V25.7l0,0h-1.1l0,0L32,31.5v0.1h8.7"/>
		
			<linearGradient id="XMLID_28_" gradientUnits="userSpaceOnUse" x1="9.356" y1="36" x2="16.4053" y2="36" gradientTransform="matrix(1 0 0 -1 0 66)">
			<stop  offset="0" style="stop-color:#6874E7"/>
			<stop  offset="0.4803" style="stop-color:#747FE9"/>
			<stop  offset="0.9847" style="stop-color:#858EEC"/>
		</linearGradient>
		<path id="XMLID_223_" class="st37" d="M16.4,35.7h-4.1c-1.6,0-3-1.3-3-3v-5.4c0-1.6,1.3-3,3-3h4.1V35.7z"/>
		
			<linearGradient id="XMLID_30_" gradientUnits="userSpaceOnUse" x1="47.6" y1="36" x2="54.6493" y2="36" gradientTransform="matrix(1 0 0 -1 0 66)">
			<stop  offset="0" style="stop-color:#6874E7"/>
			<stop  offset="0.4803" style="stop-color:#747FE9"/>
			<stop  offset="0.9847" style="stop-color:#858EEC"/>
		</linearGradient>
		<path id="XMLID_225_" class="st38" d="M47.6,35.7h4.1c1.6,0,3-1.3,3-3v-5.4c0-1.6-1.3-3-3-3h-4.1V35.7z"/>
		<path id="XMLID_226_" class="st12" d="M47.2,22.6c-1.5-7-7.8-12.2-15.2-12.2l0,0c-7.9,0-14.5,6-15.4,13.7"/>
		<path id="XMLID_207_" class="st6" d="M31.9,53.6h-4.2c-0.9,0-1.6-0.7-1.6-1.6l0,0c0-0.9,0.7-1.6,1.6-1.6h4.2
			c0.9,0,1.6,0.7,1.6,1.6l0,0C33.4,52.9,32.7,53.6,31.9,53.6z"/>
		<path id="XMLID_221_" class="st3" d="M31.9,53.6h-4.2c-0.9,0-1.6-0.7-1.6-1.6l0,0c0-0.9,0.7-1.6,1.6-1.6h4.2
			c0.9,0,1.6,0.7,1.6,1.6l0,0C33.4,52.9,32.7,53.6,31.9,53.6z"/>
		<path id="XMLID_512_" class="st39" d="M11.9,32.8v-5.4c0-1.6,1.3-3,3-3h-2.5c-1.6,0-3,1.3-3,3v5.4c0,1.6,1.3,3,3,3h2.5
			C13.2,35.7,11.9,34.4,11.9,32.8z"/>
		<path id="XMLID_501_" class="st39" d="M52.1,32.8v-5.4c0-1.6-1.3-3-3-3h2.5c1.6,0,3,1.3,3,3v5.4c0,1.6-1.3,3-3,3h-2.5
			C50.8,35.7,52.1,34.4,52.1,32.8z"/>
	</g>
	<g id="XMLID_292_">
		<path id="XMLID_249_" class="st40" d="M44.5,50c0,3.8-3.1,4.5-7,4.5c-3.8,0-13.5-7.1-13.5-11S33.6,43,37.5,43
			C41.3,43,44.5,46.1,44.5,50z"/>
		<path id="XMLID_261_" class="st41" d="M37.5,43c-2.8,0-8.7-1.8-11.7-1.3c3,0.3,6.6,1.3,8.7,1.3c3.8,0,7,3.1,7,7
			c0,3.1-2,4.1-4.8,4.4c0.3,0.1,0.6,0.1,0.8,0.1c3.8,0,7-0.6,7-4.5S41.3,43,37.5,43z"/>
		<g id="XMLID_234_">
			<circle id="XMLID_242_" class="st33" cx="37.8" cy="20.3" r="11.3"/>
			<path id="XMLID_258_" class="st32" d="M37.8,9c-3.5,0-6.6,1.6-8.7,4.1c2-1.6,4.5-2.6,7.2-2.6c6.2,0,11.3,5.1,11.3,11.3
				c0,2.7-1,5.3-2.6,7.2c2.5-2.1,4.1-5.2,4.1-8.7C49.1,14,44,9,37.8,9z"/>
			<g id="XMLID_243_">
				<path id="XMLID_247_" class="st5" d="M41.5,15.7h-4.8c-1.3,0-2.4,1.1-2.4,2.4l0,0c0,1.3,1.1,2.4,2.4,2.4H39
					c1.3,0,2.4,1.1,2.4,2.4l0,0c0,1.3-1.1,2.4-2.4,2.4h-4.9"/>
				<line id="XMLID_246_" class="st5" x1="38" y1="13.2" x2="38" y2="15.7"/>
				<line id="XMLID_245_" class="st5" x1="38" y1="25.1" x2="38" y2="27.4"/>
			</g>
			<line id="XMLID_240_" class="st5" x1="29.2" y1="20.3" x2="31.8" y2="20.3"/>
			<line id="XMLID_239_" class="st5" x1="43.8" y1="20.3" x2="46.5" y2="20.3"/>
		</g>
		<path id="XMLID_248_" class="st42" d="M17.7,33H9v18h8.6c0,0,0.1,0,0.1-0.1V33L17.7,33z"/>
		<path id="XMLID_238_" class="st43" d="M17.7,36h11.2c0.7,0.1,1.6,0.5,2.2,1l7.3,6.8c2.1,1.6-0.1,5.1-2.1,3.3l-7.5-5.4v2.6l7,6.6
			c0,0,4.2,0.4,4.8,0.5l7.8-3.1c1.3-0.5,2.8-0.6,4.1-0.1c1,0.4,1.9,0.8,2.1,1.3l-13.4,5.4c-0.5,0.2-7.7,0.2-7.7,0.2l-15.6-7.6"/>
		<g id="XMLID_251_">
			<path id="XMLID_256_" class="st44" d="M52.6,48.2l-11.5,4.6C40.6,53,33.4,53,33.4,53l-15.6-7.6v2L33.4,55c0,0,7.2,0.1,7.7-0.2
				l13.4-5.4C54.3,49,53.5,48.6,52.6,48.2z"/>
		</g>
		<path id="XMLID_228_" class="st5" d="M17.7,36h11.2c0.7,0.1,1.6,0.5,2.2,1l7.3,6.8c2.1,1.6-0.1,5.1-2.1,3.3l-7.5-5.4v2.6l7,6.6
			c0,0,4.2,0.4,4.8,0.5l7.8-3.1c1.3-0.5,2.8-0.6,4.1-0.1c1,0.4,1.9,0.8,2.1,1.3l-13.4,5.4c-0.5,0.2-7.7,0.2-7.7,0.2l-15.6-7.6"/>
		<path id="XMLID_230_" class="st5" d="M36.5,42.4c4.3,0,7.9,3.3,8.4,7.4"/>
		<line id="XMLID_233_" class="st5" x1="37.8" y1="31.6" x2="37.8" y2="42.8"/>
		<path id="XMLID_231_" class="st45" d="M45.3,36.2c0,0-1.2,3.2-2.6,3.8c-1.5,0.6-4.6-0.9-4.6-0.9s1.2-3.2,2.6-3.8
			C42.2,34.7,45.3,36.2,45.3,36.2z"/>
		<line id="XMLID_236_" class="st5" x1="20.6" y1="20.4" x2="24.7" y2="20.4"/>
		<line id="XMLID_235_" class="st5" x1="21.6" y1="14.5" x2="25.4" y2="15.9"/>
		<line id="XMLID_252_" class="st5" x1="53.9" y1="14.3" x2="50.1" y2="15.7"/>
		<line id="XMLID_253_" class="st5" x1="55" y1="20.2" x2="50.9" y2="20.2"/>
		<line id="XMLID_254_" class="st5" x1="53.9" y1="26.1" x2="50.2" y2="24.7"/>
		<line id="XMLID_262_" class="st5" x1="21.7" y1="26.2" x2="25.5" y2="24.8"/>
	</g>
	<g id="XMLID_293_" class="st0">
		<circle id="XMLID_315_" class="st6" cx="32" cy="23.7" r="9.4"/>
		<path id="XMLID_524_" class="st7" d="M32,14.3c-5.2,0-9.4,4.2-9.4,9.4c0,0.1,0,0.2,0,0.3c0.2-4.7,4-8.5,8.8-8.5
			c4.9,0,8.8,3.9,8.8,8.8c0,4.8-3.8,8.6-8.5,8.8c0.1,0,0.2,0,0.3,0c5.2,0,9.4-4.2,9.4-9.4C41.5,18.5,37.3,14.3,32,14.3z"/>
		<path id="XMLID_309_" class="st1" d="M36.3,47.6v-9.3c0.1-0.6,0.5-1.4,0.9-1.8l5.7-6.1c1.4-1.8,4.3,0.1,2.7,1.7l-4.5,6.3h2.2
			l5.5-5.8c0,0,0.3-3.5,0.5-4L46.6,22c-0.4-1.1-0.5-2.3-0.1-3.4c0.3-0.8,0.7-1.5,1.1-1.7l4.5,11.2c0.2,0.4,0.1,6.4,0.1,6.4l-6.3,13
			L36.3,47.6L36.3,47.6z"/>
		<path id="XMLID_437_" class="st1" d="M27.7,47.6v-9.3c-0.1-0.6-0.5-1.4-0.8-1.8l-5.7-6.1c-1.4-1.8-4.3,0.1-2.7,1.7l4.5,6.3h-2.2
			l-5.5-5.8c0,0-0.3-3.5-0.5-4l2.6-6.5c0.4-1.1,0.5-2.3,0.1-3.4c-0.3-0.8-0.7-1.5-1.1-1.7l-4.5,11.2c-0.2,0.4-0.1,6.4-0.1,6.4
			l6.3,13H27.7z"/>
		<g id="XMLID_521_" class="st4">
			<path id="XMLID_523_" class="st44" d="M52.1,28.1l-4.5-11.2c-0.3,0.2-0.7,0.7-0.9,1.4l3.9,9.8c0.2,0.4,0.1,6.4,0.1,6.4l-6.3,13
				h1.5l6.3-13C52.2,34.6,52.3,28.5,52.1,28.1z"/>
		</g>
		<g id="XMLID_519_" class="st4">
			<path id="XMLID_520_" class="st44" d="M13.4,28.1l3.9-9.8c-0.3-0.7-0.6-1.2-0.9-1.4l-4.5,11.2c-0.2,0.4-0.1,6.4-0.1,6.4l6.3,13
				h1.5l-6.3-13C13.3,34.6,13.2,28.5,13.4,28.1z"/>
		</g>
		<path id="XMLID_297_" class="st3" d="M36.3,47.6v-9.3c0.1-0.6,0.5-1.4,0.9-1.8l5.7-6.1c1.4-1.8,4.3,0.1,2.7,1.7l-4.5,6.3h2.2
			l5.5-5.8c0,0,0.3-3.5,0.5-4L46.6,22c-0.4-1.1-0.5-2.3-0.1-3.4c0.3-0.8,0.7-1.5,1.1-1.7l4.5,11.2c0.2,0.4,0.1,6.4,0.1,6.4l-6.3,13
			L36.3,47.6L36.3,47.6z"/>
		<path id="XMLID_296_" class="st3" d="M27.7,47.6v-9.3c-0.1-0.6-0.5-1.4-0.9-1.8l-5.7-6.1c-1.4-1.8-4.3,0.1-2.7,1.7l4.5,6.3h-2.2
			l-5.5-5.8c0,0-0.3-3.5-0.5-4l2.6-6.5c0.4-1.1,0.5-2.3,0.1-3.4c-0.3-0.8-0.7-1.5-1.1-1.7l-4.5,11.2c-0.2,0.4-0.1,6.4-0.1,6.4
			l6.3,13H27.7z"/>
		<g id="XMLID_316_" class="st4">
			<path id="XMLID_319_" class="st5" d="M35.1,19.8h-4c-1.1,0-2,0.9-2,2l0,0c0,1.1,0.9,2,2,2H33c1.1,0,2,0.9,2,2l0,0
				c0,1.1-0.9,2-2,2h-4.1"/>
			<line id="XMLID_318_" class="st5" x1="32.2" y1="17.8" x2="32.2" y2="19.8"/>
			<line id="XMLID_317_" class="st5" x1="32.2" y1="27.7" x2="32.2" y2="29.6"/>
		</g>
		<path id="XMLID_298_" class="st12" d="M21.2,15.5c2.6-3.7,7-6.1,11.9-5.9c4.9,0.2,9,2.8,11.4,6.6"/>
		<line id="XMLID_314_" class="st3" x1="24.8" y1="23.7" x2="27.1" y2="23.7"/>
		<line id="XMLID_313_" class="st3" x1="37.1" y1="23.7" x2="39.3" y2="23.7"/>
		
			<linearGradient id="XMLID_31_" gradientUnits="userSpaceOnUse" x1="33.8389" y1="15.25" x2="48.8913" y2="15.25" gradientTransform="matrix(1 0 0 -1 0 66)">
			<stop  offset="0" style="stop-color:#6874E7"/>
			<stop  offset="0.4803" style="stop-color:#747FE9"/>
			<stop  offset="0.9847" style="stop-color:#858EEC"/>
		</linearGradient>
		<path id="XMLID_417_" class="st46" d="M48.8,47.1H33.9c0,0-0.1,0-0.1,0.1v7.2h15.1L48.8,47.1C48.9,47.1,48.9,47.1,48.8,47.1z"/>
		
			<linearGradient id="XMLID_32_" gradientUnits="userSpaceOnUse" x1="15.1" y1="15.25" x2="30.1524" y2="15.25" gradientTransform="matrix(1 0 0 -1 0 66)">
			<stop  offset="0" style="stop-color:#6874E7"/>
			<stop  offset="0.4803" style="stop-color:#747FE9"/>
			<stop  offset="0.9847" style="stop-color:#858EEC"/>
		</linearGradient>
		<path id="XMLID_310_" class="st47" d="M30.1,47.1H15.2c0,0-0.1,0-0.1,0.1v7.2h15.1L30.1,47.1C30.2,47.1,30.1,47.1,30.1,47.1z"/>
	</g>
	<g id="XMLID_285_" class="st0">
		<rect id="XMLID_53_" x="16.5" y="26.8" class="st22" width="5.7" height="17.8"/>
		<rect id="XMLID_57_" x="20.1" y="26.8" class="st26" width="2.2" height="17.8"/>
		<rect id="XMLID_250_" x="42" y="26.8" class="st22" width="5.7" height="17.8"/>
		<rect id="XMLID_241_" x="45.6" y="26.8" class="st26" width="2.2" height="17.8"/>
		<rect id="XMLID_139_" x="42" y="43.4" class="st17" width="5.7" height="2.8"/>
		<rect id="XMLID_154_" x="16.5" y="43.4" class="st17" width="5.7" height="2.8"/>
		<rect id="XMLID_229_" x="29.5" y="26.8" class="st22" width="5.7" height="17.8"/>
		<rect id="XMLID_167_" x="33.1" y="26.8" class="st26" width="2.2" height="17.8"/>
		<rect id="XMLID_274_" x="41" y="44.4" class="st22" width="7.6" height="2.8"/>
		<rect id="XMLID_52_" x="29.5" y="43.4" class="st17" width="5.7" height="2.8"/>
		<rect id="XMLID_259_" x="42" y="25.4" class="st17" width="5.7" height="2.8"/>
		<rect id="XMLID_208_" x="16.5" y="25.4" class="st17" width="5.7" height="2.8"/>
		<rect id="XMLID_192_" x="29.5" y="25.4" class="st17" width="5.7" height="2.8"/>
		<rect id="XMLID_271_" x="28.5" y="44.4" class="st22" width="7.5" height="2.8"/>
		<rect id="XMLID_265_" x="41" y="23.9" class="st22" width="7.6" height="2.8"/>
		<rect id="XMLID_255_" x="28.5" y="23.9" class="st22" width="7.5" height="2.8"/>
		<rect id="XMLID_184_" x="15.7" y="23.9" class="st22" width="7.5" height="2.8"/>
		<rect id="XMLID_269_" x="15.7" y="44.4" class="st22" width="7.6" height="3"/>
		
			<linearGradient id="XMLID_33_" gradientUnits="userSpaceOnUse" x1="11.7681" y1="14.9" x2="52.5681" y2="14.9" gradientTransform="matrix(1 0 0 -1 0 66)">
			<stop  offset="0" style="stop-color:#6874E7"/>
			<stop  offset="0.4803" style="stop-color:#747FE9"/>
			<stop  offset="0.9847" style="stop-color:#858EEC"/>
		</linearGradient>
		<path id="XMLID_279_" class="st48" d="M50,50.6v-2.8l0,0H14.3l0,0v2.8h-2.5c0,0-0.1,0-0.1,0.1v3.7h40.8v-3.7c0,0,0-0.1-0.1-0.1H50
			z"/>
		<rect id="XMLID_516_" x="11.8" y="50.9" class="st49" width="40.8" height="3.5"/>
		<polyline id="XMLID_152_" class="st3" points="22,50.6 14.3,50.6 14.3,47.8 14.3,47.8 50,47.8 50,47.8 50,50.6 46.3,50.6 		"/>
		<line id="XMLID_74_" class="st3" x1="23" y1="50.6" x2="27.3" y2="50.6"/>
		<polygon id="XMLID_54_" class="st6" points="51.6,20.9 51.6,23.8 51.6,23.8 12,23.8 12,23.8 12,21.7 31.9,9.6 		"/>
		<polygon id="XMLID_517_" class="st17" points="31.9,9.6 29.4,11.1 49.1,22.4 49.1,23.8 51.6,23.8 51.6,23.8 51.6,20.9 		"/>
		<polyline id="XMLID_286_" class="st3" points="12,21.7 12,23.8 12,23.8 51.6,23.8 51.6,23.8 51.6,20.9 		"/>
		<path id="XMLID_287_" class="st3" d="M7.9,23.9l24-14.4l0,0l24.2,14.2"/>
		<path id="XMLID_290_" class="st3" d="M30.2,14.9l-9.4,5.6c-0.1,0.1-0.1,0.2,0.1,0.2h18"/>
	</g>
	<g id="XMLID_341_" class="st0">
		<circle id="XMLID_518_" class="st6" cx="33.7" cy="23.7" r="13.5"/>
		<path id="XMLID_336_" class="st1" d="M46.8,23.7H33.7V10.1C42,10.7,47.1,17.8,46.8,23.7z"/>
		<path id="XMLID_522_" class="st3" d="M20.2,23.7c0-7.4,6-13.5,13.5-13.5s13.5,6,13.5,13.5s-6,13.5-13.5,13.5"/>
		<path id="XMLID_545_" class="st17" d="M33.3,23.8H20.2c0.1,7.3,6.1,13.3,13.5,13.3l0,0V24.2C33.7,24,33.5,23.8,33.3,23.8z"/>
		<path id="XMLID_299_" class="st22" d="M32.3,53.9H12.5c-0.2,0-0.4-0.2-0.4-0.4V25.2c0-0.2,0.2-0.4,0.4-0.4h19.8
			c0.2,0,0.4,0.2,0.4,0.4v28.3C32.7,53.7,32.5,53.9,32.3,53.9z"/>
		<path id="XMLID_525_" class="st26" d="M32.3,24.8h-2.5c0.2,0,0.4,0.2,0.4,0.4v28.3c0,0.2-0.2,0.4-0.4,0.4h2.5
			c0.2,0,0.4-0.2,0.4-0.4V25.2C32.7,25,32.5,24.8,32.3,24.8z"/>
		<line id="XMLID_306_" class="st3" x1="15.8" y1="39.4" x2="17.4" y2="39.4"/>
		<line id="XMLID_304_" class="st3" x1="19.6" y1="39.4" x2="21.2" y2="39.4"/>
		<line id="XMLID_307_" class="st3" x1="23.4" y1="39.4" x2="25.1" y2="39.4"/>
		<line id="XMLID_312_" class="st3" x1="27.2" y1="39.4" x2="28.9" y2="39.4"/>
		<line id="XMLID_323_" class="st3" x1="15.8" y1="42.6" x2="17.5" y2="42.6"/>
		<line id="XMLID_322_" class="st3" x1="19.7" y1="42.6" x2="21.3" y2="42.6"/>
		<line id="XMLID_321_" class="st3" x1="23.5" y1="42.6" x2="25.2" y2="42.6"/>
		<line id="XMLID_320_" class="st3" x1="27.3" y1="42.6" x2="29" y2="42.6"/>
		<line id="XMLID_329_" class="st3" x1="15.9" y1="45.9" x2="17.6" y2="45.9"/>
		<line id="XMLID_327_" class="st3" x1="19.8" y1="45.9" x2="21.4" y2="45.9"/>
		<line id="XMLID_326_" class="st3" x1="23.6" y1="45.9" x2="25.3" y2="45.9"/>
		<line id="XMLID_324_" class="st3" x1="27.4" y1="45.9" x2="29.1" y2="45.9"/>
		<line id="XMLID_333_" class="st3" x1="16" y1="49.2" x2="17.7" y2="49.2"/>
		<line id="XMLID_332_" class="st3" x1="19.9" y1="49.2" x2="21.5" y2="49.2"/>
		<line id="XMLID_331_" class="st3" x1="23.7" y1="49.2" x2="25.4" y2="49.2"/>
		<line id="XMLID_330_" class="st3" x1="27.5" y1="49.2" x2="29.2" y2="49.2"/>
		
			<linearGradient id="XMLID_34_" gradientUnits="userSpaceOnUse" x1="15.1443" y1="35" x2="29.6885" y2="35" gradientTransform="matrix(1 0 0 -1 0 66)">
			<stop  offset="0" style="stop-color:#6874E7"/>
			<stop  offset="0.4803" style="stop-color:#747FE9"/>
			<stop  offset="0.9847" style="stop-color:#858EEC"/>
		</linearGradient>
		<rect id="XMLID_289_" x="15.1" y="28.1" class="st50" width="14.5" height="5.8"/>
		<polyline id="XMLID_305_" class="st3" points="29.7,33.5 15.1,33.5 15.1,28.1 		"/>
		<path id="XMLID_343_" class="st51" d="M51.9,23.7c0,9.5-7.2,17.3-16.4,18.3"/>
		<polyline id="XMLID_337_" class="st3" points="33.7,10.1 33.7,23.7 46.8,23.7 		"/>
		<line id="XMLID_342_" class="st3" x1="43.1" y1="23.6" x2="46.6" y2="20.2"/>
		<line id="XMLID_335_" class="st3" x1="38.4" y1="23.5" x2="45.1" y2="16.8"/>
		<line id="XMLID_338_" class="st3" x1="33.9" y1="23.1" x2="42.9" y2="14"/>
		<line id="XMLID_339_" class="st3" x1="33.8" y1="18.3" x2="40.2" y2="11.9"/>
		<line id="XMLID_340_" class="st3" x1="33.6" y1="13.6" x2="36.5" y2="10.7"/>
	</g>
	<g id="XMLID_544_" class="st0">
		<path id="XMLID_374_" class="st22" d="M33.6,47.5h-3.4v-36c0-0.9,0.8-1.7,1.7-1.7l0,0c0.9,0,1.7,0.8,1.7,1.7V47.5z"/>
		
			<linearGradient id="XMLID_35_" gradientUnits="userSpaceOnUse" x1="15.6" y1="15.8" x2="48.244" y2="15.8" gradientTransform="matrix(1 0 0 -1 0 66)">
			<stop  offset="0" style="stop-color:#6874E7"/>
			<stop  offset="0.4803" style="stop-color:#747FE9"/>
			<stop  offset="0.9847" style="stop-color:#858EEC"/>
		</linearGradient>
		<path id="XMLID_358_" class="st52" d="M42.4,49.9v-3.5c0-0.1-0.1-0.1-0.1-0.1h-21c-0.1,0-0.1,0.1-0.1,0.1v3.5h-5.5
			c-0.1,0-0.1,0.1-0.1,0.1v4.1h32.6V50c0-0.1-0.1-0.1-0.1-0.1H42.4z"/>
		<path id="XMLID_380_" class="st3" d="M26.5,49.9h-5.3v-3.5c0-0.1,0.1-0.1,0.1-0.1h21c0.1,0,0.1,0.1,0.1,0.1v3.5h-3"/>
		<line id="XMLID_352_" class="st3" x1="28.9" y1="49.9" x2="33.3" y2="49.9"/>
		<path id="XMLID_361_" class="st3" d="M29.8,12.5V12c0-1.2,0.9-2.1,2.1-2.1l0,0c1.2,0,2.1,0.9,2.1,2.1v0.5"/>
		<line id="XMLID_372_" class="st3" x1="30.2" y1="45.8" x2="30.2" y2="23.1"/>
		<line id="XMLID_360_" class="st3" x1="33.6" y1="23.1" x2="33.6" y2="45.8"/>
		<circle id="XMLID_543_" class="st6" cx="31.9" cy="17.9" r="4.3"/>
		<path id="XMLID_550_" class="st17" d="M31.9,13.7c-1.6,0-2.9,0.8-3.7,2.1c0.6-0.4,1.4-0.6,2.2-0.6c2.4,0,4.3,1.9,4.3,4.3
			c0,0.8-0.2,1.5-0.6,2.2c1.3-0.7,2.1-2.1,2.1-3.7C36.2,15.6,34.3,13.7,31.9,13.7z"/>
		<circle id="XMLID_353_" class="st3" cx="31.9" cy="17.9" r="4.3"/>
		<path id="XMLID_363_" class="st3" d="M27.7,17.9h-7.8c0,1.2-1,2.3-2.3,2.3c-1.2,0-2.3-1-2.3-2.3v-1"/>
		<path id="XMLID_362_" class="st3" d="M36,17.9h8.3c0,1.2,1,2.3,2.3,2.3c1.2,0,2.3-1,2.3-2.3v-1"/>
		<line id="XMLID_364_" class="st3" x1="18.6" y1="20.2" x2="23.6" y2="31.3"/>
		<line id="XMLID_369_" class="st3" x1="16.6" y1="20.2" x2="11.6" y2="31.3"/>
		<path id="XMLID_366_" class="st6" d="M10.9,31c0,3.6,3,6.6,6.6,6.6s6.6-3,6.6-6.6C24.1,31,10.9,31,10.9,31z"/>
		<path id="XMLID_549_" class="st17" d="M12.9,31h-2c0,3.6,3,6.6,6.6,6.6c0.3,0,0.7,0,1-0.1C15.3,37,12.9,34.3,12.9,31z"/>
		<line id="XMLID_371_" class="st3" x1="45.4" y1="20.2" x2="40.4" y2="31.3"/>
		<line id="XMLID_368_" class="st3" x1="47.4" y1="20.2" x2="52.4" y2="31.3"/>
		<path id="XMLID_365_" class="st6" d="M53.1,31c0,3.6-3,6.6-6.6,6.6s-6.6-3-6.6-6.6C39.9,31,53.1,31,53.1,31z"/>
		<path id="XMLID_548_" class="st17" d="M51.1,31c0,3.3-2.4,6-5.6,6.5c0.3,0,0.7,0.1,1,0.1c3.6,0,6.6-3,6.6-6.6
			C53.1,31,51.1,31,51.1,31z"/>
		<line id="XMLID_373_" class="st3" x1="30.9" y1="17.9" x2="32.9" y2="17.9"/>
	</g>
	<g id="XMLID_405_" class="st0">
		<path id="XMLID_406_" class="st3" d="M21.1,17.6v-5.2c0-0.6,0.4-1,1-1h15.6c0.6,0,1,0.4,1,1v5.2"/>
		
			<linearGradient id="XMLID_37_" gradientUnits="userSpaceOnUse" x1="10.2" y1="34" x2="50.2" y2="34" gradientTransform="matrix(1 0 0 -1 0 66)">
			<stop  offset="0" style="stop-color:#6874E7"/>
			<stop  offset="0.4803" style="stop-color:#747FE9"/>
			<stop  offset="0.9847" style="stop-color:#858EEC"/>
		</linearGradient>
		<path id="XMLID_397_" class="st53" d="M50.2,20.7v-3.3c0-0.1,0-0.1-0.1-0.1H10.3c-0.1,0-0.1,0-0.1,0.1v29.2c0,0.1,0,0.1,0.1,0.1
			h39.8c0,0,0.1,0,0.1-0.1C50.2,46.6,50.2,20.7,50.2,20.7z"/>
		<path id="XMLID_547_" class="st17" d="M46.8,21.9H33.3c0,0-0.1,0-0.1,0.1v24.6c0,0,0,0.1,0.1,0.1h19.4c0,0,0.1,0,0.1-0.1V27.9
			L46.8,21.9z"/>
		<path id="XMLID_402_" class="st22" d="M47.8,21.9H34.3c0,0-0.1,0-0.1,0.1v24.6c0,0,0,0.1,0.1,0.1h19.4c0,0,0.1,0,0.1-0.1V27.9
			L47.8,21.9z"/>
		<line id="XMLID_399_" class="st3" x1="37.1" y1="30.5" x2="50.9" y2="30.5"/>
		<line id="XMLID_396_" class="st3" x1="37.1" y1="34.4" x2="50.9" y2="34.4"/>
		<line id="XMLID_400_" class="st3" x1="37.1" y1="38.4" x2="50.9" y2="38.4"/>
		<line id="XMLID_401_" class="st3" x1="37.1" y1="42.4" x2="44.7" y2="42.4"/>
		<path id="XMLID_433_" class="st6" d="M47.8,21.9v5.9c0,0,0,0.1,0.1,0.1h5.9L47.8,21.9z"/>
		<rect id="XMLID_448_" x="17.2" y="28.6" class="st6" width="3.4" height="3.5"/>
		<polyline id="XMLID_404_" class="st3" points="20.6,28.6 20.6,32.1 17.2,32.1 17.2,28.6 		"/>
		<line id="XMLID_408_" class="st3" x1="10.2" y1="28.9" x2="32.1" y2="28.9"/>
		<g id="XMLID_746_" class="st4">
			<polygon id="XMLID_398_" class="st33" points="48.3,49.1 50.4,50.8 48.3,52.6 19,52.6 19,49.1 			"/>
			<polygon id="XMLID_552_" class="st41" points="48.3,51.1 19,51.1 19,52.6 48.3,52.6 50.4,50.8 49.5,50.1 			"/>
			<polygon id="XMLID_735_" class="st5" points="48.3,49.1 50.4,50.8 48.3,52.6 19,52.6 19,49.1 			"/>
			<line id="XMLID_741_" class="st5" x1="15.6" y1="50.8" x2="18.6" y2="50.8"/>
			<line id="XMLID_743_" class="st5" x1="49.8" y1="50.8" x2="52.7" y2="50.8"/>
			<line id="XMLID_742_" class="st5" x1="36" y1="52.7" x2="36" y2="49"/>
			<line id="XMLID_736_" class="st5" x1="45.7" y1="52.7" x2="45.7" y2="49"/>
			<polyline id="XMLID_744_" class="st5" points="21.1,49.1 21.1,46.7 30.7,46.7 			"/>
		</g>
	</g>
	<g id="XMLID_409_" class="st0">
		<path id="XMLID_428_" class="st6" d="M33.6,33.4l4.8-0.9c1.6,0.7,3.3,1,5.2,0.7c4.2-0.6,7.6-4,8.1-8.2c0.7-6.1-4.5-11.3-10.6-10.5
			c-4.2,0.5-7.6,3.9-8.2,8.2c-0.3,2.3,0.3,4.5,1.4,6.2L33.6,33.4C33.5,33.4,33.6,33.4,33.6,33.4z"/>
		<path id="XMLID_561_" class="st54" d="M48.5,16.8c1.6,1.9,2.5,4.5,2.2,7.3c-0.5,4.2-3.9,7.6-8.1,8.2c-1.9,0.3-3.6,0-5.2-0.7
			l-3.8,0.7l-0.2,1.1c0,0.1,0,0.1,0.1,0.1l4.8-0.9c1.6,0.7,3.3,1,5.2,0.7c4.2-0.6,7.6-4,8.1-8.2C52.1,21.7,50.8,18.7,48.5,16.8z"/>
		<path id="XMLID_559_" class="st1" d="M40.1,41.5h-0.4c0.7-0.3,1.2-1,1.2-1.8c0-1.1-0.9-2-2-2h-7.4h-4.7c0,0,1.6-4.1,1.6-6
			c0-0.9,0.2-2.7-0.3-3.5c-0.2-0.3-1.8-0.3-2,0c0,0-1.5,4.6-2.5,5.9C23.1,35,21,37.8,21,37.8h-1.3L19,50.4h1.2
			c0.4,0,0.8,0.2,1.1,0.5l1.9,2c0.4,0.4,0.8,0.6,1.3,0.6h11.1c1.1,0,2-0.9,2-2c0-0.8-0.5-1.5-1.3-1.8h1.5c1.1,0,1.9-0.9,1.9-2
			c0-0.8-0.3-1.5-0.9-1.9H40c1.2,0,1.8-0.9,1.8-2C41.9,42.5,41.3,41.5,40.1,41.5z"/>
		<g id="XMLID_423_" class="st4">
			<path id="XMLID_564_" class="st44" d="M36.7,51.4H25.6c-0.5,0-1-0.2-1.3-0.6l-1.9-2c-0.3-0.3-0.7-0.5-1.1-0.5H20l-1,2h1.2
				c0.4,0,0.8,0.2,1.1,0.5l1.9,2c0.4,0.4,0.8,0.6,1.3,0.6h11.1c1.1,0,2-0.9,2-2c0-0.1,0-0.2,0-0.3C37.4,51.3,37,51.4,36.7,51.4z"/>
		</g>
		<path id="XMLID_747_" class="st3" d="M36.4,45.7h3.4c1.1,0,2-0.9,2-2l0,0c0-1.1-0.9-2-2-2h-3.4"/>
		<path id="XMLID_431_" class="st3" d="M35,49.6h2.7c1.1,0,2-0.9,2-2l0,0c0-1.1-0.9-2-2-2H35"/>
		<path id="XMLID_745_" class="st3" d="M34.8,49.6h0.8c1.1,0,2,0.9,2,2l0,0c0,1.1-0.9,2-2,2H24.4c-0.5,0-1-0.2-1.3-0.6l-2-2
			c-0.3-0.3-0.7-0.5-1.1-0.5h-1.2"/>
		<path id="XMLID_430_" class="st3" d="M35,41.7h4c1.1,0,2-0.9,2-2l0,0c0-1.1-0.9-2-2-2h-7.5h-4.7c0,0,1.6-4.1,1.6-6
			c0-0.9,0.2-2.7-0.3-3.5c-0.2-0.3-1.8-0.3-2,0c0,0-1.5,4.6-2.5,6c-0.6,0.8-2.7,3.6-2.7,3.6h-1.3"/>
		
			<linearGradient id="XMLID_38_" gradientUnits="userSpaceOnUse" x1="7.4071" y1="21.95" x2="19.3334" y2="21.95" gradientTransform="matrix(1 0 0 -1 0 66)">
			<stop  offset="0" style="stop-color:#6874E7"/>
			<stop  offset="0.9847" style="stop-color:#858EEC"/>
		</linearGradient>
		<path id="XMLID_551_" class="st55" d="M20,35.7H8.2v16.7H20c0.1,0,0.1,0,0.1-0.1V35.8C20.2,35.7,20.1,35.7,20,35.7z"/>
		<path id="XMLID_441_" class="st3" d="M42.3,10.5c7.4,0,13.4,6,13.4,13.4s-6,13.4-13.4,13.4"/>
		<path id="XMLID_440_" class="st51" d="M28.9,23.9c0-7.4,6-13.4,13.4-13.4"/>
		<line id="XMLID_442_" class="st3" x1="37.3" y1="20.8" x2="47.1" y2="20.8"/>
		<line id="XMLID_439_" class="st3" x1="37.4" y1="23.9" x2="47.2" y2="23.9"/>
		<line id="XMLID_444_" class="st3" x1="37.5" y1="27.1" x2="42.4" y2="27.1"/>
	</g>
	<g id="XMLID_153_" class="st0">
		<path id="XMLID_486_" class="st22" d="M48.1,39.7L37.3,36v-4.6c1.2-0.7,2.3-1.9,2.4-3.3l0.4-4.6c0.9-0.4,1.6-1.3,1.6-2.4
			c0-0.9-0.5-1.7-1.2-2.2l0.1-0.8c0-4.9-3.9-8.8-8.8-8.8s-8.3,3.9-8.3,8.8l0.1,0.8c-0.6,0.5-1,1.2-1,2.1c0,1.1,0.7,2,1.6,2.4
			l0.6,4.8c0.1,1.4,0.9,2.7,2.2,3.3l0.1,0.9v3.5L16,39.7c-1,0.4-1.7,1.4-1.7,2.5v12.9H50V42.3C49.9,41.1,49.2,40.1,48.1,39.7z"/>
		<path id="XMLID_150_" class="st22" d="M48.1,39.7L37.3,36v-4.6c1.2-0.7,2.3-1.9,2.4-3.3l0.4-4.6c0.9-0.4,1.6-1.3,1.6-2.4
			c0-0.9-0.5-1.7-1.2-2.2l0.1-0.8c0-4.9-3.9-8.8-8.8-8.8s-8.3,3.9-8.3,8.8l0.1,0.8c-0.6,0.5-1,1.2-1,2.1c0,1.1,0.7,2,1.6,2.4
			l0.6,4.8c0.1,1.4,0.9,2.7,2.2,3.3l0.1,0.9v3.5L16,39.7c-1,0.4-1.7,1.4-1.7,2.5v12.9H50V42.3C49.9,41.1,49.2,40.1,48.1,39.7z"/>
		<path id="XMLID_160_" class="st6" d="M37.3,36l10.8,3.7c1.1,0.4,1.8,1.4,1.8,2.5V55H14.1V42.1c0-1.1,0.7-2.1,1.7-2.5l11.1-3.8
			l4.8,8.6L37.3,36z"/>
		<path id="XMLID_487_" class="st7" d="M48.1,39.7L37.3,36l-2.2,3.5l9.1,3.1c0.9,0.3,1.5,1.2,1.5,2.1V55h4.2V42.2
			C49.9,41.1,49.2,40.1,48.1,39.7z"/>
		<polyline id="XMLID_157_" class="st3" points="27.1,31.3 27.1,36.2 29.8,40.4 		"/>
		<polyline id="XMLID_161_" class="st3" points="37.1,31.3 37.1,36.7 34.3,40.4 		"/>
		<path id="XMLID_162_" class="st3" d="M40.5,19.3l0.1-1.8c0-4.7-3.8-8.5-8.5-8.5s-8.5,3.8-8.5,8.5l0.1,1.8h-0.1
			c-1,0-1.7,0.9-1.5,1.9l0.1,0.3c0.2,0.9,1,1.6,1.9,1.7l0.4,4.5c0.1,1.4,0.9,2.6,2.1,3.3l4.1,2.7h2.7l4.3-2.7c1.2-0.6,2-1.9,2.1-3.3
			l0.4-4.5c0.8-0.2,1.4-0.9,1.6-1.7l0.1-0.3C42.1,20.3,41.4,19.4,40.5,19.3z"/>
		
			<linearGradient id="XMLID_39_" gradientUnits="userSpaceOnUse" x1="29.2125" y1="16.55" x2="34.6003" y2="16.55" gradientTransform="matrix(1 0 0 -1 0 66)">
			<stop  offset="0" style="stop-color:#6874E7"/>
			<stop  offset="0.4803" style="stop-color:#747FE9"/>
			<stop  offset="0.9847" style="stop-color:#858EEC"/>
		</linearGradient>
		<polygon id="XMLID_156_" class="st56" points="33.8,43.9 34.6,55 29.2,55 30.3,43.9 		"/>
		<polyline id="XMLID_165_" class="st3" points="19.5,48.3 25.4,48.3 25.4,52.3 24.1,54 22.4,54 		"/>
		<line id="XMLID_166_" class="st3" x1="23.5" y1="45.3" x2="23.5" y2="48.3"/>
		
			<linearGradient id="XMLID_41_" gradientUnits="userSpaceOnUse" x1="29.2213" y1="24.75" x2="34.8318" y2="24.75" gradientTransform="matrix(1 0 0 -1 0 66)">
			<stop  offset="0" style="stop-color:#6874E7"/>
			<stop  offset="0.4803" style="stop-color:#747FE9"/>
			<stop  offset="0.9847" style="stop-color:#858EEC"/>
		</linearGradient>
		<path id="XMLID_151_" class="st57" d="M30.3,43.9l-1.1-3.3l0,0l2.8-2l0,0l2.8,2l0,0l-1.1,3.3H30.3z"/>
		<line id="XMLID_482_" class="st3" x1="30.3" y1="43.9" x2="33.8" y2="43.9"/>
	</g>
	<g id="XMLID_51_" class="st0">
		<g id="XMLID_48_" class="st4">
			<path id="XMLID_515_" class="st33" d="M36.7,24.9c0-7.6-6.1-13.7-13.7-13.7S9.3,17.3,9.3,24.9c0,4.8,2.5,9.1,6.3,11.5v3.4h14.9
				v-3.4C34.2,34,36.7,29.8,36.7,24.9z"/>
			<path id="XMLID_514_" class="st32" d="M23,11.2c-0.7,0-1.4,0.1-2.1,0.2c6.6,1,11.7,6.7,11.7,13.5c0,4.8-2.5,9.1-6.3,11.5v3.4h4.1
				v-3.4c3.8-2.4,6.3-6.7,6.3-11.5C36.7,17.4,30.6,11.2,23,11.2z"/>
			
				<linearGradient id="XMLID_42_" gradientUnits="userSpaceOnUse" x1="13.2267" y1="21.2" x2="32.6576" y2="21.2" gradientTransform="matrix(1 0 0 -1 0 66)">
				<stop  offset="0" style="stop-color:#6874E7"/>
				<stop  offset="0.4803" style="stop-color:#747FE9"/>
				<stop  offset="0.9847" style="stop-color:#858EEC"/>
			</linearGradient>
			<polygon id="XMLID_513_" class="st58" points="31.5,49.7 14.4,49.7 13.2,47.2 13.2,39.9 32.7,39.9 32.7,47.1 			"/>
			
				<linearGradient id="XMLID_43_" gradientUnits="userSpaceOnUse" x1="20.2" y1="14.75" x2="25.6753" y2="14.75" gradientTransform="matrix(1 0 0 -1 0 66)">
				<stop  offset="0" style="stop-color:#6874E7"/>
				<stop  offset="0.4803" style="stop-color:#747FE9"/>
				<stop  offset="0.9847" style="stop-color:#858EEC"/>
			</linearGradient>
			<rect id="XMLID_511_" x="20.2" y="49.7" class="st59" width="5.5" height="3.1"/>
			<polygon id="XMLID_510_" class="st5" points="31.5,49.7 14.4,49.7 13.2,47.2 13.2,39.9 32.7,39.9 32.7,47.1 			"/>
			<rect id="XMLID_485_" x="20.2" y="49.7" class="st5" width="5.5" height="3.1"/>
			<line id="XMLID_484_" class="st5" x1="13.2" y1="44.8" x2="21.7" y2="44.8"/>
		</g>
		<path id="XMLID_141_" class="st60" d="M26.9,22.1c0-2.1-1.7-3.8-3.8-3.8s-3.8,1.7-3.8,3.8c0,1.3,0.7,2.5,1.7,3.2v6.1h4.2v-6.1
			C26.3,24.6,26.9,23.4,26.9,22.1z"/>
		<path id="XMLID_50_" class="st3" d="M50.9,20.8c2.1,0,3.8,1.7,3.8,3.8s-1.7,3.8-3.8,3.8"/>
		<line id="XMLID_55_" class="st3" x1="23.1" y1="24.6" x2="44.3" y2="24.6"/>
		<path id="XMLID_13_" class="st6" d="M47.7,31.8h-0.3c-2,0-3.7-1.6-3.7-3.7V21c0-2,1.6-3.7,3.7-3.7h0.3c2,0,3.7,1.6,3.7,3.7v7.1
			C51.4,30.2,49.8,31.8,47.7,31.8z"/>
		<line id="XMLID_49_" class="st3" x1="47.6" y1="20.8" x2="47.6" y2="28.3"/>
	</g>
	<g id="XMLID_334_" class="st0">
		
			<linearGradient id="XMLID_45_" gradientUnits="userSpaceOnUse" x1="25.0558" y1="19.7" x2="38.9442" y2="19.7" gradientTransform="matrix(1 0 0 -1 0 66)">
			<stop  offset="0" style="stop-color:#6874E7"/>
			<stop  offset="0.4803" style="stop-color:#747FE9"/>
			<stop  offset="0.9847" style="stop-color:#858EEC"/>
		</linearGradient>
		<path id="XMLID_556_" class="st61" d="M25.1,38.2v16.1c0,0.1,0.1,0.1,0.1,0.1l6.8-3.1l6.8,3.1c0,0,0.1,0,0.1-0.1V38.2H25.1z"/>
		<path id="XMLID_558_" class="st17" d="M25.1,42.3c0.6,0.1,1.2,0.3,1.7,0.5c1.7,0.7,3.3,2.6,5.3,2.6s3.5-1.9,5.3-2.6
			c0.5-0.2,1.1-0.4,1.7-0.5v-4.1h-14V42.3z"/>
		<path id="XMLID_345_" class="st6" d="M47.3,28.6c0,2-1.9,3.5-2.6,5.3c-0.7,1.8-0.6,4.2-1.9,5.5c-1.3,1.3-3.8,1.2-5.5,1.9
			C35.5,42,34,43.8,32,43.8s-3.5-1.9-5.3-2.6c-1.8-0.7-4.2-0.6-5.5-1.9c-1.3-1.3-1.2-3.8-1.9-5.5c-0.7-1.7-2.6-3.3-2.6-5.3
			s1.9-3.5,2.6-5.3s0.6-4.2,1.9-5.5s3.8-1.2,5.5-1.9c1.7-0.7,3.3-2.6,5.3-2.6s3.5,1.9,5.3,2.6s4.2,0.6,5.5,1.9s1.2,3.8,1.9,5.5
			C45.4,25,47.3,26.6,47.3,28.6z"/>
		<path id="XMLID_349_" class="st3" d="M38.9,42.2v12.1c0,0.1-0.1,0.1-0.1,0.1L32,51.3l-6.8,3.1c0,0-0.1,0-0.1-0.1V42.2"/>
		<path id="XMLID_350_" class="st12" d="M20.3,43.4c-4.4-3.5-7.2-8.8-7.2-14.9c0-10.4,8.5-18.9,18.9-18.9s18.9,8.5,18.9,18.9
			c0,6-2.8,11.4-7.2,14.9"/>
		<path id="XMLID_718_" class="st1" d="M34.5,32.8v-3.3c0.5-0.3,0.9-0.8,0.9-1.4l0.4-4.5c0-2.1-1.7-3.8-3.8-3.8s-3.8,1.7-3.8,3.8
			l0.4,4.5c0,0.6,0.4,1.2,0.9,1.4l0.2,0.2v3l-6,2.4v2.6H40v-2.4L34.5,32.8z"/>
		<g id="XMLID_346_" class="st4">
			<path id="XMLID_357_" class="st5" d="M23.8,37.6v-1.9c0-0.4,0.3-0.8,0.6-0.9l5.2-1.8v-2.9"/>
			<path id="XMLID_355_" class="st5" d="M40.2,37.6v-1.9c0-0.4-0.3-0.8-0.6-0.9L34.3,33v-2.9"/>
			<path id="XMLID_354_" class="st5" d="M36,23.5c0-2.2-1.8-4-4-4s-4,1.8-4,4l0.4,4.7c0,0.6,0.4,1.2,1,1.5l1.9,1.3h1.3l2-1.3
				c0.6-0.3,0.9-0.9,1-1.5L36,23.5z"/>
			<polyline id="XMLID_347_" class="st5" points="29.7,33 31.2,34.7 32.9,34.7 34.4,33 			"/>
		</g>
	</g>
	<g id="XMLID_288_" class="st0">
		
			<linearGradient id="XMLID_46_" gradientUnits="userSpaceOnUse" x1="18.4994" y1="27.1133" x2="50.9744" y2="27.1133" gradientTransform="matrix(1 0 0 -1 0 66)">
			<stop  offset="0" style="stop-color:#6874E7"/>
			<stop  offset="0.4803" style="stop-color:#747FE9"/>
			<stop  offset="0.9847" style="stop-color:#858EEC"/>
		</linearGradient>
		<path id="XMLID_553_" class="st62" d="M50.9,35.5h-1.3c-0.8,0-1.5-0.6-1.7-1.3c-0.5-1.8-1.5-3.5-2.8-4.9c0,0-0.1-0.1-0.3-0.2
			l1.4-4.9c0-0.2-0.2-0.4-0.4-0.3c-0.9,0.3-2.9,0.8-4.4,2.6c-1.2-0.9-2.5-1.7-3.6-2.2c0,0-6.9-1.7-14,3.1c-3.4,2.3-5.4,6-5.4,10.1
			c0,3.2,1.3,6.2,3.6,8.4v7.9c0,0.1,0,0.1,0.1,0.1h7.3c0.1,0,0.1,0,0.1-0.1V50c1.3,0.3,2.6,0.5,3.9,0.5c0.8,0,1.7-0.1,2.5-0.2v3.5
			c0,0.1,0,0.1,0.1,0.1h7.3c0.1,0,0.1,0,0.1-0.1v-6.6c1.6-1.2,2.8-2.7,3.7-4.3c0.3-0.6,1-1,1.7-1H51l0,0L50.9,35.5
			C51,35.5,51,35.5,50.9,35.5z"/>
		<path id="XMLID_557_" class="st17" d="M19.7,42.3c0.6,1.2,1.4,2.4,2.4,3.4v7.9c0,0.1,0,0.1,0.1,0.1h7.3c0.1,0,0.1,0,0.1-0.1v-3.8
			c1.3,0.3,2.6,0.5,3.9,0.5c0.8,0,1.7-0.1,2.5-0.2v3.5c0,0.1,0,0.1,0.1,0.1h7.3c0.1,0,0.1,0,0.1-0.1V47c1.6-1.2,2.8-2.7,3.7-4.3
			c0.3-0.6,1-1,1.7-1h2.2l0,0v-4.1C44.7,40.9,31.9,46.2,19.7,42.3z"/>
		<path id="XMLID_416_" class="st3" d="M23.9,27.3c-3.3,2.4-5.4,6-5.4,10.1c0,3.2,1.3,6.2,3.6,8.4v7.9c0,0.1,0,0.1,0.1,0.1h7.3
			c0.1,0,0.1,0,0.1-0.1v-3.8c1.3,0.3,2.6,0.5,3.9,0.5c0.8,0,1.7-0.1,2.5-0.2v3.5c0,0.1,0,0.1,0.1,0.1h7.3c0.1,0,0.1,0,0.1-0.1v-6.6
			c1.6-1.2,2.8-2.7,3.7-4.3c0.3-0.6,1-1,1.7-1h2.2l0,0v-6.1l0,0h-1.3c-0.8,0-1.5-0.6-1.7-1.3c-0.5-1.8-1.5-3.5-2.8-4.9"/>
		<path id="XMLID_414_" class="st3" d="M41.7,26.4c-0.5-0.3-1.1-0.6-1.6-0.8"/>
		<line id="XMLID_419_" class="st3" x1="26" y1="31.6" x2="38.6" y2="31.6"/>
		<path id="XMLID_411_" class="st3" d="M18.5,37.3c-0.9,1.2-2.3,2-3.8,1.9c-0.2,0-0.4,0-0.6-0.1c-0.3-0.2-0.4-0.5-0.6-0.8
			c-0.2-0.5-0.5-1.1-0.4-1.7c0-0.6,0.3-1.2,0.9-1.4c0.5-0.2,1.1,0,1.5,0.4s0.5,1,0.5,1.5c0,1.7-1.3,3.3-2.9,3.6"/>
		<line id="XMLID_415_" class="st3" x1="40.1" y1="35.1" x2="41.8" y2="35.1"/>
		<path id="XMLID_420_" class="st3" d="M40.4,28.3c1.3-3.4,4.3-4,5.5-4.5c0.2-0.1,0.4,0.1,0.4,0.3L44.4,31"/>
		<path id="XMLID_554_" class="st17" d="M39.3,24.9c-0.5-0.3-1-0.6-1.4-0.8c0,0-6.3-1.5-13,2.5c1.6,1.8,4,2.9,6.6,2.9
			C34.9,29.6,37.8,27.7,39.3,24.9z"/>
		<circle id="XMLID_294_" class="st6" cx="31.5" cy="19.1" r="9"/>
		<path id="XMLID_555_" class="st7" d="M31.5,10.2c-2.7,0-5.2,1.2-6.8,3.1c1.6-1.3,3.6-2.1,5.8-2.1c4.9,0,9,4,9,9
			c0,2.2-0.8,4.2-2.1,5.8c1.9-1.6,3.1-4.1,3.1-6.8C40.4,14.2,36.4,10.2,31.5,10.2z"/>
		<g id="XMLID_300_" class="st4">
			<path id="XMLID_303_" class="st5" d="M34.9,14.9h-4.3c-1.2,0-2.1,1-2.1,2.1l0,0c0,1.2,1,2.1,2.1,2.1h2.1c1.2,0,2.1,1,2.1,2.1l0,0
				c0,1.2-1,2.1-2.1,2.1h-4.5"/>
			<line id="XMLID_302_" class="st5" x1="31.7" y1="12.7" x2="31.7" y2="14.9"/>
			<line id="XMLID_301_" class="st5" x1="31.7" y1="23.5" x2="31.7" y2="25.6"/>
		</g>
	</g>
</g>
<g id="headline">
	<g id="XMLID_1_">
		
			<text id="XMLID_456_" transform="matrix(1 0 0 1 145.8653 -193.9056)" class="st64" style="font-family:'ArialMT'; font-size:12px;">BUSINESS &amp; FINANCE</text>
	</g>
	<g id="XMLID_58_">
		<text transform="matrix(1 0 0 1 -169.5263 -221.0997)" class="st64" style="font-family:'ArialMT'; font-size:22.512px;">FLAT </text>
		<text transform="matrix(1 0 0 1 -124.0263 -221.0997)" class="st65" style="font-family:'ArialMT'; font-size:22.512px;">LINE </text>
		<text transform="matrix(1 0 0 1 -169.5263 -194.0997)" class="st33" style="font-family:'ArialMT'; font-size:22.512px;">COLOR</text>
		<text transform="matrix(1 0 0 1 -113.6263 -194.0997)" class="st64" style="font-family:'ArialMT'; font-size:22.512px;"> </text>
		<text transform="matrix(1 0 0 1 -109.2263 -194.0997)" class="st64" style="font-family:'ArialMT'; font-size:22.512px;">ICONS</text>
	</g>
</g>
</svg>
