<?xml version="1.0" encoding="utf-8"?>
<!-- Generator: Adobe Illustrator 19.2.0, SVG Export Plug-In . SVG Version: 6.00 Build 0)  -->
<svg version="1.1" id="Layer_1" xmlns="http://www.w3.org/2000/svg" xmlns:xlink="http://www.w3.org/1999/xlink" x="0px" y="0px"
	 viewBox="0 0 512 512" style="enable-background:new 0 0 512 512;" xml:space="preserve">
<style type="text/css">
	.st0{fill:#FFFFFF;}
	.st1{fill:#4A555F;}
	.st2{fill:#E89B3E;}
	.st3{fill:#C1DFF3;}
	.st4{fill:#E0E0E0;}
	.st5{fill:#FBE2C9;}
</style>
<g>
	<g>
		<g>
			<path class="st0" d="M386.6,241.3c-11.4-5.4-23.8-6.1-35-2.7v94c22.7,6.8,47.7-3.8,58.2-25.9C421.4,282.2,411,252.9,386.6,241.3z
				"/>
		</g>
	</g>
	<g>
		<g>
			<path class="st0" d="M275.2,194L275.2,194H345v-29h-69.8v-10.3h-43.9V165h-69.5v29h69.5l0,0h-69.5v177.7c0,9,7.3,16.3,16.3,16.3
				h150.6c9,0,16.3-7.3,16.3-16.3V194L275.2,194z"/>
		</g>
	</g>
	<g>
		<g>
			<path class="st1" d="M365.9,325.2v-3.7c1.2,0,2.3-0.1,3.5-0.2l0.4,3.6C368.5,325.1,367.2,325.2,365.9,325.2z M362.1,325.1
				c-1.3-0.1-2.5-0.3-3.8-0.5l0.7-3.6c1.1,0.2,2.3,0.4,3.4,0.5L362.1,325.1z M373.5,324.4l-0.7-3.6c1.1-0.2,2.3-0.5,3.4-0.9l1.1,3.5
				C376,323.8,374.8,324.1,373.5,324.4z M354.5,323.7c-1.2-0.4-2.4-0.8-3.6-1.2l1.4-3.4c1.1,0.4,2.2,0.8,3.3,1.1L354.5,323.7z
				 M380.9,322.1l-1.4-3.4c1.1-0.4,2.1-1,3.1-1.5l1.7,3.2C383.2,321.1,382,321.6,380.9,322.1z M387.6,318.5l-2-3
				c1-0.6,1.9-1.3,2.8-2.1l2.3,2.8C389.7,317,388.7,317.8,387.6,318.5z M393.5,313.7l-2.6-2.6c0.8-0.8,1.6-1.7,2.3-2.6l2.8,2.3
				C395.3,311.8,394.4,312.8,393.5,313.7z M398.4,307.7l-3-2c0.6-1,1.3-2,1.8-3l3.2,1.7C399.8,305.6,399.1,306.7,398.4,307.7z
				 M402.1,301l-3.4-1.4c0.5-1.1,0.9-2.2,1.2-3.3l3.5,1.1C403,298.6,402.6,299.8,402.1,301z M404.4,293.7l-3.6-0.8
				c0.2-1.1,0.4-2.3,0.5-3.4l3.6,0.4C404.8,291.2,404.6,292.4,404.4,293.7z M405.2,286.1l-3.7-0.1v-0.4c0-1,0-2.1-0.1-3.1l3.6-0.3
				c0.1,1.1,0.1,2.2,0.1,3.4L405.2,286.1z M400.9,279.1c-0.2-1.1-0.5-2.3-0.8-3.4l3.5-1c0.4,1.2,0.6,2.5,0.9,3.7L400.9,279.1z
				 M399,272.4c-0.4-1.1-0.9-2.1-1.4-3.2l3.3-1.7c0.6,1.1,1.1,2.3,1.6,3.5L399,272.4z M395.9,266.2c-0.6-1-1.3-1.9-2-2.8l2.9-2.3
				c0.8,1,1.5,2.1,2.2,3.1L395.9,266.2z M391.6,260.7c-0.8-0.8-1.6-1.6-2.5-2.4l2.4-2.8c1,0.8,1.9,1.7,2.8,2.6L391.6,260.7z
				 M386.3,256.2c-0.9-0.7-1.9-1.3-2.9-1.9l1.8-3.2c1.1,0.6,2.2,1.3,3.2,2.1L386.3,256.2z M380.3,252.7c-1.1-0.5-2.1-0.9-3.2-1.3
				l1.2-3.5c1.2,0.4,2.4,0.9,3.6,1.4L380.3,252.7z M356.5,250.7l-0.9-3.5c1.2-0.3,2.5-0.6,3.8-0.8l0.6,3.6
				C358.7,250.2,357.6,250.4,356.5,250.7z M373.7,250.5c-1.1-0.3-2.3-0.5-3.4-0.6l0.5-3.6c1.3,0.2,2.5,0.4,3.8,0.7L373.7,250.5z
				 M363.3,249.6l-0.2-3.7c1.3-0.1,2.6-0.1,3.8-0.1l-0.1,3.7C365.7,249.5,364.5,249.6,363.3,249.6z"/>
		</g>
	</g>
	<g>
		<g>
			<path class="st1" d="M365.7,336.5c-4.9,0-9.8-0.7-14.7-2.2l1-3.5c22.4,6.7,46-3.8,56-25c5.4-11.4,6.1-24.2,1.9-36.1
				s-12.8-21.4-24.2-26.8c-10.5-5-22.5-6-33.7-2.6l-1-3.5c12.1-3.6,25-2.6,36.3,2.8c12.3,5.8,21.5,16.1,26.1,28.9
				c4.5,12.8,3.8,26.6-2,38.9C402.8,325.6,384.9,336.5,365.7,336.5z"/>
		</g>
	</g>
	<g>
		<g>
			<path class="st2" d="M380.4,273.5l-2.9-1.4l3.2-6.8l-4.2-2l-3.2,6.8l-2.7-1.3l0,0l3.2-6.8l-4.2-2l-3.2,6.8l-3.4-1.6l0,0l-5.1-2.4
				l-2.2,4.5l3.2,1.5c0,0,2.1,0.6,1,2.8l-8.3,17.5v17.3l0.9,0.4l3.2-6.7l0,0V300l2.7,1.3l-3.2,6.8l4.2,2l3.2-6.8l4.1,2
				c2.4,1.1,5,1.2,7.3,0.4c2.3-0.8,4.3-2.5,5.4-4.9c2.3-4.7,0.3-10.4-4.4-12.7c1.6,0.4,3.2,0.3,4.6-0.2c1.9-0.7,3.5-2.1,4.4-4
				C386,280,384.3,275.3,380.4,273.5z M371.2,296c-0.6,1.2-1.6,2.1-2.8,2.6c-1.2,0.4-2.6,0.4-3.8-0.2l-6.5-3.1l4.3-9l6.5,3.1
				C371.4,290.5,372.4,293.5,371.2,296z M375.2,282c-0.5,1.1-1.5,2-2.6,2.4s-2.4,0.4-3.5-0.2l-4.6-2.2l4-8.3l4.6,2.2
				C375.3,276.9,376.3,279.7,375.2,282z"/>
		</g>
	</g>
	<g>
		<g>
			<circle class="st3" cx="390.5" cy="351.9" r="5.7"/>
		</g>
	</g>
	<g>
		<g>
			<circle class="st4" cx="116.9" cy="360.6" r="5.2"/>
		</g>
	</g>
	<g>
		<g>
			<circle class="st2" cx="106.3" cy="240.3" r="10.7"/>
		</g>
	</g>
	<g>
		<g>
			<path class="st1" d="M328.7,389.9H178.1c-10,0-18.2-8.2-18.2-18.2V192.2h186.9v179.5C346.9,381.7,338.7,389.9,328.7,389.9z
				 M163.6,195.8v175.9c0,8,6.5,14.5,14.5,14.5h150.6c8,0,14.5-6.5,14.5-14.5V195.8L163.6,195.8z"/>
		</g>
	</g>
	<g>
		<g>
			<path class="st1" d="M346.9,195.8H160v-32.7h186.9V195.8z M163.6,192.2h179.6v-25.4H163.6V192.2z"/>
		</g>
	</g>
	<g>
		<g>
			<rect x="167.9" y="171.1" class="st5" width="171.1" height="16.9"/>
		</g>
	</g>
	<g>
		<g>
			<path class="st2" d="M178.1,382c-5.6,0-10.2-4.6-10.2-10.2V200.2H339v171.6c0,5.6-4.6,10.2-10.2,10.2H178.1z"/>
		</g>
	</g>
	<g>
		<g>
			<polygon class="st0" points="189.9,382 186.2,382 186.2,334.5 204,313.3 204,237.7 207.6,237.7 207.6,314.6 189.9,335.8 			"/>
		</g>
	</g>
	<g>
		<g>
			<path class="st0" d="M205.8,249.4c-6.5,0-11.8-5.3-11.8-11.8s5.3-11.8,11.8-11.8s11.8,5.3,11.8,11.8
				C217.6,244.1,212.3,249.4,205.8,249.4z M205.8,229.5c-4.5,0-8.1,3.6-8.1,8.1s3.6,8.1,8.1,8.1s8.1-3.6,8.1-8.1
				C213.9,233.2,210.3,229.5,205.8,229.5z"/>
		</g>
	</g>
	<g>
		<g>
			<circle class="st0" cx="205.8" cy="237.7" r="5"/>
		</g>
	</g>
	<g>
		<g>
			<circle class="st0" cx="226.3" cy="307.2" r="5"/>
		</g>
	</g>
	<g>
		<g>
			<circle class="st0" cx="275.2" cy="289.1" r="5"/>
		</g>
	</g>
	<g>
		<g>
			<polygon class="st0" points="244.8,382 241.1,382 241.1,357.1 224.5,335.5 224.5,309.6 228.2,309.6 228.2,334.3 244.8,355.8 			
				"/>
		</g>
	</g>
	<g>
		<g>
			<path class="st0" d="M253.3,269.7L253.3,269.7c-12.1,0-22-9.8-22-22v-93.1h43.9v93.1C275.2,259.8,265.4,269.7,253.3,269.7z"/>
		</g>
	</g>
	<g>
		<g>
			<path class="st3" d="M237.4,194v53.7c0,8.7,7.1,15.9,15.9,15.9c8.7,0,15.9-7.1,15.9-15.9V194L237.4,194z"/>
		</g>
	</g>
	<g>
		<g>
			<path class="st1" d="M253.3,271.5c-13.1,0-23.8-10.7-23.8-23.8v-94.9h47.6v94.9C277,260.8,266.4,271.5,253.3,271.5z M233.1,156.5
				v91.2c0,11.1,9,20.1,20.1,20.1s20.1-9,20.1-20.1v-91.2L233.1,156.5L233.1,156.5z"/>
		</g>
	</g>
	<g>
		<g>
			<circle class="st2" cx="253.3" cy="245" r="8.4"/>
		</g>
	</g>
	<g>
		<g>
			<polygon class="st0" points="292.4,351.5 288.8,351.5 288.8,325.8 317.1,292.3 317.1,266.2 297.6,244.5 297.6,200.6 301.2,200.6 
				301.2,243.1 320.7,264.8 320.7,293.7 292.4,327.2 			"/>
		</g>
	</g>
	<g>
		<g>
			<circle class="st0" cx="290.6" cy="351.5" r="7.5"/>
		</g>
	</g>
	<g>
		<g>
			<path class="st0" d="M290.6,366.8c-8.4,0-15.2-6.8-15.2-15.2s6.8-15.2,15.2-15.2c8.4,0,15.2,6.8,15.2,15.2S299,366.8,290.6,366.8
				z M290.6,340c-6.4,0-11.6,5.2-11.6,11.6s5.2,11.6,11.6,11.6s11.6-5.2,11.6-11.6S297,340,290.6,340z"/>
		</g>
	</g>
	<g>
		<g>
			<polygon class="st0" points="261.9,382 258.2,382 258.2,316 273.4,301.5 273.4,289.1 277,289.1 277,303.1 261.9,317.6 			"/>
		</g>
	</g>
	<g>
		<g>
			<g>
				<path class="st1" d="M154.8,167.9l6.1-2.9l0,0L154.8,167.9z"/>
			</g>
		</g>
	</g>
	<g>
		<g>
			<g>
				<path class="st0" d="M160,217.4c-21.2-0.5-40.1-15.4-44.6-37.1c-5.3-25.2,10.9-50,36.1-55.3s50,10.9,55.3,36.1
					c2.3,11,0.5,21.9-4.3,31.2H160V217.4z"/>
			</g>
		</g>
		<g>
			<g>
				<path class="st1" d="M160,219.2c-22.7-0.5-41.7-16.3-46.4-38.5c-2.7-12.7-0.2-25.7,6.9-36.5c7.1-10.9,18-18.3,30.7-21
					s25.7-0.2,36.5,6.9c10.9,7.1,18.3,18,21,30.7c2.3,11,0.7,22.5-4.5,32.4l-3.2-1.7c4.8-9.2,6.3-19.8,4.1-30
					c-2.5-11.7-9.4-21.8-19.4-28.4c-10-6.6-22-8.8-33.8-6.3c-11.7,2.5-21.8,9.4-28.4,19.4s-8.8,22-6.3,33.8
					c4.3,20.5,21.9,35.2,42.9,35.6L160,219.2z"/>
			</g>
		</g>
		<g>
			<g>
				<path class="st1" d="M160,219.2c-22.7-0.5-41.7-16.3-46.4-38.5c-2.7-12.7-0.2-25.7,6.9-36.5c7.1-10.9,18-18.3,30.7-21
					s25.7-0.2,36.5,6.9c10.9,7.1,18.3,18,21,30.7c2.3,11,0.7,22.5-4.5,32.4l-3.2-1.7c4.8-9.2,6.3-19.8,4.1-30
					c-2.5-11.7-9.4-21.8-19.4-28.4c-10-6.6-22-8.8-33.8-6.3c-11.7,2.5-21.8,9.4-28.4,19.4s-8.8,22-6.3,33.8
					c4.3,20.5,21.9,35.2,42.9,35.6L160,219.2z"/>
			</g>
		</g>
		<g>
			<g>
				<path class="st3" d="M193.5,192.3h-33.4v17.3c-17.6-0.5-33.2-13-37-30.9c-4.4-21,9.1-41.7,30.1-46.1c21-4.4,41.7,9.1,46.1,30.1
					C201.4,173.3,199.1,183.9,193.5,192.3z"/>
			</g>
		</g>
		<g>
			<g>
				<g>
					<polygon class="st0" points="176.4,164.5 159.4,160.5 158.5,160.7 144.6,171.2 155,141.6 					"/>
				</g>
			</g>
		</g>
		<g>
			<g>
				<g>
					<polygon class="st0" points="177.1,170.7 167.5,192.3 163.1,192.3 146.4,177.1 162.8,181 163.7,180.9 					"/>
				</g>
			</g>
		</g>
		<g>
			<g>
				<g>
					<polygon class="st0" points="158.5,163.4 161.4,177.4 144.9,173.7 151.5,168.6 					"/>
				</g>
			</g>
		</g>
		<g>
			<g>
				<g>
					<polygon class="st0" points="177.1,166.9 163.5,177 160.6,162.9 169,165 					"/>
				</g>
			</g>
		</g>
	</g>
	<g>
		<g>
			<g>
				<rect x="388.7" y="175" class="st1" width="3.7" height="6.9"/>
			</g>
		</g>
		<g>
			<g>
				<rect x="388.7" y="194.1" class="st1" width="3.7" height="6.9"/>
			</g>
		</g>
		<g>
			<g>
				<rect x="396.6" y="186.2" class="st1" width="6.9" height="3.7"/>
			</g>
		</g>
		<g>
			<g>
				<rect x="377.5" y="186.2" class="st1" width="6.9" height="3.7"/>
			</g>
		</g>
	</g>
	<g>
		<g>
			<g>
				<rect x="124.4" y="294.2" class="st1" width="3.7" height="6.9"/>
			</g>
		</g>
		<g>
			<g>
				<rect x="124.4" y="313.3" class="st1" width="3.7" height="6.9"/>
			</g>
		</g>
		<g>
			<g>
				<rect x="132.3" y="305.4" class="st1" width="6.9" height="3.7"/>
			</g>
		</g>
		<g>
			<g>
				<rect x="113.2" y="305.4" class="st1" width="6.9" height="3.7"/>
			</g>
		</g>
	</g>
</g>
</svg>
